G75*
%MOIN*%
%OFA0B0*%
%FSLAX24Y24*%
%IPPOS*%
%LPD*%
%AMOC8*
5,1,8,0,0,1.08239X$1,22.5*
%
%ADD10R,0.0394X0.0433*%
%ADD11R,0.0472X0.0472*%
%ADD12R,0.0433X0.0394*%
%ADD13R,0.0630X0.0551*%
%ADD14R,0.0701X0.0402*%
%ADD15R,0.0551X0.0630*%
%ADD16R,0.0354X0.0138*%
%ADD17R,0.0984X0.0787*%
%ADD18R,0.1299X0.0197*%
%ADD19R,0.0453X0.0173*%
%ADD20R,0.0453X0.0248*%
%ADD21R,0.0640X0.0640*%
%ADD22OC8,0.0640*%
%ADD23R,0.0550X0.0137*%
%ADD24R,0.0472X0.0217*%
%ADD25R,0.0740X0.0740*%
%ADD26OC8,0.0740*%
%ADD27C,0.0740*%
%ADD28C,0.0120*%
%ADD29C,0.0100*%
%ADD30C,0.0400*%
%ADD31C,0.0450*%
%ADD32C,0.0160*%
%ADD33C,0.1660*%
%ADD34C,0.0320*%
%ADD35C,0.0200*%
%ADD36C,0.0240*%
%ADD37C,0.0500*%
%ADD38C,0.0400*%
D10*
X014860Y007337D03*
X015529Y007337D03*
X011294Y010503D03*
X011294Y011172D03*
X008107Y014611D03*
X008107Y015281D03*
X010209Y017904D03*
X010878Y017904D03*
X014146Y017904D03*
X014815Y017904D03*
X018083Y017904D03*
X018752Y017904D03*
X022020Y017904D03*
X022689Y017904D03*
X020994Y015281D03*
X020994Y014611D03*
X019794Y014611D03*
X019794Y015281D03*
X016607Y015281D03*
X016607Y014611D03*
X022460Y010087D03*
X023129Y010087D03*
D11*
X023910Y017904D03*
X024737Y017904D03*
X020800Y017904D03*
X019973Y017904D03*
X016863Y017904D03*
X016036Y017904D03*
X012926Y017904D03*
X012099Y017904D03*
D12*
X016360Y008046D03*
X017029Y008046D03*
X013979Y007337D03*
X013310Y007337D03*
X012529Y007337D03*
X011860Y007337D03*
X025860Y007337D03*
X026529Y007337D03*
D13*
X023385Y010987D03*
X022204Y010987D03*
D14*
X011607Y014595D03*
X011607Y015296D03*
D15*
X013107Y015536D03*
X013107Y014355D03*
D16*
X022643Y007305D03*
X022643Y007049D03*
X022643Y006793D03*
X022643Y006537D03*
X022643Y006281D03*
X022643Y006026D03*
X022643Y005770D03*
X024946Y005770D03*
X024946Y006026D03*
X024946Y006281D03*
X024946Y006537D03*
X024946Y006793D03*
X024946Y007049D03*
X024946Y007305D03*
D17*
X003890Y008691D03*
X001725Y008691D03*
X001725Y012195D03*
X003890Y012195D03*
D18*
X004126Y011073D03*
X004126Y010758D03*
X004126Y010443D03*
X004126Y010128D03*
X004126Y009813D03*
D19*
X022411Y008745D03*
X022411Y008430D03*
X023178Y008430D03*
X023178Y008745D03*
X023178Y012430D03*
X023178Y012745D03*
X022411Y012745D03*
X022411Y012430D03*
X022411Y014430D03*
X022411Y014745D03*
X023178Y014745D03*
X023178Y014430D03*
D20*
X023178Y014078D03*
X022411Y014078D03*
X022411Y013097D03*
X023178Y013097D03*
X023178Y012078D03*
X022411Y012078D03*
X022411Y009097D03*
X023178Y009097D03*
X023178Y008078D03*
X022411Y008078D03*
X022411Y015097D03*
X023178Y015097D03*
D21*
X027382Y009604D03*
X016418Y005699D03*
D22*
X017418Y005699D03*
X018418Y005699D03*
X019418Y005699D03*
X020418Y005699D03*
X026382Y009604D03*
X026382Y010604D03*
X027382Y010604D03*
X027382Y011604D03*
X026382Y011604D03*
X026382Y012604D03*
X027382Y012604D03*
X027382Y013604D03*
X026382Y013604D03*
D23*
X019884Y012151D03*
X019884Y011895D03*
X019884Y011639D03*
X019884Y011383D03*
X019884Y011127D03*
X019884Y010871D03*
X019884Y010615D03*
X019884Y010359D03*
X019884Y010104D03*
X019884Y009848D03*
X019884Y009592D03*
X019884Y009336D03*
X019884Y009080D03*
X019884Y008824D03*
X017005Y008824D03*
X017005Y009080D03*
X017005Y009336D03*
X017005Y009592D03*
X017005Y009848D03*
X017005Y010104D03*
X017005Y010359D03*
X017005Y010615D03*
X017005Y010871D03*
X017005Y011127D03*
X017005Y011383D03*
X017005Y011639D03*
X017005Y011895D03*
X017005Y012151D03*
X014934Y012151D03*
X014934Y011895D03*
X014934Y011639D03*
X014934Y011383D03*
X014934Y011127D03*
X014934Y010871D03*
X014934Y010615D03*
X014934Y010359D03*
X014934Y010104D03*
X014934Y009848D03*
X014934Y009592D03*
X014934Y009336D03*
X014934Y009080D03*
X014934Y008824D03*
X012055Y008824D03*
X012055Y009080D03*
X012055Y009336D03*
X012055Y009592D03*
X012055Y009848D03*
X012055Y010104D03*
X012055Y010359D03*
X012055Y010615D03*
X012055Y010871D03*
X012055Y011127D03*
X012055Y011383D03*
X012055Y011639D03*
X012055Y011895D03*
X012055Y012151D03*
D24*
X010619Y014572D03*
X010619Y014946D03*
X010619Y015320D03*
X009595Y015320D03*
X009595Y014572D03*
X014183Y014572D03*
X014183Y014946D03*
X014183Y015320D03*
X015206Y015320D03*
X015206Y014572D03*
X017906Y014572D03*
X017906Y014946D03*
X017906Y015320D03*
X018930Y015320D03*
X018930Y014572D03*
D25*
X009469Y020841D03*
X005335Y013951D03*
X014103Y003837D03*
X029229Y003230D03*
X033075Y014770D03*
X027367Y022644D03*
D26*
X028367Y022644D03*
X028367Y021644D03*
X027367Y021644D03*
X027367Y020644D03*
X028367Y020644D03*
X034075Y014770D03*
X034075Y013770D03*
X033075Y013770D03*
X033075Y012770D03*
X034075Y012770D03*
X031229Y004230D03*
X031229Y003230D03*
X030229Y003230D03*
X030229Y004230D03*
X029229Y004230D03*
X014103Y002837D03*
X013103Y002837D03*
X012103Y002837D03*
X012103Y003837D03*
X013103Y003837D03*
X004335Y013951D03*
X004335Y014951D03*
X005335Y014951D03*
X005335Y015951D03*
X004335Y015951D03*
X008469Y020841D03*
X008469Y021841D03*
X009469Y021841D03*
X009469Y022841D03*
X008469Y022841D03*
D27*
X017433Y018691D03*
X025307Y018691D03*
D28*
X023910Y017904D02*
X022689Y017904D01*
X022020Y017904D02*
X022020Y016686D01*
X021922Y016587D01*
X019973Y017904D02*
X018752Y017904D01*
X018083Y017904D02*
X018083Y017648D01*
X018418Y017313D01*
X018418Y012611D01*
X017446Y011639D01*
X017005Y011639D01*
X017005Y011895D02*
X017327Y011895D01*
X017906Y012474D01*
X017906Y013987D01*
X014444Y013987D01*
X014183Y014249D01*
X014183Y014249D01*
X014183Y014572D01*
X014294Y015321D02*
X010607Y015321D01*
X010607Y016321D01*
X011107Y016821D01*
X017732Y016821D01*
X017982Y016571D01*
X017982Y015321D01*
X017669Y015321D01*
X017669Y015883D01*
X017232Y016321D01*
X014607Y016321D01*
X014294Y016008D01*
X014294Y015321D01*
X014294Y015349D02*
X010607Y015349D01*
X010607Y015468D02*
X014294Y015468D01*
X014294Y015586D02*
X010607Y015586D01*
X010607Y015705D02*
X014294Y015705D01*
X014294Y015823D02*
X010607Y015823D01*
X010607Y015942D02*
X014294Y015942D01*
X014346Y016060D02*
X010607Y016060D01*
X010607Y016179D02*
X014465Y016179D01*
X014583Y016297D02*
X010607Y016297D01*
X010702Y016416D02*
X017982Y016416D01*
X017982Y016534D02*
X010820Y016534D01*
X010939Y016653D02*
X017900Y016653D01*
X017781Y016771D02*
X011057Y016771D01*
X010209Y016923D02*
X008944Y015659D01*
X008944Y014572D01*
X008949Y015167D01*
X011294Y014505D02*
X011296Y014511D01*
X011357Y014571D01*
X011857Y014571D01*
X011919Y014508D01*
X011919Y013321D01*
X009613Y011015D01*
X004872Y011015D01*
X004851Y011036D01*
X004570Y011036D01*
X004570Y011327D01*
X008372Y011390D01*
X009363Y011390D01*
X011294Y013321D01*
X011294Y014505D01*
X011306Y014520D02*
X011908Y014520D01*
X011919Y014401D02*
X011294Y014401D01*
X011294Y014283D02*
X011919Y014283D01*
X011919Y014164D02*
X011294Y014164D01*
X011294Y014046D02*
X011919Y014046D01*
X011919Y013927D02*
X011294Y013927D01*
X011294Y013809D02*
X011919Y013809D01*
X011919Y013690D02*
X011294Y013690D01*
X011294Y013572D02*
X011919Y013572D01*
X011919Y013453D02*
X011294Y013453D01*
X011294Y013335D02*
X011919Y013335D01*
X011815Y013216D02*
X011190Y013216D01*
X011071Y013098D02*
X011696Y013098D01*
X011578Y012979D02*
X010953Y012979D01*
X010834Y012861D02*
X011459Y012861D01*
X011341Y012742D02*
X010716Y012742D01*
X010597Y012624D02*
X011222Y012624D01*
X011104Y012505D02*
X010479Y012505D01*
X010360Y012387D02*
X010985Y012387D01*
X010867Y012268D02*
X010242Y012268D01*
X010123Y012150D02*
X010748Y012150D01*
X010630Y012031D02*
X010005Y012031D01*
X009886Y011913D02*
X010511Y011913D01*
X010393Y011794D02*
X009768Y011794D01*
X009649Y011676D02*
X010274Y011676D01*
X010156Y011557D02*
X009531Y011557D01*
X009412Y011439D02*
X010037Y011439D01*
X009919Y011320D02*
X004570Y011320D01*
X004570Y011202D02*
X009800Y011202D01*
X009682Y011083D02*
X004570Y011083D01*
X004126Y010758D02*
X009794Y010738D01*
X011499Y012443D01*
X012529Y012443D01*
X012689Y012283D01*
X012689Y012073D01*
X012511Y011895D01*
X012055Y011895D01*
X012055Y012151D02*
X011549Y012151D01*
X011302Y011903D01*
X011299Y011903D01*
X009819Y010423D01*
X004126Y010443D01*
X011294Y010503D02*
X011343Y010615D01*
X012055Y010615D01*
X012055Y010359D02*
X012667Y010359D01*
X012794Y010237D01*
X012678Y010871D02*
X012055Y010871D01*
X012678Y010871D02*
X012694Y010887D01*
X012594Y011287D02*
X012499Y011383D01*
X012055Y011639D02*
X011396Y011639D01*
X011294Y011537D01*
X011294Y011172D01*
X011449Y009592D02*
X011394Y009537D01*
X011449Y009592D02*
X012055Y009592D01*
X012055Y009336D02*
X011544Y009336D01*
X011544Y009287D01*
X014044Y009287D02*
X014044Y008484D01*
X014044Y007403D01*
X013979Y007337D01*
X015107Y008008D02*
X015529Y007586D01*
X015529Y007337D01*
X015529Y006096D01*
X015927Y005699D01*
X016418Y005699D01*
X018194Y007031D02*
X018906Y006320D01*
X018906Y005246D01*
X019083Y005069D01*
X019788Y005069D01*
X020418Y005699D01*
X021122Y006026D02*
X022643Y006026D01*
X022643Y006281D01*
X022649Y006287D01*
X023144Y006287D01*
X023361Y006504D01*
X023361Y006787D01*
X023361Y007352D01*
X023089Y007623D01*
X022629Y007623D01*
X022421Y007832D01*
X022411Y008078D01*
X022411Y008430D02*
X020644Y008430D01*
X020250Y008824D01*
X019884Y008824D01*
X019884Y009080D02*
X020952Y009080D01*
X021187Y008845D01*
X021287Y008745D01*
X022411Y008745D01*
X022411Y009097D02*
X021844Y009097D01*
X021744Y009197D01*
X021606Y009336D01*
X019884Y009336D01*
X019884Y009592D02*
X022633Y009592D01*
X023129Y010087D01*
X023135Y010087D01*
X023181Y010121D01*
X026893Y010121D01*
X027382Y010604D01*
X026893Y011121D02*
X027382Y011604D01*
X026893Y011121D02*
X025480Y011121D01*
X025113Y011487D01*
X021513Y011487D01*
X020385Y010359D01*
X019884Y010359D01*
X019884Y010104D02*
X020489Y010104D01*
X021369Y010983D01*
X022200Y010983D01*
X022204Y010987D01*
X022460Y010087D02*
X021934Y010087D01*
X023178Y009097D02*
X024147Y009097D01*
X024357Y008887D01*
X023918Y008745D02*
X024275Y008387D01*
X024857Y008387D01*
X025257Y007887D02*
X024315Y007887D01*
X023773Y008430D01*
X023178Y008430D01*
X023178Y008745D02*
X023918Y008745D01*
X023609Y008073D02*
X023193Y008073D01*
X023609Y008073D02*
X024139Y007543D01*
X024139Y007243D01*
X024144Y007237D02*
X024177Y007305D01*
X024946Y007305D01*
X025828Y007305D01*
X025860Y007337D01*
X024946Y007049D02*
X024946Y006793D01*
X023367Y006793D01*
X023361Y006787D01*
X023144Y006687D02*
X022994Y006537D01*
X022643Y006537D01*
X022194Y006537D01*
X022044Y006387D01*
X022039Y006793D02*
X021944Y006887D01*
X022039Y006793D02*
X022643Y006793D01*
X022643Y007049D02*
X022383Y007049D01*
X022144Y007287D01*
X019344Y007287D01*
X019044Y007587D01*
X019044Y008287D01*
X019344Y008587D01*
X020644Y008430D02*
X020702Y008430D01*
X021144Y008887D02*
X021187Y008845D01*
X019884Y009848D02*
X019434Y009848D01*
X019194Y010087D01*
X018744Y010287D02*
X019072Y010615D01*
X019884Y010615D01*
X019884Y010871D02*
X020537Y010871D01*
X021743Y012078D01*
X022411Y012078D01*
X022411Y012430D01*
X022411Y012745D02*
X021911Y012745D01*
X021779Y012613D01*
X021779Y012463D01*
X020443Y011127D01*
X019884Y011127D01*
X019884Y011383D02*
X020349Y011383D01*
X021509Y012543D01*
X021509Y013703D01*
X021883Y014078D01*
X022411Y014078D01*
X022411Y014430D01*
X022411Y014745D02*
X022049Y014733D01*
X021759Y014733D01*
X021259Y014233D01*
X021259Y012653D01*
X020245Y011639D01*
X019884Y011639D01*
X019884Y011895D02*
X019352Y011895D01*
X019144Y011687D01*
X019144Y011287D01*
X018444Y010987D02*
X018444Y007326D01*
X019418Y006352D01*
X019418Y005699D01*
X020150Y006998D02*
X021122Y006026D01*
X020150Y006998D02*
X019167Y006998D01*
X018744Y007420D01*
X018744Y010287D01*
X018194Y010787D02*
X017855Y011127D01*
X017005Y011127D01*
X017005Y010871D02*
X016568Y010871D01*
X016564Y010867D01*
X017564Y010867D01*
X017654Y010347D02*
X016554Y010347D01*
X015454Y010347D02*
X015444Y010357D01*
X014844Y010357D01*
X014934Y010359D02*
X014372Y010359D01*
X014344Y010387D01*
X014244Y010487D01*
X014244Y010387D02*
X014344Y010387D01*
X014400Y010387D01*
X014372Y010359D01*
X014349Y009592D02*
X014044Y009287D01*
X014349Y009592D02*
X014934Y009592D01*
X014044Y008484D02*
X017720Y008484D01*
X017694Y008937D02*
X017552Y009080D01*
X017005Y009080D01*
X017694Y008937D02*
X017752Y009080D01*
X018194Y010787D02*
X018194Y007031D01*
X022643Y007305D02*
X023027Y007305D01*
X023144Y007187D01*
X023144Y006687D01*
X023844Y006387D02*
X024344Y006387D01*
X024494Y006537D01*
X024946Y006537D01*
X024946Y006281D02*
X025439Y006281D01*
X025644Y006487D01*
X026006Y006026D02*
X024946Y006026D01*
X024946Y005770D02*
X024562Y005770D01*
X024344Y005987D01*
X024344Y006387D01*
X026006Y006026D02*
X026044Y005987D01*
X025826Y008837D02*
X026609Y008837D01*
X027382Y009604D01*
X025826Y008837D02*
X025126Y009537D01*
X024585Y012116D02*
X024271Y012430D01*
X023178Y012430D01*
X022411Y012745D02*
X022411Y013097D01*
X020994Y012737D02*
X020408Y012151D01*
X019884Y012151D01*
X019031Y012151D01*
X018994Y012187D01*
X019834Y011897D02*
X019881Y011897D01*
X019884Y011895D01*
X020994Y012737D02*
X020994Y014611D01*
X022411Y014745D02*
X022411Y015097D01*
X024120Y016611D02*
X024144Y016587D01*
X024144Y016611D02*
X024120Y016611D01*
X017982Y016297D02*
X017255Y016297D01*
X017374Y016179D02*
X017982Y016179D01*
X017982Y016060D02*
X017492Y016060D01*
X017611Y015942D02*
X017982Y015942D01*
X017982Y015823D02*
X017669Y015823D01*
X017669Y015705D02*
X017982Y015705D01*
X017982Y015586D02*
X017669Y015586D01*
X017669Y015468D02*
X017982Y015468D01*
X017982Y015349D02*
X017669Y015349D01*
X017906Y014572D02*
X017906Y013987D01*
X017005Y012151D02*
X016231Y012151D01*
X016144Y012237D01*
X017005Y011383D02*
X018049Y011383D01*
X018444Y010987D01*
X010209Y016923D02*
X010209Y017904D01*
X010209Y018173D01*
X010357Y018321D01*
X013982Y018321D01*
X014146Y018156D01*
X014146Y017904D01*
X014815Y017904D02*
X016036Y017904D01*
X016370Y017234D02*
X016863Y017726D01*
X016863Y017904D01*
X016370Y017234D02*
X015465Y017234D01*
X012099Y017904D02*
X010878Y017904D01*
D29*
X012055Y011895D02*
X012063Y011887D01*
X012055Y011383D02*
X012499Y011383D01*
X014934Y011383D02*
X015849Y011383D01*
X016144Y011087D01*
X016144Y010087D01*
X016384Y009848D01*
X017005Y009848D01*
X017005Y009592D02*
X015740Y009592D01*
X015484Y009848D01*
X014934Y009848D01*
X014934Y009336D02*
X017005Y009336D01*
X017005Y008824D02*
X014934Y008824D01*
X014860Y007337D02*
X013979Y007337D01*
X012494Y009337D02*
X012044Y009337D01*
X012046Y009336D01*
X012055Y009336D01*
X012044Y009337D02*
X012044Y009387D01*
X011994Y009587D02*
X012594Y009587D01*
X011394Y009537D02*
X011394Y009287D01*
D30*
X011944Y008287D03*
X012544Y008087D03*
X013594Y008337D03*
X015107Y008008D03*
X015732Y008071D03*
X013300Y006289D03*
X011922Y006289D03*
X009756Y004715D03*
X007000Y007470D03*
X009934Y008857D03*
X008181Y009636D03*
X010734Y010497D03*
X012694Y010887D03*
X012794Y010237D03*
X012794Y009387D03*
X013994Y010287D03*
X015694Y010787D03*
X013894Y011787D03*
X012224Y012987D03*
X010857Y013571D03*
X010044Y014946D03*
X012444Y015912D03*
X013607Y017321D03*
X015465Y017234D03*
X015932Y015925D03*
X014744Y014987D03*
X015932Y014612D03*
X017244Y014612D03*
X016944Y013487D03*
X016144Y012237D03*
X017694Y010387D03*
X019194Y010087D03*
X019144Y011287D03*
X021934Y010087D03*
X021744Y009197D03*
X021187Y008845D03*
X020644Y008430D03*
X019494Y008037D03*
X019344Y008587D03*
X021199Y006827D03*
X021944Y006887D03*
X022044Y006387D03*
X022607Y005321D03*
X023844Y006387D03*
X024144Y007237D03*
X025257Y007887D03*
X024857Y008387D03*
X024357Y008887D03*
X025126Y009537D03*
X024932Y010987D03*
X025636Y011604D03*
X024585Y012116D03*
X023813Y011987D03*
X021955Y013552D03*
X019794Y013946D03*
X020982Y016008D03*
X018857Y017071D03*
X023339Y017098D03*
X025707Y017904D03*
X027079Y018494D03*
X029835Y015738D03*
X027920Y014281D03*
X028884Y013125D03*
X028864Y011135D03*
X028264Y008867D03*
X027474Y007877D03*
X025644Y006487D03*
X026044Y005987D03*
X023930Y003533D03*
X029835Y007470D03*
X026096Y015397D03*
X024107Y015321D03*
X013757Y013987D03*
X007788Y012785D03*
X005819Y012785D03*
X001882Y010423D03*
X009756Y018494D03*
D31*
X024626Y013987D03*
X017232Y007008D03*
D32*
X005527Y004207D02*
X005527Y003143D01*
X006591Y003143D01*
X006708Y003026D01*
X006708Y002159D01*
X008769Y002159D01*
X008769Y003026D01*
X008886Y003143D01*
X009950Y003143D01*
X009950Y004207D01*
X010067Y004324D01*
X011119Y004324D01*
X011236Y004207D01*
X011236Y002159D01*
X014478Y002159D01*
X014478Y002405D01*
X014339Y002267D01*
X013867Y002267D01*
X013603Y002531D01*
X013339Y002267D01*
X012867Y002267D01*
X012603Y002531D01*
X012339Y002267D01*
X011867Y002267D01*
X011533Y002601D01*
X011533Y003073D01*
X011811Y003351D01*
X011553Y003609D01*
X011553Y003817D01*
X012083Y003817D01*
X012083Y003857D01*
X012083Y004387D01*
X011875Y004387D01*
X011553Y004064D01*
X011553Y003857D01*
X012083Y003857D01*
X012123Y003857D01*
X012123Y004387D01*
X012331Y004387D01*
X012589Y004129D01*
X012867Y004407D01*
X013339Y004407D01*
X013553Y004193D01*
X013553Y004230D01*
X013565Y004276D01*
X013589Y004317D01*
X013622Y004351D01*
X013663Y004374D01*
X013709Y004387D01*
X014083Y004387D01*
X014083Y003857D01*
X014123Y003857D01*
X014123Y004387D01*
X014496Y004387D01*
X014542Y004374D01*
X014583Y004351D01*
X014617Y004317D01*
X014640Y004276D01*
X014653Y004230D01*
X014653Y003857D01*
X014123Y003857D01*
X014123Y003817D01*
X014653Y003817D01*
X014653Y003443D01*
X014640Y003397D01*
X014617Y003356D01*
X014583Y003323D01*
X014542Y003299D01*
X014496Y003287D01*
X014459Y003287D01*
X014603Y003143D01*
X015659Y003143D01*
X015659Y004207D01*
X015776Y004324D01*
X021158Y004324D01*
X021275Y004207D01*
X021275Y003143D01*
X022339Y003143D01*
X022456Y003026D01*
X022456Y002159D01*
X025698Y002159D01*
X025698Y004207D01*
X025815Y004324D01*
X026867Y004324D01*
X026984Y004207D01*
X026984Y003143D01*
X028048Y003143D01*
X028165Y003026D01*
X028165Y002159D01*
X032391Y002159D01*
X032391Y005400D01*
X031524Y005400D01*
X031407Y005518D01*
X031407Y006581D01*
X030464Y006581D01*
X030464Y005932D01*
X030469Y005926D01*
X030464Y005850D01*
X030464Y005773D01*
X030459Y005768D01*
X030455Y005705D01*
X030463Y005693D01*
X030449Y005625D01*
X030445Y005555D01*
X030434Y005545D01*
X030420Y005476D01*
X030427Y005463D01*
X030404Y005397D01*
X030391Y005328D01*
X030378Y005320D01*
X030356Y005254D01*
X030360Y005239D01*
X030329Y005177D01*
X030307Y005111D01*
X030294Y005104D01*
X030263Y005041D01*
X030266Y005027D01*
X030227Y004969D01*
X030196Y004906D01*
X030182Y004901D01*
X030143Y004843D01*
X030144Y004828D01*
X030119Y004800D01*
X030465Y004800D01*
X030729Y004536D01*
X030993Y004800D01*
X031465Y004800D01*
X031799Y004466D01*
X031799Y003994D01*
X031521Y003716D01*
X031779Y003458D01*
X031779Y003250D01*
X031249Y003250D01*
X031249Y003210D01*
X031779Y003210D01*
X031779Y003002D01*
X031457Y002680D01*
X031249Y002680D01*
X031249Y003210D01*
X031209Y003210D01*
X031209Y002680D01*
X031001Y002680D01*
X030743Y002938D01*
X030465Y002660D01*
X029993Y002660D01*
X029779Y002874D01*
X029779Y002837D01*
X029766Y002791D01*
X029743Y002750D01*
X029709Y002716D01*
X029668Y002693D01*
X029622Y002680D01*
X029249Y002680D01*
X029249Y003210D01*
X029209Y003210D01*
X029209Y002680D01*
X028835Y002680D01*
X028789Y002693D01*
X028748Y002716D01*
X028715Y002750D01*
X028691Y002791D01*
X028679Y002837D01*
X028679Y003210D01*
X029209Y003210D01*
X029209Y003250D01*
X028679Y003250D01*
X028679Y003624D01*
X028691Y003670D01*
X028715Y003711D01*
X028748Y003744D01*
X028789Y003768D01*
X028835Y003780D01*
X028873Y003780D01*
X028659Y003994D01*
X028659Y004079D01*
X028620Y004077D01*
X028614Y004081D01*
X027425Y004081D01*
X027308Y004199D01*
X027308Y005782D01*
X027303Y005788D01*
X027308Y005863D01*
X027308Y005939D01*
X027314Y005945D01*
X027316Y005972D01*
X027307Y005986D01*
X027322Y006053D01*
X027327Y006121D01*
X027339Y006132D01*
X027347Y006167D01*
X027340Y006181D01*
X027364Y006246D01*
X027378Y006313D01*
X027392Y006321D01*
X027404Y006354D01*
X027400Y006370D01*
X027433Y006430D01*
X027457Y006494D01*
X027471Y006501D01*
X027488Y006532D01*
X027486Y006548D01*
X027527Y006603D01*
X027560Y006663D01*
X027576Y006668D01*
X027597Y006696D01*
X027597Y006713D01*
X027645Y006761D01*
X027686Y006816D01*
X027702Y006818D01*
X027727Y006843D01*
X027730Y006859D01*
X027785Y006900D01*
X027833Y006949D01*
X027849Y006949D01*
X027878Y006970D01*
X027882Y006986D01*
X027942Y007019D01*
X027997Y007060D01*
X028013Y007057D01*
X028044Y007074D01*
X028051Y007089D01*
X028115Y007113D01*
X028176Y007146D01*
X028191Y007141D01*
X028224Y007154D01*
X028233Y007167D01*
X028300Y007182D01*
X028364Y007206D01*
X028379Y007199D01*
X028414Y007207D01*
X028424Y007219D01*
X028493Y007224D01*
X028560Y007238D01*
X028573Y007230D01*
X028601Y007232D01*
X028607Y007237D01*
X028682Y007237D01*
X028758Y007243D01*
X028764Y007237D01*
X030226Y007237D01*
X030226Y008734D01*
X030343Y008852D01*
X031407Y008852D01*
X031407Y009916D01*
X031524Y010033D01*
X033572Y010033D01*
X033572Y010900D01*
X033689Y011017D01*
X034753Y011017D01*
X034753Y012081D01*
X034870Y012198D01*
X035934Y012198D01*
X035934Y013262D01*
X036051Y013379D01*
X036919Y013379D01*
X036919Y016621D01*
X032496Y016621D01*
X032496Y015557D01*
X032379Y015440D01*
X031511Y015440D01*
X031511Y014573D01*
X031394Y014456D01*
X030343Y014456D01*
X030226Y014573D01*
X030226Y015893D01*
X028764Y015893D01*
X028758Y015887D01*
X028682Y015893D01*
X028607Y015893D01*
X028601Y015898D01*
X028573Y015900D01*
X028560Y015892D01*
X028493Y015906D01*
X028459Y015909D01*
X030198Y014170D01*
X032669Y014170D01*
X032719Y014220D01*
X032681Y014220D01*
X032636Y014232D01*
X032595Y014256D01*
X032561Y014289D01*
X032537Y014330D01*
X032525Y014376D01*
X032525Y014750D01*
X033055Y014750D01*
X033055Y014790D01*
X033055Y015320D01*
X032681Y015320D01*
X032636Y015307D01*
X032595Y015284D01*
X032561Y015250D01*
X032537Y015209D01*
X032525Y015163D01*
X032525Y014790D01*
X033055Y014790D01*
X033095Y014790D01*
X033095Y015320D01*
X033469Y015320D01*
X033515Y015307D01*
X033556Y015284D01*
X033589Y015250D01*
X033613Y015209D01*
X033625Y015163D01*
X033625Y015126D01*
X033839Y015340D01*
X034311Y015340D01*
X034645Y015006D01*
X034645Y014534D01*
X034381Y014270D01*
X034645Y014006D01*
X034645Y013534D01*
X034381Y013270D01*
X034645Y013006D01*
X034645Y012534D01*
X034311Y012200D01*
X033839Y012200D01*
X033561Y012478D01*
X033303Y012220D01*
X033095Y012220D01*
X033095Y012750D01*
X033055Y012750D01*
X032525Y012750D01*
X032525Y012542D01*
X032847Y012220D01*
X033055Y012220D01*
X033055Y012750D01*
X033055Y012790D01*
X032525Y012790D01*
X032525Y012998D01*
X032783Y013256D01*
X032669Y013370D01*
X029952Y013370D01*
X029805Y013431D01*
X029693Y013543D01*
X027588Y015648D01*
X027636Y015532D01*
X027636Y014086D01*
X027902Y013820D01*
X027902Y013389D01*
X027618Y013104D01*
X027902Y012820D01*
X027902Y012389D01*
X027618Y012104D01*
X027902Y011820D01*
X027902Y011389D01*
X027618Y011104D01*
X027902Y010820D01*
X027902Y010389D01*
X027638Y010124D01*
X027785Y010124D01*
X027902Y010007D01*
X027902Y009201D01*
X027785Y009084D01*
X027227Y009084D01*
X026793Y008653D01*
X026756Y008617D01*
X026756Y008617D01*
X026755Y008616D01*
X026708Y008597D01*
X026661Y008577D01*
X026660Y008577D01*
X026660Y008577D01*
X026609Y008577D01*
X025774Y008577D01*
X025679Y008617D01*
X025606Y008690D01*
X025158Y009137D01*
X025046Y009137D01*
X024899Y009198D01*
X024787Y009311D01*
X024726Y009458D01*
X024726Y009617D01*
X024787Y009764D01*
X024884Y009861D01*
X023526Y009861D01*
X023526Y009788D01*
X023409Y009671D01*
X023080Y009671D01*
X022781Y009371D01*
X022773Y009368D01*
X022794Y009347D01*
X022869Y009421D01*
X023488Y009421D01*
X023552Y009357D01*
X024199Y009357D01*
X024295Y009318D01*
X024325Y009287D01*
X024437Y009287D01*
X024584Y009227D01*
X024696Y009114D01*
X024757Y008967D01*
X024757Y008808D01*
X024743Y008773D01*
X024778Y008787D01*
X024937Y008787D01*
X025084Y008727D01*
X025196Y008614D01*
X025257Y008467D01*
X025257Y008308D01*
X025249Y008287D01*
X025337Y008287D01*
X025484Y008227D01*
X025596Y008114D01*
X025657Y007967D01*
X025657Y007808D01*
X025627Y007734D01*
X026159Y007734D01*
X026210Y007683D01*
X026243Y007702D01*
X026289Y007714D01*
X026511Y007714D01*
X026511Y007356D01*
X026548Y007356D01*
X026926Y007356D01*
X026926Y007558D01*
X026913Y007604D01*
X026890Y007645D01*
X026856Y007678D01*
X026815Y007702D01*
X026769Y007714D01*
X026548Y007714D01*
X026548Y007356D01*
X026548Y007319D01*
X026926Y007319D01*
X026926Y007117D01*
X026913Y007071D01*
X026890Y007030D01*
X026856Y006997D01*
X026815Y006973D01*
X026769Y006961D01*
X026548Y006961D01*
X026548Y007319D01*
X026511Y007319D01*
X026511Y006961D01*
X026289Y006961D01*
X026243Y006973D01*
X026210Y006992D01*
X026159Y006941D01*
X025560Y006941D01*
X025456Y007045D01*
X025323Y007045D01*
X025323Y006732D01*
X025418Y006827D01*
X025565Y006887D01*
X025724Y006887D01*
X025871Y006827D01*
X025984Y006714D01*
X026044Y006567D01*
X026044Y006408D01*
X026036Y006387D01*
X026124Y006387D01*
X026271Y006327D01*
X026384Y006214D01*
X026444Y006067D01*
X026444Y005908D01*
X026384Y005761D01*
X026271Y005648D01*
X026124Y005587D01*
X025965Y005587D01*
X025818Y005648D01*
X025705Y005761D01*
X025703Y005766D01*
X025323Y005766D01*
X025323Y005618D01*
X025206Y005501D01*
X024686Y005501D01*
X024677Y005510D01*
X024510Y005510D01*
X024415Y005549D01*
X024197Y005767D01*
X024124Y005840D01*
X024084Y005936D01*
X024084Y006062D01*
X024071Y006048D01*
X023924Y005987D01*
X023765Y005987D01*
X023618Y006048D01*
X023505Y006161D01*
X023470Y006246D01*
X023365Y006140D01*
X023292Y006067D01*
X023196Y006027D01*
X023020Y006027D01*
X023020Y005874D01*
X023000Y005854D01*
X023000Y005770D01*
X022916Y005770D01*
X022916Y005770D01*
X023000Y005770D01*
X023000Y005677D01*
X022988Y005631D01*
X022964Y005590D01*
X022931Y005557D01*
X022890Y005533D01*
X022844Y005521D01*
X022643Y005521D01*
X022643Y005757D01*
X022643Y005757D01*
X022643Y005521D01*
X022442Y005521D01*
X022396Y005533D01*
X022355Y005557D01*
X022322Y005590D01*
X022298Y005631D01*
X022286Y005677D01*
X022286Y005766D01*
X021071Y005766D01*
X020975Y005805D01*
X020938Y005843D01*
X020938Y005483D01*
X020633Y005179D01*
X020265Y005179D01*
X019935Y004848D01*
X019840Y004809D01*
X019031Y004809D01*
X018936Y004848D01*
X018863Y004922D01*
X018685Y005099D01*
X018646Y005194D01*
X018646Y005220D01*
X018625Y005199D01*
X018438Y005199D01*
X018438Y005679D01*
X018398Y005679D01*
X018398Y005199D01*
X018211Y005199D01*
X017932Y005478D01*
X017633Y005179D01*
X017202Y005179D01*
X016938Y005443D01*
X016938Y005296D01*
X016821Y005179D01*
X016015Y005179D01*
X015898Y005296D01*
X015898Y005439D01*
X015875Y005439D01*
X015779Y005478D01*
X015706Y005552D01*
X015309Y005949D01*
X015269Y006045D01*
X015269Y006921D01*
X015249Y006921D01*
X015194Y006976D01*
X015140Y006921D01*
X014580Y006921D01*
X014463Y007038D01*
X014463Y007087D01*
X014396Y007087D01*
X014396Y007058D01*
X014279Y006941D01*
X013680Y006941D01*
X013629Y006992D01*
X013596Y006973D01*
X013550Y006961D01*
X013328Y006961D01*
X013328Y007319D01*
X013291Y007319D01*
X013291Y006961D01*
X013070Y006961D01*
X013024Y006973D01*
X012983Y006997D01*
X012949Y007030D01*
X012938Y007050D01*
X012829Y006941D01*
X012230Y006941D01*
X012179Y006992D01*
X012146Y006973D01*
X012100Y006961D01*
X011878Y006961D01*
X011878Y007319D01*
X011841Y007319D01*
X011463Y007319D01*
X011463Y007117D01*
X011476Y007071D01*
X011499Y007030D01*
X011533Y006997D01*
X011574Y006973D01*
X011620Y006961D01*
X011841Y006961D01*
X011841Y007319D01*
X011841Y007356D01*
X011463Y007356D01*
X011463Y007558D01*
X011476Y007604D01*
X011499Y007645D01*
X011533Y007678D01*
X011574Y007702D01*
X011620Y007714D01*
X011841Y007714D01*
X011841Y007356D01*
X011878Y007356D01*
X011878Y007714D01*
X012100Y007714D01*
X012146Y007702D01*
X012179Y007683D01*
X012230Y007734D01*
X012264Y007734D01*
X012264Y007802D01*
X012205Y007861D01*
X012144Y008008D01*
X012144Y008167D01*
X012205Y008314D01*
X012264Y008373D01*
X012264Y008393D01*
X012307Y008496D01*
X012367Y008556D01*
X011697Y008556D01*
X011580Y008673D01*
X011580Y009231D01*
X011600Y009251D01*
X011600Y009336D01*
X011685Y009336D01*
X011685Y009336D01*
X011600Y009336D01*
X011600Y009428D01*
X011610Y009464D01*
X011600Y009500D01*
X011600Y009592D01*
X011685Y009592D01*
X011600Y009592D01*
X011600Y009676D01*
X011580Y009696D01*
X011580Y010130D01*
X011561Y010118D01*
X011515Y010106D01*
X011313Y010106D01*
X011313Y010484D01*
X011276Y010484D01*
X011276Y010106D01*
X011074Y010106D01*
X011028Y010118D01*
X010987Y010142D01*
X010954Y010176D01*
X010930Y010217D01*
X010918Y010263D01*
X010918Y010484D01*
X011276Y010484D01*
X011276Y010521D01*
X010918Y010521D01*
X010918Y010743D01*
X010930Y010789D01*
X010949Y010822D01*
X010898Y010873D01*
X010898Y011134D01*
X010039Y010276D01*
X010039Y010275D01*
X010003Y010239D01*
X009966Y010203D01*
X009966Y010203D01*
X009966Y010202D01*
X009918Y010183D01*
X009871Y010163D01*
X009870Y010163D01*
X009870Y010163D01*
X009819Y010163D01*
X009767Y010163D01*
X009767Y010163D01*
X004976Y010180D01*
X004976Y009947D01*
X004956Y009927D01*
X004956Y009813D01*
X004126Y009813D01*
X003297Y009813D01*
X003297Y009691D01*
X003309Y009645D01*
X003333Y009604D01*
X003366Y009571D01*
X003407Y009547D01*
X003453Y009535D01*
X004126Y009535D01*
X004126Y009813D01*
X004126Y009813D01*
X003297Y009813D01*
X003297Y009927D01*
X003277Y009947D01*
X003277Y011219D01*
X003226Y011095D01*
X003120Y010989D01*
X002981Y010932D01*
X002831Y010932D01*
X002692Y010989D01*
X002586Y011095D01*
X002529Y011234D01*
X002529Y011384D01*
X002586Y011523D01*
X002692Y011629D01*
X002831Y011686D01*
X002981Y011686D01*
X003120Y011629D01*
X003226Y011523D01*
X003283Y011384D01*
X003283Y011260D01*
X003394Y011371D01*
X004309Y011371D01*
X004309Y011375D01*
X004310Y011377D01*
X004310Y011379D01*
X004329Y011425D01*
X004347Y011471D01*
X004349Y011472D01*
X004349Y011475D01*
X004384Y011510D01*
X004419Y011545D01*
X004421Y011546D01*
X004423Y011548D01*
X004468Y011567D01*
X004514Y011586D01*
X004516Y011586D01*
X004518Y011587D01*
X004568Y011587D01*
X008319Y011649D01*
X008321Y011650D01*
X008370Y011650D01*
X008420Y011651D01*
X008422Y011650D01*
X009255Y011650D01*
X011034Y013429D01*
X011034Y014272D01*
X010946Y014272D01*
X010938Y014264D01*
X010299Y014264D01*
X010182Y014381D01*
X010182Y014763D01*
X010209Y014789D01*
X010202Y014814D01*
X010202Y014946D01*
X010618Y014946D01*
X010618Y014946D01*
X010202Y014946D01*
X010202Y015078D01*
X010209Y015102D01*
X010182Y015129D01*
X010182Y015511D01*
X010299Y015628D01*
X010347Y015628D01*
X010347Y016373D01*
X010386Y016468D01*
X010959Y017041D01*
X011055Y017081D01*
X015096Y017081D01*
X015065Y017155D01*
X015065Y017314D01*
X015126Y017461D01*
X015238Y017573D01*
X015385Y017634D01*
X015545Y017634D01*
X015600Y017611D01*
X015600Y017644D01*
X015212Y017644D01*
X015212Y017604D01*
X015095Y017487D01*
X014536Y017487D01*
X014481Y017542D01*
X014426Y017487D01*
X013866Y017487D01*
X013749Y017604D01*
X013749Y018061D01*
X013342Y018061D01*
X013342Y017942D01*
X012964Y017942D01*
X012964Y017865D01*
X012964Y017487D01*
X013186Y017487D01*
X013231Y017500D01*
X013272Y017523D01*
X013306Y017557D01*
X013330Y017598D01*
X013342Y017644D01*
X013342Y017865D01*
X012964Y017865D01*
X012887Y017865D01*
X012887Y017487D01*
X012666Y017487D01*
X012620Y017500D01*
X012579Y017523D01*
X012545Y017557D01*
X012531Y017581D01*
X012418Y017467D01*
X011780Y017467D01*
X011663Y017584D01*
X011663Y017644D01*
X011275Y017644D01*
X011275Y017604D01*
X011158Y017487D01*
X010599Y017487D01*
X010544Y017542D01*
X010489Y017487D01*
X010469Y017487D01*
X010469Y016872D01*
X010429Y016776D01*
X009282Y015628D01*
X009914Y015628D01*
X010031Y015511D01*
X010031Y015129D01*
X009914Y015012D01*
X009286Y015012D01*
X009292Y014880D01*
X009914Y014880D01*
X010031Y014763D01*
X010031Y014381D01*
X009914Y014264D01*
X009276Y014264D01*
X009274Y014265D01*
X009199Y014190D01*
X009034Y014122D01*
X008855Y014122D01*
X008690Y014190D01*
X008563Y014317D01*
X008494Y014482D01*
X008494Y014661D01*
X008563Y014827D01*
X008573Y014837D01*
X008572Y014868D01*
X008479Y014868D01*
X008484Y014851D01*
X008484Y014630D01*
X008125Y014630D01*
X008125Y014593D01*
X008484Y014593D01*
X008484Y014371D01*
X008471Y014325D01*
X008448Y014284D01*
X008414Y014251D01*
X008373Y014227D01*
X008327Y014215D01*
X008125Y014215D01*
X008125Y014593D01*
X008088Y014593D01*
X007730Y014593D01*
X007730Y014371D01*
X007742Y014325D01*
X007766Y014284D01*
X007799Y014251D01*
X007840Y014227D01*
X007886Y014215D01*
X008088Y014215D01*
X008088Y014593D01*
X008088Y014630D01*
X007730Y014630D01*
X007730Y014851D01*
X007742Y014897D01*
X007761Y014930D01*
X007710Y014981D01*
X007710Y015580D01*
X007827Y015697D01*
X008386Y015697D01*
X008504Y015580D01*
X008504Y015508D01*
X008684Y015508D01*
X008684Y015710D01*
X008724Y015806D01*
X009949Y017031D01*
X009949Y017487D01*
X009929Y017487D01*
X009812Y017604D01*
X009812Y018203D01*
X009929Y018320D01*
X009988Y018320D01*
X009989Y018321D01*
X010209Y018541D01*
X010305Y018581D01*
X014033Y018581D01*
X014129Y018541D01*
X014202Y018468D01*
X014350Y018320D01*
X014426Y018320D01*
X014481Y018265D01*
X014536Y018320D01*
X015095Y018320D01*
X015212Y018203D01*
X015212Y018164D01*
X015600Y018164D01*
X015600Y018223D01*
X015717Y018340D01*
X016355Y018340D01*
X016449Y018245D01*
X016544Y018340D01*
X016979Y018340D01*
X016950Y018368D01*
X016863Y018578D01*
X016863Y018804D01*
X016950Y019014D01*
X017111Y019174D01*
X017320Y019261D01*
X017438Y019261D01*
X020047Y021870D01*
X020160Y021983D01*
X020307Y022044D01*
X026960Y022044D01*
X027010Y022094D01*
X026973Y022094D01*
X026927Y022106D01*
X026886Y022130D01*
X026852Y022163D01*
X026829Y022204D01*
X026817Y022250D01*
X026817Y022624D01*
X027347Y022624D01*
X027347Y022664D01*
X027347Y023194D01*
X026973Y023194D01*
X026927Y023181D01*
X026886Y023158D01*
X026852Y023124D01*
X026829Y023083D01*
X026817Y023037D01*
X026817Y022664D01*
X027347Y022664D01*
X027387Y022664D01*
X027387Y023194D01*
X027760Y023194D01*
X027806Y023181D01*
X027847Y023158D01*
X027881Y023124D01*
X027904Y023083D01*
X027917Y023037D01*
X027917Y023000D01*
X028130Y023214D01*
X028603Y023214D01*
X028937Y022880D01*
X028937Y022408D01*
X028673Y022144D01*
X028937Y021880D01*
X028937Y021408D01*
X028673Y021144D01*
X028937Y020880D01*
X028937Y020408D01*
X028603Y020074D01*
X028130Y020074D01*
X027852Y020352D01*
X027594Y020094D01*
X027387Y020094D01*
X027387Y020624D01*
X027347Y020624D01*
X027347Y020094D01*
X027139Y020094D01*
X026889Y020344D01*
X026889Y017479D01*
X027324Y017043D01*
X027322Y017077D01*
X027307Y017144D01*
X027316Y017158D01*
X027314Y017185D01*
X027308Y017191D01*
X027308Y017266D01*
X027303Y017342D01*
X027308Y017348D01*
X027308Y018931D01*
X027425Y019048D01*
X028614Y019048D01*
X028620Y019053D01*
X028696Y019048D01*
X028772Y019048D01*
X028778Y019043D01*
X028840Y019039D01*
X028853Y019047D01*
X028921Y019034D01*
X028991Y019029D01*
X029001Y019018D01*
X029069Y019004D01*
X029083Y019011D01*
X029149Y018988D01*
X029217Y018975D01*
X029226Y018962D01*
X029292Y018940D01*
X029306Y018945D01*
X029369Y018914D01*
X029435Y018891D01*
X029441Y018878D01*
X029504Y018847D01*
X029519Y018850D01*
X029577Y018811D01*
X029640Y018780D01*
X029644Y018766D01*
X029703Y018727D01*
X029718Y018728D01*
X029770Y018682D01*
X029828Y018643D01*
X029831Y018629D01*
X029884Y018582D01*
X029899Y018581D01*
X029945Y018529D01*
X029997Y018483D01*
X029998Y018468D01*
X030044Y018415D01*
X030059Y018412D01*
X030098Y018354D01*
X030144Y018302D01*
X030143Y018287D01*
X030182Y018229D01*
X030196Y018224D01*
X030226Y018164D01*
X030226Y023330D01*
X029162Y023330D01*
X029044Y023447D01*
X029044Y024314D01*
X028177Y024314D01*
X028060Y024431D01*
X028060Y025495D01*
X008874Y025495D01*
X008874Y024431D01*
X008756Y024314D01*
X007889Y024314D01*
X007889Y023447D01*
X007772Y023330D01*
X006708Y023330D01*
X006708Y018220D01*
X006710Y018224D01*
X006725Y018229D01*
X006764Y018287D01*
X006763Y018302D01*
X006809Y018354D01*
X006847Y018412D01*
X006862Y018415D01*
X006908Y018468D01*
X006909Y018483D01*
X006962Y018529D01*
X007008Y018581D01*
X007023Y018582D01*
X007075Y018629D01*
X007078Y018643D01*
X007136Y018682D01*
X007189Y018728D01*
X007204Y018727D01*
X007262Y018766D01*
X007267Y018780D01*
X007329Y018811D01*
X007387Y018850D01*
X007402Y018847D01*
X007465Y018878D01*
X007472Y018891D01*
X007538Y018914D01*
X007600Y018945D01*
X007614Y018940D01*
X007681Y018962D01*
X007689Y018975D01*
X007757Y018988D01*
X007823Y019011D01*
X007837Y019004D01*
X007906Y019018D01*
X007916Y019029D01*
X007985Y019034D01*
X008054Y019047D01*
X008066Y019039D01*
X008129Y019043D01*
X008134Y019048D01*
X008210Y019048D01*
X008287Y019053D01*
X008292Y019048D01*
X009481Y019048D01*
X009598Y018931D01*
X009598Y017348D01*
X009603Y017342D01*
X009598Y017266D01*
X009598Y017191D01*
X009592Y017185D01*
X009590Y017158D01*
X009599Y017144D01*
X009584Y017077D01*
X009580Y017009D01*
X009567Y016998D01*
X009560Y016963D01*
X009567Y016949D01*
X009543Y016884D01*
X009528Y016817D01*
X009514Y016809D01*
X009502Y016775D01*
X009507Y016760D01*
X009474Y016700D01*
X009450Y016635D01*
X009435Y016629D01*
X009418Y016598D01*
X009420Y016582D01*
X009379Y016527D01*
X009346Y016467D01*
X009331Y016462D01*
X009310Y016434D01*
X009310Y016417D01*
X009261Y016369D01*
X009220Y016314D01*
X009204Y016312D01*
X009179Y016287D01*
X009177Y016271D01*
X009122Y016229D01*
X009073Y016181D01*
X009057Y016181D01*
X009029Y016160D01*
X009024Y016144D01*
X008964Y016111D01*
X008909Y016070D01*
X008893Y016073D01*
X008862Y016056D01*
X008855Y016041D01*
X008791Y016017D01*
X008731Y015984D01*
X008715Y015989D01*
X008682Y015976D01*
X008673Y015963D01*
X008606Y015948D01*
X008542Y015924D01*
X008527Y015931D01*
X008493Y015923D01*
X008482Y015911D01*
X008414Y015906D01*
X008347Y015892D01*
X008333Y015900D01*
X008306Y015898D01*
X008300Y015893D01*
X008224Y015893D01*
X008149Y015887D01*
X008142Y015893D01*
X006559Y015893D01*
X006442Y016010D01*
X006442Y017198D01*
X006437Y017204D01*
X006442Y017280D01*
X006442Y017356D01*
X006447Y017362D01*
X006452Y017425D01*
X006443Y017437D01*
X006457Y017505D01*
X006461Y017575D01*
X006473Y017585D01*
X006486Y017654D01*
X006480Y017667D01*
X006502Y017733D01*
X006516Y017801D01*
X006517Y017802D01*
X005540Y017802D01*
X005422Y017919D01*
X005422Y018786D01*
X003362Y018786D01*
X003362Y017919D01*
X003245Y017802D01*
X002181Y017802D01*
X002181Y013392D01*
X002064Y013274D01*
X001000Y013274D01*
X001000Y007670D01*
X002064Y007670D01*
X002181Y007553D01*
X002181Y006686D01*
X003245Y006686D01*
X003362Y006569D01*
X003362Y005505D01*
X004426Y005505D01*
X004543Y005388D01*
X004543Y004324D01*
X005410Y004324D01*
X005527Y004207D01*
X005527Y004178D02*
X007651Y004178D01*
X007681Y004168D02*
X007689Y004155D01*
X007757Y004142D01*
X007823Y004119D01*
X007837Y004126D01*
X007906Y004112D01*
X007916Y004101D01*
X007985Y004096D01*
X008054Y004083D01*
X008066Y004091D01*
X008129Y004087D01*
X008134Y004081D01*
X008210Y004081D01*
X008287Y004077D01*
X008292Y004081D01*
X009481Y004081D01*
X009598Y004199D01*
X009598Y005782D01*
X009603Y005788D01*
X009598Y005863D01*
X009598Y005939D01*
X009592Y005945D01*
X009590Y005972D01*
X009599Y005986D01*
X009584Y006053D01*
X009580Y006121D01*
X009567Y006132D01*
X009560Y006167D01*
X009567Y006181D01*
X009543Y006246D01*
X009528Y006313D01*
X009514Y006321D01*
X009502Y006354D01*
X009507Y006370D01*
X009474Y006430D01*
X009450Y006494D01*
X009435Y006501D01*
X009418Y006532D01*
X009420Y006548D01*
X009379Y006603D01*
X009346Y006663D01*
X009331Y006668D01*
X009310Y006696D01*
X009310Y006713D01*
X009261Y006761D01*
X009220Y006816D01*
X009204Y006818D01*
X009179Y006843D01*
X009177Y006859D01*
X009122Y006900D01*
X009073Y006949D01*
X009057Y006949D01*
X009029Y006970D01*
X009024Y006986D01*
X008964Y007019D01*
X008909Y007060D01*
X008893Y007057D01*
X008862Y007074D01*
X008855Y007089D01*
X008791Y007113D01*
X008731Y007146D01*
X008715Y007141D01*
X008682Y007154D01*
X008673Y007167D01*
X008606Y007182D01*
X008542Y007206D01*
X008527Y007199D01*
X008493Y007207D01*
X008482Y007219D01*
X008414Y007224D01*
X008347Y007238D01*
X008333Y007230D01*
X008306Y007232D01*
X008300Y007237D01*
X008224Y007237D01*
X008149Y007243D01*
X008142Y007237D01*
X006559Y007237D01*
X006442Y007120D01*
X006442Y005932D01*
X006437Y005926D01*
X006442Y005850D01*
X006442Y005773D01*
X006447Y005768D01*
X006452Y005705D01*
X006443Y005693D01*
X006457Y005625D01*
X006461Y005555D01*
X006473Y005545D01*
X006486Y005476D01*
X006480Y005463D01*
X006502Y005397D01*
X006516Y005328D01*
X006528Y005320D01*
X006551Y005254D01*
X006546Y005239D01*
X006577Y005177D01*
X006599Y005111D01*
X006613Y005104D01*
X006644Y005041D01*
X006641Y005027D01*
X006680Y004969D01*
X006710Y004906D01*
X006725Y004901D01*
X006764Y004843D01*
X006763Y004828D01*
X006809Y004776D01*
X006847Y004718D01*
X006862Y004715D01*
X006908Y004662D01*
X006909Y004647D01*
X006962Y004601D01*
X007008Y004549D01*
X007023Y004548D01*
X007075Y004501D01*
X007078Y004487D01*
X007136Y004448D01*
X007189Y004402D01*
X007204Y004403D01*
X007262Y004364D01*
X007267Y004350D01*
X007329Y004319D01*
X007387Y004280D01*
X007402Y004283D01*
X007465Y004252D01*
X007472Y004239D01*
X007538Y004216D01*
X007600Y004185D01*
X007614Y004190D01*
X007681Y004168D01*
X007294Y004336D02*
X004543Y004336D01*
X004543Y004495D02*
X007077Y004495D01*
X006909Y004653D02*
X004543Y004653D01*
X004543Y004812D02*
X006777Y004812D01*
X006679Y004970D02*
X004543Y004970D01*
X004543Y005129D02*
X006593Y005129D01*
X006539Y005287D02*
X004543Y005287D01*
X004485Y005446D02*
X006486Y005446D01*
X006458Y005604D02*
X003362Y005604D01*
X003362Y005763D02*
X006448Y005763D01*
X006437Y005921D02*
X003362Y005921D01*
X003362Y006080D02*
X006442Y006080D01*
X006442Y006238D02*
X003362Y006238D01*
X003362Y006397D02*
X006442Y006397D01*
X006442Y006555D02*
X003362Y006555D01*
X002181Y006714D02*
X006442Y006714D01*
X006442Y006872D02*
X002181Y006872D01*
X002181Y007031D02*
X006442Y007031D01*
X006511Y007189D02*
X002181Y007189D01*
X002181Y007348D02*
X011841Y007348D01*
X011841Y007506D02*
X011878Y007506D01*
X011878Y007665D02*
X011841Y007665D01*
X011519Y007665D02*
X002069Y007665D01*
X002181Y007506D02*
X011463Y007506D01*
X012155Y007982D02*
X001000Y007982D01*
X001000Y008140D02*
X001107Y008140D01*
X001150Y008097D02*
X001033Y008214D01*
X001033Y009167D01*
X001150Y009285D01*
X002300Y009285D01*
X002417Y009167D01*
X002417Y008214D01*
X002300Y008097D01*
X001150Y008097D01*
X001033Y008299D02*
X001000Y008299D01*
X001000Y008457D02*
X001033Y008457D01*
X001033Y008616D02*
X001000Y008616D01*
X001000Y008774D02*
X001033Y008774D01*
X001033Y008933D02*
X001000Y008933D01*
X001000Y009091D02*
X001033Y009091D01*
X001000Y009250D02*
X001115Y009250D01*
X001000Y009408D02*
X002568Y009408D01*
X002586Y009363D02*
X002692Y009257D01*
X002831Y009200D01*
X002981Y009200D01*
X003120Y009257D01*
X003226Y009363D01*
X003283Y009502D01*
X003283Y009652D01*
X003226Y009790D01*
X003120Y009897D01*
X002981Y009954D01*
X002831Y009954D01*
X002692Y009897D01*
X002586Y009790D01*
X002529Y009652D01*
X002529Y009502D01*
X002586Y009363D01*
X002710Y009250D02*
X002335Y009250D01*
X002417Y009091D02*
X003198Y009091D01*
X003198Y009167D02*
X003198Y008214D01*
X003315Y008097D01*
X004465Y008097D01*
X004582Y008214D01*
X004582Y009167D01*
X004465Y009285D01*
X003315Y009285D01*
X003198Y009167D01*
X003280Y009250D02*
X003102Y009250D01*
X003244Y009408D02*
X011600Y009408D01*
X011599Y009250D02*
X004500Y009250D01*
X004582Y009091D02*
X011580Y009091D01*
X011580Y008933D02*
X004582Y008933D01*
X004582Y008774D02*
X011580Y008774D01*
X011637Y008616D02*
X004582Y008616D01*
X004582Y008457D02*
X012291Y008457D01*
X012199Y008299D02*
X004582Y008299D01*
X004508Y008140D02*
X012144Y008140D01*
X012243Y007823D02*
X001000Y007823D01*
X002343Y008140D02*
X003272Y008140D01*
X003198Y008299D02*
X002417Y008299D01*
X002417Y008457D02*
X003198Y008457D01*
X003198Y008616D02*
X002417Y008616D01*
X002417Y008774D02*
X003198Y008774D01*
X003198Y008933D02*
X002417Y008933D01*
X002529Y009567D02*
X001000Y009567D01*
X001000Y009725D02*
X002559Y009725D01*
X002679Y009884D02*
X001000Y009884D01*
X001000Y010042D02*
X003277Y010042D01*
X003277Y010201D02*
X001000Y010201D01*
X001000Y010359D02*
X003277Y010359D01*
X003277Y010518D02*
X001000Y010518D01*
X001000Y010676D02*
X003277Y010676D01*
X003277Y010835D02*
X001000Y010835D01*
X001000Y010993D02*
X002688Y010993D01*
X002563Y011152D02*
X001000Y011152D01*
X001000Y011310D02*
X002529Y011310D01*
X002564Y011469D02*
X001000Y011469D01*
X001000Y011627D02*
X001124Y011627D01*
X001150Y011601D02*
X001033Y011718D01*
X001033Y012671D01*
X001150Y012789D01*
X002300Y012789D01*
X002417Y012671D01*
X002417Y011718D01*
X002300Y011601D01*
X001150Y011601D01*
X001033Y011786D02*
X001000Y011786D01*
X001000Y011944D02*
X001033Y011944D01*
X001033Y012103D02*
X001000Y012103D01*
X001000Y012261D02*
X001033Y012261D01*
X001033Y012420D02*
X001000Y012420D01*
X001000Y012578D02*
X001033Y012578D01*
X001000Y012737D02*
X001098Y012737D01*
X001000Y012895D02*
X010501Y012895D01*
X010342Y012737D02*
X004517Y012737D01*
X004465Y012789D02*
X004582Y012671D01*
X004582Y011718D01*
X004465Y011601D01*
X003315Y011601D01*
X003198Y011718D01*
X003198Y012671D01*
X003315Y012789D01*
X004465Y012789D01*
X004582Y012578D02*
X010184Y012578D01*
X010025Y012420D02*
X004582Y012420D01*
X004582Y012261D02*
X009867Y012261D01*
X009708Y012103D02*
X004582Y012103D01*
X004582Y011944D02*
X009550Y011944D01*
X009391Y011786D02*
X004582Y011786D01*
X004491Y011627D02*
X006997Y011627D01*
X004976Y010042D02*
X011580Y010042D01*
X011580Y009884D02*
X004956Y009884D01*
X004956Y009813D02*
X004126Y009813D01*
X004126Y009813D01*
X004126Y009535D01*
X004800Y009535D01*
X004845Y009547D01*
X004887Y009571D01*
X004920Y009604D01*
X004944Y009645D01*
X004956Y009691D01*
X004956Y009813D01*
X004956Y009725D02*
X011580Y009725D01*
X011600Y009567D02*
X004880Y009567D01*
X004126Y009567D02*
X004126Y009567D01*
X004126Y009725D02*
X004126Y009725D01*
X004126Y009813D02*
X004126Y009813D01*
X003373Y009567D02*
X003283Y009567D01*
X003297Y009725D02*
X003253Y009725D01*
X003297Y009884D02*
X003132Y009884D01*
X003123Y010993D02*
X003277Y010993D01*
X003277Y011152D02*
X003249Y011152D01*
X003283Y011310D02*
X003333Y011310D01*
X003248Y011469D02*
X004346Y011469D01*
X003289Y011627D02*
X003121Y011627D01*
X003198Y011786D02*
X002417Y011786D01*
X002417Y011944D02*
X003198Y011944D01*
X003198Y012103D02*
X002417Y012103D01*
X002417Y012261D02*
X003198Y012261D01*
X003198Y012420D02*
X002417Y012420D01*
X002417Y012578D02*
X003198Y012578D01*
X003263Y012737D02*
X002352Y012737D01*
X002160Y013371D02*
X010976Y013371D01*
X011034Y013529D02*
X005878Y013529D01*
X005873Y013511D02*
X005885Y013557D01*
X005885Y013931D01*
X005355Y013931D01*
X005355Y013971D01*
X005885Y013971D01*
X005885Y014344D01*
X005873Y014390D01*
X005849Y014431D01*
X005816Y014465D01*
X005775Y014489D01*
X005729Y014501D01*
X005691Y014501D01*
X005905Y014715D01*
X005905Y015187D01*
X005627Y015465D01*
X005885Y015723D01*
X005885Y015931D01*
X005355Y015931D01*
X005355Y015971D01*
X005315Y015971D01*
X005315Y016501D01*
X005107Y016501D01*
X004849Y016243D01*
X004571Y016521D01*
X004099Y016521D01*
X003765Y016187D01*
X003765Y015715D01*
X004029Y015451D01*
X003765Y015187D01*
X003765Y014715D01*
X004029Y014451D01*
X003765Y014187D01*
X003765Y013715D01*
X004099Y013381D01*
X004571Y013381D01*
X004785Y013595D01*
X004785Y013557D01*
X004797Y013511D01*
X004821Y013470D01*
X004855Y013437D01*
X004896Y013413D01*
X004941Y013401D01*
X005315Y013401D01*
X005315Y013931D01*
X005355Y013931D01*
X005355Y013401D01*
X005729Y013401D01*
X005775Y013413D01*
X005816Y013437D01*
X005849Y013470D01*
X005873Y013511D01*
X005885Y013688D02*
X011034Y013688D01*
X011034Y013846D02*
X005885Y013846D01*
X005885Y014005D02*
X011034Y014005D01*
X011034Y014163D02*
X009134Y014163D01*
X008755Y014163D02*
X005885Y014163D01*
X005885Y014322D02*
X007744Y014322D01*
X007730Y014480D02*
X005789Y014480D01*
X005829Y014639D02*
X007730Y014639D01*
X007730Y014797D02*
X005905Y014797D01*
X005905Y014956D02*
X007735Y014956D01*
X007710Y015114D02*
X005905Y015114D01*
X005819Y015273D02*
X007710Y015273D01*
X007710Y015431D02*
X005661Y015431D01*
X005752Y015590D02*
X007720Y015590D01*
X008422Y015907D02*
X008825Y015907D01*
X008879Y016065D02*
X008983Y016065D01*
X009116Y016224D02*
X009142Y016224D01*
X009274Y016382D02*
X009300Y016382D01*
X009390Y016541D02*
X009459Y016541D01*
X009474Y016699D02*
X009617Y016699D01*
X009537Y016858D02*
X009776Y016858D01*
X009934Y017016D02*
X009580Y017016D01*
X009591Y017175D02*
X009949Y017175D01*
X009949Y017333D02*
X009603Y017333D01*
X009598Y017492D02*
X009925Y017492D01*
X009812Y017650D02*
X009598Y017650D01*
X009598Y017809D02*
X009812Y017809D01*
X009812Y017967D02*
X009598Y017967D01*
X009598Y018126D02*
X009812Y018126D01*
X009893Y018284D02*
X009598Y018284D01*
X009598Y018443D02*
X010111Y018443D01*
X009598Y018601D02*
X016863Y018601D01*
X016863Y018760D02*
X009598Y018760D01*
X009598Y018918D02*
X016911Y018918D01*
X017013Y019077D02*
X006708Y019077D01*
X006708Y019235D02*
X017258Y019235D01*
X017571Y019394D02*
X006708Y019394D01*
X006708Y019552D02*
X017729Y019552D01*
X017888Y019711D02*
X006708Y019711D01*
X006708Y019869D02*
X018046Y019869D01*
X018205Y020028D02*
X006708Y020028D01*
X006708Y020186D02*
X018363Y020186D01*
X018522Y020345D02*
X009968Y020345D01*
X009983Y020360D02*
X010007Y020401D01*
X010019Y020447D01*
X010019Y020821D01*
X009489Y020821D01*
X009489Y020861D01*
X010019Y020861D01*
X010019Y021234D01*
X010007Y021280D01*
X009983Y021321D01*
X009949Y021355D01*
X009908Y021378D01*
X009863Y021391D01*
X009825Y021391D01*
X010039Y021604D01*
X010039Y022077D01*
X009761Y022355D01*
X010019Y022613D01*
X010019Y022821D01*
X009489Y022821D01*
X009489Y022861D01*
X009449Y022861D01*
X009449Y023391D01*
X009241Y023391D01*
X008983Y023133D01*
X008705Y023411D01*
X008233Y023411D01*
X007899Y023077D01*
X007899Y022604D01*
X008163Y022341D01*
X007899Y022077D01*
X007899Y021604D01*
X008163Y021341D01*
X007899Y021077D01*
X007899Y020604D01*
X008233Y020271D01*
X008705Y020271D01*
X008919Y020484D01*
X008919Y020447D01*
X008931Y020401D01*
X008955Y020360D01*
X008988Y020327D01*
X009029Y020303D01*
X009075Y020291D01*
X009449Y020291D01*
X009449Y020821D01*
X009489Y020821D01*
X009489Y020291D01*
X009863Y020291D01*
X009908Y020303D01*
X009949Y020327D01*
X009983Y020360D01*
X010019Y020503D02*
X018680Y020503D01*
X018839Y020662D02*
X010019Y020662D01*
X010019Y020820D02*
X018997Y020820D01*
X019156Y020979D02*
X010019Y020979D01*
X010019Y021137D02*
X019314Y021137D01*
X019473Y021296D02*
X009998Y021296D01*
X009889Y021454D02*
X019631Y021454D01*
X019790Y021613D02*
X010039Y021613D01*
X010039Y021771D02*
X019948Y021771D01*
X020107Y021930D02*
X010039Y021930D01*
X010027Y022088D02*
X027005Y022088D01*
X026817Y022247D02*
X009869Y022247D01*
X009811Y022405D02*
X026817Y022405D01*
X026817Y022564D02*
X009970Y022564D01*
X010019Y022722D02*
X026817Y022722D01*
X026817Y022881D02*
X010019Y022881D01*
X010019Y022861D02*
X010019Y023068D01*
X009697Y023391D01*
X009489Y023391D01*
X009489Y022861D01*
X010019Y022861D01*
X010019Y023039D02*
X026817Y023039D01*
X027347Y023039D02*
X027387Y023039D01*
X027387Y022881D02*
X027347Y022881D01*
X027347Y022722D02*
X027387Y022722D01*
X027916Y023039D02*
X027956Y023039D01*
X028114Y023198D02*
X009890Y023198D01*
X009731Y023356D02*
X029135Y023356D01*
X029044Y023515D02*
X007889Y023515D01*
X007889Y023673D02*
X029044Y023673D01*
X029044Y023832D02*
X007889Y023832D01*
X007889Y023990D02*
X029044Y023990D01*
X029044Y024149D02*
X007889Y024149D01*
X007889Y024307D02*
X029044Y024307D01*
X028060Y024466D02*
X008874Y024466D01*
X008874Y024624D02*
X028060Y024624D01*
X028060Y024783D02*
X008874Y024783D01*
X008874Y024941D02*
X028060Y024941D01*
X028060Y025100D02*
X008874Y025100D01*
X008874Y025258D02*
X028060Y025258D01*
X028060Y025417D02*
X008874Y025417D01*
X008759Y023356D02*
X009207Y023356D01*
X009048Y023198D02*
X008918Y023198D01*
X008178Y023356D02*
X007799Y023356D01*
X008020Y023198D02*
X006708Y023198D01*
X006708Y023039D02*
X007899Y023039D01*
X007899Y022881D02*
X006708Y022881D01*
X006708Y022722D02*
X007899Y022722D01*
X007940Y022564D02*
X006708Y022564D01*
X006708Y022405D02*
X008098Y022405D01*
X008069Y022247D02*
X006708Y022247D01*
X006708Y022088D02*
X007910Y022088D01*
X007899Y021930D02*
X006708Y021930D01*
X006708Y021771D02*
X007899Y021771D01*
X007899Y021613D02*
X006708Y021613D01*
X006708Y021454D02*
X008049Y021454D01*
X008118Y021296D02*
X006708Y021296D01*
X006708Y021137D02*
X007959Y021137D01*
X007899Y020979D02*
X006708Y020979D01*
X006708Y020820D02*
X007899Y020820D01*
X007899Y020662D02*
X006708Y020662D01*
X006708Y020503D02*
X008000Y020503D01*
X008159Y020345D02*
X006708Y020345D01*
X008779Y020345D02*
X008970Y020345D01*
X009449Y020345D02*
X009489Y020345D01*
X009489Y020503D02*
X009449Y020503D01*
X009449Y020662D02*
X009489Y020662D01*
X009489Y020820D02*
X009449Y020820D01*
X007547Y018918D02*
X006708Y018918D01*
X006708Y018760D02*
X007252Y018760D01*
X007044Y018601D02*
X006708Y018601D01*
X006708Y018443D02*
X006886Y018443D01*
X006762Y018284D02*
X006708Y018284D01*
X006486Y017650D02*
X002181Y017650D01*
X002181Y017492D02*
X006454Y017492D01*
X006442Y017333D02*
X002181Y017333D01*
X002181Y017175D02*
X006442Y017175D01*
X006442Y017016D02*
X002181Y017016D01*
X002181Y016858D02*
X006442Y016858D01*
X006442Y016699D02*
X002181Y016699D01*
X002181Y016541D02*
X006442Y016541D01*
X006442Y016382D02*
X005681Y016382D01*
X005563Y016501D02*
X005885Y016179D01*
X005885Y015971D01*
X005355Y015971D01*
X005355Y016501D01*
X005563Y016501D01*
X005355Y016382D02*
X005315Y016382D01*
X005315Y016224D02*
X005355Y016224D01*
X005355Y016065D02*
X005315Y016065D01*
X004989Y016382D02*
X004710Y016382D01*
X003960Y016382D02*
X002181Y016382D01*
X002181Y016224D02*
X003802Y016224D01*
X003765Y016065D02*
X002181Y016065D01*
X002181Y015907D02*
X003765Y015907D01*
X003765Y015748D02*
X002181Y015748D01*
X002181Y015590D02*
X003890Y015590D01*
X004009Y015431D02*
X002181Y015431D01*
X002181Y015273D02*
X003851Y015273D01*
X003765Y015114D02*
X002181Y015114D01*
X002181Y014956D02*
X003765Y014956D01*
X003765Y014797D02*
X002181Y014797D01*
X002181Y014639D02*
X003841Y014639D01*
X004000Y014480D02*
X002181Y014480D01*
X002181Y014322D02*
X003900Y014322D01*
X003765Y014163D02*
X002181Y014163D01*
X002181Y014005D02*
X003765Y014005D01*
X003765Y013846D02*
X002181Y013846D01*
X002181Y013688D02*
X003792Y013688D01*
X003951Y013529D02*
X002181Y013529D01*
X001000Y013212D02*
X010818Y013212D01*
X010659Y013054D02*
X001000Y013054D01*
X002326Y011627D02*
X002691Y011627D01*
X004720Y013529D02*
X004793Y013529D01*
X005315Y013529D02*
X005355Y013529D01*
X005355Y013688D02*
X005315Y013688D01*
X005315Y013846D02*
X005355Y013846D01*
X008088Y014322D02*
X008125Y014322D01*
X008125Y014480D02*
X008088Y014480D01*
X008484Y014480D02*
X008495Y014480D01*
X008484Y014639D02*
X008494Y014639D01*
X008484Y014797D02*
X008551Y014797D01*
X008561Y014322D02*
X008469Y014322D01*
X009289Y014956D02*
X010202Y014956D01*
X010197Y015114D02*
X010017Y015114D01*
X010031Y015273D02*
X010182Y015273D01*
X010182Y015431D02*
X010031Y015431D01*
X009952Y015590D02*
X010261Y015590D01*
X010347Y015748D02*
X009402Y015748D01*
X009560Y015907D02*
X010347Y015907D01*
X010347Y016065D02*
X009719Y016065D01*
X009877Y016224D02*
X010347Y016224D01*
X010351Y016382D02*
X010036Y016382D01*
X010194Y016541D02*
X010459Y016541D01*
X010353Y016699D02*
X010617Y016699D01*
X010463Y016858D02*
X010776Y016858D01*
X010934Y017016D02*
X010469Y017016D01*
X010469Y017175D02*
X015065Y017175D01*
X015073Y017333D02*
X010469Y017333D01*
X010493Y017492D02*
X010594Y017492D01*
X011163Y017492D02*
X011755Y017492D01*
X012442Y017492D02*
X012649Y017492D01*
X012887Y017492D02*
X012964Y017492D01*
X012964Y017650D02*
X012887Y017650D01*
X012887Y017809D02*
X012964Y017809D01*
X013342Y017809D02*
X013749Y017809D01*
X013749Y017967D02*
X013342Y017967D01*
X013342Y017650D02*
X013749Y017650D01*
X013862Y017492D02*
X013202Y017492D01*
X014430Y017492D02*
X014531Y017492D01*
X015100Y017492D02*
X015157Y017492D01*
X015131Y018284D02*
X015661Y018284D01*
X016410Y018284D02*
X016488Y018284D01*
X016919Y018443D02*
X014228Y018443D01*
X014462Y018284D02*
X014500Y018284D01*
X014714Y016061D02*
X017124Y016061D01*
X017409Y015776D01*
X017409Y015269D01*
X017449Y015174D01*
X017470Y015153D01*
X017470Y015129D01*
X017496Y015102D01*
X017490Y015078D01*
X017490Y014946D01*
X017906Y014946D01*
X017906Y014946D01*
X017490Y014946D01*
X017490Y014814D01*
X017496Y014789D01*
X017470Y014763D01*
X017470Y014381D01*
X017587Y014264D01*
X017646Y014264D01*
X017646Y014247D01*
X016908Y014247D01*
X016914Y014251D01*
X016948Y014284D01*
X016971Y014325D01*
X016984Y014371D01*
X016984Y014593D01*
X016625Y014593D01*
X016625Y014630D01*
X016984Y014630D01*
X016984Y014851D01*
X016971Y014897D01*
X016952Y014930D01*
X017004Y014981D01*
X017004Y015580D01*
X016886Y015697D01*
X016327Y015697D01*
X016311Y015681D01*
X016196Y015681D01*
X016174Y015702D01*
X016009Y015771D01*
X015830Y015771D01*
X015664Y015702D01*
X015642Y015680D01*
X015571Y015680D01*
X015135Y015680D01*
X015010Y015628D01*
X014887Y015628D01*
X014770Y015511D01*
X014770Y015129D01*
X014887Y015012D01*
X015010Y015012D01*
X015135Y014960D01*
X015501Y014960D01*
X015501Y014960D01*
X015572Y014960D01*
X015643Y014960D01*
X015644Y014960D01*
X015664Y014939D01*
X015830Y014871D01*
X016009Y014871D01*
X016174Y014939D01*
X016196Y014961D01*
X016230Y014961D01*
X016261Y014930D01*
X016242Y014897D01*
X016230Y014851D01*
X016230Y014630D01*
X016588Y014630D01*
X016588Y014593D01*
X016230Y014593D01*
X016230Y014371D01*
X016242Y014325D01*
X016266Y014284D01*
X016299Y014251D01*
X016305Y014247D01*
X014552Y014247D01*
X014519Y014281D01*
X014619Y014381D01*
X014619Y014763D01*
X014592Y014789D01*
X014599Y014814D01*
X014599Y014946D01*
X014599Y015078D01*
X014592Y015102D01*
X014619Y015129D01*
X014619Y015511D01*
X014554Y015576D01*
X014554Y015901D01*
X014714Y016061D01*
X014560Y015907D02*
X017278Y015907D01*
X017409Y015748D02*
X016063Y015748D01*
X015775Y015748D02*
X014554Y015748D01*
X014554Y015590D02*
X014849Y015590D01*
X014770Y015431D02*
X014619Y015431D01*
X014619Y015273D02*
X014770Y015273D01*
X014785Y015114D02*
X014604Y015114D01*
X014599Y014956D02*
X015648Y014956D01*
X015525Y014880D02*
X015643Y014763D01*
X015643Y014381D01*
X015525Y014264D01*
X014887Y014264D01*
X014770Y014381D01*
X014770Y014763D01*
X014887Y014880D01*
X015525Y014880D01*
X015608Y014797D02*
X016230Y014797D01*
X016230Y014639D02*
X015643Y014639D01*
X015643Y014480D02*
X016230Y014480D01*
X016244Y014322D02*
X015583Y014322D01*
X014829Y014322D02*
X014560Y014322D01*
X014619Y014480D02*
X014770Y014480D01*
X014770Y014639D02*
X014619Y014639D01*
X014594Y014797D02*
X014804Y014797D01*
X014599Y014946D02*
X014183Y014946D01*
X014599Y014946D01*
X014183Y014946D02*
X014183Y014946D01*
X014183Y014946D01*
X013766Y014946D01*
X013766Y015061D01*
X013505Y015061D01*
X013465Y015021D01*
X012748Y015021D01*
X012709Y015061D01*
X012157Y015061D01*
X012157Y015013D01*
X012090Y014946D01*
X012157Y014879D01*
X012157Y014614D01*
X012179Y014560D01*
X012179Y013269D01*
X012140Y013174D01*
X012066Y013100D01*
X012066Y013100D01*
X011669Y012703D01*
X012581Y012703D01*
X012676Y012664D01*
X012750Y012591D01*
X012910Y012431D01*
X012949Y012335D01*
X012949Y012022D01*
X012910Y011926D01*
X012836Y011853D01*
X012658Y011674D01*
X012562Y011635D01*
X012530Y011635D01*
X012530Y011488D01*
X012510Y011468D01*
X012510Y011383D01*
X012426Y011383D01*
X012426Y011383D01*
X012510Y011383D01*
X012510Y011299D01*
X012530Y011279D01*
X012530Y011252D01*
X012615Y011287D01*
X012774Y011287D01*
X012921Y011227D01*
X012980Y011167D01*
X013200Y011167D01*
X013303Y011125D01*
X013403Y011025D01*
X013403Y011025D01*
X013482Y010946D01*
X013524Y010843D01*
X013524Y008982D01*
X013482Y008879D01*
X013403Y008800D01*
X012893Y008290D01*
X012944Y008167D01*
X012944Y008008D01*
X012884Y007861D01*
X012824Y007802D01*
X012824Y007734D01*
X012829Y007734D01*
X012938Y007625D01*
X012949Y007645D01*
X012983Y007678D01*
X013024Y007702D01*
X013070Y007714D01*
X013291Y007714D01*
X013291Y007356D01*
X013328Y007356D01*
X013328Y007714D01*
X013550Y007714D01*
X013596Y007702D01*
X013629Y007683D01*
X013680Y007734D01*
X013784Y007734D01*
X013784Y009339D01*
X013824Y009435D01*
X013897Y009508D01*
X014202Y009812D01*
X014297Y009852D01*
X014459Y009852D01*
X014459Y010255D01*
X014479Y010275D01*
X014479Y010359D01*
X013524Y010359D01*
X013524Y010201D02*
X014459Y010201D01*
X014459Y010042D02*
X013524Y010042D01*
X013524Y009884D02*
X014459Y009884D01*
X014115Y009725D02*
X013524Y009725D01*
X013524Y009567D02*
X013956Y009567D01*
X013813Y009408D02*
X013524Y009408D01*
X013524Y009250D02*
X013784Y009250D01*
X013784Y009091D02*
X013524Y009091D01*
X013504Y008933D02*
X013784Y008933D01*
X013784Y008774D02*
X013377Y008774D01*
X013219Y008616D02*
X013784Y008616D01*
X013784Y008457D02*
X013060Y008457D01*
X012902Y008299D02*
X013784Y008299D01*
X013784Y008140D02*
X012944Y008140D01*
X012934Y007982D02*
X013784Y007982D01*
X013784Y007823D02*
X012846Y007823D01*
X012898Y007665D02*
X012969Y007665D01*
X013291Y007665D02*
X013328Y007665D01*
X013328Y007506D02*
X013291Y007506D01*
X013291Y007189D02*
X013328Y007189D01*
X013328Y007031D02*
X013291Y007031D01*
X012949Y007031D02*
X012919Y007031D01*
X012544Y007353D02*
X012529Y007337D01*
X012544Y007611D01*
X012544Y008087D01*
X012544Y007353D01*
X011878Y007189D02*
X011841Y007189D01*
X011841Y007031D02*
X011878Y007031D01*
X011499Y007031D02*
X008948Y007031D01*
X009159Y006872D02*
X015269Y006872D01*
X015269Y006714D02*
X009308Y006714D01*
X009415Y006555D02*
X015269Y006555D01*
X015269Y006397D02*
X009492Y006397D01*
X009545Y006238D02*
X015269Y006238D01*
X015269Y006080D02*
X009583Y006080D01*
X009598Y005921D02*
X015337Y005921D01*
X015495Y005763D02*
X009598Y005763D01*
X009598Y005604D02*
X015654Y005604D01*
X015859Y005446D02*
X009598Y005446D01*
X009598Y005287D02*
X015907Y005287D01*
X015898Y006096D02*
X015789Y006204D01*
X015789Y006921D01*
X015809Y006921D01*
X015926Y007038D01*
X015926Y007637D01*
X015809Y007754D01*
X015729Y007754D01*
X015507Y007976D01*
X015507Y008088D01*
X015450Y008224D01*
X015963Y008224D01*
X015963Y008064D01*
X016341Y008064D01*
X016341Y008028D01*
X015963Y008028D01*
X015963Y007826D01*
X015976Y007780D01*
X015999Y007739D01*
X016033Y007705D01*
X016074Y007681D01*
X016120Y007669D01*
X016341Y007669D01*
X016341Y008028D01*
X016378Y008028D01*
X016378Y007669D01*
X016600Y007669D01*
X016646Y007681D01*
X016679Y007700D01*
X016730Y007649D01*
X017329Y007649D01*
X017360Y007681D01*
X017360Y006725D01*
X017113Y006478D01*
X017058Y006345D01*
X017058Y006074D01*
X016938Y005954D01*
X016938Y006102D01*
X016821Y006219D01*
X016015Y006219D01*
X015898Y006102D01*
X015898Y006096D01*
X015789Y006238D02*
X017058Y006238D01*
X017058Y006080D02*
X016938Y006080D01*
X017079Y006397D02*
X015789Y006397D01*
X015789Y006555D02*
X017190Y006555D01*
X017349Y006714D02*
X015789Y006714D01*
X015789Y006872D02*
X017360Y006872D01*
X017360Y007031D02*
X015919Y007031D01*
X015926Y007189D02*
X017360Y007189D01*
X017360Y007348D02*
X015926Y007348D01*
X015926Y007506D02*
X017360Y007506D01*
X017344Y007665D02*
X017360Y007665D01*
X017720Y007996D02*
X017670Y008046D01*
X017029Y008046D01*
X016378Y007982D02*
X016341Y007982D01*
X016341Y007823D02*
X016378Y007823D01*
X016714Y007665D02*
X015898Y007665D01*
X015964Y007823D02*
X015660Y007823D01*
X015507Y007982D02*
X015963Y007982D01*
X015963Y008140D02*
X015485Y008140D01*
X014470Y007031D02*
X014369Y007031D01*
X012544Y008087D02*
X012544Y008337D01*
X013244Y009037D01*
X013244Y010787D01*
X013144Y010887D01*
X012694Y010887D01*
X013238Y011152D02*
X014459Y011152D01*
X014459Y011310D02*
X012510Y011310D01*
X012426Y011383D02*
X012426Y011383D01*
X012511Y011469D02*
X014459Y011469D01*
X014459Y011627D02*
X012530Y011627D01*
X012769Y011786D02*
X014459Y011786D01*
X014459Y011944D02*
X012917Y011944D01*
X012949Y012103D02*
X014459Y012103D01*
X014459Y012261D02*
X012949Y012261D01*
X012914Y012420D02*
X015787Y012420D01*
X015805Y012464D02*
X015744Y012317D01*
X015744Y012158D01*
X015805Y012011D01*
X015918Y011898D01*
X016065Y011837D01*
X016224Y011837D01*
X016353Y011891D01*
X016530Y011891D01*
X016530Y010976D01*
X016550Y010956D01*
X016550Y010871D01*
X016550Y010779D01*
X016560Y010743D01*
X016550Y010708D01*
X016550Y010615D01*
X016550Y010523D01*
X016560Y010487D01*
X016550Y010452D01*
X016550Y010359D01*
X016394Y010359D01*
X016550Y010359D02*
X016635Y010359D01*
X016550Y010359D01*
X016550Y010275D01*
X016530Y010255D01*
X016530Y010098D01*
X016488Y010098D01*
X016394Y010191D01*
X016394Y011137D01*
X016356Y011229D01*
X016286Y011299D01*
X015990Y011595D01*
X015899Y011633D01*
X015409Y011633D01*
X015409Y012302D01*
X015292Y012419D01*
X014576Y012419D01*
X014459Y012302D01*
X014459Y010464D01*
X014479Y010444D01*
X014479Y010359D01*
X014563Y010359D01*
X014563Y010359D01*
X014563Y010359D01*
X014479Y010359D01*
X014459Y010518D02*
X013524Y010518D01*
X013524Y010676D02*
X014459Y010676D01*
X014459Y010835D02*
X013524Y010835D01*
X013435Y010993D02*
X014459Y010993D01*
X015409Y010993D02*
X015885Y010993D01*
X015894Y010984D02*
X015894Y010038D01*
X015933Y009946D01*
X016037Y009842D01*
X015844Y009842D01*
X015626Y010060D01*
X015534Y010098D01*
X015409Y010098D01*
X015409Y010255D01*
X015389Y010275D01*
X015389Y010359D01*
X015894Y010359D01*
X015894Y010201D02*
X015409Y010201D01*
X015389Y010359D02*
X015304Y010359D01*
X015304Y010359D01*
X015304Y010359D01*
X015389Y010359D01*
X015389Y010444D01*
X015409Y010464D01*
X015409Y011133D01*
X015745Y011133D01*
X015894Y010984D01*
X015894Y010835D02*
X015409Y010835D01*
X015409Y010676D02*
X015894Y010676D01*
X015894Y010518D02*
X015409Y010518D01*
X015643Y010042D02*
X015894Y010042D01*
X015802Y009884D02*
X015995Y009884D01*
X016394Y010201D02*
X016530Y010201D01*
X016635Y010359D02*
X016635Y010359D01*
X016552Y010518D02*
X016394Y010518D01*
X016394Y010676D02*
X016550Y010676D01*
X016550Y010615D02*
X017005Y010615D01*
X017005Y010615D01*
X017005Y010608D01*
X017005Y010372D01*
X017005Y010372D01*
X017005Y010615D01*
X016550Y010615D01*
X016550Y010835D02*
X016394Y010835D01*
X016394Y010993D02*
X016530Y010993D01*
X016550Y010871D02*
X016635Y010871D01*
X016550Y010871D01*
X016635Y010871D02*
X016635Y010871D01*
X016530Y011152D02*
X016388Y011152D01*
X016275Y011310D02*
X016530Y011310D01*
X016530Y011469D02*
X016117Y011469D01*
X015913Y011627D02*
X016530Y011627D01*
X016530Y011786D02*
X015409Y011786D01*
X015409Y011944D02*
X015872Y011944D01*
X015767Y012103D02*
X015409Y012103D01*
X015409Y012261D02*
X015744Y012261D01*
X015805Y012464D02*
X015918Y012577D01*
X016065Y012637D01*
X016224Y012637D01*
X016371Y012577D01*
X016484Y012464D01*
X016506Y012411D01*
X016639Y012411D01*
X016647Y012419D01*
X017363Y012419D01*
X017423Y012359D01*
X017646Y012582D01*
X017646Y013727D01*
X014393Y013727D01*
X014297Y013767D01*
X014224Y013840D01*
X014224Y013840D01*
X014035Y014029D01*
X013962Y014102D01*
X013923Y014198D01*
X013923Y014264D01*
X013864Y014264D01*
X013746Y014381D01*
X013746Y014763D01*
X013773Y014789D01*
X013766Y014814D01*
X013766Y014946D01*
X014183Y014946D01*
X013766Y014956D02*
X012100Y014956D01*
X012157Y014797D02*
X012703Y014797D01*
X012687Y014781D02*
X012663Y014740D01*
X012651Y014694D01*
X012651Y014413D01*
X013049Y014413D01*
X013049Y014298D01*
X012651Y014298D01*
X012651Y014017D01*
X012663Y013971D01*
X012687Y013930D01*
X012721Y013896D01*
X012762Y013873D01*
X012807Y013860D01*
X013049Y013860D01*
X013049Y014298D01*
X013164Y014298D01*
X013164Y013860D01*
X013406Y013860D01*
X013452Y013873D01*
X013493Y013896D01*
X013526Y013930D01*
X013550Y013971D01*
X013562Y014017D01*
X013562Y014298D01*
X013164Y014298D01*
X013164Y014413D01*
X013049Y014413D01*
X013049Y014850D01*
X012807Y014850D01*
X012762Y014838D01*
X012721Y014814D01*
X012687Y014781D01*
X012651Y014639D02*
X012157Y014639D01*
X012179Y014480D02*
X012651Y014480D01*
X012651Y014163D02*
X012179Y014163D01*
X012179Y014005D02*
X012654Y014005D01*
X013049Y014005D02*
X013164Y014005D01*
X013164Y014163D02*
X013049Y014163D01*
X013049Y014322D02*
X012179Y014322D01*
X012179Y013846D02*
X014218Y013846D01*
X014060Y014005D02*
X013559Y014005D01*
X013562Y014163D02*
X013937Y014163D01*
X013806Y014322D02*
X013164Y014322D01*
X013164Y014413D02*
X013562Y014413D01*
X013562Y014694D01*
X013550Y014740D01*
X013526Y014781D01*
X013493Y014814D01*
X013452Y014838D01*
X013406Y014850D01*
X013164Y014850D01*
X013164Y014413D01*
X013164Y014480D02*
X013049Y014480D01*
X013049Y014639D02*
X013164Y014639D01*
X013164Y014797D02*
X013049Y014797D01*
X013510Y014797D02*
X013771Y014797D01*
X013746Y014639D02*
X013562Y014639D01*
X013562Y014480D02*
X013746Y014480D01*
X012179Y013688D02*
X017646Y013688D01*
X017646Y013529D02*
X012179Y013529D01*
X012179Y013371D02*
X017646Y013371D01*
X017646Y013212D02*
X012156Y013212D01*
X012020Y013054D02*
X017646Y013054D01*
X017646Y012895D02*
X011861Y012895D01*
X011703Y012737D02*
X017646Y012737D01*
X017643Y012578D02*
X016367Y012578D01*
X016502Y012420D02*
X017484Y012420D01*
X017960Y011786D02*
X018788Y011786D01*
X018740Y011806D02*
X018905Y011737D01*
X019084Y011737D01*
X019249Y011806D01*
X019334Y011891D01*
X019429Y011891D01*
X019429Y011810D01*
X019409Y011790D01*
X019409Y010875D01*
X019021Y010875D01*
X018925Y010836D01*
X018704Y010615D01*
X018704Y011039D01*
X018665Y011135D01*
X018592Y011208D01*
X018196Y011603D01*
X018101Y011643D01*
X017818Y011643D01*
X018610Y012435D01*
X018544Y012277D01*
X018544Y012098D01*
X018613Y011932D01*
X018740Y011806D01*
X018608Y011944D02*
X018119Y011944D01*
X018277Y012103D02*
X018544Y012103D01*
X018544Y012261D02*
X018436Y012261D01*
X018594Y012420D02*
X018604Y012420D01*
X018641Y012470D02*
X018678Y012559D01*
X018678Y014264D01*
X019249Y014264D01*
X019366Y014381D01*
X019366Y014763D01*
X019249Y014880D01*
X018678Y014880D01*
X018678Y015012D01*
X018733Y015012D01*
X018858Y014960D01*
X019419Y014960D01*
X019449Y014930D01*
X019430Y014897D01*
X019418Y014851D01*
X019418Y014630D01*
X019776Y014630D01*
X019776Y014593D01*
X019418Y014593D01*
X019418Y014371D01*
X019430Y014325D01*
X019454Y014284D01*
X019487Y014251D01*
X019528Y014227D01*
X019574Y014215D01*
X019776Y014215D01*
X019776Y014593D01*
X019813Y014593D01*
X019813Y014630D01*
X020171Y014630D01*
X020171Y014851D01*
X020159Y014897D01*
X020140Y014930D01*
X020191Y014981D01*
X020191Y015580D01*
X020154Y015617D01*
X020154Y015888D01*
X020494Y016227D01*
X026000Y016227D01*
X026916Y015311D01*
X026916Y014710D01*
X023585Y014710D01*
X023585Y014745D01*
X023585Y014797D01*
X026916Y014797D01*
X026916Y014956D02*
X024270Y014956D01*
X024333Y014982D02*
X024186Y014921D01*
X024131Y014921D01*
X024053Y014843D01*
X023943Y014797D01*
X023585Y014797D01*
X023585Y014745D02*
X023178Y014745D01*
X023178Y014745D01*
X023585Y014745D01*
X023178Y014430D02*
X027219Y014430D01*
X027276Y014487D01*
X027636Y014480D02*
X028756Y014480D01*
X028914Y014322D02*
X027636Y014322D01*
X027636Y014163D02*
X029073Y014163D01*
X029231Y014005D02*
X027717Y014005D01*
X027876Y013846D02*
X029390Y013846D01*
X029548Y013688D02*
X027902Y013688D01*
X027902Y013529D02*
X029707Y013529D01*
X029950Y013371D02*
X027884Y013371D01*
X027726Y013212D02*
X032740Y013212D01*
X032581Y013054D02*
X027668Y013054D01*
X027827Y012895D02*
X032525Y012895D01*
X032525Y012737D02*
X027902Y012737D01*
X027902Y012578D02*
X032525Y012578D01*
X032647Y012420D02*
X027902Y012420D01*
X027775Y012261D02*
X032806Y012261D01*
X033055Y012261D02*
X033095Y012261D01*
X033095Y012420D02*
X033055Y012420D01*
X033055Y012578D02*
X033095Y012578D01*
X033095Y012737D02*
X033055Y012737D01*
X033503Y012420D02*
X033619Y012420D01*
X033778Y012261D02*
X033345Y012261D01*
X034373Y012261D02*
X035934Y012261D01*
X035934Y012420D02*
X034531Y012420D01*
X034645Y012578D02*
X035934Y012578D01*
X035934Y012737D02*
X034645Y012737D01*
X034645Y012895D02*
X035934Y012895D01*
X035934Y013054D02*
X034597Y013054D01*
X034439Y013212D02*
X035934Y013212D01*
X036043Y013371D02*
X034482Y013371D01*
X034641Y013529D02*
X036919Y013529D01*
X036919Y013688D02*
X034645Y013688D01*
X034645Y013846D02*
X036919Y013846D01*
X036919Y014005D02*
X034645Y014005D01*
X034488Y014163D02*
X036919Y014163D01*
X036919Y014322D02*
X034433Y014322D01*
X034592Y014480D02*
X036919Y014480D01*
X036919Y014639D02*
X034645Y014639D01*
X034645Y014797D02*
X036919Y014797D01*
X036919Y014956D02*
X034645Y014956D01*
X034537Y015114D02*
X036919Y015114D01*
X036919Y015273D02*
X034378Y015273D01*
X033772Y015273D02*
X033567Y015273D01*
X033095Y015273D02*
X033055Y015273D01*
X033055Y015114D02*
X033095Y015114D01*
X033095Y014956D02*
X033055Y014956D01*
X033055Y014797D02*
X033095Y014797D01*
X032525Y014797D02*
X031511Y014797D01*
X031511Y014639D02*
X032525Y014639D01*
X032525Y014480D02*
X031419Y014480D01*
X031511Y014956D02*
X032525Y014956D01*
X032525Y015114D02*
X031511Y015114D01*
X031511Y015273D02*
X032584Y015273D01*
X032496Y015590D02*
X036919Y015590D01*
X036919Y015748D02*
X032496Y015748D01*
X032496Y015907D02*
X036919Y015907D01*
X036919Y016065D02*
X032496Y016065D01*
X032496Y016224D02*
X036919Y016224D01*
X036919Y016382D02*
X032496Y016382D01*
X032496Y016541D02*
X036919Y016541D01*
X036919Y015431D02*
X031511Y015431D01*
X030318Y014480D02*
X029887Y014480D01*
X030046Y014322D02*
X032542Y014322D01*
X030226Y014639D02*
X029729Y014639D01*
X029570Y014797D02*
X030226Y014797D01*
X030226Y014956D02*
X029412Y014956D01*
X029253Y015114D02*
X030226Y015114D01*
X030226Y015273D02*
X029095Y015273D01*
X028936Y015431D02*
X030226Y015431D01*
X030226Y015590D02*
X028778Y015590D01*
X028619Y015748D02*
X030226Y015748D01*
X028484Y015907D02*
X028461Y015907D01*
X027963Y015273D02*
X027636Y015273D01*
X027636Y015431D02*
X027805Y015431D01*
X027646Y015590D02*
X027612Y015590D01*
X027636Y015114D02*
X028122Y015114D01*
X028280Y014956D02*
X027636Y014956D01*
X027636Y014797D02*
X028439Y014797D01*
X028597Y014639D02*
X027636Y014639D01*
X026916Y015114D02*
X024454Y015114D01*
X024446Y015094D02*
X024507Y015241D01*
X024507Y015400D01*
X024446Y015547D01*
X024333Y015660D01*
X024186Y015721D01*
X024027Y015721D01*
X023880Y015660D01*
X023768Y015547D01*
X023707Y015400D01*
X023707Y015397D01*
X023512Y015397D01*
X023488Y015421D01*
X022869Y015421D01*
X022794Y015347D01*
X022720Y015421D01*
X022101Y015421D01*
X021984Y015304D01*
X021984Y014993D01*
X021707Y014993D01*
X021612Y014954D01*
X021539Y014881D01*
X021391Y014733D01*
X021391Y014911D01*
X021340Y014962D01*
X021359Y014994D01*
X021371Y015040D01*
X021371Y015262D01*
X021013Y015262D01*
X021013Y015299D01*
X021371Y015299D01*
X021371Y015521D01*
X021359Y015567D01*
X021335Y015608D01*
X021302Y015641D01*
X021261Y015665D01*
X021215Y015677D01*
X021013Y015677D01*
X021013Y015299D01*
X020976Y015299D01*
X020976Y015677D01*
X020774Y015677D01*
X020728Y015665D01*
X020687Y015641D01*
X020654Y015608D01*
X020630Y015567D01*
X020618Y015521D01*
X020618Y015299D01*
X020976Y015299D01*
X020976Y015262D01*
X020618Y015262D01*
X020618Y015040D01*
X020630Y014994D01*
X020649Y014962D01*
X020598Y014911D01*
X020598Y014312D01*
X020715Y014195D01*
X020734Y014195D01*
X020734Y012845D01*
X020300Y012411D01*
X020250Y012411D01*
X020242Y012419D01*
X019526Y012419D01*
X019518Y012411D01*
X019389Y012411D01*
X019376Y012442D01*
X019249Y012569D01*
X019084Y012637D01*
X018905Y012637D01*
X018740Y012569D01*
X018641Y012470D01*
X018678Y012578D02*
X018762Y012578D01*
X018678Y012737D02*
X020626Y012737D01*
X020734Y012895D02*
X018678Y012895D01*
X018678Y013054D02*
X020734Y013054D01*
X020734Y013212D02*
X018678Y013212D01*
X018678Y013371D02*
X020734Y013371D01*
X020734Y013529D02*
X018678Y013529D01*
X018678Y013688D02*
X020734Y013688D01*
X020734Y013846D02*
X018678Y013846D01*
X018678Y014005D02*
X020734Y014005D01*
X020734Y014163D02*
X018678Y014163D01*
X019307Y014322D02*
X019432Y014322D01*
X019418Y014480D02*
X019366Y014480D01*
X019366Y014639D02*
X019418Y014639D01*
X019418Y014797D02*
X019332Y014797D01*
X019423Y014956D02*
X018678Y014956D01*
X018678Y015628D02*
X018678Y017365D01*
X018638Y017460D01*
X018611Y017487D01*
X019032Y017487D01*
X019149Y017604D01*
X019149Y017644D01*
X019537Y017644D01*
X019537Y017584D01*
X019654Y017467D01*
X020292Y017467D01*
X020405Y017581D01*
X020419Y017557D01*
X020453Y017523D01*
X020494Y017500D01*
X020540Y017487D01*
X020761Y017487D01*
X020761Y017865D01*
X020838Y017865D01*
X020838Y017487D01*
X021060Y017487D01*
X021105Y017500D01*
X021146Y017523D01*
X021180Y017557D01*
X021204Y017598D01*
X021216Y017644D01*
X021216Y017865D01*
X020838Y017865D01*
X020838Y017942D01*
X020761Y017942D01*
X020761Y018320D01*
X020540Y018320D01*
X020494Y018307D01*
X020453Y018284D01*
X020419Y018250D01*
X020405Y018226D01*
X020292Y018340D01*
X019654Y018340D01*
X019537Y018223D01*
X019537Y018164D01*
X019149Y018164D01*
X019149Y018203D01*
X019032Y018320D01*
X018473Y018320D01*
X018418Y018265D01*
X018363Y018320D01*
X017869Y018320D01*
X017917Y018368D01*
X018003Y018578D01*
X018003Y018695D01*
X020552Y021244D01*
X026401Y021244D01*
X026262Y021105D01*
X026149Y020992D01*
X026089Y020845D01*
X026089Y017233D01*
X026149Y017086D01*
X026337Y016899D01*
X026220Y016947D01*
X022280Y016947D01*
X022280Y017487D01*
X022300Y017487D01*
X022355Y017542D01*
X022410Y017487D01*
X022969Y017487D01*
X023086Y017604D01*
X023086Y017644D01*
X023474Y017644D01*
X023474Y017584D01*
X023591Y017467D01*
X024229Y017467D01*
X024342Y017581D01*
X024356Y017557D01*
X024390Y017523D01*
X024431Y017500D01*
X024477Y017487D01*
X024699Y017487D01*
X024699Y017865D01*
X024775Y017865D01*
X024775Y017487D01*
X024997Y017487D01*
X025042Y017500D01*
X025083Y017523D01*
X025117Y017557D01*
X025141Y017598D01*
X025153Y017644D01*
X025153Y017865D01*
X024775Y017865D01*
X024775Y017942D01*
X024699Y017942D01*
X024699Y018320D01*
X024477Y018320D01*
X024431Y018307D01*
X024390Y018284D01*
X024356Y018250D01*
X024342Y018226D01*
X024229Y018340D01*
X023591Y018340D01*
X023474Y018223D01*
X023474Y018164D01*
X023086Y018164D01*
X023086Y018203D01*
X022969Y018320D01*
X022410Y018320D01*
X022355Y018265D01*
X022300Y018320D01*
X021740Y018320D01*
X021623Y018203D01*
X021623Y017604D01*
X021740Y017487D01*
X021760Y017487D01*
X021760Y016947D01*
X020273Y016947D01*
X020141Y016893D01*
X019489Y016241D01*
X019434Y016109D01*
X019434Y015680D01*
X018858Y015680D01*
X018733Y015628D01*
X018678Y015628D01*
X018678Y015748D02*
X019434Y015748D01*
X019434Y015907D02*
X018678Y015907D01*
X018678Y016065D02*
X019434Y016065D01*
X019482Y016224D02*
X018678Y016224D01*
X018678Y016382D02*
X019630Y016382D01*
X019789Y016541D02*
X018678Y016541D01*
X018678Y016699D02*
X019947Y016699D01*
X020106Y016858D02*
X018678Y016858D01*
X018678Y017016D02*
X021760Y017016D01*
X021760Y017175D02*
X018678Y017175D01*
X018678Y017333D02*
X021760Y017333D01*
X021736Y017492D02*
X021076Y017492D01*
X021216Y017650D02*
X021623Y017650D01*
X021623Y017809D02*
X021216Y017809D01*
X021216Y017942D02*
X020838Y017942D01*
X020838Y018320D01*
X021060Y018320D01*
X021105Y018307D01*
X021146Y018284D01*
X021704Y018284D01*
X021623Y018126D02*
X021216Y018126D01*
X021216Y018163D02*
X021216Y017942D01*
X021216Y017967D02*
X021623Y017967D01*
X021216Y018163D02*
X021204Y018209D01*
X021180Y018250D01*
X021146Y018284D01*
X020838Y018284D02*
X020761Y018284D01*
X020761Y018126D02*
X020838Y018126D01*
X020838Y017967D02*
X020761Y017967D01*
X020761Y017809D02*
X020838Y017809D01*
X020838Y017650D02*
X020761Y017650D01*
X020761Y017492D02*
X020838Y017492D01*
X020523Y017492D02*
X020316Y017492D01*
X019629Y017492D02*
X019037Y017492D01*
X019068Y018284D02*
X019598Y018284D01*
X020347Y018284D02*
X020454Y018284D01*
X022336Y018284D02*
X022374Y018284D01*
X023005Y018284D02*
X023535Y018284D01*
X024284Y018284D02*
X024391Y018284D01*
X024699Y018284D02*
X024775Y018284D01*
X024775Y018320D02*
X024775Y017942D01*
X025153Y017942D01*
X025153Y018163D01*
X025179Y018154D01*
X025264Y018141D01*
X025287Y018141D01*
X025287Y018671D01*
X024757Y018671D01*
X024757Y018648D01*
X024771Y018562D01*
X024798Y018480D01*
X024837Y018403D01*
X024888Y018333D01*
X024901Y018320D01*
X024775Y018320D01*
X024817Y018443D02*
X017948Y018443D01*
X018003Y018601D02*
X024765Y018601D01*
X024757Y018711D02*
X025287Y018711D01*
X025287Y018671D01*
X025327Y018671D01*
X025327Y018141D01*
X025351Y018141D01*
X025436Y018154D01*
X025519Y018181D01*
X025596Y018221D01*
X025666Y018271D01*
X025727Y018333D01*
X025778Y018403D01*
X025817Y018480D01*
X025844Y018562D01*
X025857Y018648D01*
X025857Y018671D01*
X025327Y018671D01*
X025327Y018711D01*
X025287Y018711D01*
X025287Y019241D01*
X025264Y019241D01*
X025179Y019227D01*
X025096Y019201D01*
X025019Y019161D01*
X024949Y019110D01*
X024888Y019049D01*
X024837Y018979D01*
X024798Y018902D01*
X024771Y018820D01*
X024757Y018734D01*
X024757Y018711D01*
X024762Y018760D02*
X018068Y018760D01*
X018226Y018918D02*
X024806Y018918D01*
X024915Y019077D02*
X018385Y019077D01*
X018543Y019235D02*
X025228Y019235D01*
X025287Y019235D02*
X025327Y019235D01*
X025327Y019241D02*
X025327Y018711D01*
X025857Y018711D01*
X025857Y018734D01*
X025844Y018820D01*
X025817Y018902D01*
X025778Y018979D01*
X025727Y019049D01*
X025666Y019110D01*
X025596Y019161D01*
X025519Y019201D01*
X025436Y019227D01*
X025351Y019241D01*
X025327Y019241D01*
X025387Y019235D02*
X026089Y019235D01*
X026089Y019077D02*
X025700Y019077D01*
X025809Y018918D02*
X026089Y018918D01*
X026089Y018760D02*
X025853Y018760D01*
X025850Y018601D02*
X026089Y018601D01*
X026089Y018443D02*
X025798Y018443D01*
X025679Y018284D02*
X026089Y018284D01*
X026089Y018126D02*
X025153Y018126D01*
X025153Y017967D02*
X026089Y017967D01*
X026089Y017809D02*
X025153Y017809D01*
X025153Y017650D02*
X026089Y017650D01*
X026089Y017492D02*
X025013Y017492D01*
X024775Y017492D02*
X024699Y017492D01*
X024699Y017650D02*
X024775Y017650D01*
X024775Y017809D02*
X024699Y017809D01*
X024699Y017967D02*
X024775Y017967D01*
X024775Y018126D02*
X024699Y018126D01*
X025287Y018284D02*
X025327Y018284D01*
X025327Y018443D02*
X025287Y018443D01*
X025287Y018601D02*
X025327Y018601D01*
X025327Y018760D02*
X025287Y018760D01*
X025287Y018918D02*
X025327Y018918D01*
X025327Y019077D02*
X025287Y019077D01*
X026089Y019394D02*
X018702Y019394D01*
X018860Y019552D02*
X026089Y019552D01*
X026089Y019711D02*
X019019Y019711D01*
X019177Y019869D02*
X026089Y019869D01*
X026089Y020028D02*
X019336Y020028D01*
X019494Y020186D02*
X026089Y020186D01*
X026089Y020345D02*
X019653Y020345D01*
X019811Y020503D02*
X026089Y020503D01*
X026089Y020662D02*
X019970Y020662D01*
X020128Y020820D02*
X026089Y020820D01*
X026144Y020979D02*
X020287Y020979D01*
X020445Y021137D02*
X026294Y021137D01*
X027347Y020503D02*
X027387Y020503D01*
X027387Y020345D02*
X027347Y020345D01*
X027347Y020186D02*
X027387Y020186D01*
X027687Y020186D02*
X028018Y020186D01*
X027859Y020345D02*
X027845Y020345D01*
X027046Y020186D02*
X026889Y020186D01*
X026889Y020028D02*
X030226Y020028D01*
X030226Y020186D02*
X028715Y020186D01*
X028874Y020345D02*
X030226Y020345D01*
X030226Y020503D02*
X028937Y020503D01*
X028937Y020662D02*
X030226Y020662D01*
X030226Y020820D02*
X028937Y020820D01*
X028838Y020979D02*
X030226Y020979D01*
X030226Y021137D02*
X028679Y021137D01*
X028825Y021296D02*
X030226Y021296D01*
X030226Y021454D02*
X028937Y021454D01*
X028937Y021613D02*
X030226Y021613D01*
X030226Y021771D02*
X028937Y021771D01*
X028887Y021930D02*
X030226Y021930D01*
X030226Y022088D02*
X028728Y022088D01*
X028776Y022247D02*
X030226Y022247D01*
X030226Y022405D02*
X028934Y022405D01*
X028937Y022564D02*
X030226Y022564D01*
X030226Y022722D02*
X028937Y022722D01*
X028936Y022881D02*
X030226Y022881D01*
X030226Y023039D02*
X028777Y023039D01*
X028619Y023198D02*
X030226Y023198D01*
X030226Y019869D02*
X026889Y019869D01*
X026889Y019711D02*
X030226Y019711D01*
X030226Y019552D02*
X026889Y019552D01*
X026889Y019394D02*
X030226Y019394D01*
X030226Y019235D02*
X026889Y019235D01*
X026889Y019077D02*
X030226Y019077D01*
X030226Y018918D02*
X029360Y018918D01*
X029654Y018760D02*
X030226Y018760D01*
X030226Y018601D02*
X029862Y018601D01*
X030020Y018443D02*
X030226Y018443D01*
X030226Y018284D02*
X030145Y018284D01*
X027308Y018284D02*
X026889Y018284D01*
X026889Y018126D02*
X027308Y018126D01*
X027308Y017967D02*
X026889Y017967D01*
X026889Y017809D02*
X027308Y017809D01*
X027308Y017650D02*
X026889Y017650D01*
X026889Y017492D02*
X027308Y017492D01*
X027303Y017333D02*
X027034Y017333D01*
X027193Y017175D02*
X027315Y017175D01*
X026220Y017016D02*
X022280Y017016D01*
X022280Y017175D02*
X026113Y017175D01*
X026089Y017333D02*
X022280Y017333D01*
X022304Y017492D02*
X022405Y017492D01*
X022974Y017492D02*
X023566Y017492D01*
X024253Y017492D02*
X024460Y017492D01*
X026003Y016224D02*
X020490Y016224D01*
X020331Y016065D02*
X026162Y016065D01*
X026320Y015907D02*
X020173Y015907D01*
X020154Y015748D02*
X026479Y015748D01*
X026637Y015590D02*
X024404Y015590D01*
X024494Y015431D02*
X026796Y015431D01*
X026916Y015273D02*
X024507Y015273D01*
X024446Y015094D02*
X024333Y014982D01*
X023719Y015431D02*
X021371Y015431D01*
X021346Y015590D02*
X023810Y015590D01*
X021984Y015273D02*
X021013Y015273D01*
X020976Y015273D02*
X020191Y015273D01*
X020191Y015431D02*
X020618Y015431D01*
X020643Y015590D02*
X020182Y015590D01*
X020191Y015114D02*
X020618Y015114D01*
X020643Y014956D02*
X020166Y014956D01*
X020171Y014797D02*
X020598Y014797D01*
X020598Y014639D02*
X020171Y014639D01*
X020171Y014593D02*
X019813Y014593D01*
X019813Y014215D01*
X020015Y014215D01*
X020061Y014227D01*
X020102Y014251D01*
X020135Y014284D01*
X020159Y014325D01*
X020171Y014371D01*
X020171Y014593D01*
X020171Y014480D02*
X020598Y014480D01*
X020598Y014322D02*
X020157Y014322D01*
X019813Y014322D02*
X019776Y014322D01*
X019776Y014480D02*
X019813Y014480D01*
X020976Y015431D02*
X021013Y015431D01*
X021013Y015590D02*
X020976Y015590D01*
X021371Y015114D02*
X021984Y015114D01*
X021616Y014956D02*
X021346Y014956D01*
X021391Y014797D02*
X021455Y014797D01*
X021991Y013818D02*
X022037Y013818D01*
X022101Y013754D01*
X022720Y013754D01*
X022809Y013842D01*
X022841Y013810D01*
X022882Y013786D01*
X022928Y013774D01*
X023178Y013774D01*
X023178Y014078D01*
X023585Y014078D01*
X023585Y014150D01*
X026916Y014150D01*
X026916Y013873D01*
X026868Y013826D01*
X026589Y014104D01*
X026402Y014104D01*
X026402Y013624D01*
X026362Y013624D01*
X026362Y013584D01*
X025882Y013584D01*
X025882Y013397D01*
X026161Y013118D01*
X025862Y012820D01*
X025862Y012517D01*
X025081Y013296D01*
X025042Y013335D01*
X025041Y013335D01*
X024990Y013356D01*
X024939Y013377D01*
X024938Y013377D01*
X024883Y013377D01*
X023532Y013377D01*
X023488Y013421D01*
X022869Y013421D01*
X022794Y013347D01*
X022720Y013421D01*
X022101Y013421D01*
X021984Y013304D01*
X021984Y013005D01*
X021859Y013005D01*
X021769Y012968D01*
X021769Y013596D01*
X021991Y013818D01*
X021861Y013688D02*
X025882Y013688D01*
X025882Y013624D02*
X026362Y013624D01*
X026362Y014104D01*
X026175Y014104D01*
X025882Y013811D01*
X025882Y013624D01*
X025882Y013529D02*
X021769Y013529D01*
X021769Y013371D02*
X022051Y013371D01*
X021984Y013212D02*
X021769Y013212D01*
X021769Y013054D02*
X021984Y013054D01*
X022770Y013371D02*
X022819Y013371D01*
X023178Y013097D02*
X024883Y013097D01*
X026382Y011604D01*
X025862Y011627D02*
X025341Y011627D01*
X025261Y011708D02*
X025588Y011381D01*
X025870Y011381D01*
X025862Y011389D01*
X025862Y011727D01*
X024767Y012817D01*
X023585Y012817D01*
X023585Y012745D01*
X023178Y012745D01*
X023178Y012745D01*
X023585Y012745D01*
X023585Y012690D01*
X024323Y012690D01*
X024418Y012650D01*
X024552Y012516D01*
X024664Y012516D01*
X024811Y012455D01*
X024924Y012343D01*
X024985Y012196D01*
X024985Y012037D01*
X024924Y011890D01*
X024811Y011777D01*
X024740Y011747D01*
X025165Y011747D01*
X025261Y011708D01*
X025500Y011469D02*
X025862Y011469D01*
X025803Y011786D02*
X024820Y011786D01*
X024946Y011944D02*
X025644Y011944D01*
X025485Y012103D02*
X024985Y012103D01*
X024958Y012261D02*
X025326Y012261D01*
X025167Y012420D02*
X024847Y012420D01*
X025008Y012578D02*
X024490Y012578D01*
X024848Y012737D02*
X023585Y012737D01*
X023585Y012170D02*
X024163Y012170D01*
X024185Y012148D01*
X024185Y012037D01*
X024246Y011890D01*
X024358Y011777D01*
X024430Y011747D01*
X021781Y011747D01*
X021851Y011818D01*
X022037Y011818D01*
X022101Y011754D01*
X022720Y011754D01*
X022809Y011842D01*
X022841Y011810D01*
X022882Y011786D01*
X022928Y011774D01*
X023178Y011774D01*
X023178Y012078D01*
X023585Y012078D01*
X023585Y012170D01*
X023585Y012103D02*
X024185Y012103D01*
X024223Y011944D02*
X023585Y011944D01*
X023585Y011930D02*
X023585Y012078D01*
X023178Y012078D01*
X023178Y012078D01*
X023178Y012078D01*
X023178Y011774D01*
X023428Y011774D01*
X023474Y011786D01*
X023515Y011810D01*
X023549Y011843D01*
X023572Y011884D01*
X023585Y011930D01*
X023474Y011786D02*
X024349Y011786D01*
X023880Y011227D02*
X025006Y011227D01*
X025260Y010974D01*
X025333Y010900D01*
X025428Y010861D01*
X025903Y010861D01*
X025862Y010820D01*
X025862Y010389D01*
X025870Y010381D01*
X023526Y010381D01*
X023526Y010387D01*
X023409Y010504D01*
X022849Y010504D01*
X022794Y010449D01*
X022740Y010504D01*
X022180Y010504D01*
X022120Y010444D01*
X022014Y010487D01*
X021855Y010487D01*
X021708Y010427D01*
X021595Y010314D01*
X021534Y010167D01*
X021534Y010008D01*
X021595Y009861D01*
X021604Y009852D01*
X020561Y009852D01*
X020637Y009883D01*
X021477Y010723D01*
X021689Y010723D01*
X021689Y010629D01*
X021806Y010512D01*
X022602Y010512D01*
X022719Y010629D01*
X022719Y011227D01*
X022890Y011227D01*
X022890Y011045D01*
X023327Y011045D01*
X023327Y010930D01*
X022890Y010930D01*
X022890Y010688D01*
X022902Y010642D01*
X022926Y010601D01*
X022960Y010568D01*
X023001Y010544D01*
X023046Y010532D01*
X023327Y010532D01*
X023327Y010930D01*
X023443Y010930D01*
X023443Y011045D01*
X023880Y011045D01*
X023880Y011227D01*
X023880Y011152D02*
X025081Y011152D01*
X025240Y010993D02*
X023443Y010993D01*
X023443Y010930D02*
X023880Y010930D01*
X023880Y010688D01*
X023868Y010642D01*
X023844Y010601D01*
X023811Y010568D01*
X023769Y010544D01*
X023724Y010532D01*
X023443Y010532D01*
X023443Y010930D01*
X023443Y010835D02*
X023327Y010835D01*
X023327Y010993D02*
X022719Y010993D01*
X022719Y010835D02*
X022890Y010835D01*
X022893Y010676D02*
X022719Y010676D01*
X022608Y010518D02*
X025862Y010518D01*
X025862Y010676D02*
X023877Y010676D01*
X023880Y010835D02*
X025877Y010835D01*
X024771Y009725D02*
X023463Y009725D01*
X023501Y009408D02*
X024747Y009408D01*
X024726Y009567D02*
X022976Y009567D01*
X022856Y009408D02*
X022818Y009408D01*
X021586Y009884D02*
X020637Y009884D01*
X020796Y010042D02*
X021534Y010042D01*
X021548Y010201D02*
X020954Y010201D01*
X021113Y010359D02*
X021641Y010359D01*
X021800Y010518D02*
X021271Y010518D01*
X021430Y010676D02*
X021689Y010676D01*
X022719Y011152D02*
X022890Y011152D01*
X023327Y010676D02*
X023443Y010676D01*
X023178Y011786D02*
X023178Y011786D01*
X023178Y011944D02*
X023178Y011944D01*
X022883Y011786D02*
X022752Y011786D01*
X022069Y011786D02*
X021819Y011786D01*
X020468Y012578D02*
X019227Y012578D01*
X019385Y012420D02*
X020309Y012420D01*
X019409Y011786D02*
X019201Y011786D01*
X019409Y011627D02*
X018139Y011627D01*
X018331Y011469D02*
X019409Y011469D01*
X019409Y011310D02*
X018489Y011310D01*
X018648Y011152D02*
X019409Y011152D01*
X019409Y010993D02*
X018704Y010993D01*
X018704Y010835D02*
X018924Y010835D01*
X018766Y010676D02*
X018704Y010676D01*
X019025Y010201D02*
X019409Y010201D01*
X019409Y010355D02*
X019409Y009952D01*
X019429Y009932D01*
X019429Y009848D01*
X019513Y009848D01*
X019513Y009848D01*
X019429Y009848D01*
X019429Y009763D01*
X019409Y009743D01*
X019409Y008987D01*
X019265Y008987D01*
X019118Y008927D01*
X019005Y008814D01*
X019004Y008812D01*
X019004Y010180D01*
X019180Y010355D01*
X019409Y010355D01*
X019409Y010042D02*
X019004Y010042D01*
X019004Y009884D02*
X019429Y009884D01*
X019513Y009848D02*
X019513Y009848D01*
X019409Y009725D02*
X019004Y009725D01*
X019004Y009567D02*
X019409Y009567D01*
X019409Y009408D02*
X019004Y009408D01*
X019004Y009250D02*
X019409Y009250D01*
X019409Y009091D02*
X019004Y009091D01*
X019004Y008933D02*
X019133Y008933D01*
X019744Y008556D02*
X019744Y008508D01*
X019684Y008361D01*
X019571Y008248D01*
X019424Y008187D01*
X019312Y008187D01*
X019304Y008180D01*
X019304Y007695D01*
X019452Y007547D01*
X022196Y007547D01*
X022292Y007508D01*
X022304Y007495D01*
X022347Y007538D01*
X022241Y007644D01*
X022206Y007676D01*
X022204Y007681D01*
X022200Y007685D01*
X022182Y007728D01*
X022170Y007754D01*
X022101Y007754D01*
X021984Y007871D01*
X021984Y008170D01*
X020950Y008170D01*
X020871Y008091D01*
X020724Y008030D01*
X020565Y008030D01*
X020418Y008091D01*
X020305Y008203D01*
X020244Y008350D01*
X020244Y008462D01*
X020151Y008556D01*
X019744Y008556D01*
X019724Y008457D02*
X020244Y008457D01*
X020266Y008299D02*
X019621Y008299D01*
X019304Y008140D02*
X020369Y008140D01*
X020920Y008140D02*
X021984Y008140D01*
X021984Y007982D02*
X019304Y007982D01*
X019304Y007823D02*
X022032Y007823D01*
X022219Y007665D02*
X019335Y007665D01*
X020488Y007027D02*
X021570Y007027D01*
X021544Y006967D01*
X021544Y006808D01*
X021605Y006661D01*
X021690Y006576D01*
X021644Y006467D01*
X021644Y006308D01*
X021654Y006286D01*
X021230Y006286D01*
X020488Y007027D01*
X020644Y006872D02*
X021544Y006872D01*
X021583Y006714D02*
X020802Y006714D01*
X020961Y006555D02*
X021681Y006555D01*
X021644Y006397D02*
X021119Y006397D01*
X020938Y005763D02*
X022286Y005763D01*
X022314Y005604D02*
X020938Y005604D01*
X020900Y005446D02*
X027308Y005446D01*
X027308Y005604D02*
X026165Y005604D01*
X025924Y005604D02*
X025309Y005604D01*
X025323Y005763D02*
X025705Y005763D01*
X026384Y005763D02*
X027308Y005763D01*
X027308Y005921D02*
X026444Y005921D01*
X026439Y006080D02*
X027324Y006080D01*
X027361Y006238D02*
X026359Y006238D01*
X026040Y006397D02*
X027414Y006397D01*
X027491Y006555D02*
X026044Y006555D01*
X025984Y006714D02*
X027598Y006714D01*
X027747Y006872D02*
X025761Y006872D01*
X025528Y006872D02*
X025323Y006872D01*
X025323Y007031D02*
X025470Y007031D01*
X026511Y007031D02*
X026548Y007031D01*
X026548Y007189D02*
X026511Y007189D01*
X026548Y007348D02*
X030226Y007348D01*
X030226Y007506D02*
X026926Y007506D01*
X026870Y007665D02*
X030226Y007665D01*
X030226Y007823D02*
X025657Y007823D01*
X025651Y007982D02*
X030226Y007982D01*
X030226Y008140D02*
X025570Y008140D01*
X025253Y008299D02*
X030226Y008299D01*
X030226Y008457D02*
X025257Y008457D01*
X025195Y008616D02*
X025682Y008616D01*
X025522Y008774D02*
X024969Y008774D01*
X024746Y008774D02*
X024743Y008774D01*
X024757Y008933D02*
X025363Y008933D01*
X025205Y009091D02*
X024706Y009091D01*
X024848Y009250D02*
X024528Y009250D01*
X023193Y008073D02*
X023178Y008078D01*
X022315Y007506D02*
X022293Y007506D01*
X023463Y006238D02*
X023473Y006238D01*
X023587Y006080D02*
X023304Y006080D01*
X023020Y005921D02*
X024090Y005921D01*
X024202Y005763D02*
X023000Y005763D01*
X022972Y005604D02*
X024360Y005604D01*
X022643Y005604D02*
X022643Y005604D01*
X020741Y005287D02*
X027308Y005287D01*
X027308Y005129D02*
X020215Y005129D01*
X020057Y004970D02*
X027308Y004970D01*
X027308Y004812D02*
X019846Y004812D01*
X019025Y004812D02*
X009598Y004812D01*
X009598Y004970D02*
X018814Y004970D01*
X018673Y005129D02*
X009598Y005129D01*
X009598Y004653D02*
X027308Y004653D01*
X027308Y004495D02*
X009598Y004495D01*
X009598Y004336D02*
X011824Y004336D01*
X011666Y004178D02*
X011236Y004178D01*
X011236Y004019D02*
X011553Y004019D01*
X011553Y003861D02*
X011236Y003861D01*
X011236Y003702D02*
X011553Y003702D01*
X011618Y003544D02*
X011236Y003544D01*
X011236Y003385D02*
X011776Y003385D01*
X011687Y003227D02*
X011236Y003227D01*
X011236Y003068D02*
X011533Y003068D01*
X011533Y002910D02*
X011236Y002910D01*
X011236Y002751D02*
X011533Y002751D01*
X011541Y002593D02*
X011236Y002593D01*
X011236Y002434D02*
X011699Y002434D01*
X011858Y002276D02*
X011236Y002276D01*
X012348Y002276D02*
X012858Y002276D01*
X012699Y002434D02*
X012506Y002434D01*
X013348Y002276D02*
X013858Y002276D01*
X013699Y002434D02*
X013506Y002434D01*
X014348Y002276D02*
X014478Y002276D01*
X014519Y003227D02*
X015659Y003227D01*
X015659Y003385D02*
X014634Y003385D01*
X014653Y003544D02*
X015659Y003544D01*
X015659Y003702D02*
X014653Y003702D01*
X014653Y003861D02*
X015659Y003861D01*
X015659Y004019D02*
X014653Y004019D01*
X014653Y004178D02*
X015659Y004178D01*
X014598Y004336D02*
X027308Y004336D01*
X027329Y004178D02*
X026984Y004178D01*
X026984Y004019D02*
X028659Y004019D01*
X028792Y003861D02*
X026984Y003861D01*
X026984Y003702D02*
X028710Y003702D01*
X028679Y003544D02*
X026984Y003544D01*
X026984Y003385D02*
X028679Y003385D01*
X028679Y003068D02*
X028123Y003068D01*
X028165Y002910D02*
X028679Y002910D01*
X028714Y002751D02*
X028165Y002751D01*
X028165Y002593D02*
X032391Y002593D01*
X032391Y002751D02*
X031527Y002751D01*
X031686Y002910D02*
X032391Y002910D01*
X032391Y003068D02*
X031779Y003068D01*
X031779Y003385D02*
X032391Y003385D01*
X032391Y003227D02*
X031249Y003227D01*
X031249Y003068D02*
X031209Y003068D01*
X031209Y002910D02*
X031249Y002910D01*
X031249Y002751D02*
X031209Y002751D01*
X030930Y002751D02*
X030556Y002751D01*
X030714Y002910D02*
X030772Y002910D01*
X029902Y002751D02*
X029744Y002751D01*
X029249Y002751D02*
X029209Y002751D01*
X029209Y002910D02*
X029249Y002910D01*
X029249Y003068D02*
X029209Y003068D01*
X029209Y003227D02*
X026984Y003227D01*
X028165Y002434D02*
X032391Y002434D01*
X032391Y002276D02*
X028165Y002276D01*
X025698Y002276D02*
X022456Y002276D01*
X022456Y002434D02*
X025698Y002434D01*
X025698Y002593D02*
X022456Y002593D01*
X022456Y002751D02*
X025698Y002751D01*
X025698Y002910D02*
X022456Y002910D01*
X022414Y003068D02*
X025698Y003068D01*
X025698Y003227D02*
X021275Y003227D01*
X021275Y003385D02*
X025698Y003385D01*
X025698Y003544D02*
X021275Y003544D01*
X021275Y003702D02*
X025698Y003702D01*
X025698Y003861D02*
X021275Y003861D01*
X021275Y004019D02*
X025698Y004019D01*
X025698Y004178D02*
X021275Y004178D01*
X018438Y005287D02*
X018398Y005287D01*
X018398Y005446D02*
X018438Y005446D01*
X018438Y005604D02*
X018398Y005604D01*
X018398Y005719D02*
X018398Y006199D01*
X018211Y006199D01*
X017932Y005920D01*
X017778Y006074D01*
X017778Y006125D01*
X018026Y006372D01*
X018080Y006505D01*
X018080Y006777D01*
X018646Y006212D01*
X018646Y006178D01*
X018625Y006199D01*
X018438Y006199D01*
X018438Y005719D01*
X018398Y005719D01*
X018398Y005763D02*
X018438Y005763D01*
X018438Y005921D02*
X018398Y005921D01*
X018398Y006080D02*
X018438Y006080D01*
X018620Y006238D02*
X017891Y006238D01*
X017778Y006080D02*
X018091Y006080D01*
X017933Y005921D02*
X017931Y005921D01*
X018036Y006397D02*
X018461Y006397D01*
X018303Y006555D02*
X018080Y006555D01*
X018080Y006714D02*
X018144Y006714D01*
X017964Y005446D02*
X017900Y005446D01*
X017741Y005287D02*
X018122Y005287D01*
X017094Y005287D02*
X016929Y005287D01*
X014123Y004336D02*
X014083Y004336D01*
X014083Y004178D02*
X014123Y004178D01*
X014123Y004019D02*
X014083Y004019D01*
X014083Y003861D02*
X014123Y003861D01*
X013608Y004336D02*
X013409Y004336D01*
X012796Y004336D02*
X012381Y004336D01*
X012540Y004178D02*
X012638Y004178D01*
X012123Y004178D02*
X012083Y004178D01*
X012083Y004336D02*
X012123Y004336D01*
X012123Y004019D02*
X012083Y004019D01*
X012083Y003861D02*
X012123Y003861D01*
X009950Y003861D02*
X005527Y003861D01*
X005527Y004019D02*
X009950Y004019D01*
X009950Y004178D02*
X009577Y004178D01*
X009950Y003702D02*
X005527Y003702D01*
X005527Y003544D02*
X009950Y003544D01*
X009950Y003385D02*
X005527Y003385D01*
X005527Y003227D02*
X009950Y003227D01*
X008811Y003068D02*
X006666Y003068D01*
X006708Y002910D02*
X008769Y002910D01*
X008769Y002751D02*
X006708Y002751D01*
X006708Y002593D02*
X008769Y002593D01*
X008769Y002434D02*
X006708Y002434D01*
X006708Y002276D02*
X008769Y002276D01*
X008587Y007189D02*
X011463Y007189D01*
X012530Y008719D02*
X012530Y009231D01*
X012510Y009251D01*
X012510Y009336D01*
X012510Y009428D01*
X012501Y009464D01*
X012510Y009500D01*
X012510Y009592D01*
X012510Y009676D01*
X012530Y009696D01*
X012530Y009936D01*
X012568Y009898D01*
X012715Y009837D01*
X012874Y009837D01*
X012964Y009875D01*
X012964Y009153D01*
X012530Y008719D01*
X012530Y008774D02*
X012585Y008774D01*
X012530Y008933D02*
X012744Y008933D01*
X012902Y009091D02*
X012530Y009091D01*
X012512Y009250D02*
X012964Y009250D01*
X012964Y009408D02*
X012510Y009408D01*
X012510Y009336D02*
X012426Y009336D01*
X012426Y009336D01*
X012510Y009336D01*
X012510Y009567D02*
X012964Y009567D01*
X012964Y009725D02*
X012530Y009725D01*
X012510Y009592D02*
X012426Y009592D01*
X012426Y009592D01*
X012510Y009592D01*
X012055Y009579D02*
X012055Y009348D01*
X012055Y009579D01*
X012055Y009579D01*
X012055Y009567D02*
X012055Y009567D01*
X012055Y009408D02*
X012055Y009408D01*
X012055Y009348D02*
X012055Y009348D01*
X011685Y009592D02*
X011685Y009592D01*
X012530Y009884D02*
X012603Y009884D01*
X011313Y010201D02*
X011276Y010201D01*
X011276Y010359D02*
X011313Y010359D01*
X011276Y010518D02*
X010281Y010518D01*
X010440Y010676D02*
X010918Y010676D01*
X010936Y010835D02*
X010598Y010835D01*
X010757Y010993D02*
X010898Y010993D01*
X010918Y010359D02*
X010123Y010359D01*
X009962Y010201D02*
X010939Y010201D01*
X012762Y012578D02*
X015922Y012578D01*
X016969Y014322D02*
X017529Y014322D01*
X017470Y014480D02*
X016984Y014480D01*
X016984Y014639D02*
X017470Y014639D01*
X017494Y014797D02*
X016984Y014797D01*
X016978Y014956D02*
X017490Y014956D01*
X017484Y015114D02*
X017004Y015114D01*
X017004Y015273D02*
X017409Y015273D01*
X017409Y015431D02*
X017004Y015431D01*
X016994Y015590D02*
X017409Y015590D01*
X016235Y014956D02*
X016190Y014956D01*
X018399Y018284D02*
X018437Y018284D01*
X023178Y014078D02*
X023178Y014078D01*
X023178Y014078D01*
X023585Y014078D01*
X023585Y013930D01*
X023572Y013884D01*
X023549Y013843D01*
X023515Y013810D01*
X023474Y013786D01*
X023428Y013774D01*
X023178Y013774D01*
X023178Y014078D01*
X023178Y014005D02*
X023178Y014005D01*
X023178Y013846D02*
X023178Y013846D01*
X023551Y013846D02*
X025917Y013846D01*
X026076Y014005D02*
X023585Y014005D01*
X024938Y013377D02*
X024938Y013377D01*
X024955Y013371D02*
X025909Y013371D01*
X026067Y013212D02*
X025164Y013212D01*
X025041Y013335D02*
X025041Y013335D01*
X025324Y013054D02*
X026096Y013054D01*
X025938Y012895D02*
X025483Y012895D01*
X025642Y012737D02*
X025862Y012737D01*
X025862Y012578D02*
X025801Y012578D01*
X026362Y013688D02*
X026402Y013688D01*
X026402Y013846D02*
X026362Y013846D01*
X026362Y014005D02*
X026402Y014005D01*
X026689Y014005D02*
X026916Y014005D01*
X026889Y013846D02*
X026848Y013846D01*
X027619Y012103D02*
X034775Y012103D01*
X034753Y011944D02*
X027778Y011944D01*
X027902Y011786D02*
X034753Y011786D01*
X034753Y011627D02*
X027902Y011627D01*
X027902Y011469D02*
X034753Y011469D01*
X034753Y011310D02*
X027824Y011310D01*
X027665Y011152D02*
X034753Y011152D01*
X033665Y010993D02*
X027729Y010993D01*
X027887Y010835D02*
X033572Y010835D01*
X033572Y010676D02*
X027902Y010676D01*
X027902Y010518D02*
X033572Y010518D01*
X033572Y010359D02*
X027873Y010359D01*
X027714Y010201D02*
X033572Y010201D01*
X033572Y010042D02*
X027867Y010042D01*
X027902Y009884D02*
X031407Y009884D01*
X031407Y009725D02*
X027902Y009725D01*
X027902Y009567D02*
X031407Y009567D01*
X031407Y009408D02*
X027902Y009408D01*
X027902Y009250D02*
X031407Y009250D01*
X031407Y009091D02*
X027792Y009091D01*
X027074Y008933D02*
X031407Y008933D01*
X030265Y008774D02*
X026915Y008774D01*
X026754Y008616D02*
X030226Y008616D01*
X028319Y007189D02*
X026926Y007189D01*
X026890Y007031D02*
X027959Y007031D01*
X026548Y007506D02*
X026511Y007506D01*
X026511Y007665D02*
X026548Y007665D01*
X024144Y007237D02*
X024139Y007243D01*
X030129Y004812D02*
X032391Y004812D01*
X032391Y004970D02*
X030228Y004970D01*
X030313Y005129D02*
X032391Y005129D01*
X032391Y005287D02*
X030367Y005287D01*
X030421Y005446D02*
X031479Y005446D01*
X031407Y005604D02*
X030448Y005604D01*
X030458Y005763D02*
X031407Y005763D01*
X031407Y005921D02*
X030469Y005921D01*
X030464Y006080D02*
X031407Y006080D01*
X031407Y006238D02*
X030464Y006238D01*
X030464Y006397D02*
X031407Y006397D01*
X031407Y006555D02*
X030464Y006555D01*
X030612Y004653D02*
X030845Y004653D01*
X031612Y004653D02*
X032391Y004653D01*
X032391Y004495D02*
X031770Y004495D01*
X031799Y004336D02*
X032391Y004336D01*
X032391Y004178D02*
X031799Y004178D01*
X031799Y004019D02*
X032391Y004019D01*
X032391Y003861D02*
X031665Y003861D01*
X031535Y003702D02*
X032391Y003702D01*
X032391Y003544D02*
X031693Y003544D01*
X017934Y009325D02*
X017784Y009387D01*
X017605Y009387D01*
X017490Y009340D01*
X017480Y009340D01*
X017480Y010255D01*
X017460Y010275D01*
X017460Y010359D01*
X017934Y010359D01*
X017934Y010201D02*
X017480Y010201D01*
X017480Y010042D02*
X017934Y010042D01*
X017934Y009884D02*
X017480Y009884D01*
X017480Y009725D02*
X017934Y009725D01*
X017934Y009567D02*
X017480Y009567D01*
X017480Y009408D02*
X017934Y009408D01*
X017934Y009325D02*
X017934Y010680D01*
X017747Y010867D01*
X017460Y010867D01*
X017460Y010779D01*
X017451Y010743D01*
X017460Y010708D01*
X017460Y010615D01*
X017005Y010615D01*
X017005Y010615D01*
X017005Y010615D01*
X017460Y010615D01*
X017460Y010523D01*
X017451Y010487D01*
X017460Y010452D01*
X017460Y010359D01*
X017376Y010359D01*
X017376Y010359D01*
X017460Y010359D01*
X017459Y010518D02*
X017934Y010518D01*
X017934Y010676D02*
X017460Y010676D01*
X017460Y010835D02*
X017780Y010835D01*
X017005Y010835D02*
X017005Y010835D01*
X017005Y010859D02*
X017005Y010615D01*
X017005Y010623D01*
X017005Y010859D01*
X017005Y010859D01*
X017005Y010676D02*
X017005Y010676D01*
X017005Y010615D02*
X017005Y010615D01*
X017005Y010518D02*
X017005Y010518D01*
X010241Y014322D02*
X009972Y014322D01*
X010031Y014480D02*
X010182Y014480D01*
X010182Y014639D02*
X010031Y014639D01*
X009997Y014797D02*
X010207Y014797D01*
X008684Y015590D02*
X008494Y015590D01*
X008700Y015748D02*
X005885Y015748D01*
X005885Y015907D02*
X006545Y015907D01*
X006442Y016065D02*
X005885Y016065D01*
X005840Y016224D02*
X006442Y016224D01*
X005533Y017809D02*
X003251Y017809D01*
X003362Y017967D02*
X005422Y017967D01*
X005422Y018126D02*
X003362Y018126D01*
X003362Y018284D02*
X005422Y018284D01*
X005422Y018443D02*
X003362Y018443D01*
X003362Y018601D02*
X005422Y018601D01*
X005422Y018760D02*
X003362Y018760D01*
X009449Y022881D02*
X009489Y022881D01*
X009489Y023039D02*
X009449Y023039D01*
X009449Y023198D02*
X009489Y023198D01*
X009489Y023356D02*
X009449Y023356D01*
X026889Y018918D02*
X027308Y018918D01*
X027308Y018760D02*
X026889Y018760D01*
X026889Y018601D02*
X027308Y018601D01*
X027308Y018443D02*
X026889Y018443D01*
D33*
X018418Y024006D03*
D34*
X020344Y016587D02*
X019794Y016037D01*
X019794Y015281D01*
X019755Y015320D02*
X018930Y015320D01*
X020344Y016587D02*
X021922Y016587D01*
X024144Y016587D01*
X026149Y016587D01*
X027276Y015460D01*
X027276Y014487D01*
X027276Y013704D01*
X027382Y013604D01*
X017720Y008911D02*
X017720Y008484D01*
X017720Y007996D01*
X017720Y006576D01*
X017418Y006274D01*
X017418Y005699D01*
X008944Y014572D02*
X008919Y015188D01*
X015206Y015320D02*
X015572Y015320D01*
X015919Y015321D01*
X016607Y015321D01*
D35*
X016590Y015337D01*
X016579Y015337D01*
X019755Y015320D02*
X019794Y015281D01*
X023178Y015097D02*
X023883Y015097D01*
X024107Y015321D01*
X011044Y015321D02*
X011044Y014633D01*
X010983Y014572D01*
X010619Y014572D01*
X009595Y014572D02*
X009106Y014572D01*
X008919Y014758D01*
X008919Y015137D01*
X008944Y014572D01*
X008970Y015188D01*
X011043Y015320D02*
X011044Y015321D01*
D36*
X008944Y015188D02*
X008944Y014572D01*
X008919Y015188D02*
X008094Y015188D01*
X008107Y015281D01*
X016579Y015337D02*
X016607Y015281D01*
X017694Y008937D02*
X017720Y008911D01*
D37*
X017694Y008937D03*
X018994Y012187D03*
X015919Y015321D03*
X008944Y014572D03*
D38*
X017433Y018691D02*
X020386Y021644D01*
X027367Y021644D01*
X026489Y020766D01*
X026489Y017313D01*
X030032Y013770D01*
X033075Y013770D01*
M02*
