G75*
%MOIN*%
%OFA0B0*%
%FSLAX24Y24*%
%IPPOS*%
%LPD*%
%AMOC8*
5,1,8,0,0,1.08239X$1,22.5*
%
%ADD10R,0.1161X0.1181*%
%ADD11R,0.1181X0.1181*%
%ADD12C,0.0280*%
%ADD13C,0.0434*%
%ADD14R,0.0720X0.0720*%
%ADD15OC8,0.0720*%
%ADD16C,0.1340*%
%ADD17C,0.0000*%
%ADD18R,0.0003X0.0003*%
%ADD19R,0.0010X0.0003*%
%ADD20R,0.0013X0.0003*%
%ADD21R,0.0016X0.0003*%
%ADD22R,0.0020X0.0003*%
%ADD23R,0.0013X0.0003*%
%ADD24R,0.0010X0.0003*%
%ADD25R,0.0007X0.0003*%
%ADD26R,0.0023X0.0003*%
%ADD27R,0.0007X0.0003*%
%ADD28R,0.0029X0.0003*%
%ADD29R,0.0007X0.0003*%
%ADD30R,0.0010X0.0003*%
%ADD31R,0.0575X0.0003*%
%ADD32R,0.0569X0.0003*%
%ADD33R,0.0029X0.0003*%
%ADD34R,0.0039X0.0003*%
%ADD35R,0.0039X0.0003*%
%ADD36R,0.0042X0.0003*%
%ADD37R,0.0043X0.0003*%
%ADD38R,0.0033X0.0003*%
%ADD39R,0.0007X0.0003*%
%ADD40R,0.0033X0.0003*%
%ADD41R,0.0036X0.0003*%
%ADD42R,0.0026X0.0003*%
%ADD43R,0.0020X0.0003*%
%ADD44R,0.0016X0.0003*%
%ADD45R,0.0013X0.0003*%
%ADD46R,0.0003X0.0003*%
%ADD47R,0.0464X0.0003*%
%ADD48R,0.0020X0.0020*%
%ADD49R,0.0453X0.0020*%
%ADD50R,0.0728X0.0020*%
%ADD51R,0.0906X0.0020*%
%ADD52R,0.1063X0.0020*%
%ADD53R,0.1181X0.0020*%
%ADD54R,0.1319X0.0020*%
%ADD55R,0.1398X0.0020*%
%ADD56R,0.1339X0.0020*%
%ADD57R,0.1260X0.0020*%
%ADD58R,0.0059X0.0020*%
%ADD59R,0.0118X0.0020*%
%ADD60R,0.1299X0.0020*%
%ADD61R,0.0236X0.0020*%
%ADD62R,0.0354X0.0020*%
%ADD63R,0.0492X0.0020*%
%ADD64R,0.1142X0.0020*%
%ADD65R,0.0551X0.0020*%
%ADD66R,0.0650X0.0020*%
%ADD67R,0.0689X0.0020*%
%ADD68R,0.0807X0.0020*%
%ADD69R,0.1004X0.0020*%
%ADD70R,0.0039X0.0020*%
%ADD71R,0.0984X0.0020*%
%ADD72R,0.0925X0.0020*%
%ADD73R,0.1024X0.0020*%
%ADD74R,0.0965X0.0020*%
%ADD75R,0.1102X0.0020*%
%ADD76R,0.1161X0.0020*%
%ADD77R,0.2441X0.0020*%
%ADD78R,0.2500X0.0020*%
%ADD79R,0.2539X0.0020*%
%ADD80R,0.2598X0.0020*%
%ADD81R,0.2618X0.0020*%
%ADD82R,0.2677X0.0020*%
%ADD83R,0.2697X0.0020*%
%ADD84R,0.2756X0.0020*%
%ADD85R,0.2795X0.0020*%
%ADD86R,0.2815X0.0020*%
%ADD87R,0.2835X0.0020*%
%ADD88R,0.2894X0.0020*%
%ADD89R,0.2913X0.0020*%
%ADD90R,0.2953X0.0020*%
%ADD91R,0.2992X0.0020*%
%ADD92R,0.3012X0.0020*%
%ADD93R,0.3031X0.0020*%
%ADD94R,0.3071X0.0020*%
%ADD95R,0.3110X0.0020*%
%ADD96R,0.1280X0.0020*%
%ADD97R,0.1496X0.0020*%
%ADD98R,0.1417X0.0020*%
%ADD99R,0.1201X0.0020*%
%ADD100R,0.1122X0.0020*%
%ADD101R,0.0098X0.0020*%
%ADD102R,0.1220X0.0020*%
%ADD103R,0.1083X0.0020*%
%ADD104R,0.1240X0.0020*%
%ADD105R,0.1043X0.0020*%
%ADD106R,0.0945X0.0020*%
%ADD107R,0.0886X0.0020*%
%ADD108R,0.0866X0.0020*%
%ADD109R,0.0846X0.0020*%
%ADD110R,0.0768X0.0020*%
%ADD111R,0.0827X0.0020*%
%ADD112R,0.0748X0.0020*%
%ADD113R,0.0787X0.0020*%
%ADD114R,0.0177X0.0020*%
%ADD115R,0.0256X0.0020*%
%ADD116R,0.0197X0.0020*%
%ADD117R,0.0315X0.0020*%
%ADD118R,0.0079X0.0020*%
%ADD119R,0.0394X0.0020*%
%ADD120R,0.0138X0.0020*%
%ADD121R,0.0591X0.0020*%
%ADD122R,0.0610X0.0020*%
%ADD123R,0.0630X0.0020*%
%ADD124R,0.0709X0.0020*%
%ADD125R,0.0669X0.0020*%
%ADD126R,0.0571X0.0020*%
%ADD127R,0.0217X0.0020*%
%ADD128R,0.0276X0.0020*%
%ADD129R,0.0295X0.0020*%
%ADD130R,0.0433X0.0020*%
%ADD131R,0.0512X0.0020*%
%ADD132R,0.0157X0.0020*%
%ADD133R,0.0413X0.0020*%
%ADD134R,0.0472X0.0020*%
%ADD135R,0.0374X0.0020*%
%ADD136R,0.0531X0.0020*%
%ADD137R,0.0335X0.0020*%
%ADD138R,0.1457X0.0020*%
%ADD139R,0.2106X0.0020*%
%ADD140R,0.2165X0.0020*%
%ADD141R,0.2283X0.0020*%
%ADD142R,0.2343X0.0020*%
%ADD143R,0.2402X0.0020*%
%ADD144R,0.2480X0.0020*%
%ADD145R,0.2933X0.0020*%
%ADD146R,0.2854X0.0020*%
%ADD147R,0.2776X0.0020*%
%ADD148R,0.2579X0.0020*%
%ADD149R,0.2382X0.0020*%
%ADD150R,0.2047X0.0020*%
%ADD151R,0.1969X0.0020*%
%ADD152R,0.1890X0.0020*%
%ADD153R,0.1811X0.0020*%
%ADD154R,0.0820X0.0820*%
%ADD155OC8,0.0820*%
%ADD156C,0.0740*%
%ADD157C,0.1740*%
%ADD158C,0.0580*%
D10*
X006065Y011565D03*
D11*
X013949Y011565D03*
D12*
X019372Y016272D02*
X019372Y018356D01*
X020414Y017314D01*
X019025Y017314D01*
X021200Y016272D02*
X022589Y016272D01*
X021894Y016272D02*
X021894Y018356D01*
X022589Y017661D01*
X023375Y018009D02*
X024764Y016619D01*
X024417Y016272D01*
X023722Y016272D01*
X023375Y016619D01*
X023375Y018009D01*
X023722Y018356D01*
X024417Y018356D01*
X024764Y018009D01*
X024764Y016619D01*
X025550Y016272D02*
X026939Y016272D01*
X025550Y017661D01*
X025550Y018009D01*
X025897Y018356D01*
X026592Y018356D01*
X026939Y018009D01*
D13*
X002906Y011309D03*
X002906Y009577D03*
D14*
X016418Y005699D03*
X027382Y009604D03*
D15*
X026382Y009604D03*
X026382Y010604D03*
X027382Y010604D03*
X027382Y011604D03*
X026382Y011604D03*
X026382Y012604D03*
X027382Y012604D03*
X027382Y013604D03*
X026382Y013604D03*
X020418Y005699D03*
X019418Y005699D03*
X018418Y005699D03*
X017418Y005699D03*
D16*
X008217Y005856D03*
X008217Y017274D03*
X028689Y017274D03*
X028689Y005856D03*
D17*
X012107Y011805D02*
X012102Y011811D01*
X012101Y011811D02*
X012101Y011805D01*
X012101Y011808D02*
X012100Y011809D01*
X012097Y011809D01*
X012096Y011808D01*
X012096Y011805D01*
X012095Y011806D02*
X012094Y011805D01*
X012091Y011805D01*
X012090Y011806D01*
X012090Y011808D01*
X012091Y011809D01*
X012094Y011809D01*
X012095Y011808D01*
X012095Y011806D01*
X012089Y011805D02*
X012089Y011809D01*
X012088Y011809D01*
X012086Y011808D01*
X012085Y011809D01*
X012084Y011808D01*
X012084Y011805D01*
X012083Y011806D02*
X012083Y011808D01*
X012082Y011809D01*
X012079Y011809D01*
X012078Y011808D01*
X012078Y011807D01*
X012083Y011807D01*
X012083Y011806D02*
X012082Y011805D01*
X012079Y011805D01*
X012077Y011805D02*
X012072Y011811D01*
X012071Y011811D02*
X012071Y011805D01*
X012067Y011805D01*
X012066Y011806D01*
X012066Y011808D01*
X012067Y011809D01*
X012071Y011809D01*
X012065Y011809D02*
X012065Y011806D01*
X012063Y011805D01*
X012060Y011805D01*
X012060Y011809D01*
X012059Y011808D02*
X012059Y011806D01*
X012057Y011805D01*
X012054Y011805D01*
X012053Y011805D02*
X012050Y011805D01*
X012051Y011805D02*
X012051Y011811D01*
X012053Y011811D01*
X012054Y011809D02*
X012057Y011809D01*
X012059Y011808D01*
X012054Y011809D02*
X012054Y011803D01*
X012055Y011802D01*
X012056Y011802D01*
X012049Y011806D02*
X012047Y011807D01*
X012044Y011807D01*
X012044Y011808D02*
X012044Y011805D01*
X012047Y011805D01*
X012049Y011806D01*
X012047Y011809D02*
X012045Y011809D01*
X012044Y011808D01*
X012043Y011809D02*
X012039Y011809D01*
X012038Y011808D01*
X012038Y011806D01*
X012039Y011805D01*
X012043Y011805D01*
X012043Y011811D01*
X012036Y011808D02*
X012035Y011809D01*
X012032Y011809D01*
X012033Y011807D02*
X012035Y011807D01*
X012036Y011808D01*
X012033Y011807D02*
X012032Y011806D01*
X012033Y011805D01*
X012036Y011805D01*
X012030Y011805D02*
X012026Y011811D01*
X012024Y011811D02*
X012021Y011811D01*
X012020Y011810D01*
X012020Y011806D01*
X012021Y011805D01*
X012024Y011805D01*
X012024Y011811D01*
X012018Y011808D02*
X012018Y011806D01*
X012017Y011805D01*
X012015Y011805D01*
X012014Y011806D01*
X012014Y011808D01*
X012015Y011809D01*
X012017Y011809D01*
X012018Y011808D01*
X012012Y011809D02*
X012012Y011806D01*
X012011Y011805D01*
X012010Y011806D01*
X012009Y011805D01*
X012008Y011806D01*
X012008Y011809D01*
X012006Y011809D02*
X012003Y011809D01*
X012002Y011808D01*
X012002Y011805D01*
X012000Y011805D02*
X011998Y011805D01*
X011999Y011805D02*
X011999Y011811D01*
X012000Y011811D01*
X011996Y011808D02*
X011996Y011806D01*
X011995Y011805D01*
X011993Y011805D01*
X011992Y011806D01*
X011992Y011808D01*
X011993Y011809D01*
X011995Y011809D01*
X011996Y011808D01*
X011990Y011806D02*
X011989Y011807D01*
X011986Y011807D01*
X011986Y011808D02*
X011986Y011805D01*
X011989Y011805D01*
X011990Y011806D01*
X011989Y011809D02*
X011987Y011809D01*
X011986Y011808D01*
X011984Y011808D02*
X011983Y011809D01*
X011980Y011809D01*
X011978Y011808D02*
X011977Y011809D01*
X011974Y011809D01*
X011975Y011807D02*
X011977Y011807D01*
X011978Y011808D01*
X011975Y011807D02*
X011974Y011806D01*
X011975Y011805D01*
X011978Y011805D01*
X011980Y011805D02*
X011983Y011805D01*
X011984Y011806D01*
X011984Y011808D01*
X011980Y011811D02*
X011980Y011805D01*
X011972Y011805D02*
X011968Y011811D01*
X011965Y011809D02*
X011966Y011808D01*
X011966Y011806D01*
X011965Y011805D01*
X011963Y011805D01*
X011962Y011806D01*
X011962Y011808D01*
X011963Y011809D01*
X011965Y011809D01*
X011960Y011808D02*
X011959Y011809D01*
X011956Y011809D01*
X011954Y011808D02*
X011953Y011809D01*
X011951Y011809D01*
X011950Y011808D01*
X011950Y011805D01*
X011948Y011806D02*
X011947Y011805D01*
X011946Y011806D01*
X011945Y011805D01*
X011944Y011806D01*
X011944Y011809D01*
X011948Y011809D02*
X011948Y011806D01*
X011942Y011803D02*
X011938Y011803D01*
X011935Y011806D02*
X011934Y011805D01*
X011935Y011806D02*
X011935Y011810D01*
X011936Y011809D02*
X011934Y011809D01*
X011932Y011808D02*
X011931Y011809D01*
X011929Y011809D01*
X011928Y011808D01*
X011928Y011807D01*
X011932Y011807D01*
X011932Y011806D02*
X011932Y011808D01*
X011932Y011806D02*
X011931Y011805D01*
X011929Y011805D01*
X011926Y011805D02*
X011926Y011809D01*
X011925Y011809D01*
X011924Y011808D01*
X011923Y011809D01*
X011922Y011808D01*
X011922Y011805D01*
X011920Y011805D02*
X011917Y011805D01*
X011916Y011806D01*
X011916Y011808D01*
X011917Y011809D01*
X011920Y011809D01*
X011920Y011802D01*
X011924Y011805D02*
X011924Y011808D01*
X011914Y011806D02*
X011913Y011806D01*
X011913Y011805D01*
X011914Y011805D01*
X011914Y011806D01*
X011911Y011805D02*
X011908Y011805D01*
X011907Y011806D01*
X011907Y011808D01*
X011908Y011809D01*
X011911Y011809D01*
X011911Y011811D02*
X011911Y011805D01*
X011905Y011805D02*
X011905Y011809D01*
X011904Y011809D01*
X011903Y011808D01*
X011902Y011809D01*
X011901Y011808D01*
X011901Y011805D01*
X011899Y011805D02*
X011896Y011805D01*
X011895Y011806D01*
X011895Y011808D01*
X011896Y011809D01*
X011899Y011809D01*
X011899Y011802D01*
X011903Y011805D02*
X011903Y011808D01*
X011954Y011811D02*
X011954Y011805D01*
X011956Y011806D02*
X011957Y011807D01*
X011959Y011807D01*
X011960Y011808D01*
X011960Y011805D02*
X011957Y011805D01*
X011956Y011806D01*
X012006Y011805D02*
X012006Y011809D01*
X012086Y011808D02*
X012086Y011805D01*
D18*
X011371Y011821D03*
X008937Y011821D03*
D19*
X008930Y011831D03*
X008927Y011834D03*
X008924Y011837D03*
X008920Y011840D03*
X008917Y011844D03*
X008914Y011847D03*
X008911Y011850D03*
X008907Y011854D03*
X008904Y011857D03*
X008901Y011860D03*
X008898Y011863D03*
X008894Y011867D03*
X008891Y011870D03*
X008888Y011873D03*
X008884Y011876D03*
X008881Y011880D03*
X008878Y011883D03*
X008875Y011886D03*
X008871Y011890D03*
X008868Y011893D03*
X008865Y011896D03*
X008862Y011899D03*
X008858Y011903D03*
X008855Y011906D03*
X008852Y011909D03*
X008849Y011912D03*
X008845Y011916D03*
X008842Y011919D03*
X008839Y011922D03*
X008835Y011925D03*
X008832Y011929D03*
X008829Y011932D03*
X008826Y011935D03*
X008822Y011939D03*
X008819Y011942D03*
X008816Y011945D03*
X008813Y011948D03*
X008809Y011952D03*
X008806Y011955D03*
X008803Y011958D03*
X008800Y011961D03*
X008796Y011965D03*
X008793Y011968D03*
X008790Y011971D03*
X008786Y011974D03*
X008783Y011978D03*
X008780Y011981D03*
X008777Y011984D03*
X008773Y011988D03*
X008770Y011991D03*
X008767Y011994D03*
X008764Y011997D03*
X008760Y012001D03*
X008757Y012004D03*
X008754Y012007D03*
X008750Y012010D03*
X008747Y012014D03*
X008744Y012017D03*
X008741Y012020D03*
X008737Y012023D03*
X008734Y012027D03*
X008731Y012030D03*
X008728Y012033D03*
X008724Y012037D03*
X008721Y012040D03*
X008718Y012043D03*
X008715Y012046D03*
X008711Y012050D03*
X008708Y012053D03*
X008705Y012056D03*
X008701Y012059D03*
X008698Y012063D03*
X008695Y012066D03*
X008692Y012069D03*
X008688Y012073D03*
X008685Y012076D03*
X008682Y012079D03*
X008679Y012082D03*
X008675Y012086D03*
X008672Y012089D03*
X008669Y012092D03*
X008666Y012095D03*
X008662Y012099D03*
X008659Y012102D03*
X008656Y012105D03*
X008652Y012108D03*
X008649Y012112D03*
X008646Y012115D03*
X008643Y012118D03*
X008639Y012122D03*
X008636Y012125D03*
X008633Y012128D03*
X008630Y012131D03*
X008626Y012135D03*
X008623Y012138D03*
X008620Y012141D03*
X008617Y012144D03*
X008617Y012151D03*
X008620Y012157D03*
X008623Y012161D03*
X008626Y012164D03*
X008626Y012167D03*
X008630Y012171D03*
X008633Y012174D03*
X008636Y012180D03*
X008639Y012184D03*
X008643Y012190D03*
X008646Y012193D03*
X008649Y012200D03*
X008652Y012203D03*
X008656Y012210D03*
X008659Y012213D03*
X008662Y012220D03*
X008666Y012223D03*
X008669Y012229D03*
X008672Y012233D03*
X008675Y012236D03*
X008679Y012242D03*
X008682Y012246D03*
X008685Y012252D03*
X008688Y012255D03*
X008692Y012262D03*
X008695Y012265D03*
X008698Y012272D03*
X008701Y012275D03*
X008705Y012282D03*
X008708Y012285D03*
X008711Y012291D03*
X008715Y012295D03*
X008718Y012301D03*
X008721Y012305D03*
X008724Y012308D03*
X008728Y012314D03*
X008731Y012318D03*
X008734Y012324D03*
X008741Y012334D03*
X008744Y012337D03*
X008747Y012344D03*
X008750Y012347D03*
X008754Y012354D03*
X008757Y012357D03*
X008760Y012363D03*
X008764Y012367D03*
X008767Y012370D03*
X008767Y012373D03*
X008770Y012376D03*
X008773Y012380D03*
X008777Y012386D03*
X008780Y012390D03*
X008783Y012396D03*
X008786Y012399D03*
X008790Y012406D03*
X008793Y012409D03*
X008796Y012416D03*
X008800Y012419D03*
X008803Y012425D03*
X008806Y012429D03*
X008809Y012435D03*
X008813Y012439D03*
X008816Y012442D03*
X008816Y012445D03*
X008819Y012448D03*
X008822Y012452D03*
X008826Y012458D03*
X008829Y012461D03*
X008832Y012468D03*
X008835Y012471D03*
X008839Y012478D03*
X008842Y012481D03*
X008845Y012488D03*
X008849Y012491D03*
X008852Y012497D03*
X008855Y012501D03*
X008858Y012507D03*
X008862Y012510D03*
X008865Y012514D03*
X008868Y012520D03*
X008871Y012523D03*
X008875Y012530D03*
X008878Y012533D03*
X008881Y012540D03*
X008884Y012543D03*
X008888Y012550D03*
X008891Y012553D03*
X008894Y012559D03*
X008898Y012563D03*
X008901Y012569D03*
X008904Y012573D03*
X008907Y012579D03*
X008907Y012582D03*
X008904Y012589D03*
X008901Y012599D03*
X008898Y012605D03*
X008894Y012615D03*
X008891Y012622D03*
X008888Y012631D03*
X008884Y012638D03*
X008881Y012648D03*
X008878Y012654D03*
X008875Y012664D03*
X008871Y012671D03*
X008868Y012680D03*
X008865Y012687D03*
X008862Y012697D03*
X008855Y012713D03*
X008852Y012723D03*
X008849Y012729D03*
X008845Y012739D03*
X008842Y012746D03*
X008839Y012755D03*
X008835Y012762D03*
X008832Y012772D03*
X008829Y012778D03*
X008826Y012788D03*
X008822Y012795D03*
X008819Y012805D03*
X008816Y012811D03*
X008813Y012821D03*
X008809Y012827D03*
X008803Y012844D03*
X008800Y012854D03*
X008796Y012860D03*
X008793Y012870D03*
X008790Y012876D03*
X008786Y012886D03*
X008783Y012893D03*
X008780Y012903D03*
X008777Y012909D03*
X008773Y012919D03*
X008770Y012925D03*
X008767Y012935D03*
X008764Y012942D03*
X008760Y012952D03*
X008757Y012958D03*
X008754Y012968D03*
X008750Y012974D03*
X008747Y012984D03*
X008744Y012994D03*
X008741Y013001D03*
X008737Y013010D03*
X008734Y013017D03*
X008731Y013027D03*
X008728Y013033D03*
X008205Y013141D03*
X008205Y013144D03*
X008205Y013148D03*
X008205Y013151D03*
X008205Y013154D03*
X008205Y013157D03*
X008205Y013161D03*
X008205Y013164D03*
X008205Y013167D03*
X008205Y013171D03*
X008205Y013174D03*
X008205Y013177D03*
X008205Y013180D03*
X008205Y013184D03*
X008205Y013187D03*
X008205Y013190D03*
X008205Y013193D03*
X008205Y013197D03*
X008205Y013200D03*
X008205Y013203D03*
X008205Y013206D03*
X008205Y013210D03*
X008205Y013213D03*
X008205Y013216D03*
X008205Y013220D03*
X008205Y013223D03*
X008205Y013226D03*
X008205Y013229D03*
X008205Y013233D03*
X008205Y013236D03*
X008205Y013239D03*
X008205Y013242D03*
X008205Y013246D03*
X008205Y013249D03*
X008205Y013252D03*
X008205Y013255D03*
X008205Y013259D03*
X008205Y013262D03*
X008205Y013265D03*
X008205Y013269D03*
X008205Y013272D03*
X008205Y013275D03*
X008205Y013278D03*
X008205Y013282D03*
X008205Y013285D03*
X008205Y013288D03*
X008734Y013697D03*
X008737Y013700D03*
X008737Y013703D03*
X008741Y013710D03*
X008744Y013716D03*
X008747Y013723D03*
X008750Y013733D03*
X008754Y013739D03*
X008757Y013746D03*
X008760Y013755D03*
X008764Y013762D03*
X008767Y013769D03*
X008770Y013778D03*
X008773Y013785D03*
X008777Y013791D03*
X008780Y013801D03*
X008783Y013808D03*
X008786Y013814D03*
X008790Y013824D03*
X008793Y013831D03*
X008796Y013837D03*
X008800Y013847D03*
X008803Y013854D03*
X008806Y013860D03*
X008809Y013867D03*
X008809Y013870D03*
X008813Y013876D03*
X008816Y013883D03*
X008819Y013890D03*
X008822Y013899D03*
X008826Y013906D03*
X008829Y013912D03*
X008832Y013922D03*
X008835Y013929D03*
X008839Y013935D03*
X008842Y013945D03*
X008845Y013952D03*
X008849Y013958D03*
X008852Y013968D03*
X008855Y013974D03*
X008858Y013981D03*
X008862Y013991D03*
X008865Y013997D03*
X008868Y014004D03*
X008871Y014014D03*
X008875Y014020D03*
X008878Y014027D03*
X008881Y014037D03*
X008884Y014043D03*
X008888Y014050D03*
X008891Y014056D03*
X008894Y014066D03*
X008898Y014073D03*
X008901Y014079D03*
X008904Y014089D03*
X008907Y014095D03*
X008911Y014102D03*
X008914Y014112D03*
X008917Y014118D03*
X008920Y014125D03*
X008920Y014135D03*
X008917Y014138D03*
X008914Y014144D03*
X008911Y014148D03*
X008907Y014154D03*
X008904Y014157D03*
X008901Y014164D03*
X008898Y014167D03*
X008894Y014171D03*
X008891Y014177D03*
X008888Y014180D03*
X008884Y014187D03*
X008881Y014190D03*
X008878Y014197D03*
X008875Y014200D03*
X008871Y014206D03*
X008868Y014210D03*
X008865Y014216D03*
X008862Y014220D03*
X008858Y014226D03*
X008855Y014229D03*
X008852Y014233D03*
X008849Y014239D03*
X008845Y014242D03*
X008842Y014249D03*
X008839Y014252D03*
X008835Y014259D03*
X008832Y014262D03*
X008829Y014269D03*
X008826Y014272D03*
X008822Y014278D03*
X008819Y014282D03*
X008816Y014288D03*
X008813Y014291D03*
X008809Y014295D03*
X008806Y014301D03*
X008803Y014305D03*
X008800Y014311D03*
X008796Y014314D03*
X008793Y014321D03*
X008790Y014324D03*
X008786Y014331D03*
X008783Y014334D03*
X008780Y014340D03*
X008777Y014344D03*
X008773Y014350D03*
X008770Y014354D03*
X008767Y014357D03*
X008764Y014363D03*
X008760Y014367D03*
X008757Y014373D03*
X008754Y014376D03*
X008750Y014383D03*
X008747Y014386D03*
X008744Y014393D03*
X008741Y014396D03*
X008737Y014403D03*
X008734Y014406D03*
X008731Y014412D03*
X008728Y014416D03*
X008724Y014419D03*
X008721Y014425D03*
X008718Y014429D03*
X008715Y014435D03*
X008711Y014439D03*
X008708Y014445D03*
X008705Y014448D03*
X008701Y014455D03*
X008698Y014458D03*
X008695Y014465D03*
X008692Y014468D03*
X008688Y014474D03*
X008685Y014478D03*
X008682Y014481D03*
X008679Y014488D03*
X008675Y014491D03*
X008672Y014497D03*
X008669Y014501D03*
X008666Y014507D03*
X008662Y014510D03*
X008659Y014517D03*
X008656Y014520D03*
X008652Y014527D03*
X008649Y014530D03*
X008646Y014537D03*
X008643Y014540D03*
X008639Y014543D03*
X008636Y014550D03*
X008633Y014553D03*
X008630Y014559D03*
X008626Y014563D03*
X008623Y014569D03*
X008620Y014573D03*
X008617Y014579D03*
X008613Y014582D03*
X008617Y014586D03*
X008620Y014589D03*
X008623Y014592D03*
X008626Y014595D03*
X008630Y014599D03*
X008633Y014602D03*
X008636Y014605D03*
X008639Y014608D03*
X008643Y014612D03*
X008646Y014615D03*
X008649Y014618D03*
X008652Y014622D03*
X008656Y014625D03*
X008659Y014628D03*
X008662Y014631D03*
X008666Y014635D03*
X008669Y014638D03*
X008672Y014641D03*
X008675Y014644D03*
X008679Y014648D03*
X008682Y014651D03*
X008685Y014654D03*
X008688Y014657D03*
X008692Y014661D03*
X008695Y014664D03*
X008698Y014667D03*
X008701Y014671D03*
X008705Y014674D03*
X008708Y014677D03*
X008711Y014680D03*
X008715Y014684D03*
X008718Y014687D03*
X008721Y014690D03*
X008724Y014693D03*
X008728Y014697D03*
X008731Y014700D03*
X008734Y014703D03*
X008737Y014706D03*
X008741Y014710D03*
X008744Y014713D03*
X008747Y014716D03*
X008750Y014720D03*
X008754Y014723D03*
X008757Y014726D03*
X008760Y014729D03*
X008764Y014733D03*
X008767Y014736D03*
X008770Y014739D03*
X008773Y014742D03*
X008777Y014746D03*
X008780Y014749D03*
X008783Y014752D03*
X008786Y014755D03*
X008790Y014759D03*
X008793Y014762D03*
X008796Y014765D03*
X008800Y014769D03*
X008803Y014772D03*
X008806Y014775D03*
X008809Y014778D03*
X008813Y014782D03*
X008816Y014785D03*
X008819Y014788D03*
X008822Y014791D03*
X008826Y014795D03*
X008829Y014798D03*
X008832Y014801D03*
X008835Y014805D03*
X008839Y014808D03*
X008842Y014811D03*
X008845Y014814D03*
X008849Y014818D03*
X008852Y014821D03*
X008855Y014824D03*
X008858Y014827D03*
X008862Y014831D03*
X008865Y014834D03*
X008868Y014837D03*
X008871Y014840D03*
X008875Y014844D03*
X008878Y014847D03*
X008881Y014850D03*
X008884Y014854D03*
X008888Y014857D03*
X008891Y014860D03*
X008894Y014863D03*
X008901Y014870D03*
X008904Y014873D03*
X008907Y014876D03*
X008911Y014880D03*
X008914Y014883D03*
X008917Y014886D03*
X008920Y014890D03*
X008924Y014893D03*
X008927Y014896D03*
X008930Y014899D03*
X008937Y014906D03*
X008979Y014876D03*
X009051Y014827D03*
X009123Y014778D03*
X009195Y014729D03*
X009267Y014680D03*
X009339Y014631D03*
X009822Y014769D03*
X009826Y014782D03*
X009829Y014798D03*
X009832Y014814D03*
X009832Y014818D03*
X009835Y014834D03*
X009839Y014850D03*
X009839Y014854D03*
X009842Y014870D03*
X009845Y014886D03*
X009849Y014903D03*
X009849Y014906D03*
X009852Y014922D03*
X009855Y014939D03*
X009858Y014955D03*
X009858Y014958D03*
X009862Y014974D03*
X009865Y014991D03*
X009868Y015007D03*
X009868Y015010D03*
X009871Y015027D03*
X009875Y015043D03*
X009875Y015046D03*
X009878Y015063D03*
X009881Y015079D03*
X009884Y015095D03*
X009884Y015099D03*
X009888Y015115D03*
X009891Y015131D03*
X009894Y015148D03*
X009894Y015151D03*
X009898Y015167D03*
X009901Y015184D03*
X009901Y015187D03*
X009904Y015200D03*
X009904Y015203D03*
X009907Y015220D03*
X009911Y015236D03*
X009911Y015239D03*
X009914Y015252D03*
X009914Y015255D03*
X009917Y015272D03*
X009920Y015288D03*
X009920Y015291D03*
X009924Y015308D03*
X010384Y015311D03*
X010388Y015295D03*
X010388Y015291D03*
X010391Y015275D03*
X010394Y015259D03*
X010398Y015242D03*
X010398Y015239D03*
X010401Y015223D03*
X010404Y015206D03*
X010407Y015190D03*
X010407Y015187D03*
X010411Y015171D03*
X010414Y015154D03*
X010417Y015138D03*
X010417Y015135D03*
X010420Y015118D03*
X010424Y015102D03*
X010424Y015099D03*
X010427Y015086D03*
X010427Y015082D03*
X010430Y015066D03*
X010433Y015050D03*
X010433Y015046D03*
X010437Y015030D03*
X010440Y015014D03*
X010443Y014997D03*
X010443Y014994D03*
X010447Y014978D03*
X010450Y014961D03*
X010453Y014945D03*
X010453Y014942D03*
X010456Y014925D03*
X010460Y014909D03*
X010463Y014893D03*
X010463Y014890D03*
X010466Y014873D03*
X010469Y014857D03*
X010473Y014840D03*
X010473Y014837D03*
X010476Y014821D03*
X010479Y014805D03*
X010483Y014788D03*
X010483Y014785D03*
X010486Y014769D03*
X011195Y014785D03*
X011309Y014863D03*
X011378Y014899D03*
X011381Y014896D03*
X011384Y014893D03*
X011388Y014890D03*
X011391Y014886D03*
X011394Y014883D03*
X011398Y014880D03*
X011401Y014876D03*
X011404Y014873D03*
X011407Y014870D03*
X011414Y014863D03*
X011417Y014860D03*
X011420Y014857D03*
X011424Y014854D03*
X011427Y014850D03*
X011430Y014847D03*
X011433Y014844D03*
X011437Y014840D03*
X011440Y014837D03*
X011443Y014834D03*
X011447Y014831D03*
X011450Y014827D03*
X011453Y014824D03*
X011456Y014821D03*
X011460Y014818D03*
X011463Y014814D03*
X011466Y014811D03*
X011469Y014808D03*
X011473Y014805D03*
X011476Y014801D03*
X011479Y014798D03*
X011483Y014795D03*
X011486Y014791D03*
X011489Y014788D03*
X011492Y014785D03*
X011496Y014782D03*
X011499Y014778D03*
X011502Y014775D03*
X011505Y014772D03*
X011509Y014769D03*
X011512Y014765D03*
X011515Y014762D03*
X011518Y014759D03*
X011522Y014755D03*
X011525Y014752D03*
X011528Y014749D03*
X011532Y014746D03*
X011535Y014742D03*
X011538Y014739D03*
X011541Y014736D03*
X011545Y014733D03*
X011548Y014729D03*
X011551Y014726D03*
X011554Y014723D03*
X011558Y014720D03*
X011561Y014716D03*
X011564Y014713D03*
X011567Y014710D03*
X011571Y014706D03*
X011574Y014703D03*
X011577Y014700D03*
X011581Y014697D03*
X011584Y014693D03*
X011587Y014690D03*
X011600Y014677D03*
X011603Y014674D03*
X011607Y014671D03*
X011610Y014667D03*
X011613Y014664D03*
X011617Y014661D03*
X011620Y014657D03*
X011623Y014654D03*
X011626Y014651D03*
X011630Y014648D03*
X011633Y014644D03*
X011636Y014641D03*
X011639Y014638D03*
X011643Y014635D03*
X011646Y014631D03*
X011649Y014628D03*
X011652Y014625D03*
X011656Y014622D03*
X011659Y014618D03*
X011662Y014615D03*
X011666Y014612D03*
X011669Y014608D03*
X011672Y014605D03*
X011675Y014602D03*
X011679Y014599D03*
X011682Y014595D03*
X011685Y014592D03*
X011688Y014589D03*
X011692Y014586D03*
X011695Y014582D03*
X011692Y014576D03*
X011688Y014573D03*
X011685Y014566D03*
X011682Y014563D03*
X011679Y014556D03*
X011675Y014553D03*
X011672Y014546D03*
X011669Y014543D03*
X011666Y014540D03*
X011662Y014533D03*
X011659Y014530D03*
X011656Y014523D03*
X011652Y014520D03*
X011649Y014514D03*
X011646Y014510D03*
X011643Y014504D03*
X011639Y014501D03*
X011636Y014494D03*
X011633Y014491D03*
X011630Y014484D03*
X011626Y014481D03*
X011623Y014478D03*
X011620Y014471D03*
X011617Y014468D03*
X011613Y014461D03*
X011610Y014458D03*
X011607Y014452D03*
X011603Y014448D03*
X011600Y014442D03*
X011587Y014425D03*
X011584Y014419D03*
X011581Y014416D03*
X011577Y014409D03*
X011574Y014406D03*
X011571Y014399D03*
X011567Y014396D03*
X011564Y014390D03*
X011561Y014386D03*
X011558Y014380D03*
X011554Y014376D03*
X011551Y014373D03*
X011551Y014370D03*
X011548Y014367D03*
X011545Y014363D03*
X011541Y014357D03*
X011538Y014354D03*
X011535Y014347D03*
X011532Y014344D03*
X011528Y014337D03*
X011525Y014334D03*
X011522Y014327D03*
X011518Y014324D03*
X011515Y014318D03*
X011512Y014314D03*
X011509Y014311D03*
X011505Y014305D03*
X011502Y014301D03*
X011499Y014295D03*
X011496Y014291D03*
X011492Y014285D03*
X011489Y014282D03*
X011486Y014275D03*
X011483Y014272D03*
X011479Y014265D03*
X011476Y014262D03*
X011473Y014259D03*
X011473Y014255D03*
X011469Y014252D03*
X011466Y014249D03*
X011463Y014242D03*
X011460Y014239D03*
X011456Y014233D03*
X011453Y014229D03*
X011450Y014223D03*
X011447Y014220D03*
X011443Y014213D03*
X011440Y014210D03*
X011437Y014203D03*
X011433Y014200D03*
X011430Y014197D03*
X011427Y014190D03*
X011424Y014187D03*
X011420Y014180D03*
X011417Y014177D03*
X011414Y014171D03*
X011411Y014167D03*
X011407Y014161D03*
X011404Y014157D03*
X011401Y014151D03*
X011398Y014148D03*
X011394Y014144D03*
X011394Y014141D03*
X011391Y014138D03*
X011388Y014135D03*
X011388Y014125D03*
X011391Y014118D03*
X011398Y014102D03*
X011401Y014095D03*
X011407Y014079D03*
X011411Y014073D03*
X011417Y014056D03*
X011420Y014050D03*
X011427Y014033D03*
X011430Y014027D03*
X011437Y014010D03*
X011440Y014004D03*
X011447Y013988D03*
X011450Y013981D03*
X011453Y013971D03*
X011456Y013965D03*
X011460Y013958D03*
X011463Y013948D03*
X011466Y013942D03*
X011469Y013935D03*
X011473Y013925D03*
X011476Y013919D03*
X011479Y013912D03*
X011483Y013903D03*
X011486Y013896D03*
X011489Y013890D03*
X011492Y013880D03*
X011496Y013873D03*
X011499Y013867D03*
X011502Y013857D03*
X011509Y013844D03*
X011512Y013834D03*
X011515Y013827D03*
X011518Y013821D03*
X011522Y013811D03*
X011525Y013805D03*
X011528Y013798D03*
X011532Y013788D03*
X011535Y013782D03*
X011538Y013775D03*
X011541Y013765D03*
X011545Y013759D03*
X011548Y013752D03*
X011551Y013742D03*
X011554Y013736D03*
X011558Y013729D03*
X011561Y013720D03*
X011564Y013713D03*
X011567Y013706D03*
X011571Y013697D03*
X011581Y013030D03*
X011577Y013023D03*
X011574Y013014D03*
X011571Y013007D03*
X011567Y012997D03*
X011564Y012991D03*
X011561Y012981D03*
X011558Y012974D03*
X011554Y012965D03*
X011551Y012958D03*
X011548Y012948D03*
X011541Y012932D03*
X011538Y012925D03*
X011535Y012916D03*
X011532Y012909D03*
X011528Y012899D03*
X011525Y012893D03*
X011522Y012883D03*
X011515Y012867D03*
X011512Y012860D03*
X011509Y012850D03*
X011505Y012844D03*
X011502Y012834D03*
X011492Y012811D03*
X011489Y012801D03*
X011486Y012795D03*
X011483Y012785D03*
X011479Y012778D03*
X011476Y012769D03*
X011473Y012762D03*
X011469Y012752D03*
X011466Y012746D03*
X011463Y012736D03*
X011456Y012720D03*
X011453Y012713D03*
X011450Y012703D03*
X011447Y012697D03*
X011443Y012687D03*
X011440Y012680D03*
X011437Y012671D03*
X011433Y012664D03*
X011430Y012654D03*
X011424Y012638D03*
X011420Y012631D03*
X011417Y012622D03*
X011414Y012615D03*
X011411Y012605D03*
X011407Y012599D03*
X011404Y012589D03*
X011401Y012582D03*
X011401Y012579D03*
X011404Y012573D03*
X011407Y012569D03*
X011411Y012563D03*
X011414Y012559D03*
X011417Y012553D03*
X011420Y012550D03*
X011424Y012543D03*
X011427Y012540D03*
X011430Y012537D03*
X011433Y012530D03*
X011437Y012527D03*
X011440Y012520D03*
X011443Y012517D03*
X011447Y012510D03*
X011450Y012507D03*
X011453Y012501D03*
X011456Y012497D03*
X011460Y012491D03*
X011463Y012488D03*
X011466Y012481D03*
X011469Y012478D03*
X011473Y012474D03*
X011476Y012468D03*
X011479Y012465D03*
X011483Y012458D03*
X011486Y012455D03*
X011489Y012448D03*
X011492Y012445D03*
X011496Y012439D03*
X011499Y012435D03*
X011502Y012429D03*
X011505Y012425D03*
X011509Y012422D03*
X011509Y012419D03*
X011512Y012416D03*
X011515Y012412D03*
X011518Y012406D03*
X011522Y012403D03*
X011525Y012396D03*
X011528Y012393D03*
X011532Y012386D03*
X011535Y012383D03*
X011538Y012376D03*
X011541Y012373D03*
X011545Y012367D03*
X011548Y012363D03*
X011551Y012360D03*
X011554Y012354D03*
X011558Y012350D03*
X011561Y012344D03*
X011564Y012340D03*
X011567Y012334D03*
X011571Y012331D03*
X011574Y012324D03*
X011577Y012321D03*
X011581Y012314D03*
X011584Y012311D03*
X011587Y012308D03*
X011587Y012305D03*
X011600Y012288D03*
X011603Y012282D03*
X011607Y012278D03*
X011610Y012272D03*
X011613Y012269D03*
X011617Y012262D03*
X011620Y012259D03*
X011623Y012252D03*
X011626Y012249D03*
X011630Y012246D03*
X011630Y012242D03*
X011633Y012239D03*
X011636Y012236D03*
X011639Y012229D03*
X011643Y012226D03*
X011646Y012220D03*
X011649Y012216D03*
X011652Y012210D03*
X011656Y012206D03*
X011659Y012200D03*
X011662Y012197D03*
X011666Y012190D03*
X011669Y012187D03*
X011672Y012184D03*
X011675Y012177D03*
X011679Y012174D03*
X011682Y012167D03*
X011685Y012164D03*
X011688Y012157D03*
X011692Y012154D03*
X011695Y012148D03*
X011620Y012073D03*
X011617Y012069D03*
X011613Y012066D03*
X011610Y012063D03*
X011607Y012059D03*
X011603Y012056D03*
X011600Y012053D03*
X011587Y012040D03*
X011584Y012037D03*
X011581Y012033D03*
X011577Y012030D03*
X011574Y012027D03*
X011571Y012023D03*
X011567Y012020D03*
X011564Y012017D03*
X011561Y012014D03*
X011558Y012010D03*
X011554Y012007D03*
X011551Y012004D03*
X011548Y012001D03*
X011545Y011997D03*
X011541Y011994D03*
X011538Y011991D03*
X011535Y011988D03*
X011532Y011984D03*
X011528Y011981D03*
X011525Y011978D03*
X011522Y011974D03*
X011518Y011971D03*
X011515Y011968D03*
X011512Y011965D03*
X011509Y011961D03*
X011505Y011958D03*
X011502Y011955D03*
X011499Y011952D03*
X011496Y011948D03*
X011492Y011945D03*
X011489Y011942D03*
X011486Y011939D03*
X011483Y011935D03*
X011479Y011932D03*
X011476Y011929D03*
X011473Y011925D03*
X011469Y011922D03*
X011466Y011919D03*
X011463Y011916D03*
X011460Y011912D03*
X011456Y011909D03*
X011453Y011906D03*
X011450Y011903D03*
X011447Y011899D03*
X011443Y011896D03*
X011440Y011893D03*
X011437Y011890D03*
X011433Y011886D03*
X011430Y011883D03*
X011427Y011880D03*
X011424Y011876D03*
X011420Y011873D03*
X011417Y011870D03*
X011414Y011867D03*
X011411Y011863D03*
X011407Y011860D03*
X011404Y011857D03*
X011401Y011854D03*
X011398Y011850D03*
X011394Y011847D03*
X011391Y011844D03*
X011388Y011840D03*
X011384Y011837D03*
X011381Y011834D03*
X011378Y011831D03*
X011371Y011824D03*
X011306Y011870D03*
X011244Y011912D03*
X010986Y012089D03*
X010770Y012004D03*
X010764Y012017D03*
X010760Y012027D03*
X010757Y012033D03*
X010754Y012043D03*
X010750Y012050D03*
X010747Y012059D03*
X010744Y012066D03*
X010741Y012073D03*
X010737Y012082D03*
X010734Y012089D03*
X010731Y012099D03*
X010728Y012105D03*
X010724Y012112D03*
X010721Y012122D03*
X010718Y012128D03*
X010715Y012138D03*
X010711Y012144D03*
X010708Y012154D03*
X010705Y012161D03*
X010701Y012167D03*
X010698Y012177D03*
X010695Y012184D03*
X010692Y012193D03*
X010688Y012200D03*
X010682Y012216D03*
X010679Y012223D03*
X010675Y012233D03*
X010672Y012239D03*
X010669Y012249D03*
X010666Y012255D03*
X010662Y012262D03*
X010659Y012272D03*
X010656Y012278D03*
X010652Y012288D03*
X010649Y012295D03*
X010646Y012305D03*
X010643Y012311D03*
X010639Y012318D03*
X010633Y012334D03*
X010630Y012344D03*
X010626Y012350D03*
X010623Y012357D03*
X010620Y012367D03*
X010617Y012373D03*
X010613Y012383D03*
X010610Y012390D03*
X010607Y012399D03*
X010603Y012406D03*
X010600Y012412D03*
X010597Y012422D03*
X010594Y012429D03*
X010590Y012439D03*
X010577Y012468D03*
X010574Y012478D03*
X010571Y012484D03*
X010567Y012494D03*
X010564Y012501D03*
X010561Y012507D03*
X010558Y012517D03*
X010554Y012523D03*
X010551Y012533D03*
X010548Y012540D03*
X010545Y012550D03*
X010541Y012556D03*
X010538Y012563D03*
X010535Y012573D03*
X010532Y012579D03*
X010528Y012589D03*
X010525Y012595D03*
X010522Y012605D03*
X010518Y012612D03*
X010515Y012618D03*
X010512Y012628D03*
X010509Y012635D03*
X010505Y012644D03*
X010502Y012651D03*
X010499Y012657D03*
X010496Y012667D03*
X010492Y012674D03*
X010489Y012684D03*
X010486Y012690D03*
X010483Y012700D03*
X010479Y012706D03*
X010476Y012713D03*
X010473Y012723D03*
X010469Y012729D03*
X010466Y012739D03*
X010463Y012746D03*
X010460Y012752D03*
X010460Y012755D03*
X010456Y012762D03*
X010453Y012769D03*
X010450Y012778D03*
X010447Y012785D03*
X010443Y012795D03*
X010440Y012801D03*
X009868Y012798D03*
X009865Y012791D03*
X009862Y012785D03*
X009858Y012775D03*
X009855Y012769D03*
X009852Y012759D03*
X009849Y012752D03*
X009845Y012742D03*
X009842Y012736D03*
X009839Y012729D03*
X009835Y012720D03*
X009832Y012713D03*
X009829Y012703D03*
X009826Y012697D03*
X009822Y012690D03*
X009822Y012687D03*
X009819Y012680D03*
X009816Y012674D03*
X009813Y012664D03*
X009809Y012657D03*
X009806Y012648D03*
X009803Y012641D03*
X009800Y012635D03*
X009796Y012625D03*
X009793Y012618D03*
X009790Y012608D03*
X009786Y012602D03*
X009783Y012592D03*
X009780Y012586D03*
X009777Y012579D03*
X009773Y012569D03*
X009770Y012563D03*
X009767Y012553D03*
X009764Y012546D03*
X009760Y012540D03*
X009757Y012530D03*
X009754Y012523D03*
X009750Y012514D03*
X009747Y012507D03*
X009744Y012497D03*
X009741Y012491D03*
X009737Y012484D03*
X009734Y012474D03*
X009731Y012468D03*
X009728Y012458D03*
X009724Y012452D03*
X009721Y012445D03*
X009718Y012435D03*
X009715Y012429D03*
X009711Y012419D03*
X009708Y012412D03*
X009705Y012403D03*
X009701Y012396D03*
X009698Y012390D03*
X009695Y012380D03*
X009692Y012373D03*
X009688Y012363D03*
X009685Y012357D03*
X009682Y012350D03*
X009679Y012340D03*
X009675Y012334D03*
X009672Y012324D03*
X009669Y012318D03*
X009666Y012308D03*
X009662Y012301D03*
X009659Y012295D03*
X009656Y012285D03*
X009652Y012278D03*
X009649Y012269D03*
X009646Y012262D03*
X009639Y012246D03*
X009636Y012239D03*
X009633Y012229D03*
X009630Y012223D03*
X009626Y012213D03*
X009623Y012206D03*
X009620Y012200D03*
X009617Y012190D03*
X009613Y012184D03*
X009610Y012174D03*
X009607Y012167D03*
X009600Y012151D03*
X009597Y012144D03*
X009594Y012135D03*
X009590Y012128D03*
X009587Y012118D03*
X009584Y012112D03*
X009581Y012105D03*
X009577Y012095D03*
X009564Y012063D03*
X009561Y012056D03*
X009558Y012050D03*
X009554Y012040D03*
X009551Y012033D03*
X009548Y012023D03*
X009545Y012017D03*
X009358Y012115D03*
X009342Y012102D03*
X009290Y012066D03*
X009175Y011988D03*
X009009Y011873D03*
D20*
X009014Y011876D03*
X009017Y011880D03*
X009023Y011883D03*
X009027Y011886D03*
X009033Y011890D03*
X009036Y011893D03*
X009043Y011896D03*
X009046Y011899D03*
X009053Y011903D03*
X009069Y011916D03*
X009076Y011919D03*
X009079Y011922D03*
X009085Y011925D03*
X009089Y011929D03*
X009095Y011932D03*
X009099Y011935D03*
X009105Y011939D03*
X009108Y011942D03*
X009115Y011945D03*
X009118Y011948D03*
X009121Y011952D03*
X009128Y011955D03*
X009131Y011958D03*
X009138Y011961D03*
X009141Y011965D03*
X009148Y011968D03*
X009151Y011971D03*
X009157Y011974D03*
X009161Y011978D03*
X009167Y011981D03*
X009170Y011984D03*
X009180Y011991D03*
X009184Y011994D03*
X009190Y011997D03*
X009193Y012001D03*
X009200Y012004D03*
X009203Y012007D03*
X009210Y012010D03*
X009213Y012014D03*
X009219Y012017D03*
X009223Y012020D03*
X009229Y012023D03*
X009233Y012027D03*
X009236Y012030D03*
X009242Y012033D03*
X009246Y012037D03*
X009252Y012040D03*
X009255Y012043D03*
X009262Y012046D03*
X009265Y012050D03*
X009272Y012053D03*
X009275Y012056D03*
X009282Y012059D03*
X009285Y012063D03*
X009295Y012069D03*
X009298Y012073D03*
X009304Y012076D03*
X009308Y012079D03*
X009314Y012082D03*
X009317Y012086D03*
X009324Y012089D03*
X009327Y012092D03*
X009334Y012095D03*
X009337Y012099D03*
X009347Y012105D03*
X009373Y012105D03*
X009380Y012102D03*
X009389Y012095D03*
X009396Y012092D03*
X009402Y012089D03*
X009412Y012082D03*
X009419Y012079D03*
X009425Y012076D03*
X009442Y012066D03*
X009448Y012063D03*
X009465Y012053D03*
X009471Y012050D03*
X009487Y012040D03*
X009494Y012037D03*
X009510Y012027D03*
X009517Y012023D03*
X009540Y012010D03*
X009004Y011870D03*
X009000Y011867D03*
X008994Y011863D03*
X008991Y011860D03*
X008984Y011857D03*
X008981Y011854D03*
X008974Y011850D03*
X008971Y011847D03*
X008965Y011844D03*
X008961Y011840D03*
X008955Y011837D03*
X008951Y011834D03*
X008948Y011831D03*
X008938Y011824D03*
X008723Y013037D03*
X008206Y013138D03*
X008206Y013592D03*
X009262Y014684D03*
X009259Y014687D03*
X009252Y014690D03*
X009249Y014693D03*
X009242Y014697D03*
X009239Y014700D03*
X009233Y014703D03*
X009229Y014706D03*
X009223Y014710D03*
X009219Y014713D03*
X009213Y014716D03*
X009210Y014720D03*
X009203Y014723D03*
X009200Y014726D03*
X009190Y014733D03*
X009187Y014736D03*
X009180Y014739D03*
X009177Y014742D03*
X009170Y014746D03*
X009167Y014749D03*
X009161Y014752D03*
X009157Y014755D03*
X009151Y014759D03*
X009148Y014762D03*
X009141Y014765D03*
X009138Y014769D03*
X009131Y014772D03*
X009128Y014775D03*
X009118Y014782D03*
X009115Y014785D03*
X009108Y014788D03*
X009105Y014791D03*
X009099Y014795D03*
X009095Y014798D03*
X009089Y014801D03*
X009085Y014805D03*
X009079Y014808D03*
X009076Y014811D03*
X009069Y014814D03*
X009046Y014831D03*
X009043Y014834D03*
X009036Y014837D03*
X009033Y014840D03*
X009027Y014844D03*
X009023Y014847D03*
X009017Y014850D03*
X009014Y014854D03*
X009007Y014857D03*
X009004Y014860D03*
X008997Y014863D03*
X008987Y014870D03*
X008984Y014873D03*
X008974Y014880D03*
X008971Y014883D03*
X008965Y014886D03*
X008961Y014890D03*
X008955Y014893D03*
X008951Y014896D03*
X008945Y014899D03*
X009272Y014677D03*
X009275Y014674D03*
X009282Y014671D03*
X009285Y014667D03*
X009291Y014664D03*
X009295Y014661D03*
X009301Y014657D03*
X009304Y014654D03*
X009311Y014651D03*
X009314Y014648D03*
X009321Y014644D03*
X009324Y014641D03*
X009331Y014638D03*
X009334Y014635D03*
X009344Y014628D03*
X009347Y014625D03*
X009353Y014622D03*
X009357Y014618D03*
X009363Y014615D03*
X009366Y014612D03*
X009373Y014608D03*
X009376Y014605D03*
X009383Y014602D03*
X009386Y014599D03*
X010922Y014599D03*
X010929Y014602D03*
X010932Y014605D03*
X010938Y014608D03*
X010942Y014612D03*
X010948Y014615D03*
X010951Y014618D03*
X010958Y014622D03*
X010961Y014625D03*
X010965Y014628D03*
X010971Y014631D03*
X010974Y014635D03*
X010981Y014638D03*
X010984Y014641D03*
X010991Y014644D03*
X010994Y014648D03*
X011000Y014651D03*
X011004Y014654D03*
X011010Y014657D03*
X011014Y014661D03*
X011020Y014664D03*
X011023Y014667D03*
X011027Y014671D03*
X011033Y014674D03*
X011036Y014677D03*
X011043Y014680D03*
X011046Y014684D03*
X011053Y014687D03*
X011056Y014690D03*
X011063Y014693D03*
X011066Y014697D03*
X011072Y014700D03*
X011076Y014703D03*
X011079Y014706D03*
X011085Y014710D03*
X011105Y014723D03*
X011108Y014726D03*
X011115Y014729D03*
X011118Y014733D03*
X011125Y014736D03*
X011128Y014739D03*
X011134Y014742D03*
X011138Y014746D03*
X011141Y014749D03*
X011148Y014752D03*
X011151Y014755D03*
X011157Y014759D03*
X011161Y014762D03*
X011167Y014765D03*
X011170Y014769D03*
X011177Y014772D03*
X011180Y014775D03*
X011187Y014778D03*
X011190Y014782D03*
X011200Y014788D03*
X011203Y014791D03*
X011210Y014795D03*
X011213Y014798D03*
X011219Y014801D03*
X011223Y014805D03*
X011229Y014808D03*
X011233Y014811D03*
X011239Y014814D03*
X011242Y014818D03*
X011249Y014821D03*
X011252Y014824D03*
X011255Y014827D03*
X011262Y014831D03*
X011265Y014834D03*
X011272Y014837D03*
X011275Y014840D03*
X011282Y014844D03*
X011285Y014847D03*
X011291Y014850D03*
X011295Y014854D03*
X011301Y014857D03*
X011304Y014860D03*
X011317Y014870D03*
X011324Y014873D03*
X011327Y014876D03*
X011334Y014880D03*
X011337Y014883D03*
X011344Y014886D03*
X011347Y014890D03*
X011353Y014893D03*
X011357Y014896D03*
X011363Y014899D03*
X011370Y014906D03*
X011585Y013037D03*
X011693Y012144D03*
X011690Y012141D03*
X011687Y012138D03*
X011684Y012135D03*
X011680Y012131D03*
X011677Y012128D03*
X011674Y012125D03*
X011670Y012122D03*
X011667Y012118D03*
X011664Y012115D03*
X011661Y012112D03*
X011657Y012108D03*
X011654Y012105D03*
X011651Y012102D03*
X011648Y012099D03*
X011644Y012095D03*
X011641Y012092D03*
X011638Y012089D03*
X011634Y012086D03*
X011631Y012082D03*
X011628Y012079D03*
X011625Y012076D03*
X011363Y011831D03*
X011360Y011834D03*
X011353Y011837D03*
X011350Y011840D03*
X011344Y011844D03*
X011340Y011847D03*
X011334Y011850D03*
X011331Y011854D03*
X011324Y011857D03*
X011321Y011860D03*
X011314Y011863D03*
X011311Y011867D03*
X011301Y011873D03*
X011298Y011876D03*
X011291Y011880D03*
X011288Y011883D03*
X011282Y011886D03*
X011278Y011890D03*
X011272Y011893D03*
X011268Y011896D03*
X011262Y011899D03*
X011259Y011903D03*
X011252Y011906D03*
X011249Y011909D03*
X011239Y011916D03*
X011236Y011919D03*
X011229Y011922D03*
X011226Y011925D03*
X011219Y011929D03*
X011216Y011932D03*
X011210Y011935D03*
X011206Y011939D03*
X011200Y011942D03*
X011197Y011945D03*
X011190Y011948D03*
X011187Y011952D03*
X011180Y011955D03*
X011177Y011958D03*
X011174Y011961D03*
X011167Y011965D03*
X011164Y011968D03*
X011157Y011971D03*
X011154Y011974D03*
X011148Y011978D03*
X011144Y011981D03*
X011138Y011984D03*
X011134Y011988D03*
X011128Y011991D03*
X011125Y011994D03*
X011118Y011997D03*
X011115Y012001D03*
X011112Y012004D03*
X011105Y012007D03*
X011102Y012010D03*
X011085Y012020D03*
X011082Y012023D03*
X011076Y012027D03*
X011072Y012030D03*
X011066Y012033D03*
X011063Y012037D03*
X011056Y012040D03*
X011053Y012043D03*
X011049Y012046D03*
X011043Y012050D03*
X011040Y012053D03*
X011033Y012056D03*
X011030Y012059D03*
X011023Y012063D03*
X011020Y012066D03*
X011014Y012069D03*
X011010Y012073D03*
X011004Y012076D03*
X011000Y012079D03*
X010994Y012082D03*
X010991Y012086D03*
X010981Y012092D03*
X010978Y012095D03*
X010971Y012099D03*
X010968Y012102D03*
X010961Y012105D03*
X010938Y012105D03*
X010932Y012102D03*
X010922Y012095D03*
X010916Y012092D03*
X010909Y012089D03*
X010899Y012082D03*
X010893Y012079D03*
X010883Y012073D03*
X010876Y012069D03*
X010866Y012063D03*
X010860Y012059D03*
X010850Y012053D03*
X010844Y012050D03*
X010834Y012043D03*
X010827Y012040D03*
X010817Y012033D03*
X010811Y012030D03*
X010801Y012023D03*
X010795Y012020D03*
X010785Y012014D03*
D21*
X010790Y012017D03*
X010806Y012027D03*
X010822Y012037D03*
X010839Y012046D03*
X010855Y012056D03*
X010871Y012066D03*
X010888Y012076D03*
X010904Y012086D03*
X010927Y012099D03*
X010950Y012112D03*
X010773Y012007D03*
X011371Y011827D03*
X009528Y012017D03*
X009522Y012020D03*
X009505Y012030D03*
X009499Y012033D03*
X009483Y012043D03*
X009476Y012046D03*
X009460Y012056D03*
X009453Y012059D03*
X009437Y012069D03*
X009430Y012073D03*
X009407Y012086D03*
X009384Y012099D03*
X009398Y014592D03*
X009427Y014605D03*
X009515Y014641D03*
X009620Y014684D03*
X009708Y014720D03*
X009813Y014762D03*
X009819Y014765D03*
X010492Y014765D03*
X010522Y014752D03*
X010538Y014746D03*
X010594Y014723D03*
X010633Y014706D03*
X010649Y014700D03*
X010688Y014684D03*
X010705Y014677D03*
X010744Y014661D03*
X010760Y014654D03*
X010800Y014638D03*
X010816Y014631D03*
X010855Y014615D03*
X010871Y014608D03*
X010911Y014592D03*
D22*
X010896Y014599D03*
X010886Y014602D03*
X010880Y014605D03*
X010863Y014612D03*
X010847Y014618D03*
X010840Y014622D03*
X010831Y014625D03*
X010824Y014628D03*
X010808Y014635D03*
X010791Y014641D03*
X010785Y014644D03*
X010768Y014651D03*
X010752Y014657D03*
X010736Y014664D03*
X010729Y014667D03*
X010719Y014671D03*
X010713Y014674D03*
X010697Y014680D03*
X010680Y014687D03*
X010674Y014690D03*
X010664Y014693D03*
X010657Y014697D03*
X010641Y014703D03*
X010625Y014710D03*
X010618Y014713D03*
X010608Y014716D03*
X010602Y014720D03*
X010569Y014733D03*
X010563Y014736D03*
X010553Y014739D03*
X010546Y014742D03*
X010530Y014749D03*
X010514Y014755D03*
X010507Y014759D03*
X010497Y014762D03*
X009804Y014759D03*
X009798Y014755D03*
X009788Y014752D03*
X009782Y014749D03*
X009772Y014746D03*
X009765Y014742D03*
X009755Y014739D03*
X009749Y014736D03*
X009739Y014733D03*
X009733Y014729D03*
X009723Y014726D03*
X009716Y014723D03*
X009700Y014716D03*
X009693Y014713D03*
X009684Y014710D03*
X009677Y014706D03*
X009667Y014703D03*
X009661Y014700D03*
X009651Y014697D03*
X009644Y014693D03*
X009634Y014690D03*
X009628Y014687D03*
X009612Y014680D03*
X009605Y014677D03*
X009595Y014674D03*
X009589Y014671D03*
X009556Y014657D03*
X009546Y014654D03*
X009540Y014651D03*
X009530Y014648D03*
X009523Y014644D03*
X009507Y014638D03*
X009500Y014635D03*
X009491Y014631D03*
X009484Y014628D03*
X009474Y014625D03*
X009468Y014622D03*
X009458Y014618D03*
X009451Y014615D03*
X009442Y014612D03*
X009435Y014608D03*
X009419Y014602D03*
X009412Y014599D03*
X008938Y014903D03*
X011370Y014903D03*
X009360Y012112D03*
X009536Y012014D03*
X008938Y011827D03*
D23*
X009056Y011906D03*
X009066Y011912D03*
X011092Y012017D03*
X011095Y012014D03*
X012102Y013138D03*
X011095Y014716D03*
X011099Y014720D03*
X011089Y014713D03*
X009066Y014818D03*
X009059Y014821D03*
X009056Y014824D03*
D24*
X011590Y014687D03*
X011594Y014684D03*
X011597Y014680D03*
X011597Y014439D03*
X011594Y014432D03*
X011590Y014429D03*
X012103Y013592D03*
X011590Y012301D03*
X011594Y012298D03*
X011597Y012291D03*
X011597Y012050D03*
X011594Y012046D03*
X011590Y012043D03*
X010587Y012445D03*
X010584Y012455D03*
X010581Y012461D03*
X009574Y012089D03*
X009571Y012079D03*
X009567Y012073D03*
X009061Y011909D03*
D25*
X009540Y012007D03*
X009546Y012020D03*
X009549Y012027D03*
X009549Y012030D03*
X009553Y012037D03*
X009556Y012043D03*
X009556Y012046D03*
X009559Y012053D03*
X009563Y012059D03*
X009566Y012066D03*
X009566Y012069D03*
X009576Y012092D03*
X009579Y012099D03*
X009579Y012102D03*
X009582Y012108D03*
X009585Y012115D03*
X009589Y012122D03*
X009589Y012125D03*
X009592Y012131D03*
X009595Y012138D03*
X009595Y012141D03*
X009599Y012148D03*
X009602Y012154D03*
X009602Y012157D03*
X009605Y012161D03*
X009605Y012164D03*
X009608Y012171D03*
X009612Y012177D03*
X009612Y012180D03*
X009615Y012187D03*
X009618Y012193D03*
X009618Y012197D03*
X009621Y012203D03*
X009625Y012210D03*
X009628Y012216D03*
X009628Y012220D03*
X009631Y012226D03*
X009634Y012233D03*
X009634Y012236D03*
X009638Y012242D03*
X009641Y012249D03*
X009641Y012252D03*
X009644Y012255D03*
X009644Y012259D03*
X009648Y012265D03*
X009651Y012272D03*
X009651Y012275D03*
X009654Y012282D03*
X009657Y012288D03*
X009657Y012291D03*
X009661Y012298D03*
X009664Y012305D03*
X009667Y012311D03*
X009667Y012314D03*
X009670Y012321D03*
X009674Y012331D03*
X009677Y012337D03*
X009680Y012344D03*
X009680Y012347D03*
X009684Y012354D03*
X009687Y012360D03*
X009690Y012367D03*
X009690Y012370D03*
X009693Y012376D03*
X009697Y012383D03*
X009697Y012386D03*
X009700Y012393D03*
X009703Y012399D03*
X009706Y012406D03*
X009706Y012409D03*
X009710Y012416D03*
X009713Y012422D03*
X009713Y012425D03*
X009716Y012432D03*
X009719Y012439D03*
X009719Y012442D03*
X009723Y012448D03*
X009726Y012455D03*
X009729Y012461D03*
X009729Y012465D03*
X009733Y012471D03*
X009736Y012478D03*
X009736Y012481D03*
X009739Y012488D03*
X009742Y012494D03*
X009746Y012501D03*
X009746Y012504D03*
X009749Y012510D03*
X009752Y012517D03*
X009752Y012520D03*
X009755Y012527D03*
X009759Y012533D03*
X009759Y012537D03*
X009762Y012543D03*
X009765Y012550D03*
X009768Y012556D03*
X009768Y012559D03*
X009772Y012566D03*
X009775Y012573D03*
X009775Y012576D03*
X009778Y012582D03*
X009782Y012589D03*
X009785Y012595D03*
X009785Y012599D03*
X009788Y012605D03*
X009791Y012612D03*
X009791Y012615D03*
X009795Y012622D03*
X009798Y012628D03*
X009798Y012631D03*
X009801Y012638D03*
X009804Y012644D03*
X009808Y012651D03*
X009808Y012654D03*
X009811Y012661D03*
X009814Y012667D03*
X009814Y012671D03*
X009817Y012677D03*
X009821Y012684D03*
X009824Y012693D03*
X009827Y012700D03*
X009831Y012706D03*
X009831Y012710D03*
X009834Y012716D03*
X009837Y012723D03*
X009837Y012726D03*
X009840Y012733D03*
X009844Y012739D03*
X009847Y012746D03*
X009847Y012749D03*
X009850Y012755D03*
X009853Y012762D03*
X009853Y012765D03*
X009857Y012772D03*
X009860Y012778D03*
X009860Y012782D03*
X009863Y012788D03*
X009866Y012795D03*
X009870Y012801D03*
X009870Y012805D03*
X010438Y012805D03*
X010442Y012798D03*
X010445Y012791D03*
X010445Y012788D03*
X010448Y012782D03*
X010451Y012775D03*
X010451Y012772D03*
X010455Y012765D03*
X010458Y012759D03*
X010461Y012749D03*
X010465Y012742D03*
X010468Y012736D03*
X010468Y012733D03*
X010471Y012726D03*
X010474Y012720D03*
X010474Y012716D03*
X010478Y012710D03*
X010481Y012703D03*
X010484Y012697D03*
X010484Y012693D03*
X010487Y012687D03*
X010491Y012680D03*
X010491Y012677D03*
X010494Y012671D03*
X010497Y012664D03*
X010497Y012661D03*
X010500Y012654D03*
X010504Y012648D03*
X010507Y012641D03*
X010507Y012638D03*
X010510Y012631D03*
X010514Y012625D03*
X010514Y012622D03*
X010517Y012615D03*
X010520Y012608D03*
X010523Y012602D03*
X010523Y012599D03*
X010527Y012592D03*
X010530Y012586D03*
X010530Y012582D03*
X010533Y012576D03*
X010536Y012569D03*
X010536Y012566D03*
X010540Y012559D03*
X010543Y012553D03*
X010546Y012546D03*
X010546Y012543D03*
X010549Y012537D03*
X010553Y012530D03*
X010553Y012527D03*
X010556Y012520D03*
X010559Y012514D03*
X010559Y012510D03*
X010563Y012504D03*
X010566Y012497D03*
X010569Y012491D03*
X010569Y012488D03*
X010572Y012481D03*
X010576Y012474D03*
X010576Y012471D03*
X010579Y012465D03*
X010589Y012442D03*
X010592Y012435D03*
X010592Y012432D03*
X010595Y012425D03*
X010599Y012419D03*
X010599Y012416D03*
X010602Y012409D03*
X010605Y012403D03*
X010608Y012396D03*
X010608Y012393D03*
X010612Y012386D03*
X010615Y012380D03*
X010615Y012376D03*
X010618Y012370D03*
X010621Y012363D03*
X010621Y012360D03*
X010625Y012354D03*
X010628Y012347D03*
X010631Y012340D03*
X010631Y012337D03*
X010634Y012331D03*
X010638Y012324D03*
X010638Y012321D03*
X010641Y012314D03*
X010644Y012308D03*
X010648Y012301D03*
X010648Y012298D03*
X010651Y012291D03*
X010654Y012285D03*
X010654Y012282D03*
X010657Y012275D03*
X010661Y012269D03*
X010661Y012265D03*
X010664Y012259D03*
X010667Y012252D03*
X010670Y012246D03*
X010670Y012242D03*
X010674Y012236D03*
X010677Y012229D03*
X010677Y012226D03*
X010680Y012220D03*
X010684Y012213D03*
X010684Y012210D03*
X010687Y012206D03*
X010687Y012203D03*
X010690Y012197D03*
X010693Y012190D03*
X010693Y012187D03*
X010697Y012180D03*
X010700Y012174D03*
X010700Y012171D03*
X010703Y012164D03*
X010706Y012157D03*
X010710Y012151D03*
X010710Y012148D03*
X010713Y012141D03*
X010716Y012135D03*
X010716Y012131D03*
X010719Y012125D03*
X010723Y012118D03*
X010723Y012115D03*
X010726Y012108D03*
X010729Y012102D03*
X010733Y012095D03*
X010733Y012092D03*
X010736Y012086D03*
X010739Y012079D03*
X010739Y012076D03*
X010742Y012069D03*
X010746Y012063D03*
X010749Y012056D03*
X010749Y012053D03*
X010752Y012046D03*
X010755Y012040D03*
X010755Y012037D03*
X010759Y012030D03*
X010762Y012023D03*
X010762Y012020D03*
X010765Y012014D03*
X010951Y012115D03*
X011438Y012523D03*
X011445Y012514D03*
X011451Y012504D03*
X011458Y012494D03*
X011465Y012484D03*
X011474Y012471D03*
X011481Y012461D03*
X011487Y012452D03*
X011494Y012442D03*
X011500Y012432D03*
X011517Y012409D03*
X011523Y012399D03*
X011530Y012390D03*
X011536Y012380D03*
X011543Y012370D03*
X011553Y012357D03*
X011559Y012347D03*
X011566Y012337D03*
X011579Y012318D03*
X011602Y012285D03*
X011608Y012275D03*
X011615Y012265D03*
X011621Y012255D03*
X011638Y012233D03*
X011644Y012223D03*
X011651Y012213D03*
X011657Y012203D03*
X011664Y012193D03*
X011674Y012180D03*
X011680Y012171D03*
X011687Y012161D03*
X011693Y012151D03*
X011432Y012533D03*
X011422Y012546D03*
X011416Y012556D03*
X011409Y012566D03*
X011402Y012576D03*
X011402Y012586D03*
X011406Y012592D03*
X011406Y012595D03*
X011409Y012602D03*
X011412Y012608D03*
X011412Y012612D03*
X011416Y012618D03*
X011419Y012625D03*
X011419Y012628D03*
X011422Y012635D03*
X011425Y012641D03*
X011425Y012644D03*
X011429Y012651D03*
X011432Y012657D03*
X011432Y012661D03*
X011435Y012667D03*
X011438Y012674D03*
X011438Y012677D03*
X011442Y012684D03*
X011445Y012690D03*
X011445Y012693D03*
X011448Y012700D03*
X011451Y012706D03*
X011451Y012710D03*
X011455Y012716D03*
X011458Y012723D03*
X011458Y012726D03*
X011461Y012733D03*
X011465Y012739D03*
X011465Y012742D03*
X011468Y012749D03*
X011471Y012755D03*
X011471Y012759D03*
X011474Y012765D03*
X011478Y012772D03*
X011478Y012775D03*
X011481Y012782D03*
X011484Y012788D03*
X011484Y012791D03*
X011487Y012798D03*
X011491Y012805D03*
X011491Y012808D03*
X011494Y012814D03*
X011497Y012821D03*
X011497Y012824D03*
X011500Y012831D03*
X011504Y012840D03*
X011507Y012847D03*
X011510Y012854D03*
X011510Y012857D03*
X011514Y012863D03*
X011517Y012870D03*
X011517Y012873D03*
X011520Y012880D03*
X011523Y012886D03*
X011523Y012890D03*
X011527Y012896D03*
X011530Y012903D03*
X011530Y012906D03*
X011533Y012912D03*
X011536Y012919D03*
X011536Y012922D03*
X011540Y012929D03*
X011543Y012935D03*
X011543Y012939D03*
X011546Y012945D03*
X011549Y012952D03*
X011549Y012955D03*
X011553Y012961D03*
X011556Y012968D03*
X011556Y012971D03*
X011559Y012978D03*
X011563Y012984D03*
X011563Y012988D03*
X011566Y012994D03*
X011569Y013001D03*
X011569Y013004D03*
X011572Y013010D03*
X011576Y013017D03*
X011576Y013020D03*
X011579Y013027D03*
X011582Y013033D03*
X011569Y013700D03*
X011569Y013703D03*
X011566Y013710D03*
X011563Y013716D03*
X011559Y013723D03*
X011559Y013726D03*
X011556Y013733D03*
X011553Y013739D03*
X011549Y013746D03*
X011549Y013749D03*
X011546Y013755D03*
X011543Y013762D03*
X011540Y013769D03*
X011540Y013772D03*
X011536Y013778D03*
X011533Y013785D03*
X011530Y013791D03*
X011530Y013795D03*
X011527Y013801D03*
X011523Y013808D03*
X011520Y013814D03*
X011520Y013818D03*
X011517Y013824D03*
X011514Y013831D03*
X011510Y013837D03*
X011510Y013840D03*
X011507Y013847D03*
X011504Y013854D03*
X011500Y013860D03*
X011500Y013863D03*
X011497Y013870D03*
X011494Y013876D03*
X011491Y013883D03*
X011491Y013886D03*
X011487Y013893D03*
X011484Y013899D03*
X011481Y013906D03*
X011481Y013909D03*
X011478Y013916D03*
X011474Y013922D03*
X011471Y013929D03*
X011471Y013932D03*
X011468Y013939D03*
X011465Y013945D03*
X011461Y013952D03*
X011461Y013955D03*
X011458Y013961D03*
X011455Y013968D03*
X011451Y013974D03*
X011451Y013978D03*
X011448Y013984D03*
X011445Y013991D03*
X011445Y013994D03*
X011442Y013997D03*
X011442Y014001D03*
X011438Y014007D03*
X011435Y014014D03*
X011435Y014017D03*
X011432Y014020D03*
X011432Y014023D03*
X011429Y014030D03*
X011425Y014037D03*
X011425Y014040D03*
X011422Y014043D03*
X011422Y014046D03*
X011419Y014053D03*
X011416Y014059D03*
X011416Y014063D03*
X011412Y014066D03*
X011412Y014069D03*
X011409Y014076D03*
X011406Y014082D03*
X011406Y014086D03*
X011402Y014089D03*
X011402Y014092D03*
X011399Y014099D03*
X011396Y014105D03*
X011396Y014108D03*
X011393Y014112D03*
X011393Y014115D03*
X011389Y014122D03*
X011386Y014128D03*
X011386Y014131D03*
X011402Y014154D03*
X011409Y014164D03*
X011416Y014174D03*
X011422Y014184D03*
X011429Y014193D03*
X011438Y014206D03*
X011445Y014216D03*
X011451Y014226D03*
X011458Y014236D03*
X011465Y014246D03*
X011481Y014269D03*
X011487Y014278D03*
X011494Y014288D03*
X011500Y014298D03*
X011507Y014308D03*
X011517Y014321D03*
X011523Y014331D03*
X011530Y014340D03*
X011536Y014350D03*
X011559Y014383D03*
X011566Y014393D03*
X011572Y014403D03*
X011579Y014412D03*
X011585Y014422D03*
X011602Y014445D03*
X011608Y014455D03*
X011615Y014465D03*
X011621Y014474D03*
X011631Y014488D03*
X011638Y014497D03*
X011644Y014507D03*
X011651Y014517D03*
X011657Y014527D03*
X011664Y014537D03*
X011674Y014550D03*
X011680Y014559D03*
X011687Y014569D03*
X011693Y014579D03*
X010912Y014589D03*
X010484Y014772D03*
X010484Y014775D03*
X010484Y014778D03*
X010484Y014782D03*
X010481Y014791D03*
X010481Y014795D03*
X010481Y014798D03*
X010481Y014801D03*
X010478Y014808D03*
X010478Y014811D03*
X010478Y014814D03*
X010478Y014818D03*
X010474Y014824D03*
X010474Y014827D03*
X010474Y014831D03*
X010474Y014834D03*
X010471Y014844D03*
X010471Y014847D03*
X010471Y014850D03*
X010471Y014854D03*
X010468Y014860D03*
X010468Y014863D03*
X010468Y014870D03*
X010465Y014876D03*
X010465Y014880D03*
X010465Y014883D03*
X010465Y014886D03*
X010461Y014896D03*
X010461Y014899D03*
X010461Y014903D03*
X010461Y014906D03*
X010458Y014912D03*
X010458Y014916D03*
X010458Y014919D03*
X010458Y014922D03*
X010455Y014929D03*
X010455Y014932D03*
X010455Y014935D03*
X010455Y014939D03*
X010451Y014948D03*
X010451Y014952D03*
X010451Y014955D03*
X010451Y014958D03*
X010448Y014965D03*
X010448Y014968D03*
X010448Y014971D03*
X010448Y014974D03*
X010445Y014981D03*
X010445Y014984D03*
X010445Y014988D03*
X010445Y014991D03*
X010442Y015001D03*
X010442Y015004D03*
X010442Y015007D03*
X010442Y015010D03*
X010438Y015017D03*
X010438Y015020D03*
X010438Y015023D03*
X010438Y015027D03*
X010435Y015033D03*
X010435Y015037D03*
X010435Y015040D03*
X010435Y015043D03*
X010432Y015053D03*
X010432Y015056D03*
X010432Y015059D03*
X010432Y015063D03*
X010429Y015069D03*
X010429Y015073D03*
X010429Y015076D03*
X010429Y015079D03*
X010425Y015089D03*
X010425Y015092D03*
X010425Y015095D03*
X010422Y015105D03*
X010422Y015108D03*
X010422Y015112D03*
X010422Y015115D03*
X010419Y015122D03*
X010419Y015125D03*
X010419Y015128D03*
X010419Y015131D03*
X010416Y015141D03*
X010416Y015144D03*
X010416Y015148D03*
X010416Y015151D03*
X010412Y015157D03*
X010412Y015161D03*
X010412Y015164D03*
X010412Y015167D03*
X010409Y015174D03*
X010409Y015177D03*
X010409Y015180D03*
X010409Y015184D03*
X010406Y015193D03*
X010406Y015197D03*
X010406Y015200D03*
X010406Y015203D03*
X010402Y015210D03*
X010402Y015213D03*
X010402Y015216D03*
X010402Y015220D03*
X010399Y015226D03*
X010399Y015229D03*
X010399Y015233D03*
X010399Y015236D03*
X010396Y015246D03*
X010396Y015249D03*
X010396Y015252D03*
X010396Y015255D03*
X010393Y015262D03*
X010393Y015265D03*
X010393Y015269D03*
X010393Y015272D03*
X010389Y015278D03*
X010389Y015282D03*
X010389Y015285D03*
X010389Y015288D03*
X010386Y015298D03*
X010386Y015301D03*
X010386Y015305D03*
X010386Y015308D03*
X009925Y015311D03*
X009922Y015305D03*
X009922Y015301D03*
X009922Y015298D03*
X009922Y015295D03*
X009919Y015285D03*
X009919Y015282D03*
X009919Y015278D03*
X009919Y015275D03*
X009916Y015269D03*
X009916Y015265D03*
X009916Y015262D03*
X009916Y015259D03*
X009912Y015249D03*
X009912Y015246D03*
X009912Y015242D03*
X009909Y015233D03*
X009909Y015229D03*
X009909Y015226D03*
X009909Y015223D03*
X009906Y015216D03*
X009906Y015213D03*
X009906Y015210D03*
X009906Y015206D03*
X009902Y015197D03*
X009902Y015193D03*
X009902Y015190D03*
X009899Y015180D03*
X009899Y015177D03*
X009899Y015174D03*
X009899Y015171D03*
X009896Y015164D03*
X009896Y015161D03*
X009896Y015157D03*
X009896Y015154D03*
X009893Y015144D03*
X009893Y015141D03*
X009893Y015138D03*
X009893Y015135D03*
X009889Y015128D03*
X009889Y015125D03*
X009889Y015122D03*
X009889Y015118D03*
X009886Y015112D03*
X009886Y015108D03*
X009886Y015105D03*
X009886Y015102D03*
X009883Y015092D03*
X009883Y015089D03*
X009883Y015086D03*
X009883Y015082D03*
X009880Y015076D03*
X009880Y015073D03*
X009880Y015069D03*
X009880Y015066D03*
X009876Y015059D03*
X009876Y015056D03*
X009876Y015053D03*
X009876Y015050D03*
X009873Y015040D03*
X009873Y015037D03*
X009873Y015033D03*
X009873Y015030D03*
X009870Y015023D03*
X009870Y015020D03*
X009870Y015017D03*
X009870Y015014D03*
X009866Y015004D03*
X009866Y015001D03*
X009866Y014997D03*
X009866Y014994D03*
X009863Y014988D03*
X009863Y014984D03*
X009863Y014981D03*
X009863Y014978D03*
X009860Y014971D03*
X009860Y014968D03*
X009860Y014965D03*
X009860Y014961D03*
X009857Y014952D03*
X009857Y014948D03*
X009857Y014945D03*
X009857Y014942D03*
X009853Y014935D03*
X009853Y014932D03*
X009853Y014929D03*
X009853Y014925D03*
X009850Y014919D03*
X009850Y014916D03*
X009850Y014912D03*
X009850Y014909D03*
X009847Y014899D03*
X009847Y014896D03*
X009847Y014893D03*
X009847Y014890D03*
X009844Y014883D03*
X009844Y014880D03*
X009844Y014876D03*
X009844Y014873D03*
X009840Y014863D03*
X009840Y014860D03*
X009840Y014857D03*
X009837Y014847D03*
X009837Y014844D03*
X009837Y014840D03*
X009837Y014837D03*
X009834Y014831D03*
X009834Y014827D03*
X009834Y014824D03*
X009834Y014821D03*
X009831Y014811D03*
X009831Y014808D03*
X009831Y014805D03*
X009831Y014801D03*
X009827Y014795D03*
X009827Y014791D03*
X009827Y014788D03*
X009827Y014785D03*
X009824Y014778D03*
X009824Y014775D03*
X009824Y014772D03*
X008902Y014161D03*
X008909Y014151D03*
X008916Y014141D03*
X008922Y014131D03*
X008922Y014128D03*
X008919Y014122D03*
X008916Y014115D03*
X008912Y014108D03*
X008912Y014105D03*
X008909Y014099D03*
X008906Y014092D03*
X008902Y014086D03*
X008902Y014082D03*
X008899Y014076D03*
X008896Y014069D03*
X008893Y014063D03*
X008893Y014059D03*
X008889Y014053D03*
X008886Y014046D03*
X008883Y014040D03*
X008880Y014033D03*
X008880Y014030D03*
X008876Y014023D03*
X008873Y014017D03*
X008870Y014010D03*
X008870Y014007D03*
X008866Y014001D03*
X008863Y013994D03*
X008860Y013988D03*
X008860Y013984D03*
X008857Y013978D03*
X008853Y013971D03*
X008850Y013965D03*
X008850Y013961D03*
X008847Y013955D03*
X008844Y013948D03*
X008840Y013942D03*
X008840Y013939D03*
X008837Y013932D03*
X008834Y013925D03*
X008831Y013919D03*
X008831Y013916D03*
X008827Y013909D03*
X008824Y013903D03*
X008821Y013896D03*
X008821Y013893D03*
X008817Y013886D03*
X008814Y013880D03*
X008811Y013873D03*
X008808Y013863D03*
X008804Y013857D03*
X008798Y013844D03*
X008798Y013840D03*
X008795Y013834D03*
X008791Y013827D03*
X008788Y013821D03*
X008788Y013818D03*
X008785Y013811D03*
X008782Y013805D03*
X008778Y013798D03*
X008778Y013795D03*
X008775Y013788D03*
X008772Y013782D03*
X008768Y013775D03*
X008768Y013772D03*
X008765Y013765D03*
X008762Y013759D03*
X008759Y013752D03*
X008759Y013749D03*
X008755Y013742D03*
X008752Y013736D03*
X008749Y013729D03*
X008749Y013726D03*
X008746Y013720D03*
X008742Y013713D03*
X008739Y013706D03*
X008203Y013589D03*
X008203Y013586D03*
X008203Y013582D03*
X008203Y013579D03*
X008203Y013576D03*
X008203Y013573D03*
X008203Y013569D03*
X008203Y013566D03*
X008203Y013563D03*
X008203Y013559D03*
X008203Y013556D03*
X008203Y013553D03*
X008203Y013550D03*
X008203Y013546D03*
X008203Y013543D03*
X008203Y013540D03*
X008203Y013537D03*
X008203Y013533D03*
X008203Y013530D03*
X008203Y013527D03*
X008203Y013523D03*
X008203Y013520D03*
X008203Y013517D03*
X008203Y013514D03*
X008203Y013510D03*
X008203Y013507D03*
X008203Y013504D03*
X008203Y013501D03*
X008203Y013497D03*
X008203Y013494D03*
X008203Y013491D03*
X008203Y013488D03*
X008203Y013484D03*
X008203Y013481D03*
X008203Y013478D03*
X008203Y013474D03*
X008203Y013471D03*
X008203Y013468D03*
X008203Y013465D03*
X008203Y013461D03*
X008203Y013458D03*
X008203Y013455D03*
X008203Y013452D03*
X008203Y013448D03*
X008203Y013445D03*
X008203Y013442D03*
X008203Y013439D03*
X008203Y013435D03*
X008203Y013432D03*
X008203Y013429D03*
X008203Y013425D03*
X008203Y013422D03*
X008203Y013419D03*
X008203Y013416D03*
X008203Y013412D03*
X008203Y013409D03*
X008203Y013406D03*
X008203Y013403D03*
X008203Y013399D03*
X008203Y013396D03*
X008203Y013393D03*
X008203Y013390D03*
X008203Y013386D03*
X008203Y013383D03*
X008203Y013380D03*
X008203Y013376D03*
X008203Y013373D03*
X008203Y013370D03*
X008203Y013367D03*
X008203Y013363D03*
X008203Y013360D03*
X008203Y013357D03*
X008203Y013354D03*
X008203Y013350D03*
X008203Y013347D03*
X008203Y013340D03*
X008203Y013337D03*
X008203Y013334D03*
X008203Y013331D03*
X008203Y013327D03*
X008203Y013324D03*
X008203Y013321D03*
X008203Y013318D03*
X008203Y013314D03*
X008203Y013311D03*
X008203Y013308D03*
X008203Y013305D03*
X008203Y013301D03*
X008203Y013298D03*
X008203Y013295D03*
X008203Y013291D03*
X008729Y013030D03*
X008733Y013023D03*
X008733Y013020D03*
X008736Y013014D03*
X008739Y013007D03*
X008739Y013004D03*
X008742Y012997D03*
X008746Y012991D03*
X008746Y012988D03*
X008749Y012981D03*
X008749Y012978D03*
X008752Y012971D03*
X008755Y012965D03*
X008755Y012961D03*
X008759Y012955D03*
X008762Y012948D03*
X008762Y012945D03*
X008765Y012939D03*
X008768Y012932D03*
X008768Y012929D03*
X008772Y012922D03*
X008775Y012916D03*
X008775Y012912D03*
X008778Y012906D03*
X008782Y012899D03*
X008782Y012896D03*
X008785Y012890D03*
X008788Y012883D03*
X008788Y012880D03*
X008791Y012873D03*
X008795Y012867D03*
X008795Y012863D03*
X008798Y012857D03*
X008801Y012850D03*
X008801Y012847D03*
X008804Y012840D03*
X008808Y012834D03*
X008808Y012831D03*
X008811Y012824D03*
X008814Y012818D03*
X008814Y012814D03*
X008817Y012808D03*
X008821Y012801D03*
X008821Y012798D03*
X008824Y012791D03*
X008827Y012785D03*
X008827Y012782D03*
X008831Y012775D03*
X008834Y012769D03*
X008834Y012765D03*
X008837Y012759D03*
X008840Y012752D03*
X008840Y012749D03*
X008844Y012742D03*
X008847Y012736D03*
X008847Y012733D03*
X008850Y012726D03*
X008853Y012720D03*
X008853Y012716D03*
X008857Y012710D03*
X008857Y012706D03*
X008860Y012703D03*
X008860Y012700D03*
X008863Y012693D03*
X008863Y012690D03*
X008866Y012684D03*
X008870Y012677D03*
X008870Y012674D03*
X008873Y012667D03*
X008876Y012661D03*
X008876Y012657D03*
X008880Y012651D03*
X008883Y012644D03*
X008883Y012641D03*
X008886Y012635D03*
X008889Y012628D03*
X008889Y012625D03*
X008893Y012618D03*
X008896Y012612D03*
X008896Y012608D03*
X008899Y012602D03*
X008902Y012595D03*
X008902Y012592D03*
X008906Y012586D03*
X008906Y012576D03*
X008899Y012566D03*
X008893Y012556D03*
X008886Y012546D03*
X008880Y012537D03*
X008873Y012527D03*
X008866Y012517D03*
X008857Y012504D03*
X008850Y012494D03*
X008844Y012484D03*
X008837Y012474D03*
X008831Y012465D03*
X008824Y012455D03*
X008808Y012432D03*
X008801Y012422D03*
X008795Y012412D03*
X008788Y012403D03*
X008782Y012393D03*
X008775Y012383D03*
X008759Y012360D03*
X008752Y012350D03*
X008746Y012340D03*
X008739Y012331D03*
X008733Y012321D03*
X008726Y012311D03*
X008716Y012298D03*
X008710Y012288D03*
X008703Y012278D03*
X008697Y012269D03*
X008690Y012259D03*
X008684Y012249D03*
X008677Y012239D03*
X008667Y012226D03*
X008661Y012216D03*
X008654Y012206D03*
X008648Y012197D03*
X008641Y012187D03*
X008634Y012177D03*
X008618Y012154D03*
X008615Y012148D03*
X008893Y014174D03*
X008886Y014184D03*
X008880Y014193D03*
X008873Y014203D03*
X008866Y014213D03*
X008860Y014223D03*
X008850Y014236D03*
X008844Y014246D03*
X008837Y014255D03*
X008831Y014265D03*
X008824Y014275D03*
X008817Y014285D03*
X008808Y014298D03*
X008801Y014308D03*
X008795Y014318D03*
X008788Y014327D03*
X008782Y014337D03*
X008775Y014347D03*
X008759Y014370D03*
X008752Y014380D03*
X008746Y014390D03*
X008739Y014399D03*
X008733Y014409D03*
X008723Y014422D03*
X008716Y014432D03*
X008710Y014442D03*
X008703Y014452D03*
X008697Y014461D03*
X008690Y014471D03*
X008680Y014484D03*
X008674Y014494D03*
X008667Y014504D03*
X008661Y014514D03*
X008654Y014523D03*
X008648Y014533D03*
X008638Y014546D03*
X008631Y014556D03*
X008625Y014566D03*
X008618Y014576D03*
D26*
X011581Y013693D03*
X010773Y012010D03*
D27*
X010585Y012448D03*
X010585Y012452D03*
X010582Y012458D03*
X009572Y012086D03*
X009572Y012082D03*
X009569Y012076D03*
X011595Y012295D03*
X012105Y013141D03*
X012105Y013144D03*
X012105Y013148D03*
X012105Y013151D03*
X012105Y013154D03*
X012105Y013157D03*
X012105Y013161D03*
X012105Y013164D03*
X012105Y013167D03*
X012105Y013171D03*
X012105Y013174D03*
X012105Y013177D03*
X012105Y013180D03*
X012105Y013184D03*
X012105Y013187D03*
X012105Y013190D03*
X012105Y013193D03*
X012105Y013197D03*
X012105Y013200D03*
X012105Y013203D03*
X012105Y013206D03*
X012105Y013210D03*
X012105Y013213D03*
X012105Y013216D03*
X012105Y013220D03*
X012105Y013223D03*
X012105Y013226D03*
X012105Y013229D03*
X012105Y013233D03*
X012105Y013236D03*
X012105Y013239D03*
X012105Y013242D03*
X012105Y013246D03*
X012105Y013249D03*
X012105Y013252D03*
X012105Y013255D03*
X012105Y013259D03*
X012105Y013262D03*
X012105Y013265D03*
X012105Y013269D03*
X012105Y013272D03*
X012105Y013275D03*
X012105Y013278D03*
X012105Y013282D03*
X012105Y013285D03*
X012105Y013288D03*
X012105Y013291D03*
X012105Y013295D03*
X012105Y013298D03*
X012105Y013301D03*
X012105Y013305D03*
X012105Y013308D03*
X012105Y013311D03*
X012105Y013314D03*
X012105Y013318D03*
X012105Y013321D03*
X012105Y013324D03*
X012105Y013327D03*
X012105Y013331D03*
X012105Y013334D03*
X012105Y013337D03*
X012105Y013340D03*
X012105Y013347D03*
X012105Y013350D03*
X012105Y013354D03*
X012105Y013357D03*
X012105Y013360D03*
X012105Y013363D03*
X012105Y013367D03*
X012105Y013370D03*
X012105Y013373D03*
X012105Y013376D03*
X012105Y013380D03*
X012105Y013383D03*
X012105Y013386D03*
X012105Y013390D03*
X012105Y013393D03*
X012105Y013396D03*
X012105Y013399D03*
X012105Y013403D03*
X012105Y013406D03*
X012105Y013409D03*
X012105Y013412D03*
X012105Y013416D03*
X012105Y013419D03*
X012105Y013422D03*
X012105Y013425D03*
X012105Y013429D03*
X012105Y013432D03*
X012105Y013435D03*
X012105Y013439D03*
X012105Y013442D03*
X012105Y013445D03*
X012105Y013448D03*
X012105Y013452D03*
X012105Y013455D03*
X012105Y013458D03*
X012105Y013461D03*
X012105Y013465D03*
X012105Y013468D03*
X012105Y013471D03*
X012105Y013474D03*
X012105Y013478D03*
X012105Y013481D03*
X012105Y013484D03*
X012105Y013488D03*
X012105Y013491D03*
X012105Y013494D03*
X012105Y013497D03*
X012105Y013501D03*
X012105Y013504D03*
X012105Y013507D03*
X012105Y013510D03*
X012105Y013514D03*
X012105Y013517D03*
X012105Y013520D03*
X012105Y013523D03*
X012105Y013527D03*
X012105Y013530D03*
X012105Y013533D03*
X012105Y013537D03*
X012105Y013540D03*
X012105Y013543D03*
X012105Y013546D03*
X012105Y013550D03*
X012105Y013553D03*
X012105Y013556D03*
X012105Y013559D03*
X012105Y013563D03*
X012105Y013566D03*
X012105Y013569D03*
X012105Y013573D03*
X012105Y013576D03*
X012105Y013579D03*
X012105Y013582D03*
X012105Y013586D03*
X012105Y013589D03*
X011595Y014435D03*
D28*
X008715Y013040D03*
X008215Y013135D03*
X009358Y012108D03*
X010950Y012108D03*
D29*
X011572Y012327D03*
X011504Y012837D03*
X011543Y014360D03*
X010468Y014867D03*
X009840Y014867D03*
X008765Y014360D03*
X008801Y013850D03*
X008203Y013344D03*
X009674Y012327D03*
D30*
X008737Y012327D03*
X008806Y012837D03*
X010636Y012327D03*
X011505Y013850D03*
X011411Y014867D03*
X008898Y014867D03*
D31*
X010154Y012808D03*
D32*
X010154Y012811D03*
D33*
X011594Y013040D03*
X012094Y013595D03*
D34*
X011605Y013043D03*
X008543Y013073D03*
X008543Y013657D03*
X008559Y013661D03*
D35*
X008576Y013664D03*
X008612Y013671D03*
X008628Y013674D03*
X008644Y013677D03*
X008664Y013680D03*
X008680Y013684D03*
X008697Y013687D03*
X008716Y013690D03*
X008523Y013654D03*
X008507Y013651D03*
X008491Y013648D03*
X008471Y013644D03*
X008455Y013641D03*
X008438Y013638D03*
X008419Y013635D03*
X008402Y013631D03*
X008386Y013628D03*
X008350Y013622D03*
X008334Y013618D03*
X008298Y013612D03*
X008282Y013608D03*
X008265Y013605D03*
X008246Y013602D03*
X008229Y013599D03*
X008246Y013128D03*
X008262Y013125D03*
X008282Y013122D03*
X008298Y013118D03*
X008314Y013115D03*
X008334Y013112D03*
X008350Y013108D03*
X008366Y013105D03*
X008386Y013102D03*
X008402Y013099D03*
X008438Y013092D03*
X008455Y013089D03*
X008474Y013086D03*
X008491Y013082D03*
X008507Y013079D03*
X008527Y013076D03*
X008579Y013066D03*
X008595Y013063D03*
X008615Y013059D03*
X008631Y013056D03*
X008648Y013053D03*
X008667Y013050D03*
X008684Y013046D03*
X008700Y013043D03*
X011641Y013050D03*
X011657Y013053D03*
X011677Y013056D03*
X011693Y013059D03*
X011729Y013066D03*
X011746Y013069D03*
X011782Y013076D03*
X011798Y013079D03*
X011817Y013082D03*
X011834Y013086D03*
X011850Y013089D03*
X011870Y013092D03*
X011886Y013095D03*
X011922Y013102D03*
X011938Y013105D03*
X011974Y013112D03*
X011991Y013115D03*
X012010Y013118D03*
X012027Y013122D03*
X012043Y013125D03*
X012063Y013128D03*
X012079Y013131D03*
X012082Y013599D03*
X012066Y013602D03*
X012046Y013605D03*
X012030Y013608D03*
X011994Y013615D03*
X011978Y013618D03*
X011942Y013625D03*
X011906Y013631D03*
X011889Y013635D03*
X011853Y013641D03*
X011837Y013644D03*
X011817Y013648D03*
X011801Y013651D03*
X011765Y013657D03*
X011749Y013661D03*
X011729Y013664D03*
X011713Y013667D03*
X011677Y013674D03*
X011661Y013677D03*
X011625Y013684D03*
D36*
X011643Y013680D03*
X011695Y013671D03*
X011783Y013654D03*
X011871Y013638D03*
X011924Y013628D03*
X011960Y013622D03*
X012012Y013612D03*
X011956Y013108D03*
X011904Y013099D03*
X011764Y013073D03*
X011711Y013063D03*
X011623Y013046D03*
X008594Y013667D03*
X008368Y013625D03*
X008316Y013615D03*
X008228Y013131D03*
X008420Y013095D03*
D37*
X008561Y013069D03*
X011607Y013687D03*
D38*
X012092Y013135D03*
D39*
X012105Y013344D03*
D40*
X010909Y014595D03*
X008216Y013595D03*
D41*
X011590Y013690D03*
D42*
X009399Y014595D03*
X008726Y013693D03*
D43*
X009563Y014661D03*
X009572Y014664D03*
X009579Y014667D03*
X010585Y014726D03*
D44*
X010577Y014729D03*
D45*
X011314Y014867D03*
X008994Y014867D03*
D46*
X008937Y014909D03*
X011371Y014909D03*
D47*
X010154Y015314D03*
X010154Y015318D03*
D48*
X011449Y019124D03*
X012237Y019183D03*
X012473Y019380D03*
X012355Y019518D03*
X012040Y019656D03*
X011882Y019596D03*
X011567Y019537D03*
X011469Y019518D03*
X011252Y019813D03*
X011626Y020148D03*
X011725Y020226D03*
X011804Y020207D03*
X011843Y020207D03*
X011174Y020561D03*
X011095Y020541D03*
X011056Y020581D03*
X010996Y020502D03*
X010859Y020541D03*
X010839Y020463D03*
X010741Y020502D03*
X010642Y020482D03*
X010583Y020404D03*
X010741Y020974D03*
X010662Y021033D03*
X010445Y021270D03*
X010367Y021368D03*
X011056Y021152D03*
X011685Y021132D03*
X011607Y020797D03*
X012394Y021171D03*
X012453Y021014D03*
X012768Y021585D03*
X012748Y021703D03*
X013536Y021152D03*
X013575Y021152D03*
X013733Y021152D03*
X013792Y021152D03*
X013831Y021230D03*
X014185Y021152D03*
X014205Y021289D03*
X014264Y021309D03*
X014264Y021033D03*
X014185Y020699D03*
X014441Y020187D03*
X014540Y019793D03*
X014796Y019616D03*
X014894Y019774D03*
X015012Y019892D03*
X015130Y019774D03*
X015209Y019793D03*
X015189Y019951D03*
X015504Y020108D03*
X015563Y019990D03*
X015622Y019911D03*
X015721Y020108D03*
X016075Y019990D03*
X016292Y020049D03*
X016154Y020305D03*
X016134Y020384D03*
X015996Y020423D03*
X016075Y020581D03*
X016370Y021073D03*
X016449Y021171D03*
X016567Y021132D03*
X016626Y021132D03*
X016725Y021132D03*
X016902Y021132D03*
X017040Y021073D03*
X017138Y021093D03*
X017099Y020837D03*
X017197Y020797D03*
X017138Y020561D03*
X017276Y020443D03*
X017493Y020502D03*
X017630Y020541D03*
X017867Y020463D03*
X017867Y020266D03*
X017768Y020226D03*
X017807Y020089D03*
X017945Y020069D03*
X017945Y020010D03*
X017926Y019754D03*
X017217Y019400D03*
X017020Y019163D03*
X016961Y019163D03*
X016764Y019183D03*
X016548Y019242D03*
X016469Y019262D03*
X016823Y019419D03*
X016922Y019518D03*
X017650Y019163D03*
X018752Y019341D03*
X019244Y019419D03*
X019264Y019518D03*
X019304Y019321D03*
X019323Y019163D03*
X019737Y019439D03*
X019678Y019518D03*
X019619Y019596D03*
X019540Y019754D03*
X019481Y019970D03*
X019166Y019990D03*
X019166Y020069D03*
X019107Y020384D03*
X018811Y020246D03*
X018693Y020364D03*
X018437Y020364D03*
X018418Y020207D03*
X018457Y019970D03*
X017591Y020148D03*
X017827Y020699D03*
X017807Y020817D03*
X017768Y021014D03*
X017630Y020955D03*
X018300Y020837D03*
X018536Y020837D03*
X018792Y020935D03*
X018969Y020994D03*
X019008Y020856D03*
X019028Y020778D03*
X019619Y020482D03*
X019953Y020679D03*
X020268Y020699D03*
X020485Y020837D03*
X020524Y020659D03*
X020642Y020384D03*
X021174Y020344D03*
X021292Y020443D03*
X021666Y020581D03*
X021804Y020581D03*
X021843Y020384D03*
X021705Y020384D03*
X022138Y020699D03*
X022178Y020699D03*
X022237Y020699D03*
X022276Y020699D03*
X022296Y020797D03*
X022453Y020797D03*
X022453Y020837D03*
X022532Y020817D03*
X022552Y020856D03*
X022552Y021093D03*
X022552Y021112D03*
X022512Y021112D03*
X022630Y021348D03*
X022630Y021368D03*
X022650Y021388D03*
X022670Y021427D03*
X022532Y021407D03*
X022335Y021309D03*
X022079Y021230D03*
X022000Y021545D03*
X021843Y021545D03*
X021705Y021467D03*
X021685Y021427D03*
X021646Y021171D03*
X021646Y021132D03*
X021646Y021093D03*
X021626Y021033D03*
X021449Y020896D03*
X021311Y021093D03*
X021252Y021073D03*
X021331Y021230D03*
X021292Y021309D03*
X021154Y020915D03*
X021075Y020876D03*
X020485Y021211D03*
X020268Y021211D03*
X019914Y021093D03*
X019737Y021014D03*
X019481Y021388D03*
X019461Y022116D03*
X019559Y022313D03*
X019737Y022352D03*
X019737Y022451D03*
X019737Y022510D03*
X019855Y022510D03*
X020032Y022549D03*
X020091Y022648D03*
X020130Y022648D03*
X020150Y022589D03*
X020012Y022215D03*
X019776Y022175D03*
X019284Y022648D03*
X019244Y022648D03*
X019244Y022628D03*
X019382Y023140D03*
X019402Y023179D03*
X019422Y023199D03*
X019678Y023258D03*
X019835Y023770D03*
X019855Y023789D03*
X019874Y023809D03*
X020032Y023868D03*
X020209Y023907D03*
X020189Y024026D03*
X020307Y024104D03*
X020504Y023967D03*
X020504Y023927D03*
X020721Y023967D03*
X020741Y024163D03*
X020819Y024262D03*
X020937Y024242D03*
X021056Y024222D03*
X021174Y024281D03*
X021430Y024262D03*
X021449Y024203D03*
X021489Y024203D03*
X021607Y024222D03*
X021764Y024163D03*
X022020Y024045D03*
X021449Y024026D03*
X021016Y024026D03*
X020937Y024065D03*
X020977Y023356D03*
X021311Y023356D03*
X021548Y023317D03*
X021725Y023356D03*
X021843Y023415D03*
X021863Y023258D03*
X021744Y023159D03*
X021705Y023179D03*
X021843Y023061D03*
X021863Y023022D03*
X021922Y023081D03*
X021961Y023081D03*
X021961Y022923D03*
X021981Y022904D03*
X022059Y023297D03*
X022178Y023317D03*
X022217Y023258D03*
X022276Y023435D03*
X022433Y023514D03*
X022512Y023533D03*
X022552Y023533D03*
X022591Y023474D03*
X022630Y023494D03*
X022689Y023415D03*
X022512Y023396D03*
X022689Y023159D03*
X022689Y023120D03*
X022748Y023120D03*
X022788Y023140D03*
X022847Y023140D03*
X022886Y023041D03*
X022926Y022943D03*
X022906Y022923D03*
X022965Y022726D03*
X022985Y022687D03*
X022945Y022687D03*
X023044Y022431D03*
X023063Y022411D03*
X022847Y022352D03*
X022709Y022333D03*
X022532Y022254D03*
X022335Y022215D03*
X022256Y022195D03*
X022119Y021978D03*
X022099Y021959D03*
X022827Y021624D03*
X023516Y021978D03*
X023556Y021900D03*
X023615Y021821D03*
X023752Y021801D03*
X023851Y021781D03*
X023969Y021742D03*
X024048Y021703D03*
X024284Y021526D03*
X024481Y021506D03*
X024737Y021506D03*
X024146Y022234D03*
X024107Y022431D03*
X024284Y022569D03*
X024146Y022805D03*
X024382Y023061D03*
X024500Y022805D03*
X024107Y023179D03*
X023634Y022963D03*
X023615Y022628D03*
X023496Y022589D03*
X023536Y022293D03*
X023437Y022175D03*
X022571Y022628D03*
X023378Y023238D03*
X023536Y023593D03*
X023752Y023967D03*
X023811Y024085D03*
X023969Y024104D03*
X024048Y024026D03*
X024087Y024085D03*
X024126Y024026D03*
X023969Y023927D03*
X024166Y023533D03*
X024599Y023750D03*
X024559Y023829D03*
X024697Y023927D03*
X025012Y023750D03*
X024815Y023533D03*
X025465Y023809D03*
X025603Y023100D03*
X025662Y022785D03*
X025701Y022589D03*
X025209Y022608D03*
X025898Y021506D03*
X024481Y020443D03*
X023752Y019892D03*
X023496Y019892D03*
X023378Y019911D03*
X023516Y019498D03*
X023556Y019439D03*
X023595Y019439D03*
X023241Y019419D03*
X022945Y019321D03*
X022768Y019281D03*
X022748Y019222D03*
X022689Y019262D03*
X023044Y019124D03*
X023221Y019085D03*
X023260Y019085D03*
X023772Y019085D03*
X021744Y019636D03*
X021646Y019754D03*
X021508Y020030D03*
X021390Y019341D03*
X021430Y019262D03*
X021508Y019301D03*
X021548Y019321D03*
X020701Y019616D03*
X020268Y019754D03*
X020091Y019380D03*
X019894Y019321D03*
X020268Y019144D03*
X020426Y019124D03*
X018300Y021152D03*
X017729Y022136D03*
X017788Y022254D03*
X018477Y022411D03*
X018516Y022411D03*
X017079Y022549D03*
X017040Y022549D03*
X017000Y022549D03*
X016961Y022549D03*
X016626Y021644D03*
X016370Y021742D03*
X016213Y021703D03*
X016036Y021467D03*
X015426Y021152D03*
X014953Y021211D03*
X014737Y021073D03*
X014717Y021329D03*
X015485Y020581D03*
X015406Y020423D03*
X015800Y019656D03*
X015957Y019518D03*
X016075Y019439D03*
X015327Y019163D03*
X014244Y019557D03*
X014107Y019518D03*
X014205Y019715D03*
X013851Y019419D03*
X013713Y019616D03*
X013162Y019478D03*
X013181Y019301D03*
X012748Y019616D03*
X012670Y019695D03*
X012453Y019892D03*
X012414Y019951D03*
X012355Y019970D03*
X013359Y020463D03*
X013083Y020738D03*
X011646Y021762D03*
X010544Y019774D03*
X010622Y019636D03*
X010780Y019419D03*
X010977Y019281D03*
X015741Y022825D03*
X015780Y022825D03*
X021134Y021978D03*
X021174Y021978D03*
X022355Y023691D03*
X023496Y021230D03*
X023536Y021230D03*
D49*
X023496Y021152D03*
X023496Y020541D03*
X023516Y019085D03*
X021154Y022057D03*
X019461Y022372D03*
X019461Y022470D03*
X018595Y022451D03*
X017059Y022470D03*
X013437Y022195D03*
X021193Y024203D03*
X022867Y022313D03*
D50*
X022768Y022234D03*
X022394Y021545D03*
X022000Y020817D03*
X022315Y020463D03*
X023496Y020738D03*
X023496Y020955D03*
X023496Y020974D03*
X024973Y020482D03*
X023516Y019104D03*
X021154Y022254D03*
X021154Y022274D03*
X021154Y022451D03*
X021154Y022470D03*
X019599Y022589D03*
D51*
X019727Y022628D03*
X019904Y023022D03*
X020101Y023199D03*
X020199Y023258D03*
X021400Y024006D03*
X022187Y023140D03*
X022502Y022766D03*
X022581Y022549D03*
X022601Y022470D03*
X022601Y022451D03*
X022699Y022156D03*
X022187Y021427D03*
X022069Y020856D03*
X024806Y020266D03*
X024806Y020246D03*
X024825Y020285D03*
X024924Y021211D03*
X023526Y019124D03*
D52*
X023506Y019144D03*
X024628Y020030D03*
X022286Y020246D03*
X022286Y020266D03*
X022266Y020285D03*
X022522Y021781D03*
X022680Y021939D03*
X022680Y021959D03*
X022325Y023100D03*
X019884Y023081D03*
D53*
X022640Y021880D03*
X022640Y021860D03*
X022483Y019970D03*
X022896Y019498D03*
X023506Y019163D03*
X023900Y019341D03*
D54*
X023733Y019281D03*
X023516Y019183D03*
X022571Y019951D03*
D55*
X022611Y019931D03*
X023516Y019203D03*
D56*
X023585Y019222D03*
X023644Y019242D03*
X020140Y023317D03*
D57*
X024451Y019911D03*
X023821Y019321D03*
X023723Y019262D03*
D58*
X023595Y019478D03*
X023044Y019262D03*
X021744Y020404D03*
X022532Y021073D03*
X021685Y021191D03*
X021744Y021506D03*
X022158Y022018D03*
X020150Y022569D03*
X022453Y023711D03*
X021843Y024124D03*
X021804Y024144D03*
X021705Y024183D03*
X021548Y024203D03*
X024520Y020502D03*
D59*
X022680Y019281D03*
X021754Y020423D03*
X022325Y021289D03*
X022207Y022234D03*
X022935Y022667D03*
X020494Y024163D03*
X020455Y024144D03*
X020101Y022451D03*
X020101Y022411D03*
D60*
X020101Y023297D03*
X023762Y019301D03*
D61*
X022719Y019301D03*
X022227Y021230D03*
X021144Y021998D03*
X022266Y022274D03*
X022876Y022628D03*
X022561Y023455D03*
X020967Y024262D03*
X017955Y022254D03*
X014924Y022707D03*
X014924Y022726D03*
X014924Y022746D03*
X014313Y022687D03*
X014313Y022667D03*
X013998Y022313D03*
X013998Y022293D03*
D62*
X017798Y022175D03*
X021144Y022018D03*
X021813Y020719D03*
X022739Y019321D03*
X022916Y022333D03*
X021341Y024065D03*
X021282Y024045D03*
X021321Y024242D03*
D63*
X021331Y024222D03*
X020347Y023986D03*
X018575Y022746D03*
X018575Y022490D03*
X019461Y022451D03*
X019914Y022333D03*
X021154Y022648D03*
X022394Y022392D03*
X021902Y021309D03*
X021882Y020758D03*
X023496Y020561D03*
X022768Y019341D03*
X017040Y022490D03*
X015622Y022215D03*
X015622Y022175D03*
X014914Y022411D03*
X013418Y022234D03*
X013418Y022215D03*
X013418Y022766D03*
D64*
X022365Y020148D03*
X022384Y020128D03*
X023939Y019360D03*
X023979Y019380D03*
X023998Y019400D03*
X024038Y019419D03*
X022601Y021841D03*
D65*
X023506Y021112D03*
X023506Y020581D03*
X022778Y019360D03*
X021144Y022096D03*
X021144Y022628D03*
X022522Y023258D03*
X021951Y023927D03*
X020967Y024144D03*
X020869Y024124D03*
X020573Y024045D03*
X020396Y024006D03*
X019510Y022549D03*
X019491Y022392D03*
X017010Y022726D03*
X016302Y022785D03*
X016282Y022805D03*
X016302Y022825D03*
X014924Y022333D03*
X014924Y022313D03*
D66*
X019559Y022195D03*
X019638Y022648D03*
X022276Y020659D03*
X023496Y021053D03*
X025012Y020522D03*
X022788Y019380D03*
D67*
X022788Y019400D03*
X023496Y020679D03*
X023496Y020699D03*
X023496Y021014D03*
X022237Y021191D03*
X022020Y021368D03*
X021154Y022195D03*
X021154Y022530D03*
X025012Y020541D03*
X024993Y020502D03*
D68*
X024973Y020797D03*
X022807Y019419D03*
X022217Y020600D03*
X022040Y021112D03*
X019658Y022667D03*
X022473Y023081D03*
D69*
X022335Y023179D03*
X022650Y022136D03*
X022473Y021742D03*
X022453Y021722D03*
X022433Y021703D03*
X022178Y020482D03*
X024126Y019439D03*
X024697Y020108D03*
X020032Y023179D03*
X019835Y023002D03*
X019815Y022963D03*
X019796Y022923D03*
D70*
X019254Y022274D03*
X017876Y022844D03*
X015829Y022825D03*
X019924Y023848D03*
X020987Y024242D03*
X021302Y024104D03*
X022050Y024026D03*
X022542Y023474D03*
X022640Y023474D03*
X022837Y023120D03*
X022857Y023022D03*
X021695Y023199D03*
X022187Y022195D03*
X021794Y021545D03*
X021774Y021526D03*
X021735Y021486D03*
X021676Y021289D03*
X022030Y021230D03*
X022601Y021289D03*
X024510Y020482D03*
X023132Y019990D03*
X023506Y019439D03*
D71*
X022857Y019439D03*
X022168Y020502D03*
X022168Y020522D03*
X022148Y020561D03*
X022306Y021585D03*
X022404Y021683D03*
X022699Y021998D03*
X022404Y022963D03*
X019806Y022943D03*
X019786Y022904D03*
X019766Y022844D03*
D72*
X019914Y023041D03*
X022335Y023002D03*
X022355Y023022D03*
X022493Y022805D03*
X022493Y022785D03*
X022512Y022746D03*
X022335Y021624D03*
X022079Y020994D03*
X022079Y020955D03*
X022079Y020935D03*
X022079Y020896D03*
X024185Y019459D03*
X024776Y020207D03*
X024796Y020226D03*
D73*
X024687Y020089D03*
X024668Y020069D03*
X022876Y019459D03*
X022227Y020364D03*
X022502Y021762D03*
X022680Y021978D03*
X022640Y022116D03*
X022404Y022982D03*
X021144Y023947D03*
X021046Y023927D03*
X019983Y023159D03*
X019825Y022982D03*
D74*
X019776Y022884D03*
X019756Y022825D03*
X019756Y022805D03*
X019737Y022766D03*
X019737Y022746D03*
X022453Y022864D03*
X022453Y022884D03*
X022709Y022018D03*
X022394Y021663D03*
X022374Y021644D03*
X022158Y020541D03*
X024205Y019478D03*
X024717Y020128D03*
X024737Y020148D03*
D75*
X024589Y019990D03*
X022876Y019478D03*
X022345Y020167D03*
X022325Y020187D03*
X022581Y021821D03*
X022660Y021919D03*
D76*
X022650Y021900D03*
X022394Y020108D03*
X022414Y020089D03*
X024126Y019498D03*
X024520Y019951D03*
D77*
X023506Y019518D03*
X021183Y023770D03*
D78*
X021174Y023750D03*
X023516Y019537D03*
D79*
X023516Y019557D03*
D80*
X023506Y019577D03*
D81*
X023516Y019596D03*
D82*
X023506Y019616D03*
X020928Y023514D03*
D83*
X020918Y023494D03*
X020957Y023533D03*
X020977Y023553D03*
X023516Y019636D03*
D84*
X023506Y019656D03*
D85*
X023506Y019675D03*
D86*
X023516Y019695D03*
X021115Y023652D03*
D87*
X023506Y019715D03*
D88*
X023516Y019734D03*
X021115Y023612D03*
D89*
X023506Y019754D03*
D90*
X023506Y019774D03*
X021105Y023573D03*
D91*
X023506Y019793D03*
D92*
X023516Y019813D03*
D93*
X023506Y019833D03*
D94*
X023506Y019852D03*
D95*
X023506Y019872D03*
D96*
X024422Y019892D03*
X020071Y023278D03*
D97*
X022699Y019892D03*
D98*
X022640Y019911D03*
X020180Y023337D03*
D99*
X022433Y020069D03*
X022453Y020049D03*
X024500Y019931D03*
D100*
X024559Y019970D03*
D101*
X023162Y019970D03*
X022414Y021309D03*
X020111Y022431D03*
X020111Y022549D03*
X019284Y022293D03*
X019382Y023041D03*
X019461Y023219D03*
X017788Y022844D03*
X021430Y023337D03*
X021685Y023219D03*
X022433Y023691D03*
X022670Y023396D03*
X022768Y023159D03*
X021272Y024085D03*
D102*
X022463Y020030D03*
X022483Y019990D03*
D103*
X022315Y020207D03*
X022315Y020226D03*
X022552Y021801D03*
X022650Y022037D03*
X019914Y023120D03*
X019894Y023100D03*
X024599Y020010D03*
D104*
X022493Y020010D03*
D105*
X022256Y020305D03*
X022256Y020325D03*
X022237Y020344D03*
X022650Y022057D03*
X022650Y022077D03*
X022650Y022096D03*
X024638Y020049D03*
X019953Y023140D03*
X019874Y023061D03*
D106*
X019766Y022864D03*
X019746Y022785D03*
X019727Y022726D03*
X019727Y022707D03*
X019727Y022687D03*
X021223Y023967D03*
X021341Y023986D03*
X022345Y023199D03*
X022483Y022844D03*
X022483Y022825D03*
X022089Y021014D03*
X022089Y020974D03*
X022089Y020915D03*
X022089Y020876D03*
X024746Y020167D03*
X024766Y020187D03*
D107*
X024835Y020305D03*
X024855Y020344D03*
X024874Y020364D03*
X024933Y021132D03*
X024933Y021152D03*
X024933Y021171D03*
X024933Y021191D03*
X024914Y021230D03*
X022591Y022490D03*
X022571Y022530D03*
X022571Y022569D03*
X022473Y022904D03*
X022374Y023219D03*
X022197Y023120D03*
X020189Y023238D03*
X019678Y022608D03*
X022296Y021604D03*
X022237Y021447D03*
D108*
X022266Y021467D03*
X022286Y021486D03*
X022109Y021033D03*
X022581Y022431D03*
X022581Y022510D03*
X022502Y022726D03*
X022227Y023159D03*
X020160Y023219D03*
X024884Y020404D03*
X024845Y020325D03*
X024963Y020994D03*
X024963Y021014D03*
X024963Y021033D03*
X024963Y021053D03*
X024943Y021073D03*
X024943Y021093D03*
X024943Y021112D03*
D109*
X024973Y020974D03*
X024973Y020955D03*
X024973Y020935D03*
X024973Y020915D03*
X024973Y020896D03*
X024973Y020876D03*
X024973Y020856D03*
X024973Y020837D03*
X024953Y020640D03*
X024953Y020620D03*
X024933Y020561D03*
X024874Y020384D03*
X022296Y020384D03*
X022138Y021053D03*
X022709Y022195D03*
X022355Y022943D03*
X022394Y023041D03*
X022433Y023061D03*
X019737Y022254D03*
D110*
X019796Y022274D03*
X021154Y022352D03*
X021154Y022372D03*
X022059Y021388D03*
X022197Y021152D03*
X022394Y021565D03*
X022748Y022215D03*
X022335Y020404D03*
X024953Y020463D03*
D111*
X024904Y020423D03*
X024943Y020581D03*
X024943Y020600D03*
X024963Y020659D03*
X024963Y020679D03*
X024963Y020699D03*
X024963Y020719D03*
X024963Y020738D03*
X024963Y020758D03*
X024963Y020778D03*
X024963Y020817D03*
X022719Y022175D03*
X022325Y021506D03*
X022089Y021407D03*
X022148Y021132D03*
X019668Y022234D03*
D112*
X019609Y022215D03*
X021144Y022293D03*
X021144Y022313D03*
X021144Y022333D03*
X021144Y022392D03*
X021144Y022411D03*
X021144Y022431D03*
X022424Y023238D03*
X022207Y021171D03*
X022050Y021093D03*
X022325Y020443D03*
X022325Y020423D03*
X023506Y020758D03*
X023506Y020778D03*
X023506Y020797D03*
X023506Y020817D03*
X023506Y020837D03*
X023506Y020856D03*
X023506Y020876D03*
X023506Y020896D03*
X023506Y020915D03*
X023506Y020935D03*
D113*
X022325Y021526D03*
X022030Y020837D03*
X022207Y020620D03*
X022227Y020581D03*
X022542Y022411D03*
X022463Y022707D03*
X022424Y022923D03*
X024924Y020443D03*
D114*
X022512Y021250D03*
X022256Y021250D03*
X021725Y020659D03*
X021784Y020443D03*
X019343Y022116D03*
X019323Y022313D03*
X019933Y022451D03*
X019520Y023238D03*
X020032Y023888D03*
X020721Y024222D03*
X022197Y023455D03*
X022906Y022648D03*
X022237Y022254D03*
X018398Y022707D03*
X018378Y022687D03*
X018024Y022667D03*
X018004Y022687D03*
X018024Y022313D03*
X018004Y022293D03*
X017571Y022333D03*
X017591Y022687D03*
X017611Y022707D03*
X017197Y022549D03*
X017197Y022431D03*
X016941Y022411D03*
X016922Y022392D03*
X016902Y022372D03*
X016882Y022352D03*
X016863Y022333D03*
X016863Y022313D03*
X016843Y022293D03*
X016823Y022274D03*
X016823Y022254D03*
X016804Y022234D03*
X016784Y022195D03*
X016764Y022175D03*
X016823Y022707D03*
X014343Y022766D03*
X014343Y022785D03*
X013969Y022215D03*
X013969Y022195D03*
X013201Y022293D03*
X013201Y022687D03*
D115*
X014008Y022333D03*
X014304Y022648D03*
X017807Y022825D03*
X020032Y022510D03*
X021705Y023258D03*
X021804Y024104D03*
X022453Y020719D03*
X021804Y020463D03*
D116*
X022483Y020778D03*
X022483Y021230D03*
X021813Y021250D03*
X021892Y021565D03*
X023506Y020482D03*
X020081Y022530D03*
X021439Y023356D03*
X021695Y023238D03*
X022148Y023435D03*
X022384Y023396D03*
X022030Y023986D03*
X021302Y024262D03*
X020081Y023907D03*
X017994Y022707D03*
X017601Y022293D03*
X017620Y022274D03*
X016833Y022549D03*
X014924Y022766D03*
X014924Y022785D03*
X014333Y022746D03*
X014333Y022726D03*
X013979Y022254D03*
X013979Y022234D03*
X013231Y022274D03*
X013231Y022707D03*
D117*
X020002Y022490D03*
X020002Y022470D03*
X021144Y022707D03*
X022266Y022589D03*
X022502Y023415D03*
X021912Y021289D03*
X023506Y021191D03*
X023506Y020502D03*
D118*
X022522Y020797D03*
X022561Y021270D03*
X021695Y020640D03*
X023034Y022392D03*
X022857Y023002D03*
X022443Y023533D03*
X021754Y023967D03*
X021656Y024144D03*
X021695Y024163D03*
X021833Y023081D03*
X020376Y024124D03*
X019963Y023868D03*
X019294Y022096D03*
X024550Y020522D03*
D119*
X023506Y020522D03*
X023506Y021171D03*
X021144Y022037D03*
X021144Y022687D03*
X021735Y023278D03*
X019963Y022352D03*
X019431Y022510D03*
D120*
X019874Y022431D03*
X018752Y022392D03*
X018752Y022372D03*
X018752Y022352D03*
X018752Y022333D03*
X018752Y022313D03*
X018752Y022293D03*
X018752Y022274D03*
X018752Y022254D03*
X018752Y022234D03*
X018752Y022215D03*
X018752Y022195D03*
X018752Y022175D03*
X018752Y022156D03*
X018063Y022411D03*
X018063Y022431D03*
X018063Y022451D03*
X018063Y022470D03*
X018063Y022490D03*
X018063Y022510D03*
X018063Y022530D03*
X018063Y022549D03*
X018063Y022569D03*
X018359Y022628D03*
X018378Y022667D03*
X018378Y022589D03*
X018752Y022589D03*
X018752Y022608D03*
X018752Y022628D03*
X018752Y022648D03*
X018752Y022667D03*
X018752Y022687D03*
X018752Y022707D03*
X018752Y022569D03*
X018752Y022549D03*
X018752Y022530D03*
X017552Y022589D03*
X017552Y022608D03*
X017552Y022392D03*
X017217Y022392D03*
X017217Y022411D03*
X017217Y022372D03*
X017217Y022352D03*
X017217Y022333D03*
X017217Y022313D03*
X017217Y022293D03*
X017217Y022274D03*
X017217Y022254D03*
X017217Y022234D03*
X017217Y022215D03*
X017217Y022195D03*
X017217Y022175D03*
X017217Y022156D03*
X017217Y022569D03*
X017217Y022589D03*
X017217Y022608D03*
X017217Y022628D03*
X017217Y022648D03*
X017217Y022667D03*
X017217Y022687D03*
X017217Y022707D03*
X016804Y022608D03*
X016804Y022589D03*
X016292Y022589D03*
X016292Y022608D03*
X016292Y022628D03*
X016292Y022648D03*
X016292Y022667D03*
X016292Y022707D03*
X016292Y022569D03*
X016292Y022549D03*
X016292Y022530D03*
X016292Y022510D03*
X016292Y022490D03*
X016292Y022470D03*
X016292Y022451D03*
X016292Y022431D03*
X016292Y022392D03*
X016292Y022372D03*
X016292Y022352D03*
X016292Y022333D03*
X016292Y022313D03*
X016292Y022293D03*
X016292Y022274D03*
X016292Y022254D03*
X016292Y022234D03*
X016292Y022195D03*
X016292Y022175D03*
X016292Y022156D03*
X015780Y022274D03*
X015780Y022313D03*
X015780Y022333D03*
X015780Y022352D03*
X015780Y022392D03*
X015780Y022411D03*
X015780Y022431D03*
X015780Y022470D03*
X015780Y022490D03*
X015780Y022510D03*
X015780Y022549D03*
X015780Y022569D03*
X015780Y022589D03*
X015780Y022628D03*
X015780Y022648D03*
X015780Y022667D03*
X015780Y022707D03*
X015780Y022726D03*
X015780Y022746D03*
X015780Y022785D03*
X015780Y022805D03*
X015071Y022490D03*
X015071Y022470D03*
X015052Y022510D03*
X015052Y022530D03*
X015032Y022549D03*
X015032Y022569D03*
X015032Y022589D03*
X015012Y022608D03*
X015012Y022628D03*
X015012Y022648D03*
X014835Y022628D03*
X014835Y022608D03*
X014815Y022569D03*
X014796Y022530D03*
X014796Y022510D03*
X014776Y022470D03*
X014697Y022274D03*
X014678Y022215D03*
X014658Y022175D03*
X014658Y022156D03*
X014363Y022156D03*
X014363Y022175D03*
X014363Y022195D03*
X014363Y022215D03*
X014363Y022234D03*
X014363Y022254D03*
X014363Y022274D03*
X014363Y022293D03*
X014363Y022313D03*
X014363Y022333D03*
X014363Y022352D03*
X014363Y022372D03*
X014363Y022392D03*
X014363Y022411D03*
X014363Y022431D03*
X014363Y022451D03*
X014363Y022470D03*
X014363Y022490D03*
X014363Y022510D03*
X014363Y022530D03*
X014363Y022549D03*
X014363Y022569D03*
X014205Y022569D03*
X014107Y022411D03*
X013949Y022411D03*
X013949Y022431D03*
X013949Y022451D03*
X013949Y022470D03*
X013949Y022490D03*
X013949Y022510D03*
X013949Y022530D03*
X013949Y022549D03*
X013949Y022569D03*
X013949Y022589D03*
X013949Y022608D03*
X013949Y022628D03*
X013949Y022648D03*
X013949Y022667D03*
X013949Y022687D03*
X013949Y022707D03*
X013949Y022726D03*
X013949Y022746D03*
X013949Y022766D03*
X013949Y022785D03*
X013949Y022805D03*
X013949Y022825D03*
X013595Y022707D03*
X013595Y022687D03*
X013595Y022667D03*
X013595Y022648D03*
X013595Y022628D03*
X013595Y022608D03*
X013595Y022589D03*
X013595Y022569D03*
X013595Y022549D03*
X013595Y022530D03*
X013595Y022510D03*
X013595Y022490D03*
X013595Y022470D03*
X013595Y022451D03*
X013595Y022431D03*
X013595Y022411D03*
X013595Y022392D03*
X013595Y022372D03*
X013595Y022352D03*
X013595Y022333D03*
X013595Y022313D03*
X013595Y022293D03*
X013595Y022274D03*
X013949Y022156D03*
X013181Y022333D03*
X013162Y022372D03*
X013162Y022392D03*
X013162Y022411D03*
X013162Y022431D03*
X013162Y022549D03*
X013162Y022569D03*
X013162Y022589D03*
X013162Y022608D03*
X013181Y022648D03*
X014363Y022825D03*
X015150Y022254D03*
X015170Y022215D03*
X015189Y022156D03*
X021075Y024281D03*
X021567Y024124D03*
X022040Y024006D03*
X022178Y023474D03*
X022650Y023376D03*
X023004Y022372D03*
X021705Y021211D03*
X024579Y020541D03*
D121*
X023506Y020600D03*
X023506Y021093D03*
X021144Y022116D03*
X022050Y023356D03*
D122*
X021961Y023337D03*
X021154Y022589D03*
X021154Y022136D03*
X021981Y021348D03*
X023496Y021073D03*
X023496Y020620D03*
D123*
X023506Y020640D03*
X022266Y021211D03*
X021951Y020797D03*
X021144Y022156D03*
X021144Y022569D03*
X022404Y022667D03*
X019550Y022411D03*
D124*
X021144Y022490D03*
X021144Y022510D03*
X021144Y022234D03*
X021144Y022215D03*
X022443Y022687D03*
X022050Y021073D03*
X022246Y020640D03*
X023506Y020719D03*
X023506Y020994D03*
D125*
X023506Y021033D03*
X023506Y020659D03*
X021144Y022175D03*
X021144Y022549D03*
X019825Y022293D03*
X019569Y022569D03*
D126*
X019500Y022431D03*
X019874Y022313D03*
X021154Y022608D03*
X021863Y023317D03*
X022138Y023376D03*
X020800Y024104D03*
X020721Y024085D03*
X016292Y022746D03*
X021922Y020778D03*
X022315Y020679D03*
D127*
X022473Y020738D03*
X022473Y020758D03*
X021764Y020679D03*
X021744Y021230D03*
X021882Y021270D03*
X022985Y022352D03*
X022630Y023356D03*
X022493Y023553D03*
X022040Y023415D03*
X021449Y024085D03*
X019540Y023258D03*
X018418Y022530D03*
X017985Y022274D03*
X017650Y022254D03*
X016981Y022431D03*
X014323Y022707D03*
X013989Y022274D03*
X020052Y022392D03*
X023496Y021211D03*
D128*
X022443Y020699D03*
X020022Y022372D03*
X019372Y022333D03*
X018683Y022411D03*
X017798Y022156D03*
X014924Y022667D03*
X014924Y022687D03*
X014294Y022628D03*
X014294Y022608D03*
X014018Y022372D03*
X014018Y022352D03*
X022010Y023396D03*
X022542Y023435D03*
D129*
X022611Y023337D03*
X022256Y022608D03*
X020150Y023927D03*
X019402Y022136D03*
X021784Y020699D03*
X014284Y022589D03*
X014028Y022392D03*
D130*
X013447Y022175D03*
X013447Y022805D03*
X018605Y022805D03*
X021144Y022667D03*
X022325Y022628D03*
X022365Y022372D03*
X021853Y020738D03*
X021695Y024026D03*
X021754Y024045D03*
D131*
X022522Y023278D03*
X021144Y022077D03*
X021912Y021329D03*
X023506Y021132D03*
X019491Y022175D03*
X018565Y022510D03*
X018565Y022726D03*
X017798Y022746D03*
X017798Y022234D03*
X017030Y022510D03*
X017030Y022785D03*
X014924Y022392D03*
X014924Y022372D03*
X013408Y022726D03*
X013408Y022746D03*
D132*
X013191Y022667D03*
X013172Y022628D03*
X013152Y022530D03*
X013152Y022510D03*
X013152Y022490D03*
X013152Y022470D03*
X013152Y022451D03*
X013172Y022352D03*
X013191Y022313D03*
X013959Y022175D03*
X014117Y022431D03*
X014136Y022451D03*
X014136Y022470D03*
X014156Y022490D03*
X014176Y022510D03*
X014176Y022530D03*
X014195Y022549D03*
X014353Y022805D03*
X014845Y022648D03*
X014825Y022589D03*
X014806Y022549D03*
X014786Y022490D03*
X014766Y022451D03*
X014766Y022431D03*
X014707Y022293D03*
X014687Y022254D03*
X014687Y022234D03*
X014668Y022195D03*
X015081Y022431D03*
X015081Y022451D03*
X015140Y022293D03*
X015140Y022274D03*
X015160Y022234D03*
X015180Y022195D03*
X015180Y022175D03*
X015790Y022293D03*
X015790Y022372D03*
X015790Y022451D03*
X015790Y022530D03*
X015790Y022608D03*
X015790Y022687D03*
X015790Y022766D03*
X016302Y022687D03*
X016302Y022411D03*
X016302Y022215D03*
X016754Y022156D03*
X016794Y022215D03*
X016813Y022569D03*
X016794Y022628D03*
X016794Y022648D03*
X016794Y022667D03*
X016813Y022687D03*
X017542Y022569D03*
X017542Y022549D03*
X017542Y022530D03*
X017542Y022510D03*
X017542Y022490D03*
X017542Y022470D03*
X017542Y022451D03*
X017542Y022431D03*
X017542Y022411D03*
X017561Y022372D03*
X017561Y022352D03*
X017581Y022313D03*
X017561Y022628D03*
X017561Y022648D03*
X017581Y022667D03*
X018034Y022648D03*
X018034Y022628D03*
X018054Y022608D03*
X018054Y022589D03*
X018054Y022392D03*
X018054Y022372D03*
X018034Y022352D03*
X018034Y022333D03*
X018369Y022569D03*
X018388Y022549D03*
X018369Y022608D03*
X018369Y022648D03*
X020573Y024183D03*
X020632Y024203D03*
X020809Y024242D03*
X021518Y024104D03*
X021144Y022726D03*
X022227Y022215D03*
X022306Y021270D03*
X014924Y022805D03*
X014924Y022825D03*
D133*
X017079Y022825D03*
X017079Y022451D03*
X017807Y022195D03*
X017807Y022785D03*
X018615Y022431D03*
X019461Y022156D03*
X020268Y023967D03*
X021784Y024065D03*
X022807Y022589D03*
X022355Y022352D03*
X022355Y022313D03*
D134*
X022857Y022293D03*
X022542Y023297D03*
X021951Y023947D03*
X019471Y022530D03*
X018585Y022470D03*
X018585Y022766D03*
X018585Y022785D03*
X017798Y022766D03*
X017798Y022215D03*
X017050Y022805D03*
X015613Y022254D03*
X015613Y022234D03*
X015613Y022195D03*
X015613Y022156D03*
X013428Y022785D03*
D135*
X013477Y022825D03*
X013477Y022156D03*
X017807Y022805D03*
X018634Y022825D03*
X019402Y022352D03*
X020229Y023947D03*
X021233Y024026D03*
X022571Y023317D03*
X022355Y022333D03*
D136*
X022374Y022648D03*
X022847Y022274D03*
X022847Y022254D03*
X021764Y023297D03*
X021115Y024183D03*
X021036Y024163D03*
X020642Y024065D03*
X020504Y024026D03*
X019481Y022490D03*
X017807Y022726D03*
X017020Y022746D03*
X017020Y022766D03*
X017020Y022530D03*
X016292Y022726D03*
X016292Y022766D03*
X014914Y022352D03*
X013398Y022254D03*
D137*
X021784Y024085D03*
X022000Y023967D03*
X022847Y022608D03*
X022335Y022293D03*
D138*
X020219Y023356D03*
D139*
X020544Y023376D03*
D140*
X020593Y023396D03*
D141*
X020672Y023415D03*
X021203Y023829D03*
D142*
X021193Y023809D03*
X020701Y023435D03*
D143*
X020750Y023455D03*
D144*
X020809Y023474D03*
D145*
X021115Y023593D03*
D146*
X021115Y023632D03*
D147*
X021115Y023671D03*
D148*
X021075Y023730D03*
X021036Y023711D03*
X021036Y023691D03*
D149*
X021193Y023789D03*
D150*
X021302Y023848D03*
D151*
X021321Y023868D03*
D152*
X021321Y023888D03*
D153*
X021341Y023907D03*
D154*
X027367Y022644D03*
X033075Y014770D03*
X029229Y003230D03*
X014103Y003837D03*
X005335Y013951D03*
X009469Y020841D03*
D155*
X009469Y021841D03*
X008469Y021841D03*
X008469Y020841D03*
X008469Y022841D03*
X009469Y022841D03*
X005335Y015951D03*
X004335Y015951D03*
X004335Y014951D03*
X005335Y014951D03*
X004335Y013951D03*
X012103Y003837D03*
X013103Y003837D03*
X013103Y002837D03*
X014103Y002837D03*
X012103Y002837D03*
X029229Y004230D03*
X030229Y004230D03*
X030229Y003230D03*
X031229Y003230D03*
X031229Y004230D03*
X033075Y012770D03*
X034075Y012770D03*
X034075Y013770D03*
X033075Y013770D03*
X034075Y014770D03*
X028367Y020644D03*
X027367Y020644D03*
X027367Y021644D03*
X028367Y021644D03*
X028367Y022644D03*
D156*
X025307Y018691D03*
X017433Y018691D03*
D157*
X018418Y024006D03*
D158*
X015919Y015321D03*
X018994Y012187D03*
X017694Y008937D03*
X008944Y014572D03*
M02*
