G75*
%MOIN*%
%OFA0B0*%
%FSLAX24Y24*%
%IPPOS*%
%LPD*%
%AMOC8*
5,1,8,0,0,1.08239X$1,22.5*
%
%ADD10C,0.0100*%
%ADD11C,0.0040*%
%ADD12C,0.0120*%
%ADD13C,0.0110*%
%ADD14C,0.0080*%
%ADD15C,0.0010*%
%ADD16C,0.0000*%
%ADD17R,0.3346X0.0039*%
%ADD18R,0.3543X0.0039*%
%ADD19R,0.1181X0.0039*%
%ADD20R,0.0984X0.0039*%
%ADD21R,2.0276X0.0039*%
%ADD22R,0.2165X0.0039*%
%ADD23R,1.1220X0.0039*%
%ADD24R,0.2362X0.0039*%
%ADD25R,0.7874X0.0039*%
%ADD26R,0.0118X0.0039*%
%ADD27R,0.4528X0.0039*%
%ADD28R,0.4488X0.0039*%
%ADD29R,0.1024X0.0039*%
%ADD30R,2.1457X0.0039*%
%ADD31R,0.1220X0.0039*%
%ADD32R,1.9291X0.0039*%
%ADD33C,0.0060*%
D10*
X027936Y016774D02*
X031086Y016774D01*
X031086Y021774D01*
X027936Y021774D01*
X027936Y020774D01*
X034235Y020774D01*
X034235Y021774D01*
X031086Y021774D01*
X027936Y020774D02*
X027936Y019774D01*
X034235Y019774D01*
X034235Y020774D01*
X034235Y019774D02*
X034235Y018774D01*
X027936Y018774D01*
X027936Y017774D01*
X034235Y017774D01*
X034235Y018774D01*
X034235Y017774D02*
X034235Y016774D01*
X031086Y016774D01*
X027936Y016774D02*
X027936Y017774D01*
X027936Y018774D02*
X027936Y019774D01*
D11*
X027872Y012886D02*
X028058Y012886D01*
X028105Y012840D01*
X028105Y012700D01*
X027825Y012700D01*
X027825Y012840D01*
X027872Y012886D01*
X027872Y012592D02*
X027965Y012592D01*
X027965Y012498D01*
X028058Y012405D02*
X027872Y012405D01*
X027825Y012452D01*
X027825Y012545D01*
X027872Y012592D01*
X028058Y012592D02*
X028105Y012545D01*
X028105Y012452D01*
X028058Y012405D01*
X028058Y012297D02*
X027965Y012297D01*
X027918Y012250D01*
X027918Y012110D01*
X027825Y012110D02*
X028105Y012110D01*
X028105Y012250D01*
X028058Y012297D01*
X028825Y012452D02*
X028825Y012545D01*
X028872Y012592D01*
X028965Y012592D01*
X028965Y012498D01*
X029058Y012405D02*
X028872Y012405D01*
X028825Y012452D01*
X028965Y012297D02*
X028918Y012250D01*
X028918Y012110D01*
X028825Y012110D02*
X029105Y012110D01*
X029105Y012250D01*
X029058Y012297D01*
X028965Y012297D01*
X029058Y012405D02*
X029105Y012452D01*
X029105Y012545D01*
X029058Y012592D01*
X029058Y012700D02*
X028872Y012700D01*
X028825Y012746D01*
X028825Y012840D01*
X028872Y012886D01*
X029058Y012886D02*
X029105Y012840D01*
X029105Y012746D01*
X029058Y012700D01*
X027087Y012700D02*
X027087Y012840D01*
X027040Y012886D01*
X026853Y012886D01*
X026807Y012840D01*
X026807Y012700D01*
X027087Y012700D01*
X027087Y012592D02*
X026807Y012592D01*
X027087Y012405D01*
X026807Y012405D01*
X026853Y012297D02*
X026947Y012297D01*
X026947Y012204D01*
X027040Y012297D02*
X027087Y012250D01*
X027087Y012157D01*
X027040Y012110D01*
X026853Y012110D01*
X026807Y012157D01*
X026807Y012250D01*
X026853Y012297D01*
X026087Y012250D02*
X026040Y012297D01*
X025994Y012297D01*
X025947Y012250D01*
X025900Y012297D01*
X025853Y012297D01*
X025807Y012250D01*
X025807Y012157D01*
X025853Y012110D01*
X025947Y012204D02*
X025947Y012250D01*
X026087Y012250D02*
X026087Y012157D01*
X026040Y012110D01*
X026087Y012405D02*
X025900Y012405D01*
X025807Y012498D01*
X025900Y012592D01*
X026087Y012592D01*
X026040Y012700D02*
X026087Y012746D01*
X026087Y012840D01*
X026040Y012886D01*
X025994Y012886D01*
X025947Y012840D01*
X025900Y012886D01*
X025853Y012886D01*
X025807Y012840D01*
X025807Y012746D01*
X025853Y012700D01*
X025947Y012793D02*
X025947Y012840D01*
X025047Y012844D02*
X025047Y012964D01*
X025007Y013004D01*
X024927Y013004D01*
X024887Y012964D01*
X024887Y012844D01*
X024807Y012844D02*
X025047Y012844D01*
X024887Y012924D02*
X024807Y013004D01*
X024807Y012747D02*
X024807Y012587D01*
X025047Y012587D01*
X025007Y012489D02*
X025047Y012449D01*
X025047Y012369D01*
X025007Y012329D01*
X024847Y012329D01*
X024807Y012369D01*
X024807Y012449D01*
X024847Y012489D01*
X024807Y012231D02*
X025047Y012231D01*
X024967Y012151D01*
X025047Y012071D01*
X024807Y012071D01*
D12*
X028243Y015281D02*
X028243Y015721D01*
X028390Y015868D01*
X028830Y015868D01*
X028830Y015281D01*
X029164Y015428D02*
X029164Y015721D01*
X029311Y015868D01*
X029604Y015868D01*
X029751Y015721D01*
X029751Y015428D01*
X029604Y015281D01*
X029311Y015281D01*
X029164Y015428D01*
X029394Y014662D02*
X029688Y014515D01*
X029981Y014221D01*
X029541Y014221D01*
X029394Y014075D01*
X029394Y013928D01*
X029541Y013781D01*
X029835Y013781D01*
X029981Y013928D01*
X029981Y014221D01*
X030295Y013928D02*
X030295Y013781D01*
X030442Y013781D01*
X030442Y013928D01*
X030295Y013928D01*
X030775Y013928D02*
X030922Y013781D01*
X031216Y013781D01*
X031363Y013928D01*
X031069Y014221D02*
X030922Y014221D01*
X030775Y014075D01*
X030775Y013928D01*
X030922Y014221D02*
X030775Y014368D01*
X030775Y014515D01*
X030922Y014662D01*
X031216Y014662D01*
X031363Y014515D01*
X031696Y014368D02*
X031990Y013781D01*
X032283Y014368D01*
X032617Y014221D02*
X032764Y014075D01*
X033204Y014075D01*
X033204Y013781D02*
X033204Y014662D01*
X032764Y014662D01*
X032617Y014515D01*
X032617Y014221D01*
X033538Y014075D02*
X033538Y013928D01*
X033685Y013781D01*
X034125Y013781D01*
X034125Y014662D01*
X033685Y014662D01*
X033538Y014515D01*
X033538Y014368D01*
X033685Y014221D01*
X034125Y014221D01*
X033685Y014221D02*
X033538Y014075D01*
X033434Y015281D02*
X032994Y015281D01*
X032847Y015428D01*
X032994Y015575D01*
X033288Y015575D01*
X033434Y015721D01*
X033288Y015868D01*
X032847Y015868D01*
X032514Y015721D02*
X032514Y015428D01*
X032367Y015281D01*
X032073Y015281D01*
X031926Y015575D02*
X032514Y015575D01*
X032514Y015721D02*
X032367Y015868D01*
X032073Y015868D01*
X031926Y015721D01*
X031926Y015575D01*
X031593Y015721D02*
X031446Y015868D01*
X031006Y015868D01*
X031006Y016162D02*
X031006Y015281D01*
X031446Y015281D01*
X031593Y015428D01*
X031593Y015721D01*
X033768Y015721D02*
X033768Y015281D01*
X034208Y015281D01*
X034355Y015428D01*
X034208Y015575D01*
X033768Y015575D01*
X033768Y015721D02*
X033915Y015868D01*
X034208Y015868D01*
X034689Y015868D02*
X034836Y015721D01*
X035276Y015721D01*
X035276Y015281D02*
X035276Y016162D01*
X034836Y016162D01*
X034689Y016015D01*
X034689Y015868D01*
X034836Y015721D02*
X034689Y015575D01*
X034689Y015428D01*
X034836Y015281D01*
X035276Y015281D01*
X035497Y022511D02*
X035497Y022952D01*
X035203Y023245D01*
X035203Y023392D01*
X034869Y023098D02*
X034576Y023392D01*
X034282Y023098D01*
X034282Y022511D01*
X033949Y022511D02*
X033949Y023392D01*
X033361Y022511D01*
X033361Y023392D01*
X034282Y022952D02*
X034869Y022952D01*
X034869Y023098D02*
X034869Y022511D01*
X035497Y022952D02*
X035790Y023245D01*
X035790Y023392D01*
X036124Y023392D02*
X036124Y022511D01*
X036711Y023392D01*
X036711Y022511D01*
X032107Y022511D02*
X032107Y023392D01*
X031667Y023392D01*
X031520Y023245D01*
X031520Y022952D01*
X031667Y022805D01*
X032107Y022805D01*
X031186Y022511D02*
X030893Y022511D01*
X031039Y022511D02*
X031039Y023392D01*
X030893Y023392D02*
X031186Y023392D01*
X030572Y023392D02*
X030572Y022511D01*
X030572Y022805D02*
X030132Y022805D01*
X029985Y022952D01*
X029985Y023245D01*
X030132Y023392D01*
X030572Y023392D01*
X029652Y023098D02*
X029358Y023392D01*
X029064Y023098D01*
X029064Y022511D01*
X029064Y022952D02*
X029652Y022952D01*
X029652Y023098D02*
X029652Y022511D01*
X029985Y022511D02*
X030279Y022805D01*
X028731Y023392D02*
X028144Y023392D01*
X028437Y023392D02*
X028437Y022511D01*
X027810Y022511D02*
X027223Y022511D01*
X027516Y022952D02*
X027810Y022952D01*
X027810Y023392D02*
X027223Y023392D01*
X027810Y023392D02*
X027810Y022511D01*
D13*
X027778Y024448D02*
X028145Y024448D01*
X028145Y024998D01*
X027778Y024998D01*
X027962Y024723D02*
X028145Y024723D01*
X028386Y024906D02*
X028478Y024998D01*
X028753Y024998D01*
X028753Y024448D01*
X028478Y024448D01*
X028386Y024539D01*
X028386Y024906D01*
X028994Y024906D02*
X028994Y024539D01*
X029086Y024448D01*
X029269Y024448D01*
X029361Y024539D01*
X029361Y024906D01*
X029269Y024998D01*
X029086Y024998D01*
X028994Y024906D01*
X029602Y024998D02*
X029602Y024448D01*
X029969Y024448D02*
X029969Y024998D01*
X029785Y024815D01*
X029602Y024998D01*
X031802Y024906D02*
X031893Y024998D01*
X032077Y024998D01*
X032169Y024906D01*
X032169Y024539D01*
X032077Y024448D01*
X031893Y024448D01*
X031802Y024539D01*
X031802Y024723D01*
X031985Y024723D01*
X032409Y024998D02*
X032776Y024998D01*
X032776Y024448D01*
X032409Y024448D01*
X032593Y024723D02*
X032776Y024723D01*
X033017Y024723D02*
X033109Y024631D01*
X033384Y024631D01*
X033384Y024448D02*
X033384Y024998D01*
X033109Y024998D01*
X033017Y024906D01*
X033017Y024723D01*
X033201Y024631D02*
X033017Y024448D01*
X033625Y024631D02*
X033625Y024998D01*
X033992Y024998D02*
X033992Y024631D01*
X033808Y024448D01*
X033625Y024631D01*
X025777Y024539D02*
X025685Y024448D01*
X025502Y024448D01*
X025410Y024539D01*
X025410Y024998D01*
X025169Y024906D02*
X025169Y024815D01*
X025077Y024723D01*
X024894Y024723D01*
X024802Y024631D01*
X024802Y024539D01*
X024894Y024448D01*
X025077Y024448D01*
X025169Y024539D01*
X025169Y024906D02*
X025077Y024998D01*
X024894Y024998D01*
X024802Y024906D01*
X024561Y024998D02*
X024561Y024448D01*
X024286Y024448D01*
X024194Y024539D01*
X024194Y024631D01*
X024286Y024723D01*
X024561Y024723D01*
X024286Y024723D02*
X024194Y024815D01*
X024194Y024906D01*
X024286Y024998D01*
X024561Y024998D01*
X025777Y024998D02*
X025777Y024539D01*
X021824Y024448D02*
X021824Y024998D01*
X021549Y024998D01*
X021457Y024906D01*
X021457Y024723D01*
X021549Y024631D01*
X021824Y024631D01*
X021216Y024448D02*
X021033Y024631D01*
X020850Y024448D01*
X020850Y024998D01*
X020609Y024998D02*
X020609Y024448D01*
X020609Y024631D02*
X020334Y024631D01*
X020242Y024723D01*
X020242Y024906D01*
X020334Y024998D01*
X020609Y024998D01*
X020425Y024631D02*
X020242Y024448D01*
X021216Y024448D02*
X021216Y024998D01*
D14*
X028404Y021460D02*
X028404Y021073D01*
X028501Y020976D01*
X028791Y020976D01*
X028791Y021557D01*
X028501Y021557D01*
X028404Y021460D01*
X029012Y021557D02*
X029012Y020976D01*
X029399Y021557D01*
X029399Y020976D01*
X029620Y021073D02*
X029620Y021267D01*
X029813Y021267D01*
X029620Y021460D02*
X029717Y021557D01*
X029910Y021557D01*
X030007Y021460D01*
X030007Y021073D01*
X029910Y020976D01*
X029717Y020976D01*
X029620Y021073D01*
X029399Y020557D02*
X029012Y020557D01*
X029109Y020363D02*
X029012Y020267D01*
X029012Y020073D01*
X029109Y019976D01*
X029302Y019976D01*
X029399Y020073D01*
X029399Y020267D02*
X029206Y020363D01*
X029109Y020363D01*
X029399Y020267D02*
X029399Y020557D01*
X029620Y020267D02*
X030007Y020267D01*
X029813Y020460D02*
X029813Y020073D01*
X029620Y019507D02*
X029620Y019120D01*
X029813Y018926D01*
X030007Y019120D01*
X030007Y019507D01*
X029399Y019507D02*
X029399Y018926D01*
X029399Y019120D02*
X029109Y019120D01*
X029012Y019217D01*
X029012Y019410D01*
X029109Y019507D01*
X029399Y019507D01*
X028791Y019507D02*
X028791Y019023D01*
X028695Y018926D01*
X028501Y018926D01*
X028404Y019023D01*
X028404Y019507D01*
X028598Y019976D02*
X028404Y020170D01*
X028404Y020557D01*
X028791Y020557D02*
X028791Y020170D01*
X028598Y019976D01*
X028741Y018507D02*
X028741Y017926D01*
X028741Y018120D02*
X028354Y018507D01*
X028645Y018217D02*
X028354Y017926D01*
X028962Y017926D02*
X029349Y017926D01*
X029349Y018507D01*
X029570Y018410D02*
X029667Y018507D01*
X029860Y018507D01*
X029957Y018410D01*
X029957Y018023D01*
X029860Y017926D01*
X029667Y017926D01*
X029570Y018023D01*
X029614Y017517D02*
X029807Y017517D01*
X029904Y017421D01*
X029904Y017034D01*
X029807Y016937D01*
X029614Y016937D01*
X029517Y017034D01*
X029296Y017034D02*
X029199Y016937D01*
X029006Y016937D01*
X028909Y017034D01*
X028909Y017130D01*
X029006Y017227D01*
X029199Y017227D01*
X029296Y017324D01*
X029296Y017421D01*
X029199Y017517D01*
X029006Y017517D01*
X028909Y017421D01*
X029517Y017421D02*
X029614Y017517D01*
X032030Y017460D02*
X032030Y017073D01*
X032127Y016976D01*
X032321Y016976D01*
X032417Y017073D01*
X032417Y017460D01*
X032321Y017557D01*
X032127Y017557D01*
X032030Y017460D01*
X032021Y017926D02*
X032215Y017926D01*
X032118Y017926D02*
X032118Y018507D01*
X032215Y018507D02*
X032021Y018507D01*
X032436Y018410D02*
X032532Y018507D01*
X032726Y018507D01*
X032823Y018410D01*
X032823Y018313D01*
X032726Y018217D01*
X032532Y018217D01*
X032436Y018120D01*
X032436Y018023D01*
X032532Y017926D01*
X032726Y017926D01*
X032823Y018023D01*
X033043Y018023D02*
X033043Y018410D01*
X033140Y018507D01*
X033334Y018507D01*
X033430Y018410D01*
X033430Y018023D01*
X033334Y017926D01*
X033140Y017926D01*
X033043Y018023D01*
X032928Y017557D02*
X033025Y017460D01*
X033025Y017363D01*
X032928Y017267D01*
X032735Y017267D01*
X032638Y017170D01*
X032638Y017073D01*
X032735Y016976D01*
X032928Y016976D01*
X033025Y017073D01*
X033237Y016976D02*
X033430Y016976D01*
X033334Y016976D02*
X033334Y017557D01*
X033430Y017557D02*
X033237Y017557D01*
X032928Y017557D02*
X032735Y017557D01*
X032638Y017460D01*
X033651Y017557D02*
X033651Y016976D01*
X034038Y016976D02*
X034038Y017557D01*
X033845Y017363D01*
X033651Y017557D01*
X033651Y017926D02*
X033651Y018507D01*
X033845Y018313D01*
X034038Y018507D01*
X034038Y017926D01*
X034038Y018976D02*
X034038Y019363D01*
X033845Y019557D01*
X033651Y019363D01*
X033651Y018976D01*
X033430Y019073D02*
X033334Y018976D01*
X033140Y018976D01*
X033043Y019073D01*
X033043Y019557D01*
X032823Y019557D02*
X032436Y018976D01*
X032823Y018976D02*
X032436Y019557D01*
X032532Y020026D02*
X032436Y020123D01*
X032532Y020026D02*
X032726Y020026D01*
X032823Y020123D01*
X032823Y020510D01*
X032726Y020607D01*
X032532Y020607D01*
X032436Y020510D01*
X032422Y020976D02*
X032519Y021073D01*
X032422Y020976D02*
X032228Y020976D01*
X032132Y021073D01*
X032132Y021170D01*
X032228Y021267D01*
X032325Y021267D01*
X032228Y021267D02*
X032132Y021363D01*
X032132Y021460D01*
X032228Y021557D01*
X032422Y021557D01*
X032519Y021460D01*
X032726Y021073D02*
X032726Y020976D01*
X032823Y020976D01*
X032823Y021073D01*
X032726Y021073D01*
X033043Y021073D02*
X033140Y020976D01*
X033334Y020976D01*
X033430Y021073D01*
X033237Y021267D02*
X033140Y021267D01*
X033043Y021170D01*
X033043Y021073D01*
X033140Y021267D02*
X033043Y021363D01*
X033043Y021460D01*
X033140Y021557D01*
X033334Y021557D01*
X033430Y021460D01*
X033651Y021267D02*
X034038Y021267D01*
X033845Y021460D02*
X033845Y021073D01*
X033845Y020607D02*
X033651Y020413D01*
X033651Y020026D01*
X033430Y020026D02*
X033430Y020607D01*
X033140Y020607D01*
X033043Y020510D01*
X033043Y020123D01*
X033140Y020026D01*
X033430Y020026D01*
X033651Y020317D02*
X034038Y020317D01*
X034038Y020413D02*
X033845Y020607D01*
X034038Y020413D02*
X034038Y020026D01*
X033430Y019557D02*
X033430Y019073D01*
X033651Y019267D02*
X034038Y019267D01*
D15*
X025337Y014281D02*
X024550Y014281D01*
X024944Y013888D01*
X025337Y014281D01*
X025332Y014276D02*
X024555Y014276D01*
X024564Y014268D02*
X025324Y014268D01*
X025315Y014259D02*
X024572Y014259D01*
X024581Y014251D02*
X025307Y014251D01*
X025298Y014242D02*
X024589Y014242D01*
X024598Y014234D02*
X025290Y014234D01*
X025281Y014225D02*
X024606Y014225D01*
X024615Y014217D02*
X025273Y014217D01*
X025264Y014208D02*
X024623Y014208D01*
X024632Y014200D02*
X025256Y014200D01*
X025247Y014191D02*
X024640Y014191D01*
X024649Y014183D02*
X025239Y014183D01*
X025230Y014174D02*
X024657Y014174D01*
X024666Y014166D02*
X025222Y014166D01*
X025213Y014157D02*
X024674Y014157D01*
X024683Y014149D02*
X025205Y014149D01*
X025196Y014140D02*
X024691Y014140D01*
X024700Y014132D02*
X025188Y014132D01*
X025179Y014123D02*
X024708Y014123D01*
X024717Y014115D02*
X025171Y014115D01*
X025162Y014106D02*
X024725Y014106D01*
X024734Y014098D02*
X025154Y014098D01*
X025145Y014089D02*
X024742Y014089D01*
X024751Y014081D02*
X025137Y014081D01*
X025128Y014072D02*
X024759Y014072D01*
X024768Y014064D02*
X025120Y014064D01*
X025111Y014055D02*
X024776Y014055D01*
X024785Y014047D02*
X025103Y014047D01*
X025094Y014038D02*
X024793Y014038D01*
X024802Y014030D02*
X025086Y014030D01*
X025077Y014021D02*
X024810Y014021D01*
X024819Y014013D02*
X025069Y014013D01*
X025060Y014004D02*
X024827Y014004D01*
X024836Y013996D02*
X025052Y013996D01*
X025043Y013987D02*
X024844Y013987D01*
X024853Y013979D02*
X025035Y013979D01*
X025026Y013970D02*
X024861Y013970D01*
X024870Y013962D02*
X025018Y013962D01*
X025009Y013953D02*
X024878Y013953D01*
X024887Y013945D02*
X025001Y013945D01*
X024992Y013936D02*
X024895Y013936D01*
X024904Y013928D02*
X024984Y013928D01*
X024975Y013919D02*
X024912Y013919D01*
X024921Y013911D02*
X024967Y013911D01*
X024958Y013902D02*
X024929Y013902D01*
X024938Y013894D02*
X024950Y013894D01*
D16*
X014767Y012700D02*
X012700Y012700D01*
X012700Y013684D01*
X011519Y013684D01*
X011519Y014865D01*
X010337Y014865D01*
X010337Y016046D01*
X009452Y016046D01*
X009452Y022149D01*
X010337Y022149D01*
X010337Y026676D01*
X011519Y026676D01*
X011519Y027857D01*
X014274Y027857D01*
X014274Y026676D01*
X015456Y026676D01*
X015456Y025692D01*
X017030Y025692D01*
X017030Y026676D01*
X022739Y026676D01*
X022739Y027857D01*
X025692Y027857D01*
X025692Y026676D01*
X036912Y026676D01*
X036912Y025495D01*
X038192Y025495D01*
X038192Y024511D01*
X039078Y024511D01*
X039078Y022149D01*
X040652Y022149D01*
X040652Y023034D01*
X041834Y023034D01*
X041834Y024314D01*
X044589Y024314D01*
X044589Y023133D01*
X045771Y023133D01*
X045771Y020377D01*
X044589Y020377D01*
X044589Y019196D01*
X043605Y019196D01*
X043605Y018015D01*
X041243Y018015D01*
X041243Y017030D01*
X039078Y017030D01*
X039078Y015357D01*
X040259Y015357D01*
X040259Y014176D01*
X041243Y014176D01*
X041243Y012995D01*
X042424Y012995D01*
X042424Y009156D01*
X038487Y009156D01*
X038487Y010337D01*
X037306Y010337D01*
X037306Y011322D01*
X036912Y011322D01*
X036912Y009156D01*
X032778Y009156D01*
X032778Y010337D01*
X031794Y010337D01*
X031794Y011322D01*
X025495Y011322D01*
X025495Y009156D01*
X021558Y009156D01*
X021558Y010337D01*
X020574Y010337D01*
X020574Y011322D01*
X019983Y011322D01*
X019983Y010337D01*
X018802Y010337D01*
X018802Y009156D01*
X014767Y009156D01*
X014767Y012700D01*
X016085Y013251D02*
X016087Y013301D01*
X016093Y013351D01*
X016103Y013400D01*
X016117Y013448D01*
X016134Y013495D01*
X016155Y013540D01*
X016180Y013584D01*
X016208Y013625D01*
X016240Y013664D01*
X016274Y013701D01*
X016311Y013735D01*
X016351Y013765D01*
X016393Y013792D01*
X016437Y013816D01*
X016483Y013837D01*
X016530Y013853D01*
X016578Y013866D01*
X016628Y013875D01*
X016677Y013880D01*
X016728Y013881D01*
X016778Y013878D01*
X016827Y013871D01*
X016876Y013860D01*
X016924Y013845D01*
X016970Y013827D01*
X017015Y013805D01*
X017058Y013779D01*
X017099Y013750D01*
X017138Y013718D01*
X017174Y013683D01*
X017206Y013645D01*
X017236Y013605D01*
X017263Y013562D01*
X017286Y013518D01*
X017305Y013472D01*
X017321Y013424D01*
X017333Y013375D01*
X017341Y013326D01*
X017345Y013276D01*
X017345Y013226D01*
X017341Y013176D01*
X017333Y013127D01*
X017321Y013078D01*
X017305Y013030D01*
X017286Y012984D01*
X017263Y012940D01*
X017236Y012897D01*
X017206Y012857D01*
X017174Y012819D01*
X017138Y012784D01*
X017099Y012752D01*
X017058Y012723D01*
X017015Y012697D01*
X016970Y012675D01*
X016924Y012657D01*
X016876Y012642D01*
X016827Y012631D01*
X016778Y012624D01*
X016728Y012621D01*
X016677Y012622D01*
X016628Y012627D01*
X016578Y012636D01*
X016530Y012649D01*
X016483Y012665D01*
X016437Y012686D01*
X016393Y012710D01*
X016351Y012737D01*
X016311Y012767D01*
X016274Y012801D01*
X016240Y012838D01*
X016208Y012877D01*
X016180Y012918D01*
X016155Y012962D01*
X016134Y013007D01*
X016117Y013054D01*
X016103Y013102D01*
X016093Y013151D01*
X016087Y013201D01*
X016085Y013251D01*
X011420Y018408D02*
X011422Y018434D01*
X011428Y018460D01*
X011438Y018485D01*
X011451Y018508D01*
X011467Y018528D01*
X011487Y018546D01*
X011509Y018561D01*
X011532Y018573D01*
X011558Y018581D01*
X011584Y018585D01*
X011610Y018585D01*
X011636Y018581D01*
X011662Y018573D01*
X011686Y018561D01*
X011707Y018546D01*
X011727Y018528D01*
X011743Y018508D01*
X011756Y018485D01*
X011766Y018460D01*
X011772Y018434D01*
X011774Y018408D01*
X011772Y018382D01*
X011766Y018356D01*
X011756Y018331D01*
X011743Y018308D01*
X011727Y018288D01*
X011707Y018270D01*
X011685Y018255D01*
X011662Y018243D01*
X011636Y018235D01*
X011610Y018231D01*
X011584Y018231D01*
X011558Y018235D01*
X011532Y018243D01*
X011508Y018255D01*
X011487Y018270D01*
X011467Y018288D01*
X011451Y018308D01*
X011438Y018331D01*
X011428Y018356D01*
X011422Y018382D01*
X011420Y018408D01*
X011420Y020141D02*
X011422Y020167D01*
X011428Y020193D01*
X011438Y020218D01*
X011451Y020241D01*
X011467Y020261D01*
X011487Y020279D01*
X011509Y020294D01*
X011532Y020306D01*
X011558Y020314D01*
X011584Y020318D01*
X011610Y020318D01*
X011636Y020314D01*
X011662Y020306D01*
X011686Y020294D01*
X011707Y020279D01*
X011727Y020261D01*
X011743Y020241D01*
X011756Y020218D01*
X011766Y020193D01*
X011772Y020167D01*
X011774Y020141D01*
X011772Y020115D01*
X011766Y020089D01*
X011756Y020064D01*
X011743Y020041D01*
X011727Y020021D01*
X011707Y020003D01*
X011685Y019988D01*
X011662Y019976D01*
X011636Y019968D01*
X011610Y019964D01*
X011584Y019964D01*
X011558Y019968D01*
X011532Y019976D01*
X011508Y019988D01*
X011487Y020003D01*
X011467Y020021D01*
X011451Y020041D01*
X011438Y020064D01*
X011428Y020089D01*
X011422Y020115D01*
X011420Y020141D01*
X016085Y024668D02*
X016087Y024718D01*
X016093Y024768D01*
X016103Y024817D01*
X016117Y024865D01*
X016134Y024912D01*
X016155Y024957D01*
X016180Y025001D01*
X016208Y025042D01*
X016240Y025081D01*
X016274Y025118D01*
X016311Y025152D01*
X016351Y025182D01*
X016393Y025209D01*
X016437Y025233D01*
X016483Y025254D01*
X016530Y025270D01*
X016578Y025283D01*
X016628Y025292D01*
X016677Y025297D01*
X016728Y025298D01*
X016778Y025295D01*
X016827Y025288D01*
X016876Y025277D01*
X016924Y025262D01*
X016970Y025244D01*
X017015Y025222D01*
X017058Y025196D01*
X017099Y025167D01*
X017138Y025135D01*
X017174Y025100D01*
X017206Y025062D01*
X017236Y025022D01*
X017263Y024979D01*
X017286Y024935D01*
X017305Y024889D01*
X017321Y024841D01*
X017333Y024792D01*
X017341Y024743D01*
X017345Y024693D01*
X017345Y024643D01*
X017341Y024593D01*
X017333Y024544D01*
X017321Y024495D01*
X017305Y024447D01*
X017286Y024401D01*
X017263Y024357D01*
X017236Y024314D01*
X017206Y024274D01*
X017174Y024236D01*
X017138Y024201D01*
X017099Y024169D01*
X017058Y024140D01*
X017015Y024114D01*
X016970Y024092D01*
X016924Y024074D01*
X016876Y024059D01*
X016827Y024048D01*
X016778Y024041D01*
X016728Y024038D01*
X016677Y024039D01*
X016628Y024044D01*
X016578Y024053D01*
X016530Y024066D01*
X016483Y024082D01*
X016437Y024103D01*
X016393Y024127D01*
X016351Y024154D01*
X016311Y024184D01*
X016274Y024218D01*
X016240Y024255D01*
X016208Y024294D01*
X016180Y024335D01*
X016155Y024379D01*
X016134Y024424D01*
X016117Y024471D01*
X016103Y024519D01*
X016093Y024568D01*
X016087Y024618D01*
X016085Y024668D01*
X036558Y024668D02*
X036560Y024718D01*
X036566Y024768D01*
X036576Y024817D01*
X036590Y024865D01*
X036607Y024912D01*
X036628Y024957D01*
X036653Y025001D01*
X036681Y025042D01*
X036713Y025081D01*
X036747Y025118D01*
X036784Y025152D01*
X036824Y025182D01*
X036866Y025209D01*
X036910Y025233D01*
X036956Y025254D01*
X037003Y025270D01*
X037051Y025283D01*
X037101Y025292D01*
X037150Y025297D01*
X037201Y025298D01*
X037251Y025295D01*
X037300Y025288D01*
X037349Y025277D01*
X037397Y025262D01*
X037443Y025244D01*
X037488Y025222D01*
X037531Y025196D01*
X037572Y025167D01*
X037611Y025135D01*
X037647Y025100D01*
X037679Y025062D01*
X037709Y025022D01*
X037736Y024979D01*
X037759Y024935D01*
X037778Y024889D01*
X037794Y024841D01*
X037806Y024792D01*
X037814Y024743D01*
X037818Y024693D01*
X037818Y024643D01*
X037814Y024593D01*
X037806Y024544D01*
X037794Y024495D01*
X037778Y024447D01*
X037759Y024401D01*
X037736Y024357D01*
X037709Y024314D01*
X037679Y024274D01*
X037647Y024236D01*
X037611Y024201D01*
X037572Y024169D01*
X037531Y024140D01*
X037488Y024114D01*
X037443Y024092D01*
X037397Y024074D01*
X037349Y024059D01*
X037300Y024048D01*
X037251Y024041D01*
X037201Y024038D01*
X037150Y024039D01*
X037101Y024044D01*
X037051Y024053D01*
X037003Y024066D01*
X036956Y024082D01*
X036910Y024103D01*
X036866Y024127D01*
X036824Y024154D01*
X036784Y024184D01*
X036747Y024218D01*
X036713Y024255D01*
X036681Y024294D01*
X036653Y024335D01*
X036628Y024379D01*
X036607Y024424D01*
X036590Y024471D01*
X036576Y024519D01*
X036566Y024568D01*
X036560Y024618D01*
X036558Y024668D01*
X036558Y013251D02*
X036560Y013301D01*
X036566Y013351D01*
X036576Y013400D01*
X036590Y013448D01*
X036607Y013495D01*
X036628Y013540D01*
X036653Y013584D01*
X036681Y013625D01*
X036713Y013664D01*
X036747Y013701D01*
X036784Y013735D01*
X036824Y013765D01*
X036866Y013792D01*
X036910Y013816D01*
X036956Y013837D01*
X037003Y013853D01*
X037051Y013866D01*
X037101Y013875D01*
X037150Y013880D01*
X037201Y013881D01*
X037251Y013878D01*
X037300Y013871D01*
X037349Y013860D01*
X037397Y013845D01*
X037443Y013827D01*
X037488Y013805D01*
X037531Y013779D01*
X037572Y013750D01*
X037611Y013718D01*
X037647Y013683D01*
X037679Y013645D01*
X037709Y013605D01*
X037736Y013562D01*
X037759Y013518D01*
X037778Y013472D01*
X037794Y013424D01*
X037806Y013375D01*
X037814Y013326D01*
X037818Y013276D01*
X037818Y013226D01*
X037814Y013176D01*
X037806Y013127D01*
X037794Y013078D01*
X037778Y013030D01*
X037759Y012984D01*
X037736Y012940D01*
X037709Y012897D01*
X037679Y012857D01*
X037647Y012819D01*
X037611Y012784D01*
X037572Y012752D01*
X037531Y012723D01*
X037488Y012697D01*
X037443Y012675D01*
X037397Y012657D01*
X037349Y012642D01*
X037300Y012631D01*
X037251Y012624D01*
X037201Y012621D01*
X037150Y012622D01*
X037101Y012627D01*
X037051Y012636D01*
X037003Y012649D01*
X036956Y012665D01*
X036910Y012686D01*
X036866Y012710D01*
X036824Y012737D01*
X036784Y012767D01*
X036747Y012801D01*
X036713Y012838D01*
X036681Y012877D01*
X036653Y012918D01*
X036628Y012962D01*
X036607Y013007D01*
X036590Y013054D01*
X036576Y013102D01*
X036566Y013151D01*
X036560Y013201D01*
X036558Y013251D01*
D17*
X040456Y010574D03*
X040456Y010534D03*
X040456Y010495D03*
X040456Y010456D03*
X040456Y010416D03*
X040456Y010377D03*
X040456Y010337D03*
X040456Y010298D03*
X040456Y010259D03*
X040456Y010219D03*
X040456Y010180D03*
X040456Y010141D03*
X040456Y010101D03*
X040456Y010062D03*
X040456Y010023D03*
X040456Y009983D03*
X040456Y009944D03*
X040456Y009904D03*
X040456Y009865D03*
X040456Y009826D03*
X040456Y009786D03*
X040456Y009747D03*
X040456Y009708D03*
X040456Y009668D03*
X040456Y009629D03*
X040456Y009589D03*
X040456Y009550D03*
X040456Y009511D03*
X040456Y009471D03*
X040456Y009432D03*
X039274Y017306D03*
X039274Y017345D03*
X039274Y017385D03*
X039274Y017424D03*
X039274Y017463D03*
X039274Y017503D03*
X039274Y017542D03*
X039274Y017582D03*
X039274Y017621D03*
X039274Y017660D03*
X039274Y017700D03*
X039274Y017739D03*
X039274Y017778D03*
X039274Y017818D03*
X039274Y017857D03*
X039274Y017897D03*
X039274Y017936D03*
X039274Y017975D03*
X039274Y018015D03*
X039274Y018054D03*
X039274Y018093D03*
X039274Y018133D03*
X039274Y018172D03*
X039274Y018211D03*
X039274Y018251D03*
X023526Y010574D03*
X023526Y010534D03*
X023526Y010495D03*
X023526Y010456D03*
X023526Y010416D03*
X023526Y010377D03*
X023526Y010337D03*
X023526Y010298D03*
X023526Y010259D03*
X023526Y010219D03*
X023526Y010180D03*
X023526Y010141D03*
X023526Y010101D03*
X023526Y010062D03*
X023526Y010023D03*
X023526Y009983D03*
X023526Y009944D03*
X023526Y009904D03*
X023526Y009865D03*
X023526Y009826D03*
X023526Y009786D03*
X023526Y009747D03*
X023526Y009708D03*
X023526Y009668D03*
X023526Y009629D03*
X023526Y009589D03*
X023526Y009550D03*
X023526Y009511D03*
X023526Y009471D03*
X023526Y009432D03*
X016834Y009432D03*
X016834Y009471D03*
X016834Y009511D03*
X016834Y009550D03*
X016834Y009589D03*
X016834Y009629D03*
X016834Y009668D03*
X016834Y009708D03*
X016834Y009747D03*
X016834Y009786D03*
X016834Y009826D03*
X016834Y009865D03*
X016834Y009904D03*
X016834Y009944D03*
X016834Y009983D03*
X016834Y010023D03*
X016834Y010062D03*
X016834Y010101D03*
X016834Y010141D03*
X016834Y010180D03*
X016834Y010219D03*
X016834Y010259D03*
X016834Y010298D03*
X016834Y010337D03*
X016834Y010377D03*
X016834Y010416D03*
X016834Y010456D03*
X016834Y010495D03*
X016834Y010534D03*
X016834Y010574D03*
D18*
X034845Y010574D03*
X034845Y010534D03*
X034845Y010495D03*
X034845Y010456D03*
X034845Y010416D03*
X034845Y010377D03*
X034845Y010337D03*
X034845Y010298D03*
X034845Y010259D03*
X034845Y010219D03*
X034845Y010180D03*
X034845Y010141D03*
X034845Y010101D03*
X034845Y010062D03*
X034845Y010023D03*
X034845Y009983D03*
X034845Y009944D03*
X034845Y009904D03*
X034845Y009865D03*
X034845Y009826D03*
X034845Y009786D03*
X034845Y009747D03*
X034845Y009708D03*
X034845Y009668D03*
X034845Y009629D03*
X034845Y009589D03*
X034845Y009550D03*
X034845Y009511D03*
X034845Y009471D03*
X034845Y009432D03*
D19*
X036026Y010613D03*
X036026Y010652D03*
X036026Y010692D03*
X036026Y010731D03*
X036026Y010771D03*
X036026Y010810D03*
X036026Y010849D03*
X036026Y010889D03*
X036026Y010928D03*
X036026Y010967D03*
X036026Y011007D03*
X036026Y011046D03*
X036026Y011086D03*
X036026Y011125D03*
X036026Y011164D03*
X036026Y011204D03*
X036026Y011243D03*
X036026Y011282D03*
X036026Y011322D03*
X036026Y011361D03*
X036026Y011400D03*
X036026Y011440D03*
X036026Y011479D03*
X036026Y011519D03*
X036026Y011558D03*
X038192Y011558D03*
X038192Y011519D03*
X038192Y011479D03*
X038192Y011440D03*
X038192Y011400D03*
X038192Y011361D03*
X038192Y011322D03*
X038192Y011282D03*
X038192Y011243D03*
X038192Y011204D03*
X038192Y011164D03*
X038192Y011125D03*
X038192Y011086D03*
X038192Y011046D03*
X038192Y011007D03*
X038192Y010967D03*
X038192Y010928D03*
X038192Y010889D03*
X038192Y010849D03*
X038192Y010810D03*
X038192Y010771D03*
X038192Y010731D03*
X038192Y010692D03*
X038192Y010652D03*
X038192Y010613D03*
X041538Y010613D03*
X041538Y010652D03*
X041538Y010692D03*
X041538Y010731D03*
X041538Y010771D03*
X041538Y010810D03*
X041538Y010849D03*
X041538Y010889D03*
X041538Y010928D03*
X041538Y010967D03*
X041538Y011007D03*
X041538Y011046D03*
X041538Y011086D03*
X041538Y011125D03*
X041538Y011164D03*
X041538Y011204D03*
X041538Y011243D03*
X041538Y011282D03*
X041538Y011322D03*
X041538Y011361D03*
X041538Y011400D03*
X041538Y011440D03*
X041538Y011479D03*
X041538Y011519D03*
X041538Y011558D03*
X041538Y011597D03*
X041538Y011637D03*
X041538Y011676D03*
X041538Y011715D03*
X041538Y011755D03*
X041538Y011794D03*
X041538Y011834D03*
X041538Y011873D03*
X041538Y011912D03*
X041538Y011952D03*
X041538Y011991D03*
X041538Y012030D03*
X041538Y012070D03*
X041538Y012109D03*
X041538Y012149D03*
X041538Y012188D03*
X041538Y012227D03*
X041538Y012267D03*
X041538Y012306D03*
X041538Y012345D03*
X041538Y012385D03*
X041538Y012424D03*
X041538Y012463D03*
X041538Y012503D03*
X041538Y012542D03*
X041538Y012582D03*
X041538Y012621D03*
X041538Y012660D03*
X041538Y012700D03*
X041538Y012739D03*
X038192Y015141D03*
X038192Y015180D03*
X038192Y015219D03*
X038192Y015259D03*
X038192Y015298D03*
X038192Y015337D03*
X038192Y015377D03*
X038192Y015416D03*
X038192Y015456D03*
X038192Y015495D03*
X038192Y015534D03*
X038192Y015574D03*
X038192Y015613D03*
X038192Y015652D03*
X038192Y015692D03*
X038192Y015731D03*
X038192Y015771D03*
X038192Y015810D03*
X038192Y015849D03*
X038192Y015889D03*
X038192Y015928D03*
X038192Y015967D03*
X038192Y016007D03*
X038192Y016046D03*
X038192Y016086D03*
X038192Y016125D03*
X038192Y016164D03*
X038192Y016204D03*
X038192Y016243D03*
X038192Y016282D03*
X038192Y016322D03*
X038192Y016361D03*
X038192Y016400D03*
X038192Y016440D03*
X038192Y016479D03*
X038192Y016519D03*
X038192Y016558D03*
X038192Y016597D03*
X038192Y016637D03*
X038192Y016676D03*
X038192Y016715D03*
X038192Y016755D03*
X038192Y016794D03*
X038192Y016834D03*
X038192Y016873D03*
X038192Y016912D03*
X038192Y016952D03*
X038192Y016991D03*
X038192Y017030D03*
X038192Y017070D03*
X038192Y017109D03*
X038192Y017149D03*
X038192Y017188D03*
X038192Y017227D03*
X038192Y017267D03*
X038192Y018290D03*
X038192Y018330D03*
X038192Y018369D03*
X038192Y018408D03*
X038192Y018448D03*
X038192Y018487D03*
X038192Y018526D03*
X038192Y018566D03*
X038192Y018605D03*
X038192Y018645D03*
X038192Y018684D03*
X038192Y018723D03*
X038192Y018763D03*
X038192Y018802D03*
X038192Y018841D03*
X038192Y018881D03*
X038192Y018920D03*
X038192Y018960D03*
X038192Y018999D03*
X038192Y019038D03*
X038192Y019078D03*
X038192Y019117D03*
X038192Y019156D03*
X038192Y019196D03*
X038192Y019235D03*
X038192Y019274D03*
X038192Y019314D03*
X038192Y019353D03*
X038192Y019393D03*
X038192Y019432D03*
X038192Y019471D03*
X038192Y019511D03*
X038192Y019550D03*
X038192Y019589D03*
X038192Y019629D03*
X038192Y019668D03*
X038192Y019708D03*
X038192Y019747D03*
X038192Y019786D03*
X038192Y019826D03*
X038192Y019865D03*
X038192Y019904D03*
X038192Y019944D03*
X038192Y019983D03*
X038192Y020023D03*
X038192Y020062D03*
X038192Y020101D03*
X038192Y020141D03*
X038192Y020180D03*
X038192Y020219D03*
X038192Y020259D03*
X038192Y020298D03*
X038192Y020337D03*
X038192Y020377D03*
X038192Y020416D03*
X038192Y020456D03*
X038192Y020495D03*
X038192Y020534D03*
X038192Y020574D03*
X038192Y020613D03*
X038192Y021834D03*
X038192Y021873D03*
X038192Y021912D03*
X038192Y021952D03*
X038192Y021991D03*
X038192Y022030D03*
X038192Y022070D03*
X038192Y022109D03*
X038192Y022149D03*
X038192Y022188D03*
X038192Y022227D03*
X038192Y022267D03*
X038192Y022306D03*
X038192Y022345D03*
X038192Y022385D03*
X038192Y022424D03*
X038192Y022463D03*
X038192Y022503D03*
X038192Y022542D03*
X038192Y022582D03*
X038192Y022621D03*
X038192Y022660D03*
X038192Y022700D03*
X038192Y022739D03*
X038192Y022778D03*
X038192Y022818D03*
X038192Y022857D03*
X038192Y022897D03*
X038192Y022936D03*
X038192Y022975D03*
X038192Y023015D03*
X038192Y023054D03*
X038192Y023093D03*
X038192Y023133D03*
X038192Y023172D03*
X038192Y023211D03*
X038192Y023251D03*
X038192Y023290D03*
X038192Y023330D03*
X038192Y023369D03*
X038192Y023408D03*
X038192Y023448D03*
X038192Y023487D03*
X038192Y023526D03*
X038192Y023566D03*
X038192Y023605D03*
X038192Y023645D03*
X038192Y023684D03*
X038192Y023723D03*
X038192Y023763D03*
X038192Y023802D03*
X038192Y023841D03*
X038192Y023881D03*
X038192Y023920D03*
X038192Y023960D03*
X038192Y023999D03*
X038192Y024038D03*
X038192Y024078D03*
X038192Y024117D03*
X038192Y024156D03*
X041538Y022778D03*
X041538Y022739D03*
X041538Y022700D03*
X041538Y022660D03*
X041538Y022621D03*
X041538Y022582D03*
X041538Y022542D03*
X041538Y022503D03*
X041538Y022463D03*
X041538Y022424D03*
X041538Y022385D03*
X041538Y022345D03*
X041538Y022306D03*
X041538Y022267D03*
X041538Y022227D03*
X041538Y022188D03*
X041538Y022149D03*
X041538Y022109D03*
X041538Y022070D03*
X041538Y022030D03*
X041538Y021991D03*
X041538Y021952D03*
X041538Y021912D03*
X041538Y021873D03*
X041538Y021834D03*
X044885Y021834D03*
X044885Y021873D03*
X044885Y021912D03*
X044885Y021952D03*
X044885Y021991D03*
X044885Y022030D03*
X044885Y022070D03*
X044885Y022109D03*
X044885Y022149D03*
X044885Y022188D03*
X044885Y022227D03*
X044885Y022267D03*
X044885Y022306D03*
X044885Y022345D03*
X044885Y022385D03*
X044885Y022424D03*
X044885Y022463D03*
X044885Y022503D03*
X044885Y022542D03*
X044885Y022582D03*
X044885Y022621D03*
X044885Y022660D03*
X044885Y022700D03*
X044885Y022739D03*
X044885Y022778D03*
X044885Y021794D03*
X044885Y021755D03*
X044885Y021715D03*
X044885Y021676D03*
X044885Y021637D03*
X044885Y021597D03*
X044885Y021558D03*
X044885Y021519D03*
X044885Y021479D03*
X044885Y021440D03*
X044885Y021400D03*
X044885Y021361D03*
X044885Y021322D03*
X044885Y021282D03*
X044885Y021243D03*
X044885Y021204D03*
X044885Y021164D03*
X044885Y021125D03*
X044885Y021086D03*
X044885Y021046D03*
X044885Y021007D03*
X044885Y020967D03*
X044885Y020928D03*
X044885Y020889D03*
X044885Y020849D03*
X044885Y020810D03*
X044885Y020771D03*
X044885Y020731D03*
X044885Y020692D03*
X044885Y020652D03*
X026971Y020652D03*
X026971Y020613D03*
X026971Y020574D03*
X026971Y020534D03*
X026971Y020495D03*
X026971Y020456D03*
X026971Y020416D03*
X026971Y020377D03*
X026971Y020337D03*
X026971Y020298D03*
X026971Y020259D03*
X026971Y020219D03*
X026971Y020180D03*
X026971Y020141D03*
X026971Y020101D03*
X026971Y020062D03*
X026971Y020023D03*
X026971Y019983D03*
X026971Y019944D03*
X026971Y019904D03*
X026971Y019865D03*
X026971Y019826D03*
X026971Y019786D03*
X026971Y019747D03*
X026971Y019708D03*
X026971Y019668D03*
X026971Y019629D03*
X026971Y019589D03*
X026971Y019550D03*
X026971Y019511D03*
X026971Y019471D03*
X026971Y019432D03*
X026971Y019393D03*
X026971Y019353D03*
X026971Y019314D03*
X026971Y019274D03*
X026971Y019235D03*
X026971Y019196D03*
X026971Y019156D03*
X026971Y019117D03*
X026971Y019078D03*
X026971Y019038D03*
X026971Y018999D03*
X026971Y018960D03*
X026971Y018920D03*
X026971Y018881D03*
X026971Y018841D03*
X026971Y018802D03*
X026971Y018763D03*
X026971Y018723D03*
X026971Y018684D03*
X026971Y018645D03*
X026971Y018605D03*
X026971Y018566D03*
X026971Y018526D03*
X026971Y018487D03*
X026971Y018448D03*
X026971Y018408D03*
X026971Y018369D03*
X026971Y018330D03*
X026971Y018290D03*
X026971Y018251D03*
X026971Y018211D03*
X026971Y018172D03*
X026971Y018133D03*
X026971Y018093D03*
X026971Y018054D03*
X026971Y018015D03*
X026971Y017975D03*
X026971Y017936D03*
X026971Y017897D03*
X026971Y017857D03*
X026971Y017818D03*
X026971Y017778D03*
X026971Y017739D03*
X026971Y017700D03*
X026971Y017660D03*
X026971Y017621D03*
X026971Y017582D03*
X026971Y017542D03*
X026971Y017503D03*
X026971Y017463D03*
X026971Y017424D03*
X026971Y017385D03*
X026971Y017345D03*
X026971Y017306D03*
X026971Y017267D03*
X026971Y017227D03*
X026971Y017188D03*
X026971Y017149D03*
X026971Y017109D03*
X026971Y017070D03*
X026971Y017030D03*
X026971Y016991D03*
X026971Y016952D03*
X026971Y016912D03*
X026971Y016873D03*
X026971Y016834D03*
X026971Y016794D03*
X026971Y016755D03*
X026971Y016715D03*
X026971Y016676D03*
X026971Y016637D03*
X026971Y016597D03*
X026971Y016558D03*
X026971Y016519D03*
X026971Y016479D03*
X026971Y016440D03*
X026971Y016400D03*
X026971Y016361D03*
X026971Y016322D03*
X024806Y015101D03*
X024806Y015062D03*
X024806Y015023D03*
X024806Y014983D03*
X024806Y014944D03*
X024806Y014904D03*
X024806Y014865D03*
X024806Y014826D03*
X024806Y014786D03*
X024806Y014747D03*
X024806Y014708D03*
X024806Y014668D03*
X024806Y014629D03*
X024806Y014589D03*
X024806Y014550D03*
X024806Y014511D03*
X024806Y014471D03*
X024806Y014432D03*
X024806Y014393D03*
X024806Y014353D03*
X024806Y014314D03*
X024806Y014274D03*
X024806Y014235D03*
X024806Y014196D03*
X024806Y014156D03*
X024806Y014117D03*
X024806Y014078D03*
X024806Y014038D03*
X024806Y013999D03*
X024806Y013960D03*
X019097Y011558D03*
X019097Y011519D03*
X019097Y011479D03*
X019097Y011440D03*
X019097Y011400D03*
X019097Y011361D03*
X019097Y011322D03*
X019097Y011282D03*
X019097Y011243D03*
X019097Y011204D03*
X019097Y011164D03*
X019097Y011125D03*
X019097Y011086D03*
X019097Y011046D03*
X019097Y011007D03*
X019097Y010967D03*
X019097Y010928D03*
X019097Y010889D03*
X019097Y010849D03*
X019097Y010810D03*
X019097Y010771D03*
X019097Y010731D03*
X019097Y010692D03*
X019097Y010652D03*
X019097Y010613D03*
X015751Y010613D03*
X015751Y010652D03*
X015751Y010692D03*
X015751Y010731D03*
X015751Y010771D03*
X015751Y010810D03*
X015751Y010849D03*
X015751Y010889D03*
X015751Y010928D03*
X015751Y010967D03*
X015751Y011007D03*
X015751Y011046D03*
X015751Y011086D03*
X015751Y011125D03*
X015751Y011164D03*
X015751Y011204D03*
X015751Y011243D03*
X015751Y011282D03*
X015751Y011322D03*
X015751Y011361D03*
X015751Y011400D03*
X015751Y011440D03*
X015751Y011479D03*
X015751Y011519D03*
X015751Y011558D03*
X015751Y011597D03*
X015751Y011637D03*
X015751Y011676D03*
X015751Y011715D03*
X015751Y011755D03*
X015751Y011794D03*
X015751Y011834D03*
X015751Y011873D03*
X015751Y011912D03*
X015751Y011952D03*
X015751Y011991D03*
X015751Y012030D03*
X015751Y012070D03*
X015751Y012109D03*
X015751Y012149D03*
X015751Y012188D03*
X015751Y012227D03*
X015751Y012267D03*
X015751Y012306D03*
X015751Y012345D03*
X015751Y012385D03*
X015751Y012424D03*
X015751Y012463D03*
X015751Y012503D03*
X015751Y012542D03*
X015751Y012582D03*
X015751Y012621D03*
X015751Y012660D03*
X015751Y012700D03*
X015751Y012739D03*
X012404Y013960D03*
X012404Y013999D03*
X012404Y014038D03*
X012404Y014078D03*
X012404Y014117D03*
X012404Y014156D03*
X012404Y014196D03*
X012404Y014235D03*
X012404Y014274D03*
X012404Y014314D03*
X012404Y014353D03*
X012404Y014393D03*
X012404Y014432D03*
X012404Y014471D03*
X012404Y014511D03*
X012404Y014550D03*
X012404Y014589D03*
X012404Y014629D03*
X012404Y014668D03*
X012404Y014708D03*
X012404Y014747D03*
X012404Y014786D03*
X012404Y014826D03*
X012404Y014865D03*
X012404Y014904D03*
X012404Y014944D03*
X012404Y014983D03*
X012404Y015023D03*
X012404Y015062D03*
X012404Y015101D03*
X011223Y015141D03*
X011223Y015180D03*
X011223Y015219D03*
X011223Y015259D03*
X011223Y015298D03*
X011223Y015337D03*
X011223Y015377D03*
X011223Y015416D03*
X011223Y015456D03*
X011223Y015495D03*
X011223Y015534D03*
X011223Y015574D03*
X011223Y015613D03*
X011223Y015652D03*
X011223Y015692D03*
X011223Y015731D03*
X011223Y015771D03*
X011223Y015810D03*
X011223Y015849D03*
X011223Y015889D03*
X011223Y015928D03*
X011223Y015967D03*
X011223Y016007D03*
X011223Y016046D03*
X011223Y016086D03*
X011223Y016125D03*
X011223Y016164D03*
X011223Y016204D03*
X011223Y016243D03*
X011223Y016282D03*
X014570Y016322D03*
X014570Y016361D03*
X014570Y016400D03*
X014570Y016440D03*
X014570Y016479D03*
X014570Y016519D03*
X014570Y016558D03*
X014570Y016597D03*
X014570Y016637D03*
X014570Y016676D03*
X014570Y016715D03*
X014570Y016755D03*
X014570Y016794D03*
X014570Y016834D03*
X014570Y016873D03*
X014570Y016912D03*
X014570Y016952D03*
X014570Y016991D03*
X014570Y017030D03*
X014570Y017070D03*
X014570Y017109D03*
X014570Y017149D03*
X014570Y017188D03*
X014570Y017227D03*
X014570Y017267D03*
X014570Y017306D03*
X014570Y017345D03*
X014570Y017385D03*
X014570Y017424D03*
X014570Y017463D03*
X016932Y018487D03*
X016932Y018526D03*
X016932Y018566D03*
X016932Y018605D03*
X016932Y018645D03*
X016932Y018684D03*
X016932Y018723D03*
X016932Y018763D03*
X016932Y018802D03*
X016932Y018841D03*
X016932Y018881D03*
X016932Y018920D03*
X016932Y018960D03*
X016932Y018999D03*
X016932Y019038D03*
X016932Y019078D03*
X016932Y019117D03*
X016932Y019156D03*
X016932Y019196D03*
X016932Y019235D03*
X016932Y019274D03*
X016932Y019314D03*
X016932Y019353D03*
X016932Y019393D03*
X016932Y019432D03*
X016932Y019471D03*
X016932Y019511D03*
X016932Y019550D03*
X016932Y019589D03*
X016932Y019629D03*
X011223Y021834D03*
X011223Y021873D03*
X011223Y021912D03*
X011223Y021952D03*
X011223Y021991D03*
X011223Y022030D03*
X011223Y022070D03*
X011223Y022109D03*
X011223Y022149D03*
X011223Y022188D03*
X011223Y022227D03*
X011223Y022267D03*
X011223Y022306D03*
X011223Y022345D03*
X011223Y022385D03*
X011223Y022424D03*
X011223Y022463D03*
X011223Y022503D03*
X011223Y022542D03*
X011223Y022582D03*
X011223Y022621D03*
X011223Y022660D03*
X011223Y022700D03*
X011223Y022739D03*
X011223Y022778D03*
X011223Y022818D03*
X011223Y022857D03*
X011223Y022897D03*
X011223Y022936D03*
X011223Y022975D03*
X011223Y023015D03*
X011223Y023054D03*
X011223Y023093D03*
X011223Y023133D03*
X011223Y023172D03*
X011223Y023211D03*
X011223Y023251D03*
X011223Y023290D03*
X011223Y023330D03*
X011223Y023369D03*
X011223Y023408D03*
X011223Y023448D03*
X011223Y023487D03*
X011223Y023526D03*
X011223Y023566D03*
X011223Y023605D03*
X011223Y023645D03*
X011223Y023684D03*
X011223Y023723D03*
X011223Y023763D03*
X011223Y023802D03*
X011223Y023841D03*
X011223Y023881D03*
X011223Y023920D03*
X011223Y023960D03*
X011223Y023999D03*
X011223Y024038D03*
X011223Y024078D03*
X011223Y024117D03*
X011223Y024156D03*
X011223Y024196D03*
X011223Y024235D03*
X011223Y024274D03*
X011223Y024314D03*
X011223Y024353D03*
X011223Y024393D03*
X011223Y024432D03*
X011223Y024471D03*
X011223Y024511D03*
X011223Y024550D03*
X011223Y024589D03*
X011223Y024629D03*
X011223Y024668D03*
X011223Y024708D03*
X011223Y024747D03*
X011223Y024786D03*
X011223Y024826D03*
X011223Y024865D03*
X011223Y024904D03*
X011223Y024944D03*
X011223Y024983D03*
X011223Y025023D03*
X011223Y025062D03*
X011223Y025101D03*
X011223Y025141D03*
X011223Y025180D03*
X011223Y025219D03*
X011223Y025259D03*
X011223Y025298D03*
X011223Y025337D03*
X011223Y025377D03*
X011223Y025416D03*
X011223Y025456D03*
X011223Y025495D03*
X011223Y025534D03*
X011223Y025574D03*
X011223Y025613D03*
X011223Y025652D03*
X011223Y025692D03*
X011223Y025731D03*
X011223Y025771D03*
X011223Y025810D03*
X011223Y025849D03*
X011223Y025889D03*
X011223Y025928D03*
X011223Y025967D03*
X011223Y026007D03*
X011223Y026046D03*
X011223Y026086D03*
X011223Y026125D03*
X011223Y026164D03*
X011223Y026204D03*
X011223Y026243D03*
X011223Y026282D03*
X011223Y026322D03*
X026971Y021794D03*
X026971Y021755D03*
X026971Y021715D03*
X026971Y021676D03*
X026971Y021637D03*
X026971Y021597D03*
X026971Y021558D03*
X026971Y021519D03*
X026971Y021479D03*
X026971Y021440D03*
X026971Y021400D03*
X026971Y021361D03*
X026971Y021322D03*
X026971Y021282D03*
X026971Y021243D03*
X026971Y021204D03*
X026971Y021164D03*
X026971Y021125D03*
X026971Y021086D03*
X026971Y021046D03*
X026971Y021007D03*
X026971Y020967D03*
X026971Y020928D03*
X026971Y020889D03*
X026971Y020849D03*
X026971Y020810D03*
X026971Y020771D03*
X026971Y020731D03*
X026971Y020692D03*
D20*
X025889Y021834D03*
X025889Y021873D03*
X025889Y021912D03*
X025889Y021952D03*
X025889Y021991D03*
X025889Y022030D03*
X025889Y022070D03*
X025889Y022109D03*
X025889Y022149D03*
X025889Y022188D03*
X025889Y022227D03*
X025889Y022267D03*
X025889Y022306D03*
X025889Y022345D03*
X025889Y022385D03*
X025889Y022424D03*
X025889Y022463D03*
X025889Y022503D03*
X025889Y022542D03*
X025889Y022582D03*
X025889Y022621D03*
X025889Y022660D03*
X025889Y022700D03*
X025889Y022739D03*
X025889Y022778D03*
X025889Y022818D03*
X025889Y022857D03*
X025889Y022897D03*
X025889Y022936D03*
X025889Y022975D03*
X025889Y023015D03*
X025889Y023054D03*
X025889Y023093D03*
X025889Y023133D03*
X025889Y023172D03*
X025889Y023211D03*
X025889Y023251D03*
X025889Y023290D03*
X025889Y023330D03*
X025889Y023369D03*
X025889Y023408D03*
X025889Y023448D03*
X025889Y023487D03*
X025889Y023526D03*
X025889Y023566D03*
X025889Y023605D03*
X025889Y023645D03*
X025889Y023684D03*
X025889Y023723D03*
X025889Y023763D03*
X025889Y023802D03*
X025889Y023841D03*
X025889Y023881D03*
X025889Y023920D03*
X025889Y023960D03*
X025889Y023999D03*
X025889Y024038D03*
X025889Y024078D03*
X025889Y024117D03*
X025889Y024156D03*
X025889Y024196D03*
X025889Y024235D03*
X025889Y024274D03*
X025889Y024314D03*
X025889Y024353D03*
X025889Y024393D03*
X025889Y024432D03*
X025889Y024471D03*
X025889Y024511D03*
X025889Y024550D03*
X025889Y024589D03*
X025889Y024629D03*
X025889Y024668D03*
X025889Y024708D03*
X025889Y024747D03*
X025889Y024786D03*
X025889Y024826D03*
X025889Y024865D03*
X025889Y024904D03*
X025889Y024944D03*
X025889Y024983D03*
X025889Y025023D03*
X025889Y025062D03*
X025889Y025101D03*
X025889Y025141D03*
X021361Y025141D03*
X021361Y025101D03*
X021361Y025062D03*
X021361Y025023D03*
X021361Y024983D03*
X021361Y024944D03*
X021361Y024904D03*
X021361Y024865D03*
X021361Y024826D03*
X021361Y024786D03*
X021361Y024747D03*
X021361Y024708D03*
X021361Y024668D03*
X021361Y024629D03*
X021361Y024589D03*
X021361Y024550D03*
X021361Y024511D03*
X021361Y024471D03*
X021361Y024432D03*
X021361Y024393D03*
X021361Y024353D03*
X021361Y024314D03*
X021361Y024274D03*
X021361Y024235D03*
X021361Y024196D03*
X021361Y020731D03*
X021361Y020692D03*
X021361Y020652D03*
X021361Y020613D03*
X021361Y020574D03*
X021361Y020534D03*
X021361Y020495D03*
X021361Y020456D03*
X021361Y020416D03*
X021361Y020377D03*
X021361Y020337D03*
X021361Y020298D03*
X021361Y020259D03*
X021361Y020219D03*
X021361Y020180D03*
X021361Y020141D03*
X021361Y020101D03*
X021361Y020062D03*
X021361Y020023D03*
X021361Y019983D03*
X021361Y019944D03*
X021361Y019904D03*
X021361Y019865D03*
X021361Y019826D03*
X021361Y019786D03*
X021361Y019747D03*
X021361Y019708D03*
X021361Y019668D03*
X021361Y017463D03*
X021361Y017424D03*
X021361Y017385D03*
X021361Y017345D03*
X021361Y017306D03*
X021361Y017267D03*
X021361Y017227D03*
X021361Y017188D03*
X021361Y017149D03*
X021361Y017109D03*
X021361Y017070D03*
X021361Y017030D03*
X021361Y016991D03*
X021361Y016952D03*
X021361Y016912D03*
X021361Y016873D03*
X021361Y016834D03*
X021361Y016794D03*
X021361Y016755D03*
X021361Y016715D03*
X021361Y016676D03*
X021361Y016637D03*
X021361Y016597D03*
X021361Y016558D03*
X021361Y016519D03*
X021361Y016479D03*
X021361Y016440D03*
X021361Y016400D03*
X021361Y016361D03*
X021361Y016322D03*
X018015Y016322D03*
X018015Y016361D03*
X018015Y016400D03*
X018015Y016440D03*
X018015Y016479D03*
X018015Y016519D03*
X018015Y016558D03*
X018015Y016597D03*
X018015Y016637D03*
X018015Y016676D03*
X018015Y016715D03*
X018015Y016755D03*
X018015Y016794D03*
X018015Y016834D03*
X018015Y016873D03*
X018015Y016912D03*
X018015Y016952D03*
X018015Y016991D03*
X018015Y017030D03*
X018015Y017070D03*
X018015Y017109D03*
X018015Y017149D03*
X018015Y017188D03*
X018015Y017227D03*
X018015Y017267D03*
X018015Y017306D03*
X018015Y017345D03*
X018015Y017385D03*
X018015Y017424D03*
X018015Y017463D03*
X016834Y012936D03*
X016834Y012897D03*
X016834Y012857D03*
X016834Y012818D03*
X016834Y012778D03*
X021361Y011558D03*
X021361Y011519D03*
X021361Y011479D03*
X021361Y011440D03*
X021361Y011400D03*
X021361Y011361D03*
X021361Y011322D03*
X021361Y011282D03*
X021361Y011243D03*
X021361Y011204D03*
X021361Y011164D03*
X021361Y011125D03*
X021361Y011086D03*
X021361Y011046D03*
X021361Y011007D03*
X021361Y010967D03*
X021361Y010928D03*
X021361Y010889D03*
X021361Y010849D03*
X021361Y010810D03*
X021361Y010771D03*
X021361Y010731D03*
X021361Y010692D03*
X021361Y010652D03*
X021361Y010613D03*
X024708Y010613D03*
X024708Y010652D03*
X024708Y010692D03*
X024708Y010731D03*
X024708Y010771D03*
X024708Y010810D03*
X024708Y010849D03*
X024708Y010889D03*
X024708Y010928D03*
X024708Y010967D03*
X024708Y011007D03*
X024708Y011046D03*
X024708Y011086D03*
X024708Y011125D03*
X024708Y011164D03*
X024708Y011204D03*
X024708Y011243D03*
X024708Y011282D03*
X024708Y011322D03*
X024708Y011361D03*
X024708Y011400D03*
X024708Y011440D03*
X024708Y011479D03*
X024708Y011519D03*
X024708Y011558D03*
X025889Y015141D03*
X025889Y015180D03*
X025889Y015219D03*
X025889Y015259D03*
X025889Y015298D03*
X025889Y015337D03*
X025889Y015377D03*
X025889Y015416D03*
X025889Y015456D03*
X025889Y015495D03*
X025889Y015534D03*
X025889Y015574D03*
X025889Y015613D03*
X025889Y015652D03*
X025889Y015692D03*
X025889Y015731D03*
X025889Y015771D03*
X025889Y015810D03*
X025889Y015849D03*
X025889Y015889D03*
X025889Y015928D03*
X025889Y015967D03*
X025889Y016007D03*
X025889Y016046D03*
X025889Y016086D03*
X025889Y016125D03*
X025889Y016164D03*
X025889Y016204D03*
X025889Y016243D03*
X025889Y016282D03*
X032582Y011558D03*
X032582Y011519D03*
X032582Y011479D03*
X032582Y011440D03*
X032582Y011400D03*
X032582Y011361D03*
X032582Y011322D03*
X032582Y011282D03*
X032582Y011243D03*
X032582Y011204D03*
X032582Y011164D03*
X032582Y011125D03*
X032582Y011086D03*
X032582Y011046D03*
X032582Y011007D03*
X032582Y010967D03*
X032582Y010928D03*
X032582Y010889D03*
X032582Y010849D03*
X032582Y010810D03*
X032582Y010771D03*
X032582Y010731D03*
X032582Y010692D03*
X032582Y010652D03*
X032582Y010613D03*
X040456Y012778D03*
X040456Y012818D03*
X040456Y012857D03*
X040456Y012897D03*
X040456Y012936D03*
X040456Y012975D03*
X040456Y013015D03*
X040456Y013054D03*
X040456Y013093D03*
X040456Y013133D03*
X040456Y013172D03*
X040456Y013211D03*
X040456Y013251D03*
X040456Y013290D03*
X040456Y013330D03*
X040456Y013369D03*
X040456Y013408D03*
X040456Y013448D03*
X040456Y013487D03*
X040456Y013526D03*
X040456Y013566D03*
X040456Y013605D03*
X040456Y013645D03*
X040456Y013684D03*
X040456Y013723D03*
X040456Y013763D03*
X040456Y013802D03*
X040456Y013841D03*
X040456Y013881D03*
X040456Y013920D03*
X043802Y019471D03*
X043802Y019511D03*
X043802Y019550D03*
X043802Y019589D03*
X043802Y019629D03*
X043802Y019668D03*
X043802Y019708D03*
X043802Y019747D03*
X043802Y019786D03*
X043802Y019826D03*
X043802Y019865D03*
X043802Y019904D03*
X043802Y019944D03*
X043802Y019983D03*
X043802Y020023D03*
X043802Y020062D03*
X043802Y020101D03*
X043802Y020141D03*
X043802Y020180D03*
X043802Y020219D03*
X043802Y020259D03*
X043802Y020298D03*
X043802Y020337D03*
X043802Y020377D03*
X043802Y020416D03*
X043802Y020456D03*
X043802Y020495D03*
X043802Y020534D03*
X043802Y020574D03*
X043802Y020613D03*
X013487Y020613D03*
X013487Y020574D03*
X013487Y020534D03*
X013487Y020495D03*
X013487Y020456D03*
X013487Y020416D03*
X013487Y020377D03*
X013487Y020337D03*
X013487Y020298D03*
X013487Y020259D03*
X013487Y020219D03*
X013487Y020180D03*
X013487Y020141D03*
X013487Y020101D03*
X013487Y020062D03*
X013487Y020023D03*
X013487Y019983D03*
X013487Y019944D03*
X013487Y019904D03*
X013487Y019865D03*
X013487Y019826D03*
X013487Y019786D03*
X013487Y020652D03*
X013487Y020692D03*
X013487Y020731D03*
X010141Y020731D03*
X010141Y020692D03*
X010141Y020652D03*
X010141Y020613D03*
X010141Y020574D03*
X010141Y020534D03*
X010141Y020495D03*
X010141Y020456D03*
X010141Y020416D03*
X010141Y020377D03*
X010141Y020337D03*
X010141Y020298D03*
X010141Y020259D03*
X010141Y020219D03*
X010141Y020180D03*
X010141Y020141D03*
X010141Y020101D03*
X010141Y020062D03*
X010141Y020023D03*
X010141Y019983D03*
X010141Y019944D03*
X010141Y019904D03*
X010141Y019865D03*
X010141Y019826D03*
X010141Y019786D03*
X010141Y019747D03*
X010141Y019708D03*
X010141Y019668D03*
X010141Y019629D03*
X010141Y019589D03*
X010141Y019550D03*
X010141Y019511D03*
X010141Y019471D03*
X010141Y019432D03*
X010141Y019393D03*
X010141Y019353D03*
X010141Y019314D03*
X010141Y019274D03*
X010141Y019235D03*
X010141Y019196D03*
X010141Y019156D03*
X010141Y019117D03*
X010141Y019078D03*
X010141Y019038D03*
X010141Y018999D03*
X010141Y018960D03*
X010141Y018920D03*
X010141Y018881D03*
X010141Y018841D03*
X010141Y018802D03*
X010141Y018763D03*
X010141Y018723D03*
X010141Y018684D03*
X010141Y018645D03*
X010141Y018605D03*
X010141Y018566D03*
X010141Y018526D03*
X010141Y018487D03*
X010141Y018448D03*
X010141Y018408D03*
X010141Y018369D03*
X010141Y018330D03*
X010141Y018290D03*
X010141Y018251D03*
X010141Y018211D03*
X010141Y018172D03*
X010141Y018133D03*
X010141Y018093D03*
X010141Y018054D03*
X010141Y018015D03*
X010141Y017975D03*
X010141Y017936D03*
X010141Y017897D03*
X010141Y017857D03*
X010141Y017818D03*
X010141Y017778D03*
X010141Y017739D03*
X010141Y017700D03*
X010141Y017660D03*
X010141Y017621D03*
X010141Y017582D03*
X010141Y017542D03*
X010141Y017503D03*
X010141Y017463D03*
X010141Y017424D03*
X010141Y017385D03*
X010141Y017345D03*
X010141Y017306D03*
X010141Y017267D03*
X010141Y017227D03*
X010141Y017188D03*
X010141Y017149D03*
X010141Y017109D03*
X010141Y017070D03*
X010141Y017030D03*
X010141Y016991D03*
X010141Y016952D03*
X010141Y016912D03*
X010141Y016873D03*
X010141Y016834D03*
X010141Y016794D03*
X010141Y016755D03*
X010141Y016715D03*
X010141Y016676D03*
X010141Y016637D03*
X010141Y016597D03*
X010141Y016558D03*
X010141Y016519D03*
X010141Y016479D03*
X010141Y016440D03*
X010141Y016400D03*
X010141Y016361D03*
X010141Y016322D03*
X010141Y020771D03*
X010141Y020810D03*
X010141Y020849D03*
X010141Y020889D03*
X010141Y020928D03*
X010141Y020967D03*
X010141Y021007D03*
X010141Y021046D03*
X010141Y021086D03*
X010141Y021125D03*
X010141Y021164D03*
X010141Y021204D03*
X010141Y021243D03*
X010141Y021282D03*
X010141Y021322D03*
X010141Y021361D03*
X010141Y021400D03*
X010141Y021440D03*
X010141Y021479D03*
X010141Y021519D03*
X010141Y021558D03*
X010141Y021597D03*
X010141Y021637D03*
X010141Y021676D03*
X010141Y021715D03*
X010141Y021755D03*
X010141Y021794D03*
D21*
X027463Y012739D03*
X027463Y012700D03*
X027463Y012660D03*
X027463Y012621D03*
X027463Y012582D03*
X027463Y012542D03*
X027463Y012503D03*
X027463Y012463D03*
X027463Y012424D03*
X027463Y012385D03*
X027463Y012345D03*
X027463Y012306D03*
X027463Y012267D03*
X027463Y012227D03*
X027463Y012188D03*
X027463Y012149D03*
X027463Y012109D03*
X027463Y012070D03*
X027463Y012030D03*
X027463Y011991D03*
X027463Y011952D03*
X027463Y011912D03*
X027463Y011873D03*
X027463Y011834D03*
X027463Y011794D03*
X027463Y011755D03*
X027463Y011715D03*
X027463Y011676D03*
X027463Y011637D03*
X027463Y011597D03*
D22*
X021952Y018487D03*
X021952Y018526D03*
X021952Y018566D03*
X021952Y018605D03*
X021952Y018645D03*
X021952Y018684D03*
X021952Y018723D03*
X021952Y018763D03*
X021952Y018802D03*
X021952Y018841D03*
X021952Y018881D03*
X021952Y018920D03*
X021952Y018960D03*
X021952Y018999D03*
X021952Y019038D03*
X021952Y019078D03*
X021952Y019117D03*
X021952Y019156D03*
X021952Y019196D03*
X021952Y019235D03*
X021952Y019274D03*
X021952Y019314D03*
X021952Y019353D03*
X021952Y019393D03*
X021952Y019432D03*
X021952Y019471D03*
X021952Y019511D03*
X021952Y019550D03*
X021952Y019589D03*
X021952Y019629D03*
X021952Y020771D03*
X021952Y020810D03*
X016243Y024196D03*
X016243Y024235D03*
X016243Y024274D03*
X016243Y024314D03*
X016243Y024353D03*
X016243Y024393D03*
X016243Y024432D03*
X016243Y024471D03*
X016243Y024511D03*
X016243Y024550D03*
X016243Y024589D03*
X016243Y024629D03*
X016243Y024668D03*
X016243Y024708D03*
X016243Y024747D03*
X016243Y024786D03*
X016243Y024826D03*
X016243Y024865D03*
X016243Y024904D03*
X016243Y024944D03*
X016243Y024983D03*
X016243Y025023D03*
X016243Y025062D03*
X016243Y025101D03*
X016243Y025141D03*
X012897Y026361D03*
X012897Y026400D03*
X012897Y026440D03*
X012897Y026479D03*
X012897Y026519D03*
X012897Y026558D03*
X012897Y026597D03*
X012897Y026637D03*
X012897Y026676D03*
X012897Y026715D03*
X012897Y026755D03*
X012897Y026794D03*
X012897Y026834D03*
X012897Y026873D03*
X012897Y026912D03*
X012897Y026952D03*
X012897Y026991D03*
X012897Y027030D03*
X012897Y027070D03*
X012897Y027109D03*
X012897Y027149D03*
X012897Y027188D03*
X012897Y027227D03*
X012897Y027267D03*
X012897Y027306D03*
X012897Y027345D03*
X012897Y027385D03*
X012897Y027424D03*
X012897Y027463D03*
X012897Y027503D03*
X014078Y020810D03*
X014078Y020771D03*
X014078Y019747D03*
X014078Y019708D03*
X014078Y019668D03*
X014078Y019629D03*
X014078Y019589D03*
X014078Y019550D03*
X014078Y019511D03*
X014078Y019471D03*
X014078Y019432D03*
X014078Y019393D03*
X014078Y019353D03*
X014078Y019314D03*
X014078Y019274D03*
X014078Y019235D03*
X014078Y019196D03*
X014078Y019156D03*
X014078Y019117D03*
X014078Y019078D03*
X014078Y019038D03*
X014078Y018999D03*
X014078Y018960D03*
X014078Y018920D03*
X014078Y018881D03*
X014078Y018841D03*
X014078Y018802D03*
X014078Y018763D03*
X014078Y018723D03*
X014078Y018684D03*
X014078Y018645D03*
X014078Y018605D03*
X014078Y018566D03*
X014078Y018526D03*
X014078Y018487D03*
X037700Y013920D03*
X037700Y013881D03*
X037700Y013841D03*
X037700Y013802D03*
X037700Y013763D03*
X037700Y013723D03*
X037700Y013684D03*
X037700Y013645D03*
X037700Y013605D03*
X037700Y013566D03*
X037700Y013526D03*
X037700Y013487D03*
X037700Y013448D03*
X037700Y013408D03*
X037700Y013369D03*
X037700Y013330D03*
X037700Y013290D03*
X037700Y013251D03*
X037700Y013211D03*
X037700Y013172D03*
X037700Y013133D03*
X037700Y013093D03*
X037700Y013054D03*
X037700Y013015D03*
X037700Y012975D03*
X037700Y012936D03*
X037700Y012897D03*
X037700Y012857D03*
X037700Y012818D03*
X037700Y012778D03*
X043211Y022818D03*
X043211Y022857D03*
X043211Y022897D03*
X043211Y022936D03*
X043211Y022975D03*
X043211Y023015D03*
X043211Y023054D03*
X043211Y023093D03*
X043211Y023133D03*
X043211Y023172D03*
X043211Y023211D03*
X043211Y023251D03*
X043211Y023290D03*
X043211Y023330D03*
X043211Y023369D03*
X043211Y023408D03*
X043211Y023448D03*
X043211Y023487D03*
X043211Y023526D03*
X043211Y023566D03*
X043211Y023605D03*
X043211Y023645D03*
X043211Y023684D03*
X043211Y023723D03*
X043211Y023763D03*
X043211Y023802D03*
X043211Y023841D03*
X043211Y023881D03*
X043211Y023920D03*
X043211Y023960D03*
D23*
X018605Y013920D03*
X018605Y013881D03*
X018605Y013841D03*
X018605Y013802D03*
X018605Y013763D03*
X018605Y013723D03*
X018605Y013684D03*
X018605Y013645D03*
X018605Y013605D03*
X018605Y013566D03*
X018605Y013526D03*
X018605Y013487D03*
X018605Y013448D03*
X018605Y013408D03*
X018605Y013369D03*
X018605Y013330D03*
X018605Y013290D03*
X018605Y013251D03*
X018605Y013211D03*
X018605Y013172D03*
X018605Y013133D03*
X018605Y013093D03*
X018605Y013054D03*
X018605Y013015D03*
X018605Y012975D03*
D24*
X024215Y026361D03*
X024215Y026400D03*
X024215Y026440D03*
X024215Y026479D03*
X024215Y026519D03*
X024215Y026558D03*
X024215Y026597D03*
X024215Y026637D03*
X024215Y026676D03*
X024215Y026715D03*
X024215Y026755D03*
X024215Y026794D03*
X024215Y026834D03*
X024215Y026873D03*
X024215Y026912D03*
X024215Y026952D03*
X024215Y026991D03*
X024215Y027030D03*
X024215Y027070D03*
X024215Y027109D03*
X024215Y027149D03*
X024215Y027188D03*
X024215Y027227D03*
X024215Y027267D03*
X024215Y027306D03*
X024215Y027345D03*
X024215Y027385D03*
X024215Y027424D03*
X024215Y027463D03*
X024215Y027503D03*
X038782Y015101D03*
X038782Y015062D03*
X038782Y015023D03*
X038782Y014983D03*
X038782Y014944D03*
X038782Y014904D03*
X038782Y014865D03*
X038782Y014826D03*
X038782Y014786D03*
X038782Y014747D03*
X038782Y014708D03*
X038782Y014668D03*
X038782Y014629D03*
X038782Y014589D03*
X038782Y014550D03*
X038782Y014511D03*
X038782Y014471D03*
X038782Y014432D03*
X038782Y014393D03*
X038782Y014353D03*
X038782Y014314D03*
X038782Y014274D03*
X038782Y014235D03*
X038782Y014196D03*
X038782Y014156D03*
X038782Y014117D03*
X038782Y014078D03*
X038782Y014038D03*
X038782Y013999D03*
X038782Y013960D03*
X042129Y018290D03*
X042129Y018330D03*
X042129Y018369D03*
X042129Y018408D03*
X042129Y018448D03*
X042129Y018487D03*
X042129Y018526D03*
X042129Y018566D03*
X042129Y018605D03*
X042129Y018645D03*
X042129Y018684D03*
X042129Y018723D03*
X042129Y018763D03*
X042129Y018802D03*
X042129Y018841D03*
X042129Y018881D03*
X042129Y018920D03*
X042129Y018960D03*
X042129Y018999D03*
X042129Y019038D03*
X042129Y019078D03*
X042129Y019117D03*
X042129Y019156D03*
X042129Y019196D03*
X042129Y019235D03*
X042129Y019274D03*
X042129Y019314D03*
X042129Y019353D03*
X042129Y019393D03*
X042129Y019432D03*
D25*
X017916Y016282D03*
X017916Y016243D03*
X017916Y016204D03*
X017916Y016164D03*
X017916Y016125D03*
X017916Y016086D03*
X017916Y016046D03*
X017916Y016007D03*
X017916Y015967D03*
X017916Y015928D03*
X017916Y015889D03*
X017916Y015849D03*
X017916Y015810D03*
X017916Y015771D03*
X017916Y015731D03*
X017916Y015692D03*
X017916Y015652D03*
X017916Y015613D03*
X017916Y015574D03*
X017916Y015534D03*
X017916Y015495D03*
X017916Y015456D03*
X017916Y015416D03*
X017916Y015377D03*
X017916Y015337D03*
X017916Y015298D03*
X017916Y015259D03*
X017916Y015219D03*
X017916Y015180D03*
X017916Y015141D03*
D26*
X015101Y019786D03*
X015101Y019826D03*
X015101Y019865D03*
X015101Y019904D03*
X015101Y019944D03*
X015101Y019983D03*
X015101Y020023D03*
X015101Y020062D03*
X015101Y020101D03*
X015101Y020141D03*
X015101Y020180D03*
X015101Y020219D03*
X015101Y020259D03*
X015101Y020298D03*
X015101Y020337D03*
X015101Y020377D03*
X015101Y020416D03*
X015101Y020456D03*
X015101Y020495D03*
X015101Y020534D03*
X015101Y020574D03*
X015101Y020613D03*
X015101Y020652D03*
X015101Y020692D03*
X015101Y020731D03*
X022975Y020731D03*
X022975Y020692D03*
X022975Y020652D03*
X022975Y020613D03*
X022975Y020574D03*
X022975Y020534D03*
X022975Y020495D03*
X022975Y020456D03*
X022975Y020416D03*
X022975Y020377D03*
X022975Y020337D03*
X022975Y020298D03*
X022975Y020259D03*
X022975Y020219D03*
X022975Y020180D03*
X022975Y020141D03*
X022975Y020101D03*
X022975Y020062D03*
X022975Y020023D03*
X022975Y019983D03*
X022975Y019944D03*
X022975Y019904D03*
X022975Y019865D03*
X022975Y019826D03*
X022975Y019786D03*
X022975Y019747D03*
X022975Y019708D03*
X022975Y019668D03*
D27*
X039865Y020652D03*
X039865Y020692D03*
X039865Y020731D03*
X039865Y020771D03*
X039865Y020810D03*
X039865Y020849D03*
X039865Y020889D03*
X039865Y020928D03*
X039865Y020967D03*
X039865Y021007D03*
X039865Y021046D03*
X039865Y021086D03*
X039865Y021125D03*
X039865Y021164D03*
X039865Y021204D03*
X039865Y021243D03*
X039865Y021282D03*
X039865Y021322D03*
X039865Y021361D03*
X039865Y021400D03*
X039865Y021440D03*
X039865Y021479D03*
X039865Y021519D03*
X039865Y021558D03*
X039865Y021597D03*
X039865Y021637D03*
X039865Y021676D03*
X039865Y021715D03*
X039865Y021755D03*
X039865Y021794D03*
D28*
X018625Y023015D03*
X018625Y023054D03*
X018625Y023093D03*
X018625Y023133D03*
X018625Y023172D03*
X018625Y023211D03*
X018625Y023251D03*
X018625Y023290D03*
X018625Y023330D03*
X018625Y023369D03*
X018625Y023408D03*
X018625Y023448D03*
X018625Y023487D03*
X018625Y023526D03*
X018625Y023566D03*
X018625Y023605D03*
X018625Y023645D03*
X018625Y023684D03*
X018625Y023723D03*
X018625Y023763D03*
X018625Y023802D03*
X018625Y023841D03*
X018625Y023881D03*
X018625Y023920D03*
X018625Y023960D03*
X018625Y023999D03*
X018625Y024038D03*
X018625Y024078D03*
X018625Y024117D03*
X018625Y024156D03*
D29*
X037129Y024196D03*
X037129Y024235D03*
X037129Y024274D03*
X037129Y024314D03*
X037129Y024353D03*
X037129Y024393D03*
X037129Y024432D03*
X037129Y024471D03*
X037129Y024511D03*
X037129Y024550D03*
X037129Y024589D03*
X037129Y024629D03*
X037129Y024668D03*
X037129Y024708D03*
X037129Y024747D03*
X037129Y024786D03*
X037129Y024826D03*
X037129Y024865D03*
X037129Y024904D03*
X037129Y024944D03*
X037129Y024983D03*
X037129Y025023D03*
X037129Y025062D03*
X037129Y025101D03*
X037129Y025141D03*
D30*
X025889Y025180D03*
X025889Y025219D03*
X025889Y025259D03*
X025889Y025298D03*
X025889Y025337D03*
D31*
X014589Y025377D03*
X014589Y025416D03*
X014589Y025456D03*
X014589Y025495D03*
X014589Y025534D03*
X014589Y025574D03*
X014589Y025613D03*
X014589Y025652D03*
X014589Y025692D03*
X014589Y025731D03*
X014589Y025771D03*
X014589Y025810D03*
X014589Y025849D03*
X014589Y025889D03*
X014589Y025928D03*
X014589Y025967D03*
X014589Y026007D03*
X014589Y026046D03*
X014589Y026086D03*
X014589Y026125D03*
X014589Y026164D03*
X014589Y026204D03*
X014589Y026243D03*
X014589Y026282D03*
X014589Y026322D03*
D32*
X026971Y026322D03*
X026971Y026282D03*
X026971Y026243D03*
X026971Y026204D03*
X026971Y026164D03*
X026971Y026125D03*
X026971Y026086D03*
X026971Y026046D03*
X026971Y026007D03*
X026971Y025967D03*
X026971Y025928D03*
X026971Y025889D03*
X026971Y025849D03*
X026971Y025810D03*
X026971Y025771D03*
X026971Y025731D03*
X026971Y025692D03*
X026971Y025652D03*
X026971Y025613D03*
X026971Y025574D03*
X026971Y025534D03*
X026971Y025495D03*
X026971Y025456D03*
X026971Y025416D03*
X026971Y025377D03*
D33*
X031950Y012343D02*
X031950Y011903D01*
X032097Y011903D02*
X031803Y011903D01*
X032097Y012196D02*
X031950Y012343D01*
X032264Y012196D02*
X032410Y011903D01*
X032557Y012196D01*
X032724Y011830D02*
X033018Y011830D01*
X033478Y011903D02*
X033478Y011976D01*
X033184Y012270D01*
X033184Y012343D01*
X033478Y012343D01*
X033645Y012270D02*
X033645Y012196D01*
X033718Y012123D01*
X033645Y012050D01*
X033645Y011976D01*
X033718Y011903D01*
X033865Y011903D01*
X033938Y011976D01*
X034105Y011976D02*
X034179Y011903D01*
X034325Y011903D01*
X034399Y011976D01*
X034105Y012270D01*
X034105Y011976D01*
X034399Y011976D02*
X034399Y012270D01*
X034325Y012343D01*
X034179Y012343D01*
X034105Y012270D01*
X033938Y012270D02*
X033865Y012343D01*
X033718Y012343D01*
X033645Y012270D01*
X033718Y012123D02*
X033792Y012123D01*
X034566Y012050D02*
X034639Y012123D01*
X034859Y012123D01*
X034859Y011976D01*
X034786Y011903D01*
X034639Y011903D01*
X034566Y011976D01*
X034566Y012050D01*
X034712Y012270D02*
X034566Y012343D01*
X034712Y012270D02*
X034859Y012123D01*
X035026Y012123D02*
X035099Y012050D01*
X035320Y012050D01*
X035320Y011903D02*
X035320Y012343D01*
X035099Y012343D01*
X035026Y012270D01*
X035026Y012123D01*
X035486Y011976D02*
X035486Y012270D01*
X035560Y012343D01*
X035780Y012343D01*
X035780Y011903D01*
X035560Y011903D01*
X035486Y011976D01*
M02*
