G75*
%MOIN*%
%OFA0B0*%
%FSLAX24Y24*%
%IPPOS*%
%LPD*%
%AMOC8*
5,1,8,0,0,1.08239X$1,22.5*
%
%ADD10R,0.0472X0.0472*%
%ADD11R,0.0640X0.0640*%
%ADD12OC8,0.0640*%
%ADD13C,0.0400*%
%ADD14C,0.0450*%
%ADD15C,0.0120*%
%ADD16C,0.0240*%
%ADD17C,0.0320*%
%ADD18C,0.0500*%
%ADD19C,0.0160*%
D10*
X020633Y025574D03*
X021460Y025574D03*
X024570Y025574D03*
X025397Y025574D03*
X028507Y025574D03*
X029334Y025574D03*
X032444Y025574D03*
X033271Y025574D03*
D11*
X035916Y017274D03*
X024952Y013369D03*
D12*
X025952Y013369D03*
X026952Y013369D03*
X027952Y013369D03*
X028952Y013369D03*
X034916Y017274D03*
X034916Y018274D03*
X035916Y018274D03*
X035916Y019274D03*
X034916Y019274D03*
X034916Y020274D03*
X035916Y020274D03*
X035916Y021274D03*
X034916Y021274D03*
D13*
X033119Y019786D03*
X032347Y019658D03*
X033466Y018658D03*
X034170Y019274D03*
X033660Y017208D03*
X032891Y016558D03*
X033391Y016058D03*
X033791Y015558D03*
X032678Y014908D03*
X032378Y014058D03*
X031141Y012991D03*
X030578Y014058D03*
X030478Y014558D03*
X029733Y014497D03*
X029178Y016100D03*
X029721Y016515D03*
X030278Y016867D03*
X030468Y017758D03*
X027728Y017758D03*
X027678Y018958D03*
X026228Y018058D03*
X027878Y016258D03*
X028028Y015708D03*
X024266Y015741D03*
X023641Y015679D03*
X022128Y016008D03*
X021078Y015758D03*
X020478Y015958D03*
X021328Y017058D03*
X021328Y017908D03*
X021228Y018558D03*
X022528Y017958D03*
X022428Y019458D03*
X020758Y020658D03*
X019391Y021241D03*
X018578Y022616D03*
X020978Y023583D03*
X022141Y024991D03*
X023999Y024904D03*
X023999Y025574D03*
X024466Y023595D03*
X023278Y022658D03*
X024466Y022283D03*
X025478Y021158D03*
X025778Y022283D03*
X024678Y019908D03*
X024228Y018458D03*
X022291Y021658D03*
X019268Y018168D03*
X018468Y016528D03*
X017109Y017700D03*
X017109Y019078D03*
X015534Y015141D03*
X018290Y012385D03*
X020456Y013960D03*
X021834Y013960D03*
X028328Y021616D03*
X030489Y021223D03*
X029516Y023679D03*
X027391Y024741D03*
X027936Y025574D03*
X031873Y025574D03*
X031873Y024768D03*
X032641Y022991D03*
X034630Y023068D03*
X034241Y025574D03*
X035613Y026164D03*
X038369Y023408D03*
X037438Y022148D03*
X037418Y020795D03*
X037398Y018805D03*
X036798Y016538D03*
X036008Y015548D03*
X034178Y014158D03*
X034578Y013658D03*
X035613Y012385D03*
X038369Y015141D03*
X020062Y025574D03*
X018290Y026164D03*
X015534Y023408D03*
D14*
X025766Y014679D03*
X033160Y021658D03*
D15*
X012880Y013758D02*
X012880Y012880D01*
X014841Y012880D01*
X014947Y012774D01*
X014947Y009336D01*
X018622Y009336D01*
X018622Y010412D01*
X018727Y010517D01*
X019803Y010517D01*
X019803Y011396D01*
X019909Y011502D01*
X020648Y011502D01*
X020754Y011396D01*
X020754Y010517D01*
X021633Y010517D01*
X021738Y010412D01*
X021738Y009336D01*
X025315Y009336D01*
X025315Y011396D01*
X025420Y011502D01*
X031869Y011502D01*
X031974Y011396D01*
X031974Y010517D01*
X032853Y010517D01*
X032958Y010412D01*
X032958Y009336D01*
X036732Y009336D01*
X036732Y011396D01*
X036832Y011496D01*
X035932Y011496D01*
X035827Y011602D01*
X035827Y013184D01*
X035822Y013189D01*
X035827Y013257D01*
X035827Y013325D01*
X035832Y013331D01*
X035835Y013372D01*
X035827Y013384D01*
X035840Y013445D01*
X035845Y013506D01*
X035856Y013516D01*
X035866Y013563D01*
X035860Y013577D01*
X035881Y013634D01*
X035895Y013695D01*
X035907Y013703D01*
X035924Y013748D01*
X035920Y013762D01*
X035949Y013816D01*
X035971Y013874D01*
X035984Y013880D01*
X036008Y013923D01*
X036005Y013938D01*
X036042Y013987D01*
X036072Y014041D01*
X036086Y014045D01*
X036115Y014084D01*
X036115Y014099D01*
X036159Y014142D01*
X036196Y014192D01*
X036210Y014194D01*
X036245Y014228D01*
X036247Y014243D01*
X036296Y014280D01*
X036340Y014323D01*
X036355Y014323D01*
X036393Y014353D01*
X036398Y014367D01*
X036452Y014396D01*
X036501Y014433D01*
X036516Y014431D01*
X036558Y014455D01*
X036564Y014468D01*
X036622Y014489D01*
X036676Y014519D01*
X036690Y014515D01*
X036736Y014532D01*
X036744Y014544D01*
X036804Y014557D01*
X036862Y014579D01*
X036875Y014573D01*
X036923Y014583D01*
X036933Y014594D01*
X036994Y014599D01*
X037054Y014612D01*
X037067Y014604D01*
X037108Y014607D01*
X037113Y014612D01*
X037181Y014612D01*
X037249Y014617D01*
X037255Y014612D01*
X038837Y014612D01*
X038943Y014507D01*
X038943Y013319D01*
X038947Y013313D01*
X038943Y013245D01*
X038943Y013176D01*
X038938Y013171D01*
X038933Y013095D01*
X038940Y013083D01*
X038928Y013022D01*
X038924Y012959D01*
X038914Y012950D01*
X038897Y012868D01*
X038903Y012856D01*
X038883Y012797D01*
X038871Y012735D01*
X038860Y012728D01*
X038833Y012648D01*
X038837Y012635D01*
X038809Y012579D01*
X038789Y012520D01*
X038777Y012514D01*
X038740Y012439D01*
X038743Y012425D01*
X038708Y012373D01*
X038680Y012317D01*
X038667Y012313D01*
X038621Y012243D01*
X038622Y012230D01*
X038580Y012182D01*
X038545Y012130D01*
X038532Y012128D01*
X038477Y012065D01*
X038476Y012051D01*
X038429Y012010D01*
X038388Y011963D01*
X038374Y011962D01*
X038311Y011906D01*
X038309Y011893D01*
X038256Y011858D01*
X038209Y011817D01*
X038196Y011818D01*
X038126Y011771D01*
X038122Y011759D01*
X038065Y011731D01*
X038013Y011696D01*
X038000Y011699D01*
X037925Y011662D01*
X037919Y011649D01*
X037860Y011629D01*
X037803Y011602D01*
X037791Y011606D01*
X037711Y011579D01*
X037704Y011568D01*
X037642Y011555D01*
X037583Y011535D01*
X037571Y011541D01*
X037488Y011525D01*
X037480Y011515D01*
X037417Y011511D01*
X037372Y011502D01*
X037381Y011502D01*
X037486Y011396D01*
X037486Y010517D01*
X038562Y010517D01*
X038667Y010412D01*
X038667Y009336D01*
X042244Y009336D01*
X042244Y012815D01*
X041168Y012815D01*
X041063Y012920D01*
X041063Y013996D01*
X040184Y013996D01*
X040079Y014102D01*
X040079Y015177D01*
X039003Y015177D01*
X038898Y015283D01*
X038898Y017105D01*
X039003Y017210D01*
X041063Y017210D01*
X041063Y018089D01*
X041168Y018195D01*
X043425Y018195D01*
X043425Y019270D01*
X043531Y019376D01*
X044409Y019376D01*
X044409Y020451D01*
X044515Y020557D01*
X045591Y020557D01*
X045591Y022953D01*
X044515Y022953D01*
X044409Y023058D01*
X044409Y024134D01*
X042014Y024134D01*
X042014Y022960D01*
X041908Y022854D01*
X040832Y022854D01*
X040832Y022074D01*
X040727Y021969D01*
X039003Y021969D01*
X038898Y022074D01*
X038898Y023367D01*
X038837Y023307D01*
X037255Y023307D01*
X037249Y023302D01*
X037181Y023307D01*
X037113Y023307D01*
X037108Y023312D01*
X037067Y023315D01*
X037054Y023307D01*
X036994Y023320D01*
X036933Y023325D01*
X036923Y023336D01*
X036875Y023346D01*
X036862Y023340D01*
X036804Y023362D01*
X036744Y023375D01*
X036736Y023387D01*
X036690Y023404D01*
X036676Y023400D01*
X036622Y023430D01*
X036564Y023451D01*
X036558Y023465D01*
X036516Y023488D01*
X036501Y023486D01*
X036452Y023523D01*
X036398Y023552D01*
X036393Y023566D01*
X036355Y023596D01*
X036340Y023596D01*
X036296Y023639D01*
X036247Y023676D01*
X036245Y023691D01*
X036210Y023725D01*
X036196Y023727D01*
X036159Y023777D01*
X036115Y023820D01*
X036115Y023835D01*
X036086Y023874D01*
X036072Y023878D01*
X036042Y023932D01*
X036005Y023981D01*
X036008Y023996D01*
X035984Y024039D01*
X035971Y024045D01*
X035949Y024103D01*
X035920Y024157D01*
X035924Y024171D01*
X035907Y024216D01*
X035895Y024224D01*
X035881Y024285D01*
X035860Y024342D01*
X035866Y024356D01*
X035856Y024403D01*
X035845Y024413D01*
X035840Y024474D01*
X035827Y024535D01*
X035835Y024547D01*
X035832Y024588D01*
X035827Y024594D01*
X035827Y024662D01*
X035822Y024730D01*
X035827Y024735D01*
X035827Y026318D01*
X035932Y026423D01*
X036732Y026423D01*
X036732Y026496D01*
X025617Y026496D01*
X025512Y026602D01*
X025512Y027677D01*
X022919Y027677D01*
X022919Y026602D01*
X022814Y026496D01*
X017210Y026496D01*
X017210Y026423D01*
X017971Y026423D01*
X018077Y026318D01*
X018077Y024735D01*
X018081Y024730D01*
X018077Y024662D01*
X018077Y024594D01*
X018071Y024588D01*
X018068Y024547D01*
X018076Y024535D01*
X018063Y024474D01*
X018059Y024413D01*
X018048Y024403D01*
X018037Y024356D01*
X018043Y024342D01*
X018022Y024285D01*
X018009Y024224D01*
X017996Y024216D01*
X017979Y024171D01*
X017984Y024157D01*
X017954Y024103D01*
X017932Y024045D01*
X017919Y024039D01*
X017896Y023996D01*
X017898Y023981D01*
X017861Y023932D01*
X017831Y023878D01*
X017817Y023874D01*
X017788Y023835D01*
X017788Y023820D01*
X017744Y023777D01*
X017707Y023727D01*
X017693Y023725D01*
X017659Y023691D01*
X017656Y023676D01*
X017607Y023639D01*
X017563Y023596D01*
X017549Y023596D01*
X017510Y023566D01*
X017506Y023552D01*
X017452Y023523D01*
X017402Y023486D01*
X017388Y023488D01*
X017345Y023465D01*
X017339Y023451D01*
X017281Y023430D01*
X017227Y023400D01*
X017213Y023404D01*
X017167Y023387D01*
X017159Y023375D01*
X017099Y023362D01*
X017041Y023340D01*
X017028Y023346D01*
X016980Y023336D01*
X016971Y023325D01*
X016909Y023320D01*
X016849Y023307D01*
X016837Y023315D01*
X016795Y023312D01*
X016790Y023307D01*
X016722Y023307D01*
X016654Y023302D01*
X016648Y023307D01*
X015066Y023307D01*
X014961Y023413D01*
X014961Y024600D01*
X014956Y024606D01*
X014961Y024674D01*
X014961Y024743D01*
X014965Y024748D01*
X014970Y024825D01*
X014963Y024836D01*
X014975Y024897D01*
X014979Y024960D01*
X014989Y024969D01*
X015006Y025051D01*
X015000Y025063D01*
X015020Y025122D01*
X015032Y025184D01*
X015043Y025191D01*
X015070Y025271D01*
X015066Y025284D01*
X015094Y025340D01*
X015114Y025399D01*
X015126Y025405D01*
X015163Y025480D01*
X015161Y025494D01*
X015195Y025546D01*
X015223Y025602D01*
X015236Y025606D01*
X015276Y025666D01*
X015276Y026496D01*
X014200Y026496D01*
X014094Y026602D01*
X014094Y027677D01*
X011699Y027677D01*
X011699Y026602D01*
X011593Y026496D01*
X010517Y026496D01*
X010517Y022074D01*
X010412Y021969D01*
X009632Y021969D01*
X009632Y016226D01*
X010412Y016226D01*
X010517Y016121D01*
X010517Y015045D01*
X011593Y015045D01*
X011699Y014940D01*
X011699Y013864D01*
X012774Y013864D01*
X012880Y013758D01*
X012880Y013742D02*
X014961Y013742D01*
X014961Y013624D02*
X012880Y013624D01*
X012880Y013505D02*
X014961Y013505D01*
X014961Y013387D02*
X012880Y013387D01*
X012880Y013268D02*
X014959Y013268D01*
X014961Y013245D02*
X014961Y013176D01*
X014965Y013171D01*
X014970Y013095D01*
X014963Y013083D01*
X014975Y013022D01*
X014979Y012959D01*
X014989Y012950D01*
X015006Y012868D01*
X015000Y012856D01*
X015020Y012797D01*
X015032Y012735D01*
X015043Y012728D01*
X015070Y012648D01*
X015066Y012635D01*
X015094Y012579D01*
X015114Y012520D01*
X015126Y012514D01*
X015163Y012439D01*
X015161Y012425D01*
X015195Y012373D01*
X015223Y012317D01*
X015236Y012313D01*
X015282Y012243D01*
X015282Y012230D01*
X015323Y012182D01*
X015358Y012130D01*
X015371Y012128D01*
X015426Y012065D01*
X015427Y012051D01*
X015474Y012010D01*
X015516Y011963D01*
X015529Y011962D01*
X015592Y011906D01*
X015595Y011893D01*
X015647Y011858D01*
X015694Y011817D01*
X015708Y011818D01*
X015777Y011771D01*
X015782Y011759D01*
X015838Y011731D01*
X015890Y011696D01*
X015903Y011699D01*
X015978Y011662D01*
X015984Y011649D01*
X016044Y011629D01*
X016100Y011602D01*
X016113Y011606D01*
X016192Y011579D01*
X016200Y011568D01*
X016261Y011555D01*
X016321Y011535D01*
X016333Y011541D01*
X016415Y011525D01*
X016424Y011515D01*
X016486Y011511D01*
X016548Y011498D01*
X016559Y011506D01*
X016636Y011501D01*
X016641Y011496D01*
X016710Y011496D01*
X016778Y011492D01*
X016783Y011496D01*
X017971Y011496D01*
X018077Y011602D01*
X018077Y013184D01*
X018081Y013189D01*
X018077Y013257D01*
X018077Y013325D01*
X018071Y013331D01*
X018068Y013372D01*
X018076Y013384D01*
X018063Y013445D01*
X018059Y013506D01*
X018048Y013516D01*
X018037Y013563D01*
X018043Y013577D01*
X018022Y013634D01*
X018009Y013695D01*
X017996Y013703D01*
X017979Y013748D01*
X017984Y013762D01*
X017954Y013816D01*
X017932Y013874D01*
X017919Y013880D01*
X017896Y013923D01*
X017898Y013938D01*
X017861Y013987D01*
X017831Y014041D01*
X017817Y014045D01*
X017788Y014084D01*
X017788Y014099D01*
X017744Y014142D01*
X017707Y014192D01*
X017693Y014194D01*
X017659Y014228D01*
X017656Y014243D01*
X017607Y014280D01*
X017563Y014323D01*
X017549Y014323D01*
X017510Y014353D01*
X017506Y014367D01*
X017452Y014396D01*
X017402Y014433D01*
X017388Y014431D01*
X017345Y014455D01*
X017339Y014468D01*
X017281Y014489D01*
X017227Y014519D01*
X017213Y014515D01*
X017167Y014532D01*
X017159Y014544D01*
X017099Y014557D01*
X017041Y014579D01*
X017028Y014573D01*
X016980Y014583D01*
X016971Y014594D01*
X016909Y014599D01*
X016849Y014612D01*
X016837Y014604D01*
X016795Y014607D01*
X016790Y014612D01*
X016722Y014612D01*
X016654Y014617D01*
X016648Y014612D01*
X015066Y014612D01*
X014961Y014507D01*
X014961Y013319D01*
X014956Y013313D01*
X014961Y013245D01*
X014967Y013150D02*
X012880Y013150D01*
X012880Y013031D02*
X014973Y013031D01*
X014997Y012913D02*
X012880Y012913D01*
X012778Y013861D02*
X014961Y013861D01*
X014961Y013979D02*
X011699Y013979D01*
X011699Y014098D02*
X014961Y014098D01*
X014961Y014216D02*
X011699Y014216D01*
X011699Y014335D02*
X014961Y014335D01*
X014961Y014453D02*
X011699Y014453D01*
X011699Y014572D02*
X015026Y014572D01*
X016643Y016112D02*
X010517Y016112D01*
X010517Y015994D02*
X016762Y015994D01*
X016880Y015875D02*
X010517Y015875D01*
X010517Y015757D02*
X016999Y015757D01*
X017117Y015638D02*
X010517Y015638D01*
X010517Y015520D02*
X017236Y015520D01*
X017354Y015401D02*
X010517Y015401D01*
X010517Y015283D02*
X017473Y015283D01*
X017591Y015164D02*
X010517Y015164D01*
X010517Y015046D02*
X017710Y015046D01*
X017828Y014927D02*
X011699Y014927D01*
X011699Y014809D02*
X017947Y014809D01*
X018065Y014690D02*
X011699Y014690D01*
X009632Y016231D02*
X016525Y016231D01*
X016406Y016349D02*
X009632Y016349D01*
X009632Y016468D02*
X016288Y016468D01*
X016291Y016465D02*
X018486Y014269D01*
X018611Y014218D01*
X025014Y014218D01*
X025554Y013678D01*
X025452Y013576D01*
X025452Y013162D01*
X025745Y012869D01*
X026159Y012869D01*
X026452Y013162D01*
X026452Y013576D01*
X026292Y013736D01*
X026292Y013828D01*
X026240Y013953D01*
X026144Y014049D01*
X025347Y014846D01*
X025343Y014848D01*
X030231Y014848D01*
X030156Y014773D01*
X030098Y014633D01*
X030098Y014482D01*
X030156Y014342D01*
X030247Y014251D01*
X030198Y014133D01*
X030198Y013982D01*
X030256Y013842D01*
X030363Y013735D01*
X030503Y013678D01*
X030654Y013678D01*
X030794Y013735D01*
X030876Y013818D01*
X032081Y013818D01*
X032163Y013735D01*
X032303Y013678D01*
X032419Y013678D01*
X033342Y012754D01*
X033431Y012718D01*
X034721Y012718D01*
X034809Y012754D01*
X035587Y013532D01*
X035623Y013620D01*
X035623Y016774D01*
X036311Y016774D01*
X036416Y016880D01*
X036416Y017669D01*
X036311Y017774D01*
X035623Y017774D01*
X035623Y017860D01*
X035709Y017774D01*
X036123Y017774D01*
X036416Y018067D01*
X036416Y018482D01*
X043425Y018482D01*
X043425Y018364D02*
X036416Y018364D01*
X036416Y018482D02*
X036123Y018774D01*
X035709Y018774D01*
X035623Y018689D01*
X035623Y018800D01*
X035623Y018847D01*
X035623Y018848D01*
X035623Y018849D01*
X035615Y018869D01*
X035709Y018774D01*
X036123Y018774D01*
X036416Y019067D01*
X036416Y019482D01*
X036123Y019774D01*
X035751Y019774D01*
X035751Y019774D01*
X036123Y019774D01*
X036416Y020067D01*
X036416Y020482D01*
X036123Y020774D01*
X035709Y020774D01*
X035416Y020482D01*
X035123Y020774D01*
X034896Y020774D01*
X034875Y020794D01*
X034876Y020794D01*
X034876Y021234D01*
X034956Y021234D01*
X034956Y020794D01*
X035115Y020794D01*
X035396Y021076D01*
X035396Y021234D01*
X034956Y021234D01*
X034956Y021314D01*
X035396Y021314D01*
X035396Y021473D01*
X035115Y021754D01*
X034956Y021754D01*
X034956Y021314D01*
X034876Y021314D01*
X034876Y021234D01*
X034436Y021234D01*
X034436Y021231D01*
X034193Y021473D01*
X034193Y022346D01*
X034141Y022471D01*
X033429Y023184D01*
X033333Y023279D01*
X033208Y023331D01*
X032813Y023331D01*
X032716Y023371D01*
X032565Y023371D01*
X032468Y023331D01*
X024721Y023331D01*
X024697Y023356D01*
X024539Y023421D01*
X024368Y023421D01*
X024210Y023356D01*
X024089Y023235D01*
X024023Y023077D01*
X024023Y022905D01*
X024089Y022747D01*
X024210Y022626D01*
X024368Y022561D01*
X024539Y022561D01*
X024697Y022626D01*
X024721Y022651D01*
X032468Y022651D01*
X032565Y022611D01*
X032716Y022611D01*
X032813Y022651D01*
X033000Y022651D01*
X033513Y022138D01*
X033513Y021398D01*
X033513Y021331D01*
X033513Y021264D01*
X033513Y021263D01*
X033513Y021263D01*
X033539Y021201D01*
X033565Y021139D01*
X033565Y021138D01*
X033565Y021138D01*
X033613Y021090D01*
X033661Y021043D01*
X034416Y020292D01*
X034416Y020067D01*
X034453Y020031D01*
X033411Y020031D01*
X033334Y020108D01*
X033194Y020166D01*
X033043Y020166D01*
X032903Y020108D01*
X032796Y020002D01*
X032739Y019862D01*
X032739Y019711D01*
X032796Y019571D01*
X032903Y019464D01*
X033043Y019406D01*
X033194Y019406D01*
X033334Y019464D01*
X033421Y019551D01*
X034486Y019551D01*
X034416Y019482D01*
X034416Y019067D01*
X034709Y018774D01*
X034449Y018514D01*
X031638Y018514D01*
X031550Y018478D01*
X031482Y018410D01*
X030848Y017777D01*
X030848Y017833D01*
X030791Y017973D01*
X030684Y018080D01*
X030544Y018138D01*
X030393Y018138D01*
X030253Y018080D01*
X030171Y017998D01*
X029331Y017998D01*
X029242Y017961D01*
X027919Y016638D01*
X027803Y016638D01*
X027663Y016580D01*
X027556Y016473D01*
X027498Y016333D01*
X027498Y016182D01*
X027556Y016042D01*
X027663Y015935D01*
X027803Y015878D01*
X027954Y015878D01*
X028094Y015935D01*
X028201Y016042D01*
X028258Y016182D01*
X028258Y016298D01*
X029478Y017518D01*
X030171Y017518D01*
X030253Y017435D01*
X030393Y017378D01*
X030449Y017378D01*
X030319Y017247D01*
X030203Y017247D01*
X030063Y017190D01*
X029956Y017083D01*
X029898Y016943D01*
X029898Y016853D01*
X029797Y016895D01*
X029645Y016895D01*
X029506Y016837D01*
X029399Y016730D01*
X029341Y016591D01*
X029341Y016444D01*
X029254Y016480D01*
X029103Y016480D01*
X028963Y016422D01*
X028856Y016315D01*
X028798Y016176D01*
X028798Y016024D01*
X028856Y015885D01*
X028963Y015778D01*
X029103Y015720D01*
X029254Y015720D01*
X029394Y015778D01*
X029476Y015860D01*
X030447Y015860D01*
X030536Y015897D01*
X030603Y015964D01*
X031357Y016718D01*
X032546Y016718D01*
X032511Y016633D01*
X032511Y016482D01*
X032569Y016342D01*
X032653Y016258D01*
X032653Y015896D01*
X032690Y015808D01*
X032757Y015740D01*
X032863Y015634D01*
X032863Y015242D01*
X032754Y015288D01*
X032666Y015288D01*
X032626Y015328D01*
X032530Y015368D01*
X023867Y015368D01*
X023963Y015463D01*
X024021Y015603D01*
X024021Y015719D01*
X024882Y016580D01*
X024918Y016669D01*
X024918Y019610D01*
X025001Y019692D01*
X025058Y019832D01*
X025058Y019983D01*
X025001Y020123D01*
X024894Y020230D01*
X024754Y020288D01*
X024603Y020288D01*
X024463Y020230D01*
X024356Y020123D01*
X024298Y019983D01*
X024298Y019832D01*
X024356Y019692D01*
X024438Y019610D01*
X024438Y016816D01*
X023681Y016059D01*
X023565Y016059D01*
X023425Y016001D01*
X023318Y015894D01*
X023261Y015754D01*
X023261Y015603D01*
X023318Y015463D01*
X023414Y015368D01*
X021836Y015368D01*
X021458Y015745D01*
X021458Y015833D01*
X021401Y015973D01*
X021294Y016080D01*
X021154Y016138D01*
X021003Y016138D01*
X020863Y016080D01*
X020756Y015973D01*
X020698Y015833D01*
X020698Y015682D01*
X020756Y015542D01*
X020863Y015435D01*
X021003Y015378D01*
X021091Y015378D01*
X021508Y014960D01*
X021571Y014898D01*
X018819Y014898D01*
X016823Y016894D01*
X016823Y021696D01*
X017529Y022403D01*
X017564Y022403D01*
X017722Y022468D01*
X017843Y022589D01*
X017908Y022747D01*
X017908Y022918D01*
X017843Y023076D01*
X017722Y023197D01*
X017564Y023263D01*
X017393Y023263D01*
X017235Y023197D01*
X017114Y023076D01*
X017048Y022918D01*
X017048Y022883D01*
X016291Y022126D01*
X016195Y022030D01*
X016143Y021905D01*
X016143Y016685D01*
X016195Y016560D01*
X016291Y016465D01*
X016184Y016586D02*
X009632Y016586D01*
X009632Y016705D02*
X016143Y016705D01*
X016143Y016823D02*
X009632Y016823D01*
X009632Y016942D02*
X016143Y016942D01*
X016143Y017060D02*
X009632Y017060D01*
X009632Y017179D02*
X016143Y017179D01*
X016143Y017297D02*
X009632Y017297D01*
X009632Y017416D02*
X016143Y017416D01*
X016143Y017534D02*
X009632Y017534D01*
X009632Y017653D02*
X016143Y017653D01*
X016143Y017771D02*
X009632Y017771D01*
X009632Y017890D02*
X016143Y017890D01*
X016143Y018008D02*
X009632Y018008D01*
X009632Y018127D02*
X011374Y018127D01*
X011395Y018106D02*
X011526Y018051D01*
X011668Y018051D01*
X011800Y018106D01*
X011900Y018206D01*
X011954Y018337D01*
X011954Y018479D01*
X011900Y018611D01*
X011800Y018711D01*
X011668Y018766D01*
X011526Y018766D01*
X011395Y018711D01*
X011295Y018611D01*
X011240Y018479D01*
X011240Y018337D01*
X011295Y018206D01*
X011395Y018106D01*
X011278Y018245D02*
X009632Y018245D01*
X009632Y018364D02*
X011240Y018364D01*
X011241Y018482D02*
X009632Y018482D01*
X009632Y018601D02*
X011290Y018601D01*
X011414Y018719D02*
X009632Y018719D01*
X009632Y018838D02*
X016143Y018838D01*
X016143Y018956D02*
X009632Y018956D01*
X009632Y019075D02*
X016143Y019075D01*
X016143Y019193D02*
X009632Y019193D01*
X009632Y019312D02*
X016143Y019312D01*
X016143Y019430D02*
X009632Y019430D01*
X009632Y019549D02*
X016143Y019549D01*
X016143Y019667D02*
X009632Y019667D01*
X009632Y019786D02*
X011521Y019786D01*
X011526Y019783D02*
X011668Y019783D01*
X011800Y019838D01*
X011900Y019938D01*
X011954Y020070D01*
X011954Y020212D01*
X011900Y020343D01*
X011800Y020443D01*
X011668Y020498D01*
X011526Y020498D01*
X011395Y020443D01*
X011295Y020343D01*
X011240Y020212D01*
X011240Y020070D01*
X011295Y019938D01*
X011395Y019838D01*
X011526Y019783D01*
X011673Y019786D02*
X016143Y019786D01*
X016143Y019904D02*
X011866Y019904D01*
X011935Y020023D02*
X016143Y020023D01*
X016143Y020141D02*
X011954Y020141D01*
X011935Y020260D02*
X016143Y020260D01*
X016143Y020378D02*
X011865Y020378D01*
X011671Y020497D02*
X016143Y020497D01*
X016143Y020615D02*
X009632Y020615D01*
X009632Y020497D02*
X011523Y020497D01*
X011330Y020378D02*
X009632Y020378D01*
X009632Y020260D02*
X011260Y020260D01*
X011240Y020141D02*
X009632Y020141D01*
X009632Y020023D02*
X011260Y020023D01*
X011329Y019904D02*
X009632Y019904D01*
X009632Y020734D02*
X016143Y020734D01*
X016143Y020852D02*
X009632Y020852D01*
X009632Y020971D02*
X016143Y020971D01*
X016143Y021089D02*
X009632Y021089D01*
X009632Y021208D02*
X016143Y021208D01*
X016143Y021326D02*
X009632Y021326D01*
X009632Y021445D02*
X016143Y021445D01*
X016143Y021563D02*
X009632Y021563D01*
X009632Y021682D02*
X016143Y021682D01*
X016143Y021800D02*
X009632Y021800D01*
X009632Y021919D02*
X016149Y021919D01*
X016202Y022037D02*
X010481Y022037D01*
X010517Y022156D02*
X016321Y022156D01*
X016439Y022274D02*
X010517Y022274D01*
X010517Y022393D02*
X016558Y022393D01*
X016676Y022511D02*
X010517Y022511D01*
X010517Y022630D02*
X016795Y022630D01*
X016913Y022748D02*
X010517Y022748D01*
X010517Y022867D02*
X017032Y022867D01*
X017076Y022985D02*
X010517Y022985D01*
X010517Y023104D02*
X017141Y023104D01*
X017295Y023222D02*
X010517Y023222D01*
X010517Y023341D02*
X015033Y023341D01*
X014961Y023459D02*
X010517Y023459D01*
X010517Y023578D02*
X014961Y023578D01*
X014961Y023696D02*
X010517Y023696D01*
X010517Y023815D02*
X014961Y023815D01*
X014961Y023933D02*
X010517Y023933D01*
X010517Y024052D02*
X014961Y024052D01*
X014961Y024170D02*
X010517Y024170D01*
X010517Y024289D02*
X014961Y024289D01*
X014961Y024407D02*
X010517Y024407D01*
X010517Y024526D02*
X014961Y024526D01*
X014959Y024644D02*
X010517Y024644D01*
X010517Y024763D02*
X014966Y024763D01*
X014972Y024881D02*
X010517Y024881D01*
X010517Y025000D02*
X014996Y025000D01*
X015019Y025118D02*
X010517Y025118D01*
X010517Y025237D02*
X015059Y025237D01*
X015099Y025355D02*
X010517Y025355D01*
X010517Y025474D02*
X015160Y025474D01*
X015218Y025592D02*
X010517Y025592D01*
X010517Y025711D02*
X015276Y025711D01*
X015276Y025829D02*
X010517Y025829D01*
X010517Y025948D02*
X015276Y025948D01*
X015276Y026066D02*
X010517Y026066D01*
X010517Y026185D02*
X015276Y026185D01*
X015276Y026303D02*
X010517Y026303D01*
X010517Y026422D02*
X015276Y026422D01*
X014156Y026540D02*
X011637Y026540D01*
X011699Y026659D02*
X014094Y026659D01*
X014094Y026777D02*
X011699Y026777D01*
X011699Y026896D02*
X014094Y026896D01*
X014094Y027014D02*
X011699Y027014D01*
X011699Y027133D02*
X014094Y027133D01*
X014094Y027251D02*
X011699Y027251D01*
X011699Y027370D02*
X014094Y027370D01*
X014094Y027488D02*
X011699Y027488D01*
X011699Y027607D02*
X014094Y027607D01*
X017973Y026422D02*
X035931Y026422D01*
X035827Y026303D02*
X018077Y026303D01*
X018077Y026185D02*
X035827Y026185D01*
X035827Y026066D02*
X018077Y026066D01*
X018077Y025948D02*
X019971Y025948D01*
X019986Y025954D02*
X019847Y025896D01*
X019740Y025789D01*
X019682Y025649D01*
X019682Y025498D01*
X019740Y025358D01*
X019847Y025252D01*
X019986Y025194D01*
X020137Y025194D01*
X020242Y025237D01*
X020322Y025157D01*
X020944Y025157D01*
X021049Y025263D01*
X021049Y025884D01*
X020944Y025990D01*
X020322Y025990D01*
X020242Y025910D01*
X020137Y025954D01*
X019986Y025954D01*
X020152Y025948D02*
X020280Y025948D01*
X020062Y025574D02*
X020633Y025574D01*
X021049Y025592D02*
X021401Y025592D01*
X021401Y025632D02*
X021401Y025516D01*
X021063Y025516D01*
X021063Y025316D01*
X021074Y025276D01*
X021095Y025239D01*
X021125Y025209D01*
X021162Y025188D01*
X021202Y025177D01*
X021401Y025177D01*
X021401Y025516D01*
X021518Y025516D01*
X021518Y025632D01*
X021856Y025632D01*
X021856Y025831D01*
X021845Y025872D01*
X021824Y025908D01*
X021794Y025938D01*
X021758Y025959D01*
X021717Y025970D01*
X021518Y025970D01*
X021518Y025632D01*
X021401Y025632D01*
X021063Y025632D01*
X021063Y025831D01*
X021074Y025872D01*
X021095Y025908D01*
X021125Y025938D01*
X021162Y025959D01*
X021202Y025970D01*
X021401Y025970D01*
X021401Y025632D01*
X021401Y025711D02*
X021518Y025711D01*
X021518Y025829D02*
X021401Y025829D01*
X021401Y025948D02*
X021518Y025948D01*
X021777Y025948D02*
X023908Y025948D01*
X023923Y025954D02*
X023784Y025896D01*
X023677Y025789D01*
X023619Y025649D01*
X023619Y025498D01*
X023677Y025358D01*
X023784Y025252D01*
X023814Y025239D01*
X023784Y025227D01*
X023701Y025144D01*
X023203Y025144D01*
X023115Y025108D01*
X023047Y025040D01*
X021625Y023618D01*
X021588Y023530D01*
X021588Y021226D01*
X021243Y021571D01*
X021243Y022902D01*
X021244Y022903D01*
X021243Y022954D01*
X021243Y023005D01*
X021243Y023005D01*
X021240Y023307D01*
X021301Y023367D01*
X021358Y023507D01*
X021358Y023658D01*
X021301Y023798D01*
X021194Y023905D01*
X021054Y023963D01*
X020903Y023963D01*
X020763Y023905D01*
X020656Y023798D01*
X020598Y023658D01*
X020598Y023507D01*
X020656Y023367D01*
X020721Y023303D01*
X020723Y022952D01*
X020723Y021412D01*
X020763Y021316D01*
X021233Y020846D01*
X021233Y019191D01*
X021081Y019039D01*
X021008Y018966D01*
X020968Y018871D01*
X020968Y018835D01*
X020906Y018773D01*
X020848Y018633D01*
X020848Y018482D01*
X020906Y018342D01*
X021013Y018235D01*
X021088Y018204D01*
X021006Y018123D01*
X020948Y017983D01*
X020948Y017832D01*
X021006Y017692D01*
X021113Y017585D01*
X021253Y017528D01*
X021404Y017528D01*
X021544Y017585D01*
X021651Y017692D01*
X021708Y017832D01*
X021708Y017948D01*
X021964Y018204D01*
X022032Y018272D01*
X022068Y018360D01*
X022068Y023383D01*
X023350Y024664D01*
X023701Y024664D01*
X023784Y024582D01*
X023923Y024524D01*
X024074Y024524D01*
X024214Y024582D01*
X024296Y024664D01*
X024952Y024664D01*
X025040Y024701D01*
X025497Y025157D01*
X025707Y025157D01*
X025813Y025263D01*
X025813Y025884D01*
X025707Y025990D01*
X025086Y025990D01*
X024983Y025887D01*
X024881Y025990D01*
X024259Y025990D01*
X024179Y025910D01*
X024074Y025954D01*
X023923Y025954D01*
X024089Y025948D02*
X024217Y025948D01*
X023999Y025574D02*
X024570Y025574D01*
X024923Y025948D02*
X025043Y025948D01*
X025397Y025574D02*
X025397Y025397D01*
X024904Y024904D01*
X023999Y024904D01*
X023251Y024904D01*
X021828Y023482D01*
X021828Y018408D01*
X021328Y017908D01*
X020974Y017771D02*
X016823Y017771D01*
X016823Y017653D02*
X021046Y017653D01*
X021237Y017534D02*
X016823Y017534D01*
X016823Y017416D02*
X024438Y017416D01*
X024438Y017534D02*
X021420Y017534D01*
X021611Y017653D02*
X024438Y017653D01*
X024438Y017771D02*
X021683Y017771D01*
X021708Y017890D02*
X024438Y017890D01*
X024438Y018008D02*
X021768Y018008D01*
X021887Y018127D02*
X024438Y018127D01*
X024438Y018245D02*
X022005Y018245D01*
X022068Y018364D02*
X024438Y018364D01*
X024438Y018482D02*
X022068Y018482D01*
X022068Y018601D02*
X024438Y018601D01*
X024438Y018719D02*
X022068Y018719D01*
X022068Y018838D02*
X024438Y018838D01*
X024438Y018956D02*
X022068Y018956D01*
X022068Y019075D02*
X024438Y019075D01*
X024438Y019193D02*
X022068Y019193D01*
X022068Y019312D02*
X024438Y019312D01*
X024438Y019430D02*
X022068Y019430D01*
X022068Y019549D02*
X024438Y019549D01*
X024382Y019667D02*
X022068Y019667D01*
X022068Y019786D02*
X024318Y019786D01*
X024298Y019904D02*
X022068Y019904D01*
X022068Y020023D02*
X024315Y020023D01*
X024375Y020141D02*
X022068Y020141D01*
X022068Y020260D02*
X024535Y020260D01*
X024822Y020260D02*
X027375Y020260D01*
X027443Y020288D02*
X027285Y020222D01*
X027164Y020101D01*
X027098Y019943D01*
X027098Y019852D01*
X026674Y019427D01*
X026628Y019317D01*
X026628Y017432D01*
X026234Y017038D01*
X026143Y017038D01*
X025985Y016972D01*
X025864Y016851D01*
X025798Y016693D01*
X025798Y016522D01*
X025864Y016364D01*
X025985Y016243D01*
X026143Y016178D01*
X026314Y016178D01*
X026472Y016243D01*
X026593Y016364D01*
X026658Y016522D01*
X026658Y016613D01*
X027098Y017053D01*
X027183Y017138D01*
X027228Y017248D01*
X027228Y019133D01*
X027523Y019428D01*
X027614Y019428D01*
X027772Y019493D01*
X027893Y019614D01*
X027958Y019772D01*
X027958Y019943D01*
X027893Y020101D01*
X027772Y020222D01*
X027614Y020288D01*
X027443Y020288D01*
X027682Y020260D02*
X034416Y020260D01*
X034416Y020141D02*
X033255Y020141D01*
X032982Y020141D02*
X027853Y020141D01*
X027926Y020023D02*
X032817Y020023D01*
X032756Y019904D02*
X027958Y019904D01*
X027958Y019786D02*
X032739Y019786D01*
X032757Y019667D02*
X027915Y019667D01*
X027828Y019549D02*
X032819Y019549D01*
X032986Y019430D02*
X027620Y019430D01*
X027407Y019312D02*
X034416Y019312D01*
X034416Y019430D02*
X033251Y019430D01*
X033418Y019549D02*
X034483Y019549D01*
X034416Y019193D02*
X027288Y019193D01*
X027228Y019075D02*
X034416Y019075D01*
X034528Y018956D02*
X027228Y018956D01*
X027228Y018838D02*
X034646Y018838D01*
X034709Y018774D02*
X035072Y018774D01*
X035072Y018774D01*
X034709Y018774D01*
X034654Y018719D02*
X027228Y018719D01*
X027228Y018601D02*
X034535Y018601D01*
X034916Y018274D02*
X031686Y018274D01*
X030278Y016867D01*
X029947Y017060D02*
X029020Y017060D01*
X028902Y016942D02*
X029898Y016942D01*
X030052Y017179D02*
X029139Y017179D01*
X029257Y017297D02*
X030369Y017297D01*
X030301Y017416D02*
X029376Y017416D01*
X029378Y017758D02*
X027878Y016258D01*
X027527Y016112D02*
X024414Y016112D01*
X024532Y016231D02*
X026015Y016231D01*
X025879Y016349D02*
X024651Y016349D01*
X024769Y016468D02*
X025821Y016468D01*
X025798Y016586D02*
X024884Y016586D01*
X024918Y016705D02*
X025803Y016705D01*
X025852Y016823D02*
X024918Y016823D01*
X024918Y016942D02*
X025954Y016942D01*
X026257Y017060D02*
X024918Y017060D01*
X024918Y017179D02*
X026375Y017179D01*
X026494Y017297D02*
X024918Y017297D01*
X024918Y017416D02*
X026612Y017416D01*
X026628Y017534D02*
X024918Y017534D01*
X024918Y017653D02*
X026628Y017653D01*
X026628Y017771D02*
X024918Y017771D01*
X024918Y017890D02*
X026628Y017890D01*
X026628Y018008D02*
X024918Y018008D01*
X024918Y018127D02*
X026628Y018127D01*
X026628Y018245D02*
X024918Y018245D01*
X024918Y018364D02*
X026628Y018364D01*
X026628Y018482D02*
X024918Y018482D01*
X024918Y018601D02*
X026628Y018601D01*
X026628Y018719D02*
X024918Y018719D01*
X024918Y018838D02*
X026628Y018838D01*
X026628Y018956D02*
X024918Y018956D01*
X024918Y019075D02*
X026628Y019075D01*
X026628Y019193D02*
X024918Y019193D01*
X024918Y019312D02*
X026628Y019312D01*
X026677Y019430D02*
X024918Y019430D01*
X024918Y019549D02*
X026795Y019549D01*
X026914Y019667D02*
X024975Y019667D01*
X025039Y019786D02*
X027032Y019786D01*
X027098Y019904D02*
X025058Y019904D01*
X025042Y020023D02*
X027131Y020023D01*
X027204Y020141D02*
X024982Y020141D01*
X024678Y019908D02*
X024678Y016716D01*
X023641Y015679D01*
X023986Y015520D02*
X032863Y015520D01*
X032859Y015638D02*
X024021Y015638D01*
X024058Y015757D02*
X029015Y015757D01*
X028866Y015875D02*
X024177Y015875D01*
X024295Y015994D02*
X027605Y015994D01*
X027498Y016231D02*
X026442Y016231D01*
X026578Y016349D02*
X027505Y016349D01*
X027554Y016468D02*
X026636Y016468D01*
X026658Y016586D02*
X027678Y016586D01*
X027986Y016705D02*
X026750Y016705D01*
X026868Y016823D02*
X028104Y016823D01*
X028223Y016942D02*
X026987Y016942D01*
X027105Y017060D02*
X028341Y017060D01*
X028460Y017179D02*
X027200Y017179D01*
X027228Y017297D02*
X028578Y017297D01*
X028697Y017416D02*
X027228Y017416D01*
X027228Y017534D02*
X028815Y017534D01*
X028934Y017653D02*
X027228Y017653D01*
X027228Y017771D02*
X029052Y017771D01*
X029171Y017890D02*
X027228Y017890D01*
X027228Y018008D02*
X030182Y018008D01*
X030366Y018127D02*
X027228Y018127D01*
X027228Y018245D02*
X031317Y018245D01*
X031435Y018364D02*
X027228Y018364D01*
X027228Y018482D02*
X031559Y018482D01*
X031198Y018127D02*
X030571Y018127D01*
X030755Y018008D02*
X031080Y018008D01*
X030961Y017890D02*
X030825Y017890D01*
X030468Y017758D02*
X029378Y017758D01*
X029492Y016823D02*
X028783Y016823D01*
X028665Y016705D02*
X029388Y016705D01*
X029341Y016586D02*
X028546Y016586D01*
X028428Y016468D02*
X029073Y016468D01*
X029284Y016468D02*
X029341Y016468D01*
X029721Y016515D02*
X029821Y016415D01*
X030365Y016415D01*
X031157Y017208D01*
X033660Y017208D01*
X033110Y016958D02*
X031257Y016958D01*
X030400Y016100D01*
X029178Y016100D01*
X028798Y016112D02*
X028229Y016112D01*
X028258Y016231D02*
X028821Y016231D01*
X028890Y016349D02*
X028309Y016349D01*
X028152Y015994D02*
X028811Y015994D01*
X029342Y015757D02*
X032741Y015757D01*
X032662Y015875D02*
X030484Y015875D01*
X030633Y015994D02*
X032653Y015994D01*
X032653Y016112D02*
X030751Y016112D01*
X030870Y016231D02*
X032653Y016231D01*
X032566Y016349D02*
X030988Y016349D01*
X031107Y016468D02*
X032517Y016468D01*
X032511Y016586D02*
X031225Y016586D01*
X031344Y016705D02*
X032541Y016705D01*
X032891Y016558D02*
X032893Y016555D01*
X032893Y015944D01*
X033103Y015734D01*
X033103Y014714D01*
X032847Y014458D01*
X030578Y014458D01*
X030478Y014558D01*
X030122Y014690D02*
X025503Y014690D01*
X025385Y014809D02*
X030192Y014809D01*
X030098Y014572D02*
X025622Y014572D01*
X025740Y014453D02*
X030110Y014453D01*
X030164Y014335D02*
X025859Y014335D01*
X025977Y014216D02*
X030233Y014216D01*
X030198Y014098D02*
X026096Y014098D01*
X026214Y013979D02*
X030200Y013979D01*
X030249Y013861D02*
X029167Y013861D01*
X029159Y013869D02*
X028745Y013869D01*
X028452Y013576D01*
X028452Y013162D01*
X028745Y012869D01*
X029159Y012869D01*
X029452Y013162D01*
X029452Y013576D01*
X029159Y013869D01*
X029286Y013742D02*
X030357Y013742D01*
X030578Y014058D02*
X032378Y014058D01*
X033478Y012958D01*
X034673Y012958D01*
X035383Y013668D01*
X035383Y018801D01*
X034916Y019274D01*
X035426Y019791D02*
X035916Y020274D01*
X035416Y020260D02*
X035416Y020260D01*
X035416Y020378D02*
X035416Y020378D01*
X035416Y020482D02*
X035416Y020118D01*
X035416Y020118D01*
X035416Y020482D01*
X035401Y020497D02*
X035431Y020497D01*
X035550Y020615D02*
X035283Y020615D01*
X035164Y020734D02*
X035668Y020734D01*
X035709Y020774D02*
X036123Y020774D01*
X036416Y021067D01*
X036416Y021482D01*
X036123Y021774D01*
X035709Y021774D01*
X035416Y021482D01*
X035416Y021067D01*
X035709Y020774D01*
X035632Y020852D02*
X035173Y020852D01*
X035291Y020971D02*
X035513Y020971D01*
X035416Y021089D02*
X035396Y021089D01*
X035396Y021208D02*
X035416Y021208D01*
X035416Y021326D02*
X035396Y021326D01*
X035396Y021445D02*
X035416Y021445D01*
X035498Y021563D02*
X035306Y021563D01*
X035188Y021682D02*
X035616Y021682D01*
X036216Y021682D02*
X045591Y021682D01*
X045591Y021800D02*
X034193Y021800D01*
X034193Y021682D02*
X034644Y021682D01*
X034717Y021754D02*
X034436Y021473D01*
X034436Y021314D01*
X034876Y021314D01*
X034876Y021754D01*
X034717Y021754D01*
X034876Y021682D02*
X034956Y021682D01*
X034956Y021563D02*
X034876Y021563D01*
X034876Y021445D02*
X034956Y021445D01*
X034956Y021326D02*
X034876Y021326D01*
X034876Y021208D02*
X034956Y021208D01*
X034956Y021089D02*
X034876Y021089D01*
X034876Y020971D02*
X034956Y020971D01*
X034956Y020852D02*
X034876Y020852D01*
X034436Y021326D02*
X034341Y021326D01*
X034436Y021445D02*
X034221Y021445D01*
X034193Y021563D02*
X034526Y021563D01*
X034193Y021919D02*
X045591Y021919D01*
X045591Y022037D02*
X040796Y022037D01*
X040832Y022156D02*
X045591Y022156D01*
X045591Y022274D02*
X040832Y022274D01*
X040832Y022393D02*
X045591Y022393D01*
X045591Y022511D02*
X040832Y022511D01*
X040832Y022630D02*
X045591Y022630D01*
X045591Y022748D02*
X040832Y022748D01*
X041920Y022867D02*
X045591Y022867D01*
X044483Y022985D02*
X042014Y022985D01*
X042014Y023104D02*
X044409Y023104D01*
X044409Y023222D02*
X042014Y023222D01*
X042014Y023341D02*
X044409Y023341D01*
X044409Y023459D02*
X042014Y023459D01*
X042014Y023578D02*
X044409Y023578D01*
X044409Y023696D02*
X042014Y023696D01*
X042014Y023815D02*
X044409Y023815D01*
X044409Y023933D02*
X042014Y023933D01*
X042014Y024052D02*
X044409Y024052D01*
X045591Y021563D02*
X036335Y021563D01*
X036416Y021445D02*
X045591Y021445D01*
X045591Y021326D02*
X036416Y021326D01*
X036416Y021208D02*
X045591Y021208D01*
X045591Y021089D02*
X036416Y021089D01*
X036319Y020971D02*
X045591Y020971D01*
X045591Y020852D02*
X036201Y020852D01*
X036164Y020734D02*
X045591Y020734D01*
X045591Y020615D02*
X036283Y020615D01*
X036401Y020497D02*
X044455Y020497D01*
X044409Y020378D02*
X036416Y020378D01*
X036416Y020260D02*
X044409Y020260D01*
X044409Y020141D02*
X036416Y020141D01*
X036371Y020023D02*
X044409Y020023D01*
X044409Y019904D02*
X036253Y019904D01*
X036134Y019786D02*
X044409Y019786D01*
X044409Y019667D02*
X036231Y019667D01*
X036349Y019549D02*
X044409Y019549D01*
X044409Y019430D02*
X036416Y019430D01*
X036416Y019312D02*
X043466Y019312D01*
X043425Y019193D02*
X036416Y019193D01*
X036416Y019075D02*
X043425Y019075D01*
X043425Y018956D02*
X036305Y018956D01*
X036186Y018838D02*
X043425Y018838D01*
X043425Y018719D02*
X036179Y018719D01*
X036297Y018601D02*
X043425Y018601D01*
X043425Y018245D02*
X036416Y018245D01*
X036416Y018127D02*
X041100Y018127D01*
X041063Y018008D02*
X036357Y018008D01*
X036238Y017890D02*
X041063Y017890D01*
X041063Y017771D02*
X036314Y017771D01*
X036416Y017653D02*
X041063Y017653D01*
X041063Y017534D02*
X036416Y017534D01*
X036416Y017416D02*
X041063Y017416D01*
X041063Y017297D02*
X036416Y017297D01*
X036416Y017179D02*
X038971Y017179D01*
X038898Y017060D02*
X036416Y017060D01*
X036416Y016942D02*
X038898Y016942D01*
X038898Y016823D02*
X036359Y016823D01*
X035623Y016705D02*
X038898Y016705D01*
X038898Y016586D02*
X035623Y016586D01*
X035623Y016468D02*
X038898Y016468D01*
X038898Y016349D02*
X035623Y016349D01*
X035623Y016231D02*
X038898Y016231D01*
X038898Y016112D02*
X035623Y016112D01*
X035623Y015994D02*
X038898Y015994D01*
X038898Y015875D02*
X035623Y015875D01*
X035623Y015757D02*
X038898Y015757D01*
X038898Y015638D02*
X035623Y015638D01*
X035623Y015520D02*
X038898Y015520D01*
X038898Y015401D02*
X035623Y015401D01*
X035623Y015283D02*
X038898Y015283D01*
X038878Y014572D02*
X040079Y014572D01*
X040079Y014690D02*
X035623Y014690D01*
X035623Y014572D02*
X036843Y014572D01*
X036556Y014453D02*
X035623Y014453D01*
X035623Y014335D02*
X036369Y014335D01*
X036232Y014216D02*
X035623Y014216D01*
X035623Y014098D02*
X036115Y014098D01*
X036037Y013979D02*
X035623Y013979D01*
X035623Y013861D02*
X035966Y013861D01*
X035922Y013742D02*
X035623Y013742D01*
X035623Y013624D02*
X035877Y013624D01*
X035844Y013505D02*
X035560Y013505D01*
X035442Y013387D02*
X035828Y013387D01*
X035827Y013268D02*
X035323Y013268D01*
X035205Y013150D02*
X035827Y013150D01*
X035827Y013031D02*
X035086Y013031D01*
X034968Y012913D02*
X035827Y012913D01*
X035827Y012794D02*
X034849Y012794D01*
X034578Y013658D02*
X034578Y014770D01*
X033791Y015558D01*
X033391Y015336D02*
X033391Y016058D01*
X033410Y016658D02*
X034293Y016658D01*
X034916Y017274D01*
X035623Y018719D02*
X035654Y018719D01*
X035646Y018838D02*
X035623Y018838D01*
X035426Y019791D02*
X033193Y019791D01*
X033119Y019786D01*
X033972Y020734D02*
X022068Y020734D01*
X022068Y020852D02*
X033853Y020852D01*
X033734Y020971D02*
X022068Y020971D01*
X022068Y021089D02*
X033615Y021089D01*
X033661Y021043D02*
X033661Y021043D01*
X033536Y021208D02*
X022068Y021208D01*
X022068Y021326D02*
X033513Y021326D01*
X033513Y021398D02*
X033513Y021398D01*
X033513Y021445D02*
X022068Y021445D01*
X022068Y021563D02*
X033513Y021563D01*
X033513Y021682D02*
X022068Y021682D01*
X022068Y021800D02*
X033513Y021800D01*
X033513Y021919D02*
X022068Y021919D01*
X022068Y022037D02*
X033513Y022037D01*
X033495Y022156D02*
X022068Y022156D01*
X022068Y022274D02*
X033377Y022274D01*
X033258Y022393D02*
X022068Y022393D01*
X022068Y022511D02*
X033140Y022511D01*
X033021Y022630D02*
X032761Y022630D01*
X032520Y022630D02*
X024700Y022630D01*
X024207Y022630D02*
X022068Y022630D01*
X022068Y022748D02*
X024088Y022748D01*
X024039Y022867D02*
X022068Y022867D01*
X022068Y022985D02*
X024023Y022985D01*
X024034Y023104D02*
X022068Y023104D01*
X022068Y023222D02*
X024083Y023222D01*
X024195Y023341D02*
X022068Y023341D01*
X022145Y023459D02*
X036561Y023459D01*
X036379Y023578D02*
X022263Y023578D01*
X022382Y023696D02*
X036239Y023696D01*
X036121Y023815D02*
X022500Y023815D01*
X022619Y023933D02*
X036042Y023933D01*
X035968Y024052D02*
X022737Y024052D01*
X022856Y024170D02*
X035924Y024170D01*
X035880Y024289D02*
X022974Y024289D01*
X023093Y024407D02*
X035851Y024407D01*
X035829Y024526D02*
X024077Y024526D01*
X023921Y024526D02*
X023211Y024526D01*
X023330Y024644D02*
X023722Y024644D01*
X024276Y024644D02*
X035827Y024644D01*
X035827Y024763D02*
X025102Y024763D01*
X025220Y024881D02*
X035827Y024881D01*
X035827Y025000D02*
X025339Y025000D01*
X025457Y025118D02*
X035827Y025118D01*
X035827Y025237D02*
X033632Y025237D01*
X033635Y025239D02*
X033656Y025276D01*
X033667Y025316D01*
X033667Y025516D01*
X033329Y025516D01*
X033329Y025632D01*
X033667Y025632D01*
X033667Y025831D01*
X033656Y025872D01*
X033635Y025908D01*
X033605Y025938D01*
X033569Y025959D01*
X033528Y025970D01*
X033329Y025970D01*
X033329Y025632D01*
X033212Y025632D01*
X033212Y025516D01*
X032874Y025516D01*
X032874Y025316D01*
X032885Y025276D01*
X032906Y025239D01*
X032936Y025209D01*
X032973Y025188D01*
X033013Y025177D01*
X033212Y025177D01*
X033212Y025516D01*
X033329Y025516D01*
X033329Y025177D01*
X033528Y025177D01*
X033569Y025188D01*
X033605Y025209D01*
X033635Y025239D01*
X033667Y025355D02*
X035827Y025355D01*
X035827Y025474D02*
X033667Y025474D01*
X033667Y025711D02*
X035827Y025711D01*
X035827Y025829D02*
X033667Y025829D01*
X033588Y025948D02*
X035827Y025948D01*
X035827Y025592D02*
X033329Y025592D01*
X033212Y025592D02*
X032860Y025592D01*
X032874Y025632D02*
X032874Y025831D01*
X032885Y025872D01*
X032906Y025908D01*
X032936Y025938D01*
X032973Y025959D01*
X033013Y025970D01*
X033212Y025970D01*
X033212Y025632D01*
X032874Y025632D01*
X032874Y025711D02*
X032860Y025711D01*
X032860Y025829D02*
X032874Y025829D01*
X032860Y025884D02*
X032755Y025990D01*
X032133Y025990D01*
X032053Y025910D01*
X031949Y025954D01*
X031797Y025954D01*
X031658Y025896D01*
X031551Y025789D01*
X031493Y025649D01*
X031493Y025498D01*
X031551Y025358D01*
X031658Y025252D01*
X031797Y025194D01*
X031949Y025194D01*
X032053Y025237D01*
X032133Y025157D01*
X032755Y025157D01*
X032860Y025263D01*
X032860Y025884D01*
X032797Y025948D02*
X032953Y025948D01*
X033212Y025948D02*
X033329Y025948D01*
X033329Y025829D02*
X033212Y025829D01*
X033212Y025711D02*
X033329Y025711D01*
X033329Y025474D02*
X033212Y025474D01*
X033212Y025355D02*
X033329Y025355D01*
X033329Y025237D02*
X033212Y025237D01*
X032909Y025237D02*
X032834Y025237D01*
X032860Y025355D02*
X032874Y025355D01*
X032860Y025474D02*
X032874Y025474D01*
X032444Y025574D02*
X031873Y025574D01*
X031518Y025711D02*
X029730Y025711D01*
X029730Y025632D02*
X029730Y025831D01*
X029719Y025872D01*
X029698Y025908D01*
X029668Y025938D01*
X029632Y025959D01*
X029591Y025970D01*
X029392Y025970D01*
X029392Y025632D01*
X029730Y025632D01*
X029730Y025516D02*
X029392Y025516D01*
X029392Y025632D01*
X029275Y025632D01*
X029275Y025516D01*
X028937Y025516D01*
X028937Y025316D01*
X028948Y025276D01*
X028969Y025239D01*
X028999Y025209D01*
X029036Y025188D01*
X029076Y025177D01*
X029275Y025177D01*
X029275Y025516D01*
X029392Y025516D01*
X029392Y025177D01*
X029591Y025177D01*
X029632Y025188D01*
X029668Y025209D01*
X029698Y025239D01*
X029719Y025276D01*
X029730Y025316D01*
X029730Y025516D01*
X029730Y025474D02*
X031503Y025474D01*
X031493Y025592D02*
X029392Y025592D01*
X029275Y025592D02*
X028923Y025592D01*
X028937Y025632D02*
X028937Y025831D01*
X028948Y025872D01*
X028969Y025908D01*
X028999Y025938D01*
X029036Y025959D01*
X029076Y025970D01*
X029275Y025970D01*
X029275Y025632D01*
X028937Y025632D01*
X028937Y025711D02*
X028923Y025711D01*
X028923Y025829D02*
X028937Y025829D01*
X028923Y025884D02*
X028818Y025990D01*
X028196Y025990D01*
X028116Y025910D01*
X028011Y025954D01*
X027860Y025954D01*
X027721Y025896D01*
X027614Y025789D01*
X027556Y025649D01*
X027556Y025498D01*
X027614Y025358D01*
X027721Y025252D01*
X027860Y025194D01*
X028011Y025194D01*
X028116Y025237D01*
X028196Y025157D01*
X028818Y025157D01*
X028923Y025263D01*
X028923Y025884D01*
X028860Y025948D02*
X029016Y025948D01*
X029275Y025948D02*
X029392Y025948D01*
X029392Y025829D02*
X029275Y025829D01*
X029275Y025711D02*
X029392Y025711D01*
X029392Y025474D02*
X029275Y025474D01*
X029275Y025355D02*
X029392Y025355D01*
X029392Y025237D02*
X029275Y025237D01*
X028972Y025237D02*
X028897Y025237D01*
X028923Y025355D02*
X028937Y025355D01*
X028923Y025474D02*
X028937Y025474D01*
X028507Y025574D02*
X027936Y025574D01*
X027581Y025711D02*
X025813Y025711D01*
X025813Y025829D02*
X027654Y025829D01*
X027845Y025948D02*
X025750Y025948D01*
X025813Y025592D02*
X027556Y025592D01*
X027566Y025474D02*
X025813Y025474D01*
X025813Y025355D02*
X027617Y025355D01*
X027757Y025237D02*
X025786Y025237D01*
X025573Y026540D02*
X022858Y026540D01*
X022919Y026659D02*
X025512Y026659D01*
X025512Y026777D02*
X022919Y026777D01*
X022919Y026896D02*
X025512Y026896D01*
X025512Y027014D02*
X022919Y027014D01*
X022919Y027133D02*
X025512Y027133D01*
X025512Y027251D02*
X022919Y027251D01*
X022919Y027370D02*
X025512Y027370D01*
X025512Y027488D02*
X022919Y027488D01*
X022919Y027607D02*
X025512Y027607D01*
X023717Y025829D02*
X021856Y025829D01*
X021856Y025711D02*
X023644Y025711D01*
X023619Y025592D02*
X021518Y025592D01*
X021518Y025516D02*
X021856Y025516D01*
X021856Y025316D01*
X021845Y025276D01*
X021824Y025239D01*
X021794Y025209D01*
X021758Y025188D01*
X021717Y025177D01*
X021518Y025177D01*
X021518Y025516D01*
X021518Y025474D02*
X021401Y025474D01*
X021401Y025355D02*
X021518Y025355D01*
X021518Y025237D02*
X021401Y025237D01*
X021098Y025237D02*
X021023Y025237D01*
X021049Y025355D02*
X021063Y025355D01*
X021049Y025474D02*
X021063Y025474D01*
X021049Y025711D02*
X021063Y025711D01*
X021049Y025829D02*
X021063Y025829D01*
X020986Y025948D02*
X021142Y025948D01*
X021856Y025474D02*
X023629Y025474D01*
X023680Y025355D02*
X021856Y025355D01*
X021821Y025237D02*
X023808Y025237D01*
X023139Y025118D02*
X018077Y025118D01*
X018077Y025000D02*
X023007Y025000D01*
X022888Y024881D02*
X018077Y024881D01*
X018077Y024763D02*
X022770Y024763D01*
X022651Y024644D02*
X018077Y024644D01*
X018074Y024526D02*
X022533Y024526D01*
X022414Y024407D02*
X018052Y024407D01*
X018023Y024289D02*
X022296Y024289D01*
X022177Y024170D02*
X017980Y024170D01*
X017935Y024052D02*
X022059Y024052D01*
X021940Y023933D02*
X021125Y023933D01*
X021284Y023815D02*
X021822Y023815D01*
X021703Y023696D02*
X021343Y023696D01*
X021358Y023578D02*
X021608Y023578D01*
X021588Y023459D02*
X021339Y023459D01*
X021274Y023341D02*
X021588Y023341D01*
X021588Y023222D02*
X021241Y023222D01*
X021242Y023104D02*
X021588Y023104D01*
X021588Y022985D02*
X021243Y022985D01*
X021243Y022867D02*
X021588Y022867D01*
X021588Y022748D02*
X021243Y022748D01*
X021243Y022630D02*
X021588Y022630D01*
X021588Y022511D02*
X021243Y022511D01*
X021243Y022393D02*
X021588Y022393D01*
X021588Y022274D02*
X021243Y022274D01*
X021243Y022156D02*
X021588Y022156D01*
X021588Y022037D02*
X021243Y022037D01*
X021243Y021919D02*
X021588Y021919D01*
X021588Y021800D02*
X021243Y021800D01*
X021243Y021682D02*
X021588Y021682D01*
X021588Y021563D02*
X021251Y021563D01*
X021370Y021445D02*
X021588Y021445D01*
X021588Y021326D02*
X021488Y021326D01*
X021108Y020971D02*
X016823Y020971D01*
X016823Y021089D02*
X020990Y021089D01*
X020871Y021208D02*
X016823Y021208D01*
X016823Y021326D02*
X020759Y021326D01*
X020723Y021445D02*
X016823Y021445D01*
X016823Y021563D02*
X020723Y021563D01*
X020723Y021682D02*
X016823Y021682D01*
X016927Y021800D02*
X020723Y021800D01*
X020723Y021919D02*
X017045Y021919D01*
X017164Y022037D02*
X020723Y022037D01*
X020723Y022156D02*
X017282Y022156D01*
X017401Y022274D02*
X020723Y022274D01*
X020723Y022393D02*
X017519Y022393D01*
X017765Y022511D02*
X020723Y022511D01*
X020723Y022630D02*
X017860Y022630D01*
X017908Y022748D02*
X020723Y022748D01*
X020723Y022867D02*
X017908Y022867D01*
X017881Y022985D02*
X020723Y022985D01*
X020722Y023104D02*
X017816Y023104D01*
X017662Y023222D02*
X020721Y023222D01*
X020683Y023341D02*
X017042Y023341D01*
X017041Y023341D02*
X017001Y023341D01*
X017342Y023459D02*
X020618Y023459D01*
X020598Y023578D02*
X017525Y023578D01*
X017664Y023696D02*
X020614Y023696D01*
X020673Y023815D02*
X017782Y023815D01*
X017862Y023933D02*
X020832Y023933D01*
X020243Y025237D02*
X020241Y025237D01*
X019883Y025237D02*
X018077Y025237D01*
X018077Y025355D02*
X019743Y025355D01*
X019692Y025474D02*
X018077Y025474D01*
X018077Y025592D02*
X019682Y025592D01*
X019707Y025711D02*
X018077Y025711D01*
X018077Y025829D02*
X019780Y025829D01*
X024712Y023341D02*
X032491Y023341D01*
X032790Y023341D02*
X036861Y023341D01*
X036863Y023341D02*
X036902Y023341D01*
X038871Y023341D02*
X038898Y023341D01*
X038898Y023222D02*
X033390Y023222D01*
X033509Y023104D02*
X038898Y023104D01*
X038898Y022985D02*
X033627Y022985D01*
X033746Y022867D02*
X038898Y022867D01*
X038898Y022748D02*
X033864Y022748D01*
X033983Y022630D02*
X038898Y022630D01*
X038898Y022511D02*
X034101Y022511D01*
X034174Y022393D02*
X038898Y022393D01*
X038898Y022274D02*
X034193Y022274D01*
X034193Y022156D02*
X038898Y022156D01*
X038935Y022037D02*
X034193Y022037D01*
X034091Y020615D02*
X022068Y020615D01*
X022068Y020497D02*
X034211Y020497D01*
X034330Y020378D02*
X022068Y020378D01*
X021233Y020378D02*
X016823Y020378D01*
X016823Y020260D02*
X021233Y020260D01*
X021233Y020141D02*
X016823Y020141D01*
X016823Y020023D02*
X021233Y020023D01*
X021233Y019904D02*
X016823Y019904D01*
X016823Y019786D02*
X021233Y019786D01*
X021233Y019667D02*
X016823Y019667D01*
X016823Y019549D02*
X021233Y019549D01*
X021233Y019430D02*
X016823Y019430D01*
X016823Y019312D02*
X021233Y019312D01*
X021233Y019193D02*
X016823Y019193D01*
X016823Y019075D02*
X021116Y019075D01*
X021081Y019039D02*
X021081Y019039D01*
X021004Y018956D02*
X016823Y018956D01*
X016823Y018838D02*
X020968Y018838D01*
X020884Y018719D02*
X016823Y018719D01*
X016823Y018601D02*
X020848Y018601D01*
X020848Y018482D02*
X016823Y018482D01*
X016823Y018364D02*
X020897Y018364D01*
X021004Y018245D02*
X016823Y018245D01*
X016823Y018127D02*
X021010Y018127D01*
X020959Y018008D02*
X016823Y018008D01*
X016823Y017890D02*
X020948Y017890D01*
X020941Y016112D02*
X017605Y016112D01*
X017723Y015994D02*
X020777Y015994D01*
X020716Y015875D02*
X017842Y015875D01*
X017960Y015757D02*
X020698Y015757D01*
X020717Y015638D02*
X018079Y015638D01*
X018197Y015520D02*
X020779Y015520D01*
X020946Y015401D02*
X018316Y015401D01*
X018434Y015283D02*
X021186Y015283D01*
X021304Y015164D02*
X018553Y015164D01*
X018671Y015046D02*
X021423Y015046D01*
X021541Y014927D02*
X018790Y014927D01*
X018302Y014453D02*
X017348Y014453D01*
X017534Y014335D02*
X018421Y014335D01*
X018184Y014572D02*
X017061Y014572D01*
X017671Y014216D02*
X025016Y014216D01*
X025134Y014098D02*
X017788Y014098D01*
X017867Y013979D02*
X025253Y013979D01*
X025346Y013869D02*
X025452Y013764D01*
X025452Y012974D01*
X025346Y012869D01*
X024557Y012869D01*
X024452Y012974D01*
X024452Y013764D01*
X024557Y013869D01*
X025346Y013869D01*
X025355Y013861D02*
X025371Y013861D01*
X025452Y013742D02*
X025490Y013742D01*
X025499Y013624D02*
X025452Y013624D01*
X025452Y013505D02*
X025452Y013505D01*
X025452Y013387D02*
X025452Y013387D01*
X025452Y013268D02*
X025452Y013268D01*
X025452Y013150D02*
X025464Y013150D01*
X025452Y013031D02*
X025582Y013031D01*
X025701Y012913D02*
X025390Y012913D01*
X026202Y012913D02*
X026729Y012913D01*
X026753Y012889D02*
X026472Y013170D01*
X026472Y013329D01*
X026912Y013329D01*
X026992Y013329D01*
X026992Y013409D01*
X027432Y013409D01*
X027432Y013568D01*
X027150Y013849D01*
X026992Y013849D01*
X026992Y013409D01*
X026912Y013409D01*
X026912Y013849D01*
X026753Y013849D01*
X026472Y013568D01*
X026472Y013409D01*
X026912Y013409D01*
X026912Y013329D01*
X026912Y012889D01*
X026753Y012889D01*
X026912Y012913D02*
X026992Y012913D01*
X026992Y012889D02*
X027150Y012889D01*
X027432Y013170D01*
X027432Y013329D01*
X026992Y013329D01*
X026992Y012889D01*
X026992Y013031D02*
X026912Y013031D01*
X026912Y013150D02*
X026992Y013150D01*
X026992Y013268D02*
X026912Y013268D01*
X026912Y013387D02*
X026452Y013387D01*
X026452Y013505D02*
X026472Y013505D01*
X026527Y013624D02*
X026404Y013624D01*
X026292Y013742D02*
X026646Y013742D01*
X026912Y013742D02*
X026992Y013742D01*
X026992Y013624D02*
X026912Y013624D01*
X026912Y013505D02*
X026992Y013505D01*
X026992Y013387D02*
X027452Y013387D01*
X027452Y013505D02*
X027432Y013505D01*
X027452Y013576D02*
X027452Y013162D01*
X027745Y012869D01*
X028159Y012869D01*
X028452Y013162D01*
X028452Y013576D01*
X028159Y013869D01*
X027745Y013869D01*
X027452Y013576D01*
X027499Y013624D02*
X027376Y013624D01*
X027257Y013742D02*
X027618Y013742D01*
X027736Y013861D02*
X026278Y013861D01*
X026452Y013268D02*
X026472Y013268D01*
X026492Y013150D02*
X026439Y013150D01*
X026321Y013031D02*
X026611Y013031D01*
X027174Y012913D02*
X027701Y012913D01*
X027582Y013031D02*
X027293Y013031D01*
X027411Y013150D02*
X027464Y013150D01*
X027452Y013268D02*
X027432Y013268D01*
X028202Y012913D02*
X028701Y012913D01*
X028582Y013031D02*
X028321Y013031D01*
X028439Y013150D02*
X028464Y013150D01*
X028452Y013268D02*
X028452Y013268D01*
X028452Y013387D02*
X028452Y013387D01*
X028452Y013505D02*
X028452Y013505D01*
X028499Y013624D02*
X028404Y013624D01*
X028286Y013742D02*
X028618Y013742D01*
X028736Y013861D02*
X028167Y013861D01*
X029404Y013624D02*
X032473Y013624D01*
X032592Y013505D02*
X029452Y013505D01*
X029452Y013387D02*
X032710Y013387D01*
X032829Y013268D02*
X029452Y013268D01*
X029439Y013150D02*
X032947Y013150D01*
X033066Y013031D02*
X029321Y013031D01*
X029202Y012913D02*
X033184Y012913D01*
X033303Y012794D02*
X018077Y012794D01*
X018077Y012676D02*
X035827Y012676D01*
X035827Y012557D02*
X018077Y012557D01*
X018077Y012439D02*
X035827Y012439D01*
X035827Y012320D02*
X018077Y012320D01*
X018077Y012202D02*
X035827Y012202D01*
X035827Y012083D02*
X018077Y012083D01*
X018077Y011965D02*
X035827Y011965D01*
X035827Y011846D02*
X018077Y011846D01*
X018077Y011728D02*
X035827Y011728D01*
X035827Y011609D02*
X018077Y011609D01*
X018077Y012913D02*
X024514Y012913D01*
X024452Y013031D02*
X018077Y013031D01*
X018077Y013150D02*
X024452Y013150D01*
X024452Y013268D02*
X018077Y013268D01*
X018076Y013387D02*
X024452Y013387D01*
X024452Y013505D02*
X018059Y013505D01*
X018026Y013624D02*
X024452Y013624D01*
X024452Y013742D02*
X017982Y013742D01*
X017938Y013861D02*
X024549Y013861D01*
X023901Y015401D02*
X032863Y015401D01*
X032863Y015283D02*
X032766Y015283D01*
X033391Y015336D02*
X034178Y014548D01*
X034178Y014158D01*
X035623Y014809D02*
X040079Y014809D01*
X040079Y014927D02*
X035623Y014927D01*
X035623Y015046D02*
X040079Y015046D01*
X040079Y015164D02*
X035623Y015164D01*
X033410Y016658D02*
X033110Y016958D01*
X032157Y013742D02*
X030800Y013742D01*
X031880Y011491D02*
X036827Y011491D01*
X036732Y011372D02*
X031974Y011372D01*
X031974Y011254D02*
X036732Y011254D01*
X036732Y011135D02*
X031974Y011135D01*
X031974Y011017D02*
X036732Y011017D01*
X036732Y010898D02*
X031974Y010898D01*
X031974Y010780D02*
X036732Y010780D01*
X036732Y010661D02*
X031974Y010661D01*
X031974Y010543D02*
X036732Y010543D01*
X036732Y010424D02*
X032946Y010424D01*
X032958Y010306D02*
X036732Y010306D01*
X036732Y010187D02*
X032958Y010187D01*
X032958Y010069D02*
X036732Y010069D01*
X036732Y009950D02*
X032958Y009950D01*
X032958Y009832D02*
X036732Y009832D01*
X036732Y009713D02*
X032958Y009713D01*
X032958Y009595D02*
X036732Y009595D01*
X036732Y009476D02*
X032958Y009476D01*
X032958Y009358D02*
X036732Y009358D01*
X037486Y010543D02*
X042244Y010543D01*
X042244Y010661D02*
X037486Y010661D01*
X037486Y010780D02*
X042244Y010780D01*
X042244Y010898D02*
X037486Y010898D01*
X037486Y011017D02*
X042244Y011017D01*
X042244Y011135D02*
X037486Y011135D01*
X037486Y011254D02*
X042244Y011254D01*
X042244Y011372D02*
X037486Y011372D01*
X037392Y011491D02*
X042244Y011491D01*
X042244Y011609D02*
X037818Y011609D01*
X038061Y011728D02*
X042244Y011728D01*
X042244Y011846D02*
X038242Y011846D01*
X038389Y011965D02*
X042244Y011965D01*
X042244Y012083D02*
X038493Y012083D01*
X038597Y012202D02*
X042244Y012202D01*
X042244Y012320D02*
X038682Y012320D01*
X038740Y012439D02*
X042244Y012439D01*
X042244Y012557D02*
X038802Y012557D01*
X038842Y012676D02*
X042244Y012676D01*
X042244Y012794D02*
X038883Y012794D01*
X038906Y012913D02*
X041071Y012913D01*
X041063Y013031D02*
X038930Y013031D01*
X038936Y013150D02*
X041063Y013150D01*
X041063Y013268D02*
X038944Y013268D01*
X038943Y013387D02*
X041063Y013387D01*
X041063Y013505D02*
X038943Y013505D01*
X038943Y013624D02*
X041063Y013624D01*
X041063Y013742D02*
X038943Y013742D01*
X038943Y013861D02*
X041063Y013861D01*
X041063Y013979D02*
X038943Y013979D01*
X038943Y014098D02*
X040083Y014098D01*
X040079Y014216D02*
X038943Y014216D01*
X038943Y014335D02*
X040079Y014335D01*
X040079Y014453D02*
X038943Y014453D01*
X038655Y010424D02*
X042244Y010424D01*
X042244Y010306D02*
X038667Y010306D01*
X038667Y010187D02*
X042244Y010187D01*
X042244Y010069D02*
X038667Y010069D01*
X038667Y009950D02*
X042244Y009950D01*
X042244Y009832D02*
X038667Y009832D01*
X038667Y009713D02*
X042244Y009713D01*
X042244Y009595D02*
X038667Y009595D01*
X038667Y009476D02*
X042244Y009476D01*
X042244Y009358D02*
X038667Y009358D01*
X035416Y020141D02*
X035416Y020141D01*
X032054Y025237D02*
X032052Y025237D01*
X031694Y025237D02*
X029695Y025237D01*
X029730Y025355D02*
X031554Y025355D01*
X031591Y025829D02*
X029730Y025829D01*
X029651Y025948D02*
X031782Y025948D01*
X031963Y025948D02*
X032091Y025948D01*
X028154Y025948D02*
X028026Y025948D01*
X028115Y025237D02*
X028117Y025237D01*
X021227Y020852D02*
X016823Y020852D01*
X016823Y020734D02*
X021233Y020734D01*
X021233Y020615D02*
X016823Y020615D01*
X016823Y020497D02*
X021233Y020497D01*
X024438Y017297D02*
X016823Y017297D01*
X016823Y017179D02*
X024438Y017179D01*
X024438Y017060D02*
X016823Y017060D01*
X016823Y016942D02*
X024438Y016942D01*
X024438Y016823D02*
X016894Y016823D01*
X017012Y016705D02*
X024327Y016705D01*
X024209Y016586D02*
X017131Y016586D01*
X017249Y016468D02*
X024090Y016468D01*
X023972Y016349D02*
X017368Y016349D01*
X017486Y016231D02*
X023853Y016231D01*
X023735Y016112D02*
X021216Y016112D01*
X021380Y015994D02*
X023418Y015994D01*
X023311Y015875D02*
X021441Y015875D01*
X021458Y015757D02*
X023262Y015757D01*
X023261Y015638D02*
X021566Y015638D01*
X021684Y015520D02*
X023295Y015520D01*
X023381Y015401D02*
X021803Y015401D01*
X020659Y011491D02*
X025409Y011491D01*
X025315Y011372D02*
X020754Y011372D01*
X020754Y011254D02*
X025315Y011254D01*
X025315Y011135D02*
X020754Y011135D01*
X020754Y011017D02*
X025315Y011017D01*
X025315Y010898D02*
X020754Y010898D01*
X020754Y010780D02*
X025315Y010780D01*
X025315Y010661D02*
X020754Y010661D01*
X020754Y010543D02*
X025315Y010543D01*
X025315Y010424D02*
X021726Y010424D01*
X021738Y010306D02*
X025315Y010306D01*
X025315Y010187D02*
X021738Y010187D01*
X021738Y010069D02*
X025315Y010069D01*
X025315Y009950D02*
X021738Y009950D01*
X021738Y009832D02*
X025315Y009832D01*
X025315Y009713D02*
X021738Y009713D01*
X021738Y009595D02*
X025315Y009595D01*
X025315Y009476D02*
X021738Y009476D01*
X021738Y009358D02*
X025315Y009358D01*
X019803Y010543D02*
X014947Y010543D01*
X014947Y010661D02*
X019803Y010661D01*
X019803Y010780D02*
X014947Y010780D01*
X014947Y010898D02*
X019803Y010898D01*
X019803Y011017D02*
X014947Y011017D01*
X014947Y011135D02*
X019803Y011135D01*
X019803Y011254D02*
X014947Y011254D01*
X014947Y011372D02*
X019803Y011372D01*
X019897Y011491D02*
X014947Y011491D01*
X014947Y011609D02*
X016085Y011609D01*
X015843Y011728D02*
X014947Y011728D01*
X014947Y011846D02*
X015661Y011846D01*
X015514Y011965D02*
X014947Y011965D01*
X014947Y012083D02*
X015410Y012083D01*
X015306Y012202D02*
X014947Y012202D01*
X014947Y012320D02*
X015222Y012320D01*
X015163Y012439D02*
X014947Y012439D01*
X014947Y012557D02*
X015101Y012557D01*
X015061Y012676D02*
X014947Y012676D01*
X014927Y012794D02*
X015021Y012794D01*
X014947Y010424D02*
X018634Y010424D01*
X018622Y010306D02*
X014947Y010306D01*
X014947Y010187D02*
X018622Y010187D01*
X018622Y010069D02*
X014947Y010069D01*
X014947Y009950D02*
X018622Y009950D01*
X018622Y009832D02*
X014947Y009832D01*
X014947Y009713D02*
X018622Y009713D01*
X018622Y009595D02*
X014947Y009595D01*
X014947Y009476D02*
X018622Y009476D01*
X018622Y009358D02*
X014947Y009358D01*
X016143Y018127D02*
X011821Y018127D01*
X011916Y018245D02*
X016143Y018245D01*
X016143Y018364D02*
X011954Y018364D01*
X011953Y018482D02*
X016143Y018482D01*
X016143Y018601D02*
X011904Y018601D01*
X011781Y018719D02*
X016143Y018719D01*
D16*
X026228Y016608D02*
X026928Y017308D01*
X026928Y019258D01*
X027528Y019858D01*
D17*
X024453Y022991D02*
X032641Y022991D01*
X033141Y022991D01*
X033853Y022279D01*
X033853Y021331D01*
X034916Y020274D01*
X025952Y013761D02*
X025952Y013369D01*
X025952Y013761D02*
X025155Y014558D01*
X018678Y014558D01*
X016483Y016753D01*
X016483Y021837D01*
X017478Y022833D01*
D18*
X017478Y022833D03*
X024453Y022991D03*
X027528Y019858D03*
X026228Y016608D03*
D19*
X021728Y015108D02*
X032478Y015108D01*
X032678Y014908D01*
X021728Y015108D02*
X021078Y015758D01*
X021228Y018558D02*
X021228Y018819D01*
X021493Y019084D01*
X021493Y020954D01*
X020983Y021464D01*
X020983Y022953D01*
X020978Y023583D01*
M02*
