%
M48
M72
T01C0.0200
T02C0.0250
T03C0.0300
T04C0.0354
T05C0.0400
T06C0.1260
%
T01
X9756Y4715
X11922Y6289
X13300Y6289
X15107Y8008
X15732Y8071
X13594Y8337
X12544Y8087
X11944Y8287
X12794Y9387
X12794Y10237
X12694Y10887
X13994Y10287
X15694Y10787
X13894Y11787
X12224Y12987
X10857Y13571
X10044Y14946
X12444Y15912
X13607Y17321
X15465Y17234
X15932Y15925
X14744Y14987
X15932Y14612
X17244Y14612
X16944Y13487
X16144Y12237
X17694Y10387
X19194Y10087
X19144Y11287
X21934Y10087
X21744Y9197
X21187Y8845
X20644Y8430
X19494Y8037
X19344Y8587
X21199Y6827
X21944Y6887
X22044Y6387
X22607Y5321
X23844Y6387
X24144Y7237
X25257Y7887
X24857Y8387
X24357Y8887
X25126Y9537
X24932Y10987
X25636Y11604
X24585Y12116
X23813Y11987
X21955Y13552
X19794Y13946
X20982Y16008
X18857Y17071
X23339Y17098
X25707Y17904
X27079Y18494
X29835Y15738
X27920Y14281
X28884Y13125
X28864Y11135
X28264Y8867
X27474Y7877
X25644Y6487
X26044Y5987
X23930Y3533
X29835Y7470
X26096Y15397
X24107Y15321
X13757Y13987
X10734Y10497
X9934Y8857
X8181Y9636
X7000Y7470
X1882Y10423
X5819Y12785
X7788Y12785
X9756Y18494
T02
X24626Y13987
X17232Y7008
T03
X17694Y8937
X18994Y12187
X15919Y15321
X8944Y14572
T04
X2906Y11309
X2906Y9577
T05
X4335Y13951
X4335Y14951
X5335Y14951
X5335Y13951
X5335Y15951
X4335Y15951
X8469Y20841
X8469Y21841
X9469Y21841
X9469Y20841
X9469Y22841
X8469Y22841
X17433Y18691
X25307Y18691
X27367Y20644
X28367Y20644
X28367Y21644
X28367Y22644
X27367Y22644
X27367Y21644
X33075Y14770
X34075Y14770
X34075Y13770
X33075Y13770
X33075Y12770
X34075Y12770
X27382Y12604
X26382Y12604
X26382Y13604
X27382Y13604
X27382Y11604
X26382Y11604
X26382Y10604
X27382Y10604
X27382Y9604
X26382Y9604
X20418Y5699
X19418Y5699
X18418Y5699
X17418Y5699
X16418Y5699
X14103Y3837
X13103Y3837
X12103Y3837
X12103Y2837
X13103Y2837
X14103Y2837
X29229Y3230
X30229Y3230
X31229Y3230
X31229Y4230
X30229Y4230
X29229Y4230
T06
X8217Y5856
X8217Y17274
X18418Y24006
X28689Y17274
X28689Y5856
M30
