G75*
%MOIN*%
%OFA0B0*%
%FSLAX24Y24*%
%IPPOS*%
%LPD*%
%AMOC8*
5,1,8,0,0,1.08239X$1,22.5*
%
%ADD10R,0.0394X0.0433*%
%ADD11R,0.0472X0.0472*%
%ADD12R,0.0433X0.0394*%
%ADD13R,0.0630X0.0551*%
%ADD14R,0.0701X0.0402*%
%ADD15R,0.0551X0.0630*%
%ADD16R,0.0354X0.0138*%
%ADD17R,0.0984X0.0787*%
%ADD18R,0.1299X0.0197*%
%ADD19R,0.0453X0.0173*%
%ADD20R,0.0453X0.0248*%
%ADD21R,0.0640X0.0640*%
%ADD22OC8,0.0640*%
%ADD23R,0.0550X0.0137*%
%ADD24R,0.0472X0.0217*%
%ADD25C,0.0120*%
%ADD26C,0.0100*%
%ADD27C,0.0400*%
%ADD28C,0.0450*%
%ADD29C,0.0160*%
%ADD30C,0.0320*%
%ADD31C,0.0200*%
%ADD32C,0.0240*%
%ADD33C,0.0500*%
D10*
X019828Y018173D03*
X019828Y018842D03*
X016641Y022281D03*
X016641Y022951D03*
X018743Y025574D03*
X019412Y025574D03*
X022680Y025574D03*
X023349Y025574D03*
X025141Y022951D03*
X025141Y022281D03*
X028328Y022281D03*
X028328Y022951D03*
X029528Y022951D03*
X029528Y022281D03*
X030554Y025574D03*
X031223Y025574D03*
X027286Y025574D03*
X026617Y025574D03*
X030994Y017758D03*
X031663Y017758D03*
X024063Y015008D03*
X023394Y015008D03*
D11*
X024570Y025574D03*
X025397Y025574D03*
X028507Y025574D03*
X029334Y025574D03*
X032444Y025574D03*
X033271Y025574D03*
X021460Y025574D03*
X020633Y025574D03*
D12*
X024894Y015716D03*
X025563Y015716D03*
X022513Y015008D03*
X021844Y015008D03*
X021063Y015008D03*
X020394Y015008D03*
X034394Y015008D03*
X035063Y015008D03*
D13*
X031919Y018658D03*
X030738Y018658D03*
D14*
X020141Y022266D03*
X020141Y022966D03*
D15*
X021641Y023207D03*
X021641Y022025D03*
D16*
X031177Y014975D03*
X031177Y014719D03*
X031177Y014463D03*
X031177Y014208D03*
X031177Y013952D03*
X031177Y013696D03*
X031177Y013440D03*
X033480Y013440D03*
X033480Y013696D03*
X033480Y013952D03*
X033480Y014208D03*
X033480Y014463D03*
X033480Y014719D03*
X033480Y014975D03*
D17*
X012582Y017523D03*
X010416Y017523D03*
X010416Y021026D03*
X012582Y021026D03*
D18*
X012818Y019904D03*
X012818Y019589D03*
X012818Y019274D03*
X012818Y018960D03*
X012818Y018645D03*
D19*
X030945Y020100D03*
X030945Y020415D03*
X031712Y020415D03*
X031712Y020100D03*
X031712Y022100D03*
X031712Y022415D03*
X030945Y022415D03*
X030945Y022100D03*
X030945Y016415D03*
X030945Y016100D03*
X031712Y016100D03*
X031712Y016415D03*
D20*
X031712Y016767D03*
X030945Y016767D03*
X030945Y015748D03*
X031712Y015748D03*
X031712Y019748D03*
X030945Y019748D03*
X030945Y020767D03*
X031712Y020767D03*
X031712Y021748D03*
X030945Y021748D03*
X030945Y022767D03*
X031712Y022767D03*
D21*
X035916Y017274D03*
X024952Y013369D03*
D22*
X025952Y013369D03*
X026952Y013369D03*
X027952Y013369D03*
X028952Y013369D03*
X034916Y017274D03*
X034916Y018274D03*
X035916Y018274D03*
X035916Y019274D03*
X034916Y019274D03*
X034916Y020274D03*
X035916Y020274D03*
X035916Y021274D03*
X034916Y021274D03*
D23*
X028418Y019821D03*
X028418Y019565D03*
X028418Y019309D03*
X028418Y019053D03*
X028418Y018797D03*
X028418Y018541D03*
X028418Y018286D03*
X028418Y018030D03*
X028418Y017774D03*
X028418Y017518D03*
X028418Y017262D03*
X028418Y017006D03*
X028418Y016750D03*
X028418Y016494D03*
X025539Y016494D03*
X025539Y016750D03*
X025539Y017006D03*
X025539Y017262D03*
X025539Y017518D03*
X025539Y017774D03*
X025539Y018030D03*
X025539Y018286D03*
X025539Y018541D03*
X025539Y018797D03*
X025539Y019053D03*
X025539Y019309D03*
X025539Y019565D03*
X025539Y019821D03*
X023468Y019821D03*
X023468Y019565D03*
X023468Y019309D03*
X023468Y019053D03*
X023468Y018797D03*
X023468Y018541D03*
X023468Y018286D03*
X023468Y018030D03*
X023468Y017774D03*
X023468Y017518D03*
X023468Y017262D03*
X023468Y017006D03*
X023468Y016750D03*
X023468Y016494D03*
X020589Y016494D03*
X020589Y016750D03*
X020589Y017006D03*
X020589Y017262D03*
X020589Y017518D03*
X020589Y017774D03*
X020589Y018030D03*
X020589Y018286D03*
X020589Y018541D03*
X020589Y018797D03*
X020589Y019053D03*
X020589Y019309D03*
X020589Y019565D03*
X020589Y019821D03*
D24*
X019152Y022242D03*
X019152Y022616D03*
X019152Y022990D03*
X018129Y022990D03*
X018129Y022242D03*
X022717Y022242D03*
X022717Y022616D03*
X022717Y022990D03*
X023740Y022990D03*
X023740Y022242D03*
X026440Y022242D03*
X026440Y022616D03*
X026440Y022990D03*
X027463Y022990D03*
X027463Y022242D03*
D25*
X026440Y022242D02*
X026440Y021658D01*
X022978Y021658D01*
X022717Y021919D01*
X022717Y021919D01*
X022717Y022242D01*
X022828Y022991D02*
X019141Y022991D01*
X019141Y023991D01*
X019641Y024491D01*
X026266Y024491D01*
X026516Y024241D01*
X026516Y022991D01*
X026203Y022991D01*
X026203Y023554D01*
X025766Y023991D01*
X023141Y023991D01*
X022828Y023679D01*
X022828Y022991D01*
X022828Y023104D02*
X019141Y023104D01*
X019141Y023222D02*
X022828Y023222D01*
X022828Y023341D02*
X019141Y023341D01*
X019141Y023459D02*
X022828Y023459D01*
X022828Y023578D02*
X019141Y023578D01*
X019141Y023696D02*
X022846Y023696D01*
X022964Y023815D02*
X019141Y023815D01*
X019141Y023933D02*
X023083Y023933D01*
X023999Y024904D02*
X024904Y024904D01*
X025397Y025397D01*
X025397Y025574D01*
X024570Y025574D02*
X023999Y025574D01*
X023349Y025574D01*
X022680Y025574D02*
X022680Y025827D01*
X022516Y025991D01*
X018891Y025991D01*
X018743Y025843D01*
X018743Y025574D01*
X018743Y024593D01*
X017478Y023329D01*
X017478Y022833D01*
X017483Y022837D01*
X019201Y024052D02*
X026516Y024052D01*
X026516Y024170D02*
X019320Y024170D01*
X019438Y024289D02*
X026468Y024289D01*
X026350Y024407D02*
X019557Y024407D01*
X019412Y025574D02*
X020062Y025574D01*
X020633Y025574D01*
X020391Y022241D02*
X019891Y022241D01*
X019830Y022181D01*
X019828Y022175D01*
X019828Y020991D01*
X019078Y020241D01*
X013172Y020241D01*
X013172Y019868D01*
X013542Y019868D01*
X013580Y019829D01*
X015731Y019829D01*
X017828Y019866D01*
X019328Y019866D01*
X020453Y020991D01*
X020453Y022179D01*
X020391Y022241D01*
X020453Y022156D02*
X019828Y022156D01*
X019828Y022037D02*
X020453Y022037D01*
X020453Y021919D02*
X019828Y021919D01*
X019828Y021800D02*
X020453Y021800D01*
X020453Y021682D02*
X019828Y021682D01*
X019828Y021563D02*
X020453Y021563D01*
X020453Y021445D02*
X019828Y021445D01*
X019828Y021326D02*
X020453Y021326D01*
X020453Y021208D02*
X019828Y021208D01*
X019828Y021089D02*
X020453Y021089D01*
X020433Y020971D02*
X019808Y020971D01*
X019689Y020852D02*
X020314Y020852D01*
X020196Y020734D02*
X019571Y020734D01*
X019452Y020615D02*
X020077Y020615D01*
X019959Y020497D02*
X019334Y020497D01*
X019215Y020378D02*
X019840Y020378D01*
X019722Y020260D02*
X019097Y020260D01*
X019366Y019904D02*
X013172Y019904D01*
X013172Y020023D02*
X019485Y020023D01*
X019603Y020141D02*
X013172Y020141D01*
X012818Y019589D02*
X019509Y019589D01*
X020033Y020114D01*
X021063Y020114D01*
X021223Y019954D01*
X021223Y019744D01*
X021045Y019565D01*
X020589Y019565D01*
X020589Y019309D02*
X019930Y019309D01*
X019828Y019208D01*
X019828Y018842D01*
X019534Y019274D02*
X019833Y019574D01*
X019836Y019574D01*
X020083Y019821D01*
X020589Y019821D01*
X021033Y019053D02*
X021128Y018958D01*
X021228Y018558D02*
X021212Y018541D01*
X020589Y018541D01*
X020589Y018286D02*
X019876Y018286D01*
X019828Y018173D01*
X020589Y018030D02*
X021200Y018030D01*
X021328Y017908D01*
X020589Y017262D02*
X019983Y017262D01*
X019928Y017208D01*
X020078Y017006D02*
X020078Y016958D01*
X020078Y017006D02*
X020589Y017006D01*
X022578Y016958D02*
X022578Y016154D01*
X022578Y015073D01*
X022513Y015008D01*
X022578Y016154D02*
X026254Y016154D01*
X026228Y016608D02*
X026086Y016750D01*
X025539Y016750D01*
X026228Y016608D02*
X026286Y016750D01*
X026188Y018018D02*
X025088Y018018D01*
X025098Y018538D02*
X025102Y018541D01*
X025539Y018541D01*
X025539Y018797D02*
X026389Y018797D01*
X026728Y018458D01*
X026728Y014701D01*
X027440Y013990D01*
X027440Y012916D01*
X027617Y012739D01*
X028322Y012739D01*
X028952Y013369D01*
X029656Y013696D02*
X028684Y014668D01*
X027701Y014668D01*
X027278Y015091D01*
X027278Y017958D01*
X027606Y018286D01*
X028418Y018286D01*
X028418Y018541D02*
X029071Y018541D01*
X030277Y019748D01*
X030945Y019748D01*
X030945Y020100D01*
X030945Y020415D02*
X030445Y020415D01*
X030313Y020284D01*
X030313Y020134D01*
X028977Y018797D01*
X028418Y018797D01*
X028418Y019053D02*
X028883Y019053D01*
X030043Y020214D01*
X030043Y021374D01*
X030417Y021748D01*
X030945Y021748D01*
X030945Y022100D01*
X030945Y022415D02*
X030583Y022404D01*
X030293Y022404D01*
X029793Y021904D01*
X029793Y020324D01*
X028779Y019309D01*
X028418Y019309D01*
X028418Y019565D02*
X027886Y019565D01*
X027678Y019358D01*
X027678Y018958D01*
X026978Y018658D02*
X026978Y014996D01*
X027952Y014023D01*
X027952Y013369D01*
X027878Y014958D02*
X027578Y015258D01*
X027578Y015958D01*
X027878Y016258D01*
X028418Y016494D02*
X028784Y016494D01*
X029178Y016100D01*
X029236Y016100D01*
X029178Y016100D02*
X030945Y016100D01*
X030945Y016415D02*
X029821Y016415D01*
X029721Y016515D01*
X029486Y016750D01*
X028418Y016750D01*
X028418Y017006D02*
X030140Y017006D01*
X030278Y016867D01*
X030378Y016767D01*
X030945Y016767D01*
X031167Y017262D02*
X031663Y017758D01*
X031669Y017758D01*
X031715Y017791D01*
X035426Y017791D01*
X035916Y018274D01*
X035426Y018791D02*
X035916Y019274D01*
X035426Y018791D02*
X034014Y018791D01*
X033647Y019158D01*
X030047Y019158D01*
X028919Y018030D01*
X028418Y018030D01*
X028418Y017774D02*
X029023Y017774D01*
X029903Y018654D01*
X030734Y018654D01*
X030738Y018658D01*
X030994Y017758D02*
X030468Y017758D01*
X031167Y017262D02*
X028418Y017262D01*
X028418Y017518D02*
X027968Y017518D01*
X027728Y017758D01*
X026978Y018658D02*
X026583Y019053D01*
X025539Y019053D01*
X025539Y019309D02*
X025980Y019309D01*
X026952Y020281D01*
X026952Y024983D01*
X026617Y025318D01*
X026617Y025574D01*
X027286Y025574D02*
X027936Y025574D01*
X028507Y025574D01*
X030554Y025574D02*
X030554Y024356D01*
X030456Y024258D01*
X031223Y025574D02*
X031873Y025574D01*
X032444Y025574D01*
X032654Y024282D02*
X032678Y024258D01*
X032678Y024282D02*
X032654Y024282D01*
X030945Y022767D02*
X030945Y022415D01*
X029528Y022281D02*
X029528Y020408D01*
X028942Y019821D01*
X028418Y019821D01*
X027565Y019821D01*
X027528Y019858D01*
X028368Y019568D02*
X028415Y019568D01*
X028418Y019565D01*
X026440Y020144D02*
X026440Y021658D01*
X026516Y023104D02*
X026203Y023104D01*
X026203Y023222D02*
X026516Y023222D01*
X026516Y023341D02*
X026203Y023341D01*
X026203Y023459D02*
X026516Y023459D01*
X026516Y023578D02*
X026179Y023578D01*
X026061Y023696D02*
X026516Y023696D01*
X026516Y023815D02*
X025942Y023815D01*
X025824Y023933D02*
X026516Y023933D01*
X026440Y020144D02*
X025861Y019565D01*
X025539Y019565D01*
X025539Y019821D02*
X024765Y019821D01*
X024678Y019908D01*
X025098Y018538D02*
X026098Y018538D01*
X023988Y018018D02*
X023978Y018028D01*
X023378Y018028D01*
X023468Y018030D02*
X022906Y018030D01*
X022878Y018058D01*
X022778Y018158D01*
X022778Y018058D02*
X022878Y018058D01*
X022934Y018058D01*
X022906Y018030D01*
X022883Y017262D02*
X022578Y016958D01*
X022883Y017262D02*
X023468Y017262D01*
X023641Y015679D02*
X024063Y015256D01*
X024063Y015008D01*
X024063Y013767D01*
X024461Y013369D01*
X024952Y013369D01*
X027878Y014958D02*
X030678Y014958D01*
X030917Y014719D01*
X031177Y014719D01*
X031177Y014463D02*
X030573Y014463D01*
X030478Y014558D01*
X030728Y014208D02*
X030578Y014058D01*
X030728Y014208D02*
X031177Y014208D01*
X031528Y014208D01*
X031678Y014358D01*
X031678Y014858D01*
X031561Y014975D01*
X031177Y014975D01*
X031163Y015294D02*
X030955Y015502D01*
X030945Y015748D01*
X031163Y015294D02*
X031623Y015294D01*
X031895Y015022D01*
X031895Y014458D01*
X031900Y014463D01*
X033480Y014463D01*
X033480Y014719D01*
X033480Y014975D02*
X032711Y014975D01*
X032678Y014908D01*
X032673Y014913D02*
X032673Y015214D01*
X032143Y015744D01*
X031726Y015744D01*
X031712Y016100D02*
X032307Y016100D01*
X032849Y015558D01*
X033791Y015558D01*
X033391Y016058D02*
X032809Y016058D01*
X032452Y016415D01*
X031712Y016415D01*
X031712Y016767D02*
X032681Y016767D01*
X032891Y016558D01*
X033660Y017208D02*
X034360Y016508D01*
X035143Y016508D01*
X035916Y017274D01*
X034394Y015008D02*
X034361Y014975D01*
X033480Y014975D01*
X033480Y014208D02*
X033028Y014208D01*
X032878Y014058D01*
X032378Y014058D01*
X031895Y014174D02*
X031895Y014458D01*
X031895Y014174D02*
X031678Y013958D01*
X031183Y013958D01*
X031177Y013952D01*
X031177Y013696D01*
X029656Y013696D01*
X029721Y016515D02*
X029678Y016558D01*
X032878Y014058D02*
X032878Y013658D01*
X033096Y013440D01*
X033480Y013440D01*
X033480Y013696D02*
X034540Y013696D01*
X034578Y013658D01*
X034178Y014158D02*
X033973Y013952D01*
X033480Y013952D01*
X033119Y019786D02*
X032805Y020100D01*
X031712Y020100D01*
X030945Y020415D02*
X030945Y020767D01*
X019534Y019274D02*
X012818Y019274D01*
D26*
X019928Y017208D02*
X019928Y016958D01*
X020578Y017008D02*
X020580Y017006D01*
X020589Y017006D01*
X020578Y017008D02*
X021028Y017008D01*
X021128Y017258D02*
X020528Y017258D01*
X020578Y017058D02*
X020578Y017008D01*
X022513Y015008D02*
X023394Y015008D01*
X023468Y016494D02*
X025539Y016494D01*
X025539Y017006D02*
X023468Y017006D01*
X023468Y017518D02*
X024018Y017518D01*
X024274Y017262D01*
X025539Y017262D01*
X025539Y017518D02*
X024918Y017518D01*
X024678Y017758D01*
X024678Y018758D01*
X024383Y019053D01*
X023468Y019053D01*
X021033Y019053D02*
X020589Y019053D01*
X020597Y019558D02*
X020589Y019565D01*
D27*
X020758Y020658D03*
X019391Y021241D03*
X018578Y022616D03*
X020978Y023583D03*
X022141Y024991D03*
X023999Y024904D03*
X023999Y025574D03*
X024466Y023595D03*
X023278Y022658D03*
X024466Y022283D03*
X025478Y021158D03*
X025778Y022283D03*
X024678Y019908D03*
X024228Y018458D03*
X022528Y017958D03*
X021328Y017908D03*
X021228Y018558D03*
X022428Y019458D03*
X022291Y021658D03*
X019268Y018168D03*
X018468Y016528D03*
X017109Y017700D03*
X017109Y019078D03*
X020478Y015958D03*
X021078Y015758D03*
X022128Y016008D03*
X021328Y017058D03*
X023641Y015679D03*
X024266Y015741D03*
X026228Y018058D03*
X027728Y017758D03*
X027678Y018958D03*
X027878Y016258D03*
X028028Y015708D03*
X029178Y016100D03*
X029721Y016515D03*
X030278Y016867D03*
X030468Y017758D03*
X032347Y019658D03*
X033119Y019786D03*
X034170Y019274D03*
X033466Y018658D03*
X033660Y017208D03*
X032891Y016558D03*
X033391Y016058D03*
X033791Y015558D03*
X032678Y014908D03*
X032378Y014058D03*
X031141Y012991D03*
X030578Y014058D03*
X030478Y014558D03*
X029733Y014497D03*
X034178Y014158D03*
X034578Y013658D03*
X035613Y012385D03*
X038369Y015141D03*
X036798Y016538D03*
X036008Y015548D03*
X037398Y018805D03*
X037418Y020795D03*
X037438Y022148D03*
X038369Y023408D03*
X035613Y026164D03*
X034241Y025574D03*
X031873Y025574D03*
X031873Y024768D03*
X032641Y022991D03*
X034630Y023068D03*
X030489Y021223D03*
X028328Y021616D03*
X029516Y023679D03*
X027391Y024741D03*
X027936Y025574D03*
X020062Y025574D03*
X018290Y026164D03*
X015534Y023408D03*
X015534Y015141D03*
X018290Y012385D03*
X020456Y013960D03*
X021834Y013960D03*
D28*
X025766Y014679D03*
X033160Y021658D03*
D29*
X012900Y013767D02*
X012900Y012900D01*
X014849Y012900D01*
X014967Y012783D01*
X014967Y009356D01*
X018602Y009356D01*
X018602Y010420D01*
X018719Y010537D01*
X019783Y010537D01*
X019783Y011405D01*
X019900Y011522D01*
X020657Y011522D01*
X020774Y011405D01*
X020774Y010537D01*
X021641Y010537D01*
X021758Y010420D01*
X021758Y009356D01*
X025295Y009356D01*
X025295Y011405D01*
X025412Y011522D01*
X031877Y011522D01*
X031994Y011405D01*
X031994Y010537D01*
X032861Y010537D01*
X032978Y010420D01*
X032978Y009356D01*
X036712Y009356D01*
X036712Y011405D01*
X036784Y011476D01*
X035924Y011476D01*
X035807Y011593D01*
X035807Y013176D01*
X035801Y013183D01*
X035807Y013258D01*
X035807Y013334D01*
X035813Y013340D01*
X035815Y013367D01*
X035806Y013381D01*
X035820Y013447D01*
X035825Y013516D01*
X035838Y013527D01*
X035845Y013561D01*
X035838Y013576D01*
X035862Y013640D01*
X035877Y013707D01*
X035890Y013716D01*
X035903Y013749D01*
X035898Y013765D01*
X035931Y013825D01*
X035955Y013889D01*
X035970Y013896D01*
X035987Y013927D01*
X035985Y013943D01*
X036026Y013998D01*
X036058Y014058D01*
X036074Y014063D01*
X036095Y014091D01*
X036095Y014107D01*
X036144Y014156D01*
X036185Y014210D01*
X036201Y014213D01*
X036226Y014238D01*
X036228Y014254D01*
X036283Y014295D01*
X036332Y014343D01*
X036348Y014343D01*
X036376Y014365D01*
X036381Y014380D01*
X036441Y014413D01*
X036496Y014454D01*
X036512Y014452D01*
X036543Y014469D01*
X036550Y014484D01*
X036614Y014508D01*
X036674Y014540D01*
X036690Y014536D01*
X036723Y014548D01*
X036732Y014562D01*
X036799Y014577D01*
X036863Y014600D01*
X036878Y014594D01*
X036912Y014601D01*
X036923Y014614D01*
X036991Y014618D01*
X037058Y014633D01*
X037072Y014624D01*
X037099Y014626D01*
X037105Y014632D01*
X037181Y014632D01*
X037256Y014637D01*
X037262Y014632D01*
X038846Y014632D01*
X038963Y014515D01*
X038963Y013326D01*
X038968Y013320D01*
X038963Y013244D01*
X038963Y013168D01*
X038957Y013163D01*
X038953Y013100D01*
X038962Y013088D01*
X038948Y013019D01*
X038943Y012950D01*
X038932Y012940D01*
X038918Y012871D01*
X038925Y012857D01*
X038903Y012791D01*
X038889Y012723D01*
X038877Y012715D01*
X038854Y012648D01*
X038859Y012634D01*
X038828Y012572D01*
X038806Y012505D01*
X038792Y012499D01*
X038761Y012436D01*
X038764Y012421D01*
X038725Y012363D01*
X038694Y012301D01*
X038680Y012296D01*
X038641Y012238D01*
X038642Y012223D01*
X038596Y012170D01*
X038558Y012112D01*
X038543Y012109D01*
X038497Y012056D01*
X038496Y012042D01*
X038443Y011996D01*
X038397Y011943D01*
X038382Y011942D01*
X038329Y011896D01*
X038327Y011881D01*
X038269Y011842D01*
X038216Y011797D01*
X038201Y011797D01*
X038143Y011758D01*
X038138Y011744D01*
X038075Y011713D01*
X038018Y011675D01*
X038003Y011678D01*
X037940Y011647D01*
X037933Y011633D01*
X037867Y011611D01*
X037805Y011580D01*
X037791Y011585D01*
X037724Y011562D01*
X037716Y011550D01*
X037647Y011536D01*
X037581Y011514D01*
X037568Y011520D01*
X037499Y011507D01*
X037489Y011495D01*
X037420Y011491D01*
X037506Y011405D01*
X037506Y010537D01*
X038570Y010537D01*
X038687Y010420D01*
X038687Y009356D01*
X042224Y009356D01*
X042224Y012795D01*
X041160Y012795D01*
X041043Y012912D01*
X041043Y013976D01*
X040176Y013976D01*
X040059Y014093D01*
X040059Y015157D01*
X038995Y015157D01*
X038878Y015274D01*
X038878Y017113D01*
X038995Y017230D01*
X041043Y017230D01*
X041043Y018097D01*
X041160Y018215D01*
X043405Y018215D01*
X043405Y019279D01*
X043522Y019396D01*
X044389Y019396D01*
X044389Y020460D01*
X044507Y020577D01*
X045571Y020577D01*
X045571Y022933D01*
X044507Y022933D01*
X044389Y023050D01*
X044389Y024114D01*
X042034Y024114D01*
X042034Y022951D01*
X041916Y022834D01*
X040852Y022834D01*
X040852Y022066D01*
X040735Y021949D01*
X038995Y021949D01*
X038878Y022066D01*
X038878Y023319D01*
X038846Y023287D01*
X037262Y023287D01*
X037256Y023282D01*
X037181Y023287D01*
X037105Y023287D01*
X037099Y023293D01*
X037072Y023295D01*
X037058Y023286D01*
X036991Y023301D01*
X036923Y023306D01*
X036912Y023318D01*
X036878Y023325D01*
X036863Y023319D01*
X036799Y023343D01*
X036732Y023357D01*
X036723Y023371D01*
X036690Y023383D01*
X036674Y023379D01*
X036614Y023411D01*
X036550Y023435D01*
X036543Y023450D01*
X036512Y023467D01*
X036496Y023465D01*
X036441Y023506D01*
X036381Y023539D01*
X036376Y023554D01*
X036348Y023576D01*
X036332Y023576D01*
X036283Y023624D01*
X036228Y023665D01*
X036226Y023681D01*
X036201Y023706D01*
X036185Y023709D01*
X036170Y023728D01*
X036170Y021756D01*
X036436Y021490D01*
X036436Y021059D01*
X036152Y020774D01*
X036436Y020490D01*
X036436Y020059D01*
X036152Y019774D01*
X036436Y019490D01*
X036436Y019059D01*
X036152Y018774D01*
X036436Y018490D01*
X036436Y018059D01*
X036172Y017794D01*
X036319Y017794D01*
X036436Y017677D01*
X036436Y016872D01*
X036319Y016754D01*
X035761Y016754D01*
X035327Y016323D01*
X035290Y016287D01*
X035290Y016287D01*
X035289Y016287D01*
X035242Y016267D01*
X035195Y016248D01*
X035194Y016248D01*
X035194Y016247D01*
X035143Y016248D01*
X034308Y016248D01*
X034213Y016287D01*
X034140Y016360D01*
X034140Y016360D01*
X033692Y016808D01*
X033580Y016808D01*
X033433Y016868D01*
X033321Y016981D01*
X033260Y017128D01*
X033260Y017287D01*
X033321Y017434D01*
X033418Y017531D01*
X032060Y017531D01*
X032060Y017458D01*
X031943Y017341D01*
X031614Y017341D01*
X031315Y017041D01*
X031307Y017038D01*
X031328Y017017D01*
X031403Y017091D01*
X032022Y017091D01*
X032086Y017027D01*
X032733Y017027D01*
X032828Y016988D01*
X032859Y016958D01*
X032971Y016958D01*
X033118Y016897D01*
X033230Y016784D01*
X033291Y016637D01*
X033291Y016478D01*
X033277Y016443D01*
X033311Y016458D01*
X033471Y016458D01*
X033618Y016397D01*
X033730Y016284D01*
X033791Y016137D01*
X033791Y015978D01*
X033783Y015958D01*
X033871Y015958D01*
X034018Y015897D01*
X034130Y015784D01*
X034191Y015637D01*
X034191Y015478D01*
X034161Y015404D01*
X034693Y015404D01*
X034744Y015353D01*
X034777Y015372D01*
X034823Y015384D01*
X035045Y015384D01*
X035045Y015026D01*
X035081Y015026D01*
X035081Y015384D01*
X035303Y015384D01*
X035349Y015372D01*
X035390Y015348D01*
X035424Y015315D01*
X035447Y015274D01*
X035460Y015228D01*
X035460Y015026D01*
X035082Y015026D01*
X035082Y014989D01*
X035460Y014989D01*
X035460Y014787D01*
X035447Y014741D01*
X035424Y014700D01*
X035390Y014667D01*
X035349Y014643D01*
X035303Y014631D01*
X035081Y014631D01*
X035081Y014989D01*
X035045Y014989D01*
X035045Y014631D01*
X034823Y014631D01*
X034777Y014643D01*
X034744Y014662D01*
X034693Y014611D01*
X034094Y014611D01*
X033990Y014715D01*
X033857Y014715D01*
X033857Y014402D01*
X033952Y014497D01*
X034099Y014558D01*
X034258Y014558D01*
X034405Y014497D01*
X034518Y014384D01*
X034578Y014237D01*
X034578Y014078D01*
X034570Y014058D01*
X034658Y014058D01*
X034805Y013997D01*
X034918Y013884D01*
X034978Y013737D01*
X034978Y013578D01*
X034918Y013431D01*
X034805Y013318D01*
X034658Y013258D01*
X034499Y013258D01*
X034352Y013318D01*
X034239Y013431D01*
X034237Y013436D01*
X033857Y013436D01*
X033857Y013288D01*
X033740Y013171D01*
X033220Y013171D01*
X033211Y013180D01*
X033044Y013180D01*
X032949Y013219D01*
X032731Y013437D01*
X032658Y013510D01*
X032618Y013606D01*
X032618Y013732D01*
X032605Y013718D01*
X032458Y013658D01*
X032299Y013658D01*
X032152Y013718D01*
X032039Y013831D01*
X032004Y013916D01*
X031899Y013810D01*
X031826Y013737D01*
X031730Y013698D01*
X031554Y013698D01*
X031554Y013544D01*
X031534Y013524D01*
X031534Y013440D01*
X031450Y013440D01*
X031450Y013440D01*
X031534Y013440D01*
X031534Y013347D01*
X031522Y013301D01*
X031498Y013260D01*
X031465Y013227D01*
X031423Y013203D01*
X031378Y013191D01*
X031177Y013191D01*
X031177Y013427D01*
X031177Y013427D01*
X031177Y013191D01*
X030976Y013191D01*
X030930Y013203D01*
X030889Y013227D01*
X030856Y013260D01*
X030832Y013301D01*
X030820Y013347D01*
X030820Y013436D01*
X029605Y013436D01*
X029509Y013475D01*
X029472Y013513D01*
X029472Y013154D01*
X029167Y012849D01*
X028799Y012849D01*
X028469Y012519D01*
X028373Y012479D01*
X027565Y012479D01*
X027470Y012519D01*
X027397Y012592D01*
X027219Y012769D01*
X027180Y012865D01*
X027180Y012890D01*
X027159Y012869D01*
X026972Y012869D01*
X026972Y013349D01*
X026932Y013349D01*
X026932Y012869D01*
X026745Y012869D01*
X026466Y013148D01*
X026167Y012849D01*
X025736Y012849D01*
X025472Y013114D01*
X025472Y012966D01*
X025354Y012849D01*
X024549Y012849D01*
X024432Y012966D01*
X024432Y013109D01*
X024409Y013109D01*
X024313Y013149D01*
X024240Y013222D01*
X023843Y013619D01*
X023803Y013715D01*
X023803Y014591D01*
X023783Y014591D01*
X023728Y014646D01*
X023673Y014591D01*
X023114Y014591D01*
X022997Y014708D01*
X022997Y014758D01*
X022930Y014758D01*
X022930Y014728D01*
X022812Y014611D01*
X022214Y014611D01*
X022163Y014662D01*
X022130Y014643D01*
X022084Y014631D01*
X021862Y014631D01*
X021862Y014989D01*
X021825Y014989D01*
X021825Y014631D01*
X021604Y014631D01*
X021558Y014643D01*
X021517Y014667D01*
X021483Y014700D01*
X021472Y014720D01*
X021362Y014611D01*
X020764Y014611D01*
X020713Y014662D01*
X020680Y014643D01*
X020634Y014631D01*
X020412Y014631D01*
X020412Y014989D01*
X020375Y014989D01*
X019997Y014989D01*
X019997Y014787D01*
X020010Y014741D01*
X020033Y014700D01*
X020067Y014667D01*
X020108Y014643D01*
X020154Y014631D01*
X020375Y014631D01*
X020375Y014989D01*
X020375Y015026D01*
X019997Y015026D01*
X019997Y015228D01*
X020010Y015274D01*
X020033Y015315D01*
X020067Y015348D01*
X020108Y015372D01*
X020154Y015384D01*
X020375Y015384D01*
X020375Y015026D01*
X020412Y015026D01*
X020412Y015384D01*
X020634Y015384D01*
X020680Y015372D01*
X020713Y015353D01*
X020764Y015404D01*
X020798Y015404D01*
X020798Y015472D01*
X020739Y015531D01*
X020678Y015678D01*
X020678Y015837D01*
X020739Y015984D01*
X020798Y016043D01*
X020798Y016063D01*
X020841Y016166D01*
X020901Y016226D01*
X020231Y016226D01*
X020114Y016343D01*
X020114Y016901D01*
X020134Y016921D01*
X020134Y017006D01*
X020219Y017006D01*
X020219Y017006D01*
X020134Y017006D01*
X020134Y017098D01*
X020144Y017134D01*
X020134Y017170D01*
X020134Y017262D01*
X020219Y017262D01*
X020134Y017262D01*
X020134Y017346D01*
X020114Y017366D01*
X020114Y017800D01*
X020095Y017789D01*
X020049Y017776D01*
X019847Y017776D01*
X019847Y018154D01*
X019810Y018154D01*
X019810Y017776D01*
X019608Y017776D01*
X019562Y017789D01*
X019521Y017812D01*
X019488Y017846D01*
X019464Y017887D01*
X019452Y017933D01*
X019452Y018154D01*
X019810Y018154D01*
X019810Y018191D01*
X019452Y018191D01*
X019452Y018413D01*
X019464Y018459D01*
X019483Y018492D01*
X019432Y018543D01*
X019432Y019014D01*
X013667Y019014D01*
X013667Y018778D01*
X013647Y018758D01*
X013647Y018645D01*
X012818Y018645D01*
X012818Y018645D01*
X013647Y018645D01*
X013647Y018522D01*
X013635Y018477D01*
X013611Y018436D01*
X013578Y018402D01*
X013537Y018378D01*
X013491Y018366D01*
X012818Y018366D01*
X012818Y018645D01*
X012818Y018645D01*
X011988Y018645D01*
X011988Y018758D01*
X011968Y018778D01*
X011968Y020050D01*
X011917Y019927D01*
X011811Y019821D01*
X011672Y019763D01*
X011522Y019763D01*
X011384Y019821D01*
X011278Y019927D01*
X011220Y020066D01*
X011220Y020216D01*
X011278Y020354D01*
X011384Y020460D01*
X011522Y020518D01*
X011672Y020518D01*
X011811Y020460D01*
X011917Y020354D01*
X011974Y020216D01*
X011974Y020092D01*
X012085Y020203D01*
X012912Y020203D01*
X012912Y020293D01*
X012952Y020388D01*
X012996Y020433D01*
X012007Y020433D01*
X011889Y020550D01*
X011889Y021503D01*
X012007Y021620D01*
X013157Y021620D01*
X013274Y021503D01*
X013274Y020550D01*
X013225Y020501D01*
X018970Y020501D01*
X019568Y021099D01*
X019568Y021942D01*
X019480Y021942D01*
X019472Y021934D01*
X018833Y021934D01*
X018716Y022051D01*
X018716Y022433D01*
X018743Y022460D01*
X018736Y022484D01*
X018736Y022616D01*
X019152Y022616D01*
X019152Y022616D01*
X018736Y022616D01*
X018736Y022748D01*
X018743Y022772D01*
X018716Y022799D01*
X018716Y023181D01*
X018833Y023298D01*
X018881Y023298D01*
X018881Y024043D01*
X018920Y024138D01*
X019493Y024711D01*
X019589Y024751D01*
X019692Y024751D01*
X023629Y024751D01*
X023599Y024825D01*
X023599Y024984D01*
X023660Y025131D01*
X023768Y025239D01*
X023739Y025268D01*
X023629Y025157D01*
X023070Y025157D01*
X023015Y025212D01*
X022960Y025157D01*
X022400Y025157D01*
X022283Y025274D01*
X022283Y025731D01*
X021876Y025731D01*
X021876Y025612D01*
X021498Y025612D01*
X021498Y025536D01*
X021876Y025536D01*
X021876Y025314D01*
X021863Y025268D01*
X021840Y025227D01*
X021806Y025193D01*
X021765Y025170D01*
X021719Y025157D01*
X021498Y025157D01*
X021498Y025536D01*
X021421Y025536D01*
X021421Y025157D01*
X021200Y025157D01*
X021154Y025170D01*
X021113Y025193D01*
X021079Y025227D01*
X021065Y025251D01*
X020952Y025137D01*
X020314Y025137D01*
X020238Y025214D01*
X020141Y025174D01*
X019982Y025174D01*
X019835Y025235D01*
X019802Y025268D01*
X019692Y025157D01*
X019133Y025157D01*
X019078Y025212D01*
X019023Y025157D01*
X019003Y025157D01*
X019003Y024542D01*
X018963Y024446D01*
X017816Y023298D01*
X018448Y023298D01*
X018565Y023181D01*
X018565Y022799D01*
X018448Y022682D01*
X017903Y022682D01*
X017860Y022578D01*
X017833Y022550D01*
X018448Y022550D01*
X018565Y022433D01*
X018565Y022051D01*
X018448Y021934D01*
X017810Y021934D01*
X017801Y021942D01*
X017580Y021942D01*
X017470Y021988D01*
X017283Y022174D01*
X017199Y022259D01*
X017153Y022369D01*
X017153Y022521D01*
X017136Y022539D01*
X017013Y022539D01*
X017017Y022522D01*
X017017Y022300D01*
X016659Y022300D01*
X016659Y022263D01*
X016659Y021885D01*
X016861Y021885D01*
X016907Y021897D01*
X016948Y021921D01*
X016982Y021954D01*
X017005Y021995D01*
X017017Y022041D01*
X017017Y022263D01*
X016659Y022263D01*
X016622Y022263D01*
X016264Y022263D01*
X016264Y022041D01*
X016276Y021995D01*
X016300Y021954D01*
X016333Y021921D01*
X016374Y021897D01*
X016420Y021885D01*
X016622Y021885D01*
X016622Y022263D01*
X016622Y022300D01*
X016264Y022300D01*
X016264Y022522D01*
X016276Y022567D01*
X016295Y022600D01*
X016244Y022651D01*
X016244Y023250D01*
X016281Y023287D01*
X015058Y023287D01*
X014941Y023404D01*
X014941Y024593D01*
X014936Y024599D01*
X014941Y024675D01*
X014941Y024751D01*
X014946Y024756D01*
X014950Y024819D01*
X014942Y024832D01*
X014955Y024900D01*
X014960Y024969D01*
X014971Y024979D01*
X014985Y025048D01*
X014978Y025062D01*
X015001Y025128D01*
X015014Y025196D01*
X015027Y025204D01*
X015049Y025271D01*
X015044Y025285D01*
X015075Y025348D01*
X015098Y025414D01*
X015111Y025420D01*
X015142Y025483D01*
X015139Y025498D01*
X015178Y025556D01*
X015209Y025618D01*
X015223Y025623D01*
X015256Y025672D01*
X015256Y026476D01*
X014192Y026476D01*
X014074Y026593D01*
X014074Y027657D01*
X011719Y027657D01*
X011719Y026593D01*
X011601Y026476D01*
X010537Y026476D01*
X010537Y022066D01*
X010420Y021949D01*
X009652Y021949D01*
X009652Y016246D01*
X010420Y016246D01*
X010537Y016129D01*
X010537Y015065D01*
X011601Y015065D01*
X011719Y014948D01*
X011719Y013884D01*
X012783Y013884D01*
X012900Y013767D01*
X012900Y013760D02*
X014941Y013760D01*
X014941Y013602D02*
X012900Y013602D01*
X012900Y013443D02*
X014941Y013443D01*
X014941Y013326D02*
X014936Y013320D01*
X014941Y013244D01*
X014941Y013168D01*
X014946Y013163D01*
X014950Y013100D01*
X014942Y013088D01*
X014955Y013019D01*
X014960Y012950D01*
X014971Y012940D01*
X014985Y012871D01*
X014978Y012857D01*
X015001Y012791D01*
X015014Y012723D01*
X015027Y012715D01*
X015049Y012648D01*
X015044Y012634D01*
X015075Y012572D01*
X015098Y012505D01*
X015111Y012499D01*
X015142Y012436D01*
X015139Y012421D01*
X015178Y012363D01*
X015209Y012301D01*
X015223Y012296D01*
X015262Y012238D01*
X015261Y012223D01*
X015307Y012170D01*
X015346Y012112D01*
X015360Y012109D01*
X015407Y012056D01*
X015408Y012042D01*
X015460Y011996D01*
X015506Y011943D01*
X015521Y011942D01*
X015574Y011896D01*
X015577Y011881D01*
X015635Y011842D01*
X015687Y011797D01*
X015702Y011797D01*
X015760Y011758D01*
X015765Y011744D01*
X015828Y011713D01*
X015886Y011675D01*
X015900Y011678D01*
X015963Y011647D01*
X015970Y011633D01*
X016036Y011611D01*
X016099Y011580D01*
X016113Y011585D01*
X016179Y011562D01*
X016188Y011550D01*
X016256Y011536D01*
X016322Y011514D01*
X016335Y011520D01*
X016404Y011507D01*
X016414Y011495D01*
X016484Y011491D01*
X016552Y011477D01*
X016565Y011486D01*
X016627Y011481D01*
X016633Y011476D01*
X016709Y011476D01*
X016785Y011471D01*
X016791Y011476D01*
X017979Y011476D01*
X018097Y011593D01*
X018097Y013176D01*
X018102Y013183D01*
X018097Y013258D01*
X018097Y013334D01*
X018091Y013340D01*
X018089Y013367D01*
X018098Y013381D01*
X018083Y013447D01*
X018078Y013516D01*
X018066Y013527D01*
X018058Y013561D01*
X018065Y013576D01*
X018041Y013640D01*
X018027Y013707D01*
X018013Y013716D01*
X018000Y013749D01*
X018005Y013765D01*
X017972Y013825D01*
X017948Y013889D01*
X017933Y013896D01*
X017916Y013927D01*
X017919Y013943D01*
X017878Y013998D01*
X017845Y014058D01*
X017829Y014063D01*
X017808Y014091D01*
X017808Y014107D01*
X017760Y014156D01*
X017719Y014210D01*
X017702Y014213D01*
X017677Y014238D01*
X017675Y014254D01*
X017620Y014295D01*
X017572Y014343D01*
X017555Y014343D01*
X017527Y014365D01*
X017523Y014380D01*
X017462Y014413D01*
X017408Y014454D01*
X017391Y014452D01*
X017360Y014469D01*
X017354Y014484D01*
X017289Y014508D01*
X017229Y014540D01*
X017214Y014536D01*
X017180Y014548D01*
X017172Y014562D01*
X017105Y014577D01*
X017040Y014600D01*
X017026Y014594D01*
X016991Y014601D01*
X016980Y014614D01*
X016912Y014618D01*
X016845Y014633D01*
X016831Y014624D01*
X016804Y014626D01*
X016798Y014632D01*
X016723Y014632D01*
X016647Y014637D01*
X016641Y014632D01*
X015058Y014632D01*
X014941Y014515D01*
X014941Y013326D01*
X014938Y013285D02*
X012900Y013285D01*
X012900Y013126D02*
X014948Y013126D01*
X014959Y012968D02*
X012900Y012968D01*
X011719Y013919D02*
X014941Y013919D01*
X014941Y014077D02*
X011719Y014077D01*
X011719Y014236D02*
X014941Y014236D01*
X014941Y014394D02*
X011719Y014394D01*
X011719Y014553D02*
X014978Y014553D01*
X014940Y012809D02*
X014995Y012809D01*
X014967Y012651D02*
X015049Y012651D01*
X015115Y012492D02*
X014967Y012492D01*
X014967Y012334D02*
X015193Y012334D01*
X015303Y012175D02*
X014967Y012175D01*
X014967Y012017D02*
X015436Y012017D01*
X015611Y011858D02*
X014967Y011858D01*
X014967Y011700D02*
X015849Y011700D01*
X016231Y011541D02*
X014967Y011541D01*
X014967Y011383D02*
X019783Y011383D01*
X019783Y011224D02*
X014967Y011224D01*
X014967Y011066D02*
X019783Y011066D01*
X019783Y010907D02*
X014967Y010907D01*
X014967Y010749D02*
X019783Y010749D01*
X019783Y010590D02*
X014967Y010590D01*
X014967Y010432D02*
X018613Y010432D01*
X018602Y010273D02*
X014967Y010273D01*
X014967Y010115D02*
X018602Y010115D01*
X018602Y009956D02*
X014967Y009956D01*
X014967Y009798D02*
X018602Y009798D01*
X018602Y009639D02*
X014967Y009639D01*
X014967Y009481D02*
X018602Y009481D01*
X018044Y011541D02*
X035859Y011541D01*
X035807Y011700D02*
X018097Y011700D01*
X018097Y011858D02*
X035807Y011858D01*
X035807Y012017D02*
X018097Y012017D01*
X018097Y012175D02*
X035807Y012175D01*
X035807Y012334D02*
X018097Y012334D01*
X018097Y012492D02*
X027534Y012492D01*
X027338Y012651D02*
X018097Y012651D01*
X018097Y012809D02*
X027203Y012809D01*
X026972Y012968D02*
X026932Y012968D01*
X026932Y013126D02*
X026972Y013126D01*
X026972Y013285D02*
X026932Y013285D01*
X026932Y013389D02*
X026932Y013869D01*
X026745Y013869D01*
X026466Y013590D01*
X026312Y013744D01*
X026312Y013795D01*
X026560Y014043D01*
X026614Y014175D01*
X026614Y014448D01*
X027180Y013882D01*
X027180Y013848D01*
X027159Y013869D01*
X026972Y013869D01*
X026972Y013389D01*
X026932Y013389D01*
X026932Y013443D02*
X026972Y013443D01*
X026972Y013602D02*
X026932Y013602D01*
X026932Y013760D02*
X026972Y013760D01*
X027143Y013919D02*
X026436Y013919D01*
X026312Y013760D02*
X026636Y013760D01*
X026477Y013602D02*
X026454Y013602D01*
X026444Y013126D02*
X026488Y013126D01*
X026646Y012968D02*
X026286Y012968D01*
X025618Y012968D02*
X025472Y012968D01*
X025472Y013624D02*
X025472Y013772D01*
X025354Y013889D01*
X024549Y013889D01*
X024432Y013772D01*
X024432Y013766D01*
X024323Y013874D01*
X024323Y014591D01*
X024343Y014591D01*
X024460Y014708D01*
X024460Y015307D01*
X024343Y015424D01*
X024263Y015424D01*
X024041Y015646D01*
X024041Y015758D01*
X023984Y015894D01*
X024497Y015894D01*
X024497Y015735D01*
X024875Y015735D01*
X024875Y015698D01*
X024497Y015698D01*
X024497Y015496D01*
X024510Y015450D01*
X024533Y015409D01*
X024567Y015375D01*
X024608Y015352D01*
X024654Y015339D01*
X024875Y015339D01*
X024875Y015698D01*
X024912Y015698D01*
X024912Y015339D01*
X025134Y015339D01*
X025180Y015352D01*
X025213Y015371D01*
X025264Y015319D01*
X025862Y015319D01*
X025894Y015351D01*
X025894Y014396D01*
X025646Y014148D01*
X025592Y014015D01*
X025592Y013744D01*
X025472Y013624D01*
X025472Y013760D02*
X025592Y013760D01*
X025592Y013919D02*
X024323Y013919D01*
X024323Y014077D02*
X025617Y014077D01*
X025734Y014236D02*
X024323Y014236D01*
X024323Y014394D02*
X025893Y014394D01*
X025894Y014553D02*
X024323Y014553D01*
X024460Y014711D02*
X025894Y014711D01*
X025894Y014870D02*
X024460Y014870D01*
X024460Y015028D02*
X025894Y015028D01*
X025894Y015187D02*
X024460Y015187D01*
X024422Y015345D02*
X024632Y015345D01*
X024497Y015504D02*
X024183Y015504D01*
X024041Y015662D02*
X024497Y015662D01*
X024497Y015821D02*
X024015Y015821D01*
X024875Y015662D02*
X024912Y015662D01*
X024912Y015504D02*
X024875Y015504D01*
X024875Y015345D02*
X024912Y015345D01*
X025155Y015345D02*
X025238Y015345D01*
X025563Y015716D02*
X026204Y015716D01*
X026254Y015666D01*
X025894Y015345D02*
X025888Y015345D01*
X026614Y014394D02*
X026668Y014394D01*
X026614Y014236D02*
X026826Y014236D01*
X026985Y014077D02*
X026574Y014077D01*
X027859Y015345D02*
X030741Y015345D01*
X030740Y015346D02*
X030774Y015315D01*
X030881Y015208D01*
X030838Y015166D01*
X030826Y015178D01*
X030730Y015218D01*
X027986Y015218D01*
X027838Y015365D01*
X027838Y015850D01*
X027846Y015858D01*
X027958Y015858D01*
X028105Y015918D01*
X028218Y016031D01*
X028278Y016178D01*
X028278Y016226D01*
X028685Y016226D01*
X028778Y016132D01*
X028778Y016021D01*
X028839Y015873D01*
X028952Y015761D01*
X029099Y015700D01*
X029258Y015700D01*
X029405Y015761D01*
X029484Y015840D01*
X030518Y015840D01*
X030518Y015541D01*
X030635Y015424D01*
X030704Y015424D01*
X030716Y015398D01*
X030734Y015355D01*
X030738Y015351D01*
X030740Y015346D01*
X030805Y015187D02*
X030859Y015187D01*
X030556Y015504D02*
X027838Y015504D01*
X027838Y015662D02*
X030518Y015662D01*
X030518Y015821D02*
X029465Y015821D01*
X028892Y015821D02*
X027838Y015821D01*
X028166Y015979D02*
X028796Y015979D01*
X028773Y016138D02*
X028262Y016138D01*
X027943Y016658D02*
X027799Y016658D01*
X027652Y016597D01*
X027539Y016484D01*
X027538Y016482D01*
X027538Y017850D01*
X027714Y018026D01*
X027943Y018026D01*
X027943Y017622D01*
X027963Y017602D01*
X027963Y017518D01*
X028047Y017518D01*
X028047Y017518D01*
X027963Y017518D01*
X027963Y017433D01*
X027943Y017413D01*
X027943Y016658D01*
X027943Y016772D02*
X027538Y016772D01*
X027538Y016930D02*
X027943Y016930D01*
X027943Y017089D02*
X027538Y017089D01*
X027538Y017247D02*
X027943Y017247D01*
X027943Y017406D02*
X027538Y017406D01*
X027538Y017564D02*
X027963Y017564D01*
X028047Y017518D02*
X028047Y017518D01*
X027943Y017723D02*
X027538Y017723D01*
X027570Y017881D02*
X027943Y017881D01*
X027943Y018546D02*
X027555Y018546D01*
X027459Y018506D01*
X027238Y018285D01*
X027238Y018709D01*
X027199Y018805D01*
X027126Y018878D01*
X026730Y019274D01*
X026634Y019313D01*
X026352Y019313D01*
X027144Y020105D01*
X027078Y019947D01*
X027078Y019768D01*
X027147Y019603D01*
X027274Y019476D01*
X027439Y019408D01*
X027618Y019408D01*
X027783Y019476D01*
X027868Y019561D01*
X027963Y019561D01*
X027963Y019480D01*
X027943Y019460D01*
X027943Y018546D01*
X027943Y018674D02*
X027238Y018674D01*
X027238Y018515D02*
X027481Y018515D01*
X027310Y018357D02*
X027238Y018357D01*
X027172Y018832D02*
X027943Y018832D01*
X027943Y018991D02*
X027013Y018991D01*
X026855Y019149D02*
X027943Y019149D01*
X027943Y019308D02*
X026648Y019308D01*
X026505Y019466D02*
X027298Y019466D01*
X027138Y019625D02*
X026663Y019625D01*
X026822Y019783D02*
X027078Y019783D01*
X027078Y019942D02*
X026980Y019942D01*
X027139Y020100D02*
X027142Y020100D01*
X027175Y020140D02*
X027212Y020229D01*
X027212Y021934D01*
X027783Y021934D01*
X027900Y022051D01*
X027900Y022433D01*
X027783Y022550D01*
X027212Y022550D01*
X027212Y022682D01*
X027267Y022682D01*
X027392Y022630D01*
X027953Y022630D01*
X027983Y022600D01*
X027964Y022567D01*
X027952Y022522D01*
X027952Y022300D01*
X028310Y022300D01*
X028310Y022263D01*
X027952Y022263D01*
X027952Y022041D01*
X027964Y021995D01*
X027988Y021954D01*
X028021Y021921D01*
X028062Y021897D01*
X028108Y021885D01*
X028310Y021885D01*
X028310Y022263D01*
X028347Y022263D01*
X028347Y022300D01*
X028705Y022300D01*
X028705Y022522D01*
X028693Y022567D01*
X028674Y022600D01*
X028725Y022651D01*
X028725Y023250D01*
X028688Y023287D01*
X028688Y023558D01*
X029028Y023898D01*
X035124Y023898D01*
X035450Y023572D01*
X035450Y022380D01*
X032119Y022380D01*
X032119Y022415D01*
X031712Y022415D01*
X031712Y022415D01*
X032119Y022415D01*
X032119Y022467D01*
X032477Y022467D01*
X032587Y022513D01*
X032665Y022591D01*
X032720Y022591D01*
X032867Y022652D01*
X032980Y022764D01*
X033041Y022911D01*
X033041Y023071D01*
X032980Y023218D01*
X032867Y023330D01*
X032720Y023391D01*
X032561Y023391D01*
X032414Y023330D01*
X032302Y023218D01*
X032241Y023071D01*
X032241Y023067D01*
X032046Y023067D01*
X032022Y023091D01*
X031403Y023091D01*
X031328Y023017D01*
X031254Y023091D01*
X030635Y023091D01*
X030518Y022974D01*
X030518Y022664D01*
X030241Y022664D01*
X030146Y022624D01*
X030073Y022551D01*
X029925Y022403D01*
X029925Y022581D01*
X029874Y022632D01*
X029893Y022665D01*
X029905Y022710D01*
X029905Y022932D01*
X029547Y022932D01*
X029547Y022969D01*
X029905Y022969D01*
X029905Y023191D01*
X029893Y023237D01*
X029869Y023278D01*
X029836Y023311D01*
X029795Y023335D01*
X029749Y023347D01*
X029547Y023347D01*
X029547Y022969D01*
X029510Y022969D01*
X029510Y022932D01*
X029152Y022932D01*
X029152Y022710D01*
X029164Y022665D01*
X029183Y022632D01*
X029132Y022581D01*
X029132Y021982D01*
X029249Y021865D01*
X029268Y021865D01*
X029268Y020515D01*
X028834Y020081D01*
X028784Y020081D01*
X028776Y020089D01*
X028060Y020089D01*
X028051Y020081D01*
X027923Y020081D01*
X027910Y020112D01*
X027783Y020239D01*
X027618Y020308D01*
X027439Y020308D01*
X027274Y020239D01*
X027175Y020140D01*
X027212Y020259D02*
X027321Y020259D01*
X027212Y020417D02*
X029170Y020417D01*
X029268Y020576D02*
X027212Y020576D01*
X027212Y020734D02*
X029268Y020734D01*
X029268Y020893D02*
X027212Y020893D01*
X027212Y021051D02*
X029268Y021051D01*
X029268Y021210D02*
X027212Y021210D01*
X027212Y021368D02*
X029268Y021368D01*
X029268Y021527D02*
X027212Y021527D01*
X027212Y021685D02*
X029268Y021685D01*
X029268Y021844D02*
X027212Y021844D01*
X027851Y022002D02*
X027962Y022002D01*
X027952Y022161D02*
X027900Y022161D01*
X027900Y022319D02*
X027952Y022319D01*
X027952Y022478D02*
X027855Y022478D01*
X027377Y022636D02*
X027212Y022636D01*
X027212Y023298D02*
X027212Y025035D01*
X027172Y025130D01*
X027145Y025157D01*
X027566Y025157D01*
X027676Y025268D01*
X027709Y025235D01*
X027856Y025174D01*
X028015Y025174D01*
X028112Y025214D01*
X028188Y025137D01*
X028826Y025137D01*
X028939Y025251D01*
X028953Y025227D01*
X028987Y025193D01*
X029028Y025170D01*
X029074Y025157D01*
X029295Y025157D01*
X029295Y025536D01*
X029372Y025536D01*
X029372Y025612D01*
X029750Y025612D01*
X029750Y025834D01*
X029737Y025879D01*
X029714Y025920D01*
X029680Y025954D01*
X029639Y025978D01*
X029593Y025990D01*
X029372Y025990D01*
X029372Y025612D01*
X029295Y025612D01*
X029295Y025990D01*
X029074Y025990D01*
X029028Y025978D01*
X028987Y025954D01*
X028953Y025920D01*
X028939Y025896D01*
X028826Y026010D01*
X028188Y026010D01*
X028112Y025934D01*
X028015Y025974D01*
X027856Y025974D01*
X027709Y025913D01*
X027676Y025880D01*
X027566Y025990D01*
X027007Y025990D01*
X026952Y025935D01*
X026897Y025990D01*
X026337Y025990D01*
X026220Y025873D01*
X026220Y025274D01*
X026337Y025157D01*
X026410Y025157D01*
X026692Y024875D01*
X026692Y024433D01*
X026486Y024638D01*
X026413Y024711D01*
X026317Y024751D01*
X025119Y024751D01*
X025505Y025137D01*
X025716Y025137D01*
X025833Y025255D01*
X025833Y025893D01*
X025716Y026010D01*
X025077Y026010D01*
X024983Y025916D01*
X024889Y026010D01*
X024251Y026010D01*
X024175Y025934D01*
X024078Y025974D01*
X023919Y025974D01*
X023772Y025913D01*
X023739Y025880D01*
X023629Y025990D01*
X023070Y025990D01*
X023015Y025935D01*
X022960Y025990D01*
X022884Y025990D01*
X022736Y026138D01*
X022663Y026211D01*
X022567Y026251D01*
X018839Y026251D01*
X018743Y026211D01*
X018523Y025991D01*
X018522Y025990D01*
X018463Y025990D01*
X018346Y025873D01*
X018346Y025274D01*
X018463Y025157D01*
X018483Y025157D01*
X018483Y024701D01*
X018036Y024254D01*
X018041Y024279D01*
X018065Y024343D01*
X018058Y024358D01*
X018066Y024393D01*
X018078Y024403D01*
X018083Y024472D01*
X018098Y024539D01*
X018089Y024552D01*
X018091Y024580D01*
X018097Y024585D01*
X018097Y024661D01*
X018102Y024737D01*
X018097Y024743D01*
X018097Y026326D01*
X017979Y026443D01*
X017230Y026443D01*
X017230Y026476D01*
X022822Y026476D01*
X022939Y026593D01*
X022939Y027657D01*
X025492Y027657D01*
X025492Y026593D01*
X025609Y026476D01*
X036712Y026476D01*
X036712Y026443D01*
X035924Y026443D01*
X035807Y026326D01*
X035807Y024743D01*
X035801Y024737D01*
X035807Y024661D01*
X035807Y024585D01*
X035813Y024580D01*
X035815Y024552D01*
X035806Y024539D01*
X035820Y024472D01*
X035825Y024403D01*
X035838Y024393D01*
X035845Y024358D01*
X035838Y024343D01*
X035862Y024279D01*
X035877Y024212D01*
X035890Y024203D01*
X035903Y024170D01*
X035898Y024154D01*
X035914Y024126D01*
X035477Y024563D01*
X035345Y024618D01*
X030814Y024618D01*
X030814Y025157D01*
X030834Y025157D01*
X030889Y025212D01*
X030944Y025157D01*
X031503Y025157D01*
X031613Y025268D01*
X031646Y025235D01*
X031793Y025174D01*
X031952Y025174D01*
X032049Y025214D01*
X032125Y025137D01*
X032763Y025137D01*
X032876Y025251D01*
X032890Y025227D01*
X032924Y025193D01*
X032965Y025170D01*
X033011Y025157D01*
X033232Y025157D01*
X033232Y025536D01*
X033309Y025536D01*
X033309Y025612D01*
X033687Y025612D01*
X033687Y025834D01*
X033675Y025879D01*
X033651Y025920D01*
X033617Y025954D01*
X033576Y025978D01*
X033530Y025990D01*
X033309Y025990D01*
X033309Y025612D01*
X033232Y025612D01*
X033232Y025990D01*
X033011Y025990D01*
X032965Y025978D01*
X032924Y025954D01*
X032890Y025920D01*
X032876Y025896D01*
X032763Y026010D01*
X032125Y026010D01*
X032049Y025934D01*
X031952Y025974D01*
X031793Y025974D01*
X031646Y025913D01*
X031613Y025880D01*
X031503Y025990D01*
X030944Y025990D01*
X030889Y025935D01*
X030834Y025990D01*
X030274Y025990D01*
X030157Y025873D01*
X030157Y025274D01*
X030274Y025157D01*
X030294Y025157D01*
X030294Y024618D01*
X028807Y024618D01*
X028675Y024563D01*
X028023Y023911D01*
X027968Y023779D01*
X027968Y023350D01*
X027392Y023350D01*
X027267Y023298D01*
X027212Y023298D01*
X027212Y023429D02*
X027968Y023429D01*
X027968Y023587D02*
X027212Y023587D01*
X027212Y023746D02*
X027968Y023746D01*
X028020Y023904D02*
X027212Y023904D01*
X027212Y024063D02*
X028174Y024063D01*
X028333Y024221D02*
X027212Y024221D01*
X027212Y024380D02*
X028491Y024380D01*
X028650Y024538D02*
X027212Y024538D01*
X027212Y024697D02*
X030294Y024697D01*
X030294Y024855D02*
X027212Y024855D01*
X027212Y025014D02*
X030294Y025014D01*
X030259Y025172D02*
X029643Y025172D01*
X029639Y025170D02*
X029680Y025193D01*
X029714Y025227D01*
X029737Y025268D01*
X029750Y025314D01*
X029750Y025536D01*
X029372Y025536D01*
X029372Y025157D01*
X029593Y025157D01*
X029639Y025170D01*
X029750Y025331D02*
X030157Y025331D01*
X030157Y025489D02*
X029750Y025489D01*
X029750Y025648D02*
X030157Y025648D01*
X030157Y025806D02*
X029750Y025806D01*
X029662Y025965D02*
X030249Y025965D01*
X030859Y025965D02*
X030918Y025965D01*
X031529Y025965D02*
X031771Y025965D01*
X031975Y025965D02*
X032079Y025965D01*
X032808Y025965D02*
X032942Y025965D01*
X033232Y025965D02*
X033309Y025965D01*
X033309Y025806D02*
X033232Y025806D01*
X033232Y025648D02*
X033309Y025648D01*
X033309Y025536D02*
X033687Y025536D01*
X033687Y025314D01*
X033675Y025268D01*
X033651Y025227D01*
X033617Y025193D01*
X033576Y025170D01*
X033530Y025157D01*
X033309Y025157D01*
X033309Y025536D01*
X033309Y025489D02*
X033232Y025489D01*
X033232Y025331D02*
X033309Y025331D01*
X033309Y025172D02*
X033232Y025172D01*
X032961Y025172D02*
X032797Y025172D01*
X033580Y025172D02*
X035807Y025172D01*
X035807Y025014D02*
X030814Y025014D01*
X030814Y024855D02*
X035807Y024855D01*
X035804Y024697D02*
X030814Y024697D01*
X030849Y025172D02*
X030929Y025172D01*
X031518Y025172D02*
X032090Y025172D01*
X033687Y025331D02*
X035807Y025331D01*
X035807Y025489D02*
X033687Y025489D01*
X033687Y025648D02*
X035807Y025648D01*
X035807Y025806D02*
X033687Y025806D01*
X033599Y025965D02*
X035807Y025965D01*
X035807Y026123D02*
X022751Y026123D01*
X022985Y025965D02*
X023044Y025965D01*
X023655Y025965D02*
X023897Y025965D01*
X024101Y025965D02*
X024205Y025965D01*
X024934Y025965D02*
X025032Y025965D01*
X025492Y026599D02*
X022939Y026599D01*
X022939Y026757D02*
X025492Y026757D01*
X025492Y026916D02*
X022939Y026916D01*
X022939Y027074D02*
X025492Y027074D01*
X025492Y027233D02*
X022939Y027233D01*
X022939Y027391D02*
X025492Y027391D01*
X025492Y027550D02*
X022939Y027550D01*
X022283Y025648D02*
X021876Y025648D01*
X021876Y025489D02*
X022283Y025489D01*
X022283Y025331D02*
X021876Y025331D01*
X021769Y025172D02*
X022385Y025172D01*
X022975Y025172D02*
X023055Y025172D01*
X023611Y025014D02*
X019003Y025014D01*
X019003Y024855D02*
X023599Y024855D01*
X023644Y025172D02*
X023701Y025172D01*
X023248Y023731D02*
X023088Y023571D01*
X023088Y023246D01*
X023153Y023181D01*
X023153Y022799D01*
X023126Y022772D01*
X023133Y022748D01*
X023133Y022616D01*
X022717Y022616D01*
X023133Y022616D01*
X023133Y022484D01*
X023126Y022460D01*
X023153Y022433D01*
X023153Y022051D01*
X023053Y021951D01*
X023086Y021918D01*
X024839Y021918D01*
X024833Y021921D01*
X024800Y021954D01*
X024776Y021995D01*
X024764Y022041D01*
X024764Y022263D01*
X025122Y022263D01*
X025122Y022300D01*
X024764Y022300D01*
X024764Y022522D01*
X024776Y022567D01*
X024795Y022600D01*
X024764Y022631D01*
X024730Y022631D01*
X024708Y022610D01*
X024543Y022541D01*
X024364Y022541D01*
X024198Y022610D01*
X024178Y022630D01*
X024177Y022630D01*
X024106Y022630D01*
X024035Y022630D01*
X024035Y022630D01*
X023669Y022630D01*
X023544Y022682D01*
X023421Y022682D01*
X023304Y022799D01*
X023304Y023181D01*
X023421Y023298D01*
X023544Y023298D01*
X023669Y023350D01*
X024105Y023350D01*
X024176Y023350D01*
X024198Y023373D01*
X024364Y023441D01*
X024543Y023441D01*
X024708Y023373D01*
X024730Y023351D01*
X024845Y023351D01*
X024861Y023367D01*
X025420Y023367D01*
X025537Y023250D01*
X025537Y022651D01*
X025486Y022600D01*
X025505Y022567D01*
X025517Y022522D01*
X025517Y022300D01*
X025159Y022300D01*
X025159Y022263D01*
X025517Y022263D01*
X025517Y022041D01*
X025505Y021995D01*
X025482Y021954D01*
X025448Y021921D01*
X025442Y021918D01*
X026180Y021918D01*
X026180Y021934D01*
X026121Y021934D01*
X026004Y022051D01*
X026004Y022433D01*
X026030Y022460D01*
X026024Y022484D01*
X026024Y022616D01*
X026440Y022616D01*
X026440Y022616D01*
X026024Y022616D01*
X026024Y022748D01*
X026030Y022772D01*
X026004Y022799D01*
X026004Y022823D01*
X025983Y022844D01*
X025943Y022939D01*
X025943Y023446D01*
X025658Y023731D01*
X023248Y023731D01*
X023104Y023587D02*
X025802Y023587D01*
X025943Y023429D02*
X024573Y023429D01*
X024334Y023429D02*
X023088Y023429D01*
X023088Y023270D02*
X023393Y023270D01*
X023304Y023112D02*
X023153Y023112D01*
X023153Y022953D02*
X023304Y022953D01*
X023308Y022795D02*
X023148Y022795D01*
X023133Y022636D02*
X023654Y022636D01*
X023421Y022550D02*
X023304Y022433D01*
X023304Y022051D01*
X023421Y021934D01*
X024059Y021934D01*
X024176Y022051D01*
X024176Y022433D01*
X024059Y022550D01*
X023421Y022550D01*
X023348Y022478D02*
X023131Y022478D01*
X023153Y022319D02*
X023304Y022319D01*
X023304Y022161D02*
X023153Y022161D01*
X023104Y022002D02*
X023353Y022002D01*
X022927Y021398D02*
X022831Y021437D01*
X022758Y021510D01*
X022758Y021510D01*
X022569Y021699D01*
X022569Y021699D01*
X022496Y021772D01*
X022457Y021868D01*
X022457Y021934D01*
X022398Y021934D01*
X022280Y022051D01*
X022280Y022433D01*
X022307Y022460D01*
X022300Y022484D01*
X022300Y022616D01*
X022717Y022616D01*
X022717Y022616D01*
X022717Y022616D01*
X022300Y022616D01*
X022300Y022731D01*
X022038Y022731D01*
X021999Y022692D01*
X021282Y022692D01*
X021243Y022731D01*
X020691Y022731D01*
X020691Y022683D01*
X020624Y022616D01*
X020691Y022549D01*
X020691Y022284D01*
X020713Y022230D01*
X020713Y020939D01*
X020674Y020844D01*
X020203Y020374D01*
X021115Y020374D01*
X021210Y020334D01*
X021284Y020261D01*
X021444Y020101D01*
X021483Y020005D01*
X021483Y019692D01*
X021444Y019596D01*
X021370Y019523D01*
X021192Y019345D01*
X021096Y019305D01*
X021064Y019305D01*
X021064Y019158D01*
X021044Y019138D01*
X021044Y019053D01*
X020960Y019053D01*
X020959Y019053D01*
X020960Y019053D01*
X021044Y019053D01*
X021044Y018969D01*
X021064Y018949D01*
X021064Y018922D01*
X021149Y018958D01*
X021308Y018958D01*
X021455Y018897D01*
X021514Y018838D01*
X021734Y018838D01*
X021837Y018795D01*
X022016Y018616D01*
X022058Y018513D01*
X022058Y016652D01*
X022016Y016549D01*
X021937Y016470D01*
X021427Y015960D01*
X021478Y015837D01*
X021478Y015678D01*
X021418Y015531D01*
X021358Y015472D01*
X021358Y015404D01*
X021362Y015404D01*
X021472Y015295D01*
X021483Y015315D01*
X021517Y015348D01*
X021558Y015372D01*
X021604Y015384D01*
X021825Y015384D01*
X021825Y015026D01*
X021862Y015026D01*
X021862Y015384D01*
X022084Y015384D01*
X022130Y015372D01*
X022163Y015353D01*
X022214Y015404D01*
X022318Y015404D01*
X022318Y017009D01*
X022358Y017105D01*
X022431Y017178D01*
X022735Y017482D01*
X022831Y017522D01*
X022993Y017522D01*
X022993Y017925D01*
X023013Y017945D01*
X023013Y018030D01*
X023097Y018030D01*
X023097Y018030D01*
X023013Y018030D01*
X023013Y018114D01*
X022993Y018134D01*
X022993Y019972D01*
X023110Y020089D01*
X023826Y020089D01*
X023943Y019972D01*
X023943Y019303D01*
X024432Y019303D01*
X024524Y019265D01*
X024820Y018969D01*
X024890Y018899D01*
X024928Y018807D01*
X024928Y017861D01*
X025022Y017768D01*
X025064Y017768D01*
X025064Y017925D01*
X025084Y017945D01*
X025084Y018030D01*
X025169Y018030D01*
X025169Y018030D01*
X025084Y018030D01*
X025084Y018122D01*
X025094Y018158D01*
X025084Y018193D01*
X025084Y018286D01*
X025539Y018286D01*
X025539Y018293D01*
X025539Y018529D01*
X025539Y018529D01*
X025539Y018286D01*
X025539Y018286D01*
X025539Y018286D01*
X025994Y018286D01*
X025994Y018378D01*
X025984Y018413D01*
X025994Y018449D01*
X025994Y018537D01*
X026281Y018537D01*
X026468Y018350D01*
X026468Y016995D01*
X026318Y017058D01*
X026139Y017058D01*
X026024Y017010D01*
X026014Y017010D01*
X026014Y017925D01*
X025994Y017945D01*
X025994Y018030D01*
X025994Y018122D01*
X025984Y018158D01*
X025994Y018193D01*
X025994Y018286D01*
X025539Y018286D01*
X025539Y018286D01*
X025084Y018286D01*
X025084Y018378D01*
X025094Y018413D01*
X025084Y018449D01*
X025084Y018541D01*
X025169Y018541D01*
X025169Y018541D01*
X025084Y018541D01*
X025084Y018626D01*
X025064Y018646D01*
X025064Y019561D01*
X024887Y019561D01*
X024758Y019508D01*
X024599Y019508D01*
X024452Y019568D01*
X024339Y019681D01*
X024278Y019828D01*
X024278Y019987D01*
X024339Y020134D01*
X024452Y020247D01*
X024599Y020308D01*
X024758Y020308D01*
X024905Y020247D01*
X025018Y020134D01*
X025040Y020081D01*
X025173Y020081D01*
X025181Y020089D01*
X025897Y020089D01*
X025957Y020029D01*
X026180Y020252D01*
X026180Y021398D01*
X022927Y021398D01*
X022742Y021527D02*
X020713Y021527D01*
X020713Y021685D02*
X021186Y021685D01*
X021185Y021687D02*
X021197Y021641D01*
X021221Y021600D01*
X021255Y021566D01*
X021296Y021543D01*
X021341Y021531D01*
X021583Y021531D01*
X021583Y021968D01*
X021185Y021968D01*
X021185Y021687D01*
X021185Y021844D02*
X020713Y021844D01*
X020713Y022002D02*
X021583Y022002D01*
X021583Y021968D02*
X021583Y022083D01*
X021185Y022083D01*
X021185Y022364D01*
X021197Y022410D01*
X021221Y022451D01*
X021255Y022484D01*
X021296Y022508D01*
X021341Y022520D01*
X021583Y022520D01*
X021583Y022083D01*
X021698Y022083D01*
X021698Y022520D01*
X021940Y022520D01*
X021986Y022508D01*
X022027Y022484D01*
X022060Y022451D01*
X022084Y022410D01*
X022096Y022364D01*
X022096Y022083D01*
X021698Y022083D01*
X021698Y021968D01*
X021698Y021531D01*
X021940Y021531D01*
X021986Y021543D01*
X022027Y021566D01*
X022060Y021600D01*
X022084Y021641D01*
X022096Y021687D01*
X022096Y021968D01*
X021698Y021968D01*
X021583Y021968D01*
X021698Y022002D02*
X022329Y022002D01*
X022280Y022161D02*
X022096Y022161D01*
X022096Y022319D02*
X022280Y022319D01*
X022302Y022478D02*
X022034Y022478D01*
X022300Y022636D02*
X020644Y022636D01*
X020691Y022478D02*
X021248Y022478D01*
X021185Y022319D02*
X020691Y022319D01*
X020713Y022161D02*
X021185Y022161D01*
X021583Y022161D02*
X021698Y022161D01*
X021698Y022319D02*
X021583Y022319D01*
X021583Y022478D02*
X021698Y022478D01*
X021698Y021844D02*
X021583Y021844D01*
X021583Y021685D02*
X021698Y021685D01*
X022096Y021685D02*
X022583Y021685D01*
X022467Y021844D02*
X022096Y021844D01*
X020713Y021368D02*
X026180Y021368D01*
X026180Y021210D02*
X020713Y021210D01*
X020713Y021051D02*
X026180Y021051D01*
X026180Y020893D02*
X020694Y020893D01*
X020564Y020734D02*
X026180Y020734D01*
X026180Y020576D02*
X020405Y020576D01*
X020247Y020417D02*
X026180Y020417D01*
X026180Y020259D02*
X024876Y020259D01*
X025032Y020100D02*
X026028Y020100D01*
X025064Y019466D02*
X023943Y019466D01*
X023943Y019308D02*
X025064Y019308D01*
X025064Y019149D02*
X024641Y019149D01*
X024799Y018991D02*
X025064Y018991D01*
X025064Y018832D02*
X024918Y018832D01*
X024928Y018674D02*
X025064Y018674D01*
X025084Y018515D02*
X024928Y018515D01*
X024928Y018357D02*
X025084Y018357D01*
X025084Y018198D02*
X024928Y018198D01*
X024928Y018040D02*
X025084Y018040D01*
X025064Y017881D02*
X024928Y017881D01*
X024428Y017881D02*
X023943Y017881D01*
X023943Y017925D02*
X023923Y017945D01*
X023923Y018030D01*
X023923Y018114D01*
X023943Y018134D01*
X023943Y018803D01*
X024279Y018803D01*
X024428Y018654D01*
X024428Y017708D01*
X024466Y017616D01*
X024571Y017512D01*
X024378Y017512D01*
X024160Y017730D01*
X024068Y017768D01*
X023943Y017768D01*
X023943Y017925D01*
X023923Y018030D02*
X023838Y018030D01*
X023923Y018030D01*
X023923Y018040D02*
X024428Y018040D01*
X024428Y018198D02*
X023943Y018198D01*
X023943Y018357D02*
X024428Y018357D01*
X024428Y018515D02*
X023943Y018515D01*
X023943Y018674D02*
X024409Y018674D01*
X023838Y018030D02*
X023838Y018030D01*
X023838Y018030D01*
X024167Y017723D02*
X024428Y017723D01*
X024518Y017564D02*
X024326Y017564D01*
X025539Y018042D02*
X025539Y018278D01*
X025539Y018285D01*
X025539Y018285D01*
X025539Y018042D01*
X025539Y018042D01*
X025539Y018198D02*
X025539Y018198D01*
X025539Y018357D02*
X025539Y018357D01*
X025539Y018515D02*
X025539Y018515D01*
X025994Y018515D02*
X026303Y018515D01*
X026462Y018357D02*
X025994Y018357D01*
X025994Y018198D02*
X026468Y018198D01*
X026468Y018040D02*
X025994Y018040D01*
X025994Y018030D02*
X025909Y018030D01*
X025910Y018030D01*
X025994Y018030D01*
X026014Y017881D02*
X026468Y017881D01*
X026468Y017723D02*
X026014Y017723D01*
X026014Y017564D02*
X026468Y017564D01*
X026468Y017406D02*
X026014Y017406D01*
X026014Y017247D02*
X026468Y017247D01*
X026468Y017089D02*
X026014Y017089D01*
X027538Y016613D02*
X027691Y016613D01*
X029095Y017522D02*
X029171Y017553D01*
X029244Y017626D01*
X029244Y017626D01*
X030011Y018394D01*
X030223Y018394D01*
X030223Y018299D01*
X030340Y018182D01*
X031136Y018182D01*
X031253Y018299D01*
X031253Y018898D01*
X031424Y018898D01*
X031424Y018715D01*
X031861Y018715D01*
X031861Y018600D01*
X031424Y018600D01*
X031424Y018358D01*
X031436Y018312D01*
X031460Y018271D01*
X031493Y018238D01*
X031535Y018214D01*
X031580Y018202D01*
X031861Y018202D01*
X031861Y018600D01*
X031977Y018600D01*
X031977Y018715D01*
X032414Y018715D01*
X032414Y018898D01*
X033540Y018898D01*
X033793Y018644D01*
X033867Y018571D01*
X033962Y018531D01*
X034437Y018531D01*
X034396Y018490D01*
X034396Y018059D01*
X034404Y018051D01*
X032060Y018051D01*
X032060Y018057D01*
X031943Y018174D01*
X031383Y018174D01*
X031328Y018119D01*
X031273Y018174D01*
X030714Y018174D01*
X030654Y018114D01*
X030548Y018158D01*
X030389Y018158D01*
X030242Y018097D01*
X030129Y017984D01*
X030068Y017837D01*
X030068Y017678D01*
X030129Y017531D01*
X030138Y017522D01*
X029095Y017522D01*
X029181Y017564D02*
X030116Y017564D01*
X030068Y017723D02*
X029340Y017723D01*
X029498Y017881D02*
X030087Y017881D01*
X030185Y018040D02*
X029657Y018040D01*
X029815Y018198D02*
X030324Y018198D01*
X030223Y018357D02*
X029974Y018357D01*
X030315Y019418D02*
X030385Y019488D01*
X030571Y019488D01*
X030635Y019424D01*
X031254Y019424D01*
X031343Y019512D01*
X031375Y019480D01*
X031416Y019456D01*
X031462Y019444D01*
X031712Y019444D01*
X031712Y019748D01*
X032119Y019748D01*
X032119Y019840D01*
X032697Y019840D01*
X032719Y019819D01*
X032719Y019707D01*
X032779Y019560D01*
X032892Y019447D01*
X032964Y019418D01*
X030315Y019418D01*
X030363Y019466D02*
X030593Y019466D01*
X031296Y019466D02*
X031399Y019466D01*
X031712Y019466D02*
X031712Y019466D01*
X031712Y019444D02*
X031962Y019444D01*
X032008Y019456D01*
X032049Y019480D01*
X032083Y019513D01*
X032106Y019554D01*
X032119Y019600D01*
X032119Y019748D01*
X031712Y019748D01*
X031712Y019748D01*
X031712Y019748D01*
X031712Y019444D01*
X031712Y019625D02*
X031712Y019625D01*
X032026Y019466D02*
X032873Y019466D01*
X032753Y019625D02*
X032119Y019625D01*
X032119Y019783D02*
X032719Y019783D01*
X033086Y020186D02*
X032952Y020320D01*
X032857Y020360D01*
X032119Y020360D01*
X032119Y020415D01*
X031712Y020415D01*
X031712Y020415D01*
X032119Y020415D01*
X032119Y020487D01*
X033301Y020487D01*
X034396Y019397D01*
X034396Y019059D01*
X034404Y019051D01*
X034122Y019051D01*
X033795Y019378D01*
X033699Y019418D01*
X033274Y019418D01*
X033345Y019447D01*
X033458Y019560D01*
X033519Y019707D01*
X033519Y019866D01*
X033458Y020013D01*
X033345Y020125D01*
X033198Y020186D01*
X033086Y020186D01*
X033014Y020259D02*
X033531Y020259D01*
X033372Y020417D02*
X032119Y020417D01*
X031712Y020767D02*
X033417Y020767D01*
X034916Y019274D01*
X034396Y019308D02*
X033865Y019308D01*
X034024Y019149D02*
X034396Y019149D01*
X034327Y019466D02*
X033364Y019466D01*
X033485Y019625D02*
X034168Y019625D01*
X034009Y019783D02*
X033519Y019783D01*
X033487Y019942D02*
X033850Y019942D01*
X033690Y020100D02*
X033371Y020100D01*
X033847Y020734D02*
X034640Y020734D01*
X034695Y020789D02*
X034396Y020490D01*
X034396Y020187D01*
X033615Y020966D01*
X033576Y021005D01*
X033575Y021005D01*
X033524Y021026D01*
X033473Y021047D01*
X033472Y021047D01*
X033472Y021048D02*
X033417Y021047D01*
X032066Y021047D01*
X032022Y021091D01*
X031403Y021091D01*
X031328Y021017D01*
X031254Y021091D01*
X030635Y021091D01*
X030518Y020974D01*
X030518Y020675D01*
X030393Y020675D01*
X030303Y020638D01*
X030303Y021266D01*
X030525Y021488D01*
X030571Y021488D01*
X030635Y021424D01*
X031254Y021424D01*
X031343Y021512D01*
X031375Y021480D01*
X031416Y021456D01*
X031462Y021444D01*
X031712Y021444D01*
X031712Y021748D01*
X032119Y021748D01*
X032119Y021820D01*
X035450Y021820D01*
X035450Y021544D01*
X035402Y021496D01*
X035123Y021774D01*
X034936Y021774D01*
X034936Y021294D01*
X034896Y021294D01*
X034896Y021254D01*
X034416Y021254D01*
X034416Y021067D01*
X034695Y020789D01*
X034591Y020893D02*
X033688Y020893D01*
X033575Y021005D02*
X033575Y021005D01*
X033472Y021047D02*
X033472Y021048D01*
X034006Y020576D02*
X034482Y020576D01*
X034396Y020417D02*
X034166Y020417D01*
X034325Y020259D02*
X034396Y020259D01*
X034433Y021051D02*
X032062Y021051D01*
X031962Y021444D02*
X032008Y021456D01*
X032049Y021480D01*
X032083Y021513D01*
X032106Y021554D01*
X032119Y021600D01*
X032119Y021748D01*
X031712Y021748D01*
X031712Y021748D01*
X031712Y021748D01*
X031712Y021444D01*
X031962Y021444D01*
X032090Y021527D02*
X034461Y021527D01*
X034416Y021482D02*
X034416Y021294D01*
X034896Y021294D01*
X034896Y021774D01*
X034709Y021774D01*
X034416Y021482D01*
X034416Y021368D02*
X030405Y021368D01*
X030303Y021210D02*
X034416Y021210D01*
X034896Y021368D02*
X034936Y021368D01*
X034936Y021527D02*
X034896Y021527D01*
X034896Y021685D02*
X034936Y021685D01*
X035213Y021685D02*
X035450Y021685D01*
X035433Y021527D02*
X035371Y021527D01*
X035752Y022100D02*
X035810Y022158D01*
X035752Y022100D02*
X031712Y022100D01*
X031712Y021685D02*
X031712Y021685D01*
X031712Y021527D02*
X031712Y021527D01*
X032119Y021685D02*
X034620Y021685D01*
X035450Y022478D02*
X032501Y022478D01*
X032829Y022636D02*
X035450Y022636D01*
X035450Y022795D02*
X032992Y022795D01*
X033041Y022953D02*
X035450Y022953D01*
X035450Y023112D02*
X033024Y023112D01*
X032927Y023270D02*
X035450Y023270D01*
X035450Y023429D02*
X028688Y023429D01*
X028705Y023270D02*
X029183Y023270D01*
X029188Y023278D02*
X029164Y023237D01*
X029152Y023191D01*
X029152Y022969D01*
X029510Y022969D01*
X029510Y023347D01*
X029308Y023347D01*
X029262Y023335D01*
X029221Y023311D01*
X029188Y023278D01*
X029152Y023112D02*
X028725Y023112D01*
X028725Y022953D02*
X029510Y022953D01*
X029547Y022953D02*
X030518Y022953D01*
X030518Y022795D02*
X029905Y022795D01*
X029876Y022636D02*
X030175Y022636D01*
X029999Y022478D02*
X029925Y022478D01*
X029905Y023112D02*
X032258Y023112D01*
X032354Y023270D02*
X029874Y023270D01*
X029547Y023270D02*
X029510Y023270D01*
X029510Y023112D02*
X029547Y023112D01*
X029152Y022795D02*
X028725Y022795D01*
X028710Y022636D02*
X029180Y022636D01*
X029132Y022478D02*
X028705Y022478D01*
X028705Y022319D02*
X029132Y022319D01*
X029132Y022161D02*
X028705Y022161D01*
X028705Y022263D02*
X028347Y022263D01*
X028347Y021885D01*
X028549Y021885D01*
X028595Y021897D01*
X028636Y021921D01*
X028669Y021954D01*
X028693Y021995D01*
X028705Y022041D01*
X028705Y022263D01*
X028695Y022002D02*
X029132Y022002D01*
X028347Y022002D02*
X028310Y022002D01*
X028310Y022161D02*
X028347Y022161D01*
X028717Y023587D02*
X035435Y023587D01*
X035276Y023746D02*
X028876Y023746D01*
X028860Y025172D02*
X029024Y025172D01*
X029295Y025172D02*
X029372Y025172D01*
X029372Y025331D02*
X029295Y025331D01*
X029295Y025489D02*
X029372Y025489D01*
X029372Y025648D02*
X029295Y025648D01*
X029295Y025806D02*
X029372Y025806D01*
X029372Y025965D02*
X029295Y025965D01*
X029005Y025965D02*
X028871Y025965D01*
X028142Y025965D02*
X028038Y025965D01*
X027834Y025965D02*
X027592Y025965D01*
X026981Y025965D02*
X026922Y025965D01*
X026312Y025965D02*
X025761Y025965D01*
X025833Y025806D02*
X026220Y025806D01*
X026220Y025648D02*
X025833Y025648D01*
X025833Y025489D02*
X026220Y025489D01*
X026220Y025331D02*
X025833Y025331D01*
X025750Y025172D02*
X026322Y025172D01*
X026554Y025014D02*
X025381Y025014D01*
X025223Y024855D02*
X026692Y024855D01*
X026692Y024697D02*
X026428Y024697D01*
X026586Y024538D02*
X026692Y024538D01*
X027581Y025172D02*
X028153Y025172D01*
X025943Y023270D02*
X025517Y023270D01*
X025537Y023112D02*
X025943Y023112D01*
X025943Y022953D02*
X025537Y022953D01*
X025537Y022795D02*
X026008Y022795D01*
X026024Y022636D02*
X025522Y022636D01*
X025517Y022478D02*
X026025Y022478D01*
X026004Y022319D02*
X025517Y022319D01*
X025517Y022161D02*
X026004Y022161D01*
X026052Y022002D02*
X025507Y022002D01*
X024774Y022002D02*
X024128Y022002D01*
X024176Y022161D02*
X024764Y022161D01*
X024764Y022319D02*
X024176Y022319D01*
X024132Y022478D02*
X024764Y022478D01*
X024481Y020259D02*
X021286Y020259D01*
X021444Y020100D02*
X024325Y020100D01*
X024278Y019942D02*
X023943Y019942D01*
X023943Y019783D02*
X024297Y019783D01*
X024396Y019625D02*
X023943Y019625D01*
X022993Y019625D02*
X021455Y019625D01*
X021483Y019783D02*
X022993Y019783D01*
X022993Y019942D02*
X021483Y019942D01*
X021313Y019466D02*
X022993Y019466D01*
X022993Y019308D02*
X021102Y019308D01*
X021055Y019149D02*
X022993Y019149D01*
X022993Y018991D02*
X021044Y018991D01*
X021228Y018558D02*
X021678Y018558D01*
X021778Y018458D01*
X021778Y016708D01*
X021078Y016008D01*
X021078Y015758D01*
X021078Y015023D01*
X021063Y015008D01*
X021078Y015282D01*
X021078Y015758D01*
X020767Y015504D02*
X010537Y015504D01*
X010537Y015662D02*
X020685Y015662D01*
X020678Y015821D02*
X010537Y015821D01*
X010537Y015979D02*
X020737Y015979D01*
X020829Y016138D02*
X010529Y016138D01*
X010537Y015345D02*
X020063Y015345D01*
X019997Y015187D02*
X010537Y015187D01*
X011638Y015028D02*
X019997Y015028D01*
X019997Y014870D02*
X011719Y014870D01*
X011719Y014711D02*
X020027Y014711D01*
X020375Y014711D02*
X020412Y014711D01*
X020412Y014870D02*
X020375Y014870D01*
X020375Y015028D02*
X020412Y015028D01*
X020412Y015187D02*
X020375Y015187D01*
X020375Y015345D02*
X020412Y015345D01*
X020161Y016296D02*
X009652Y016296D01*
X009652Y016455D02*
X020114Y016455D01*
X020114Y016613D02*
X009652Y016613D01*
X009652Y016772D02*
X020114Y016772D01*
X020134Y016930D02*
X013158Y016930D01*
X013157Y016929D02*
X013274Y017046D01*
X013274Y017999D01*
X013157Y018116D01*
X012007Y018116D01*
X011889Y017999D01*
X011889Y017046D01*
X012007Y016929D01*
X013157Y016929D01*
X013274Y017089D02*
X020134Y017089D01*
X020134Y017247D02*
X013274Y017247D01*
X013274Y017406D02*
X020114Y017406D01*
X020114Y017564D02*
X013274Y017564D01*
X013274Y017723D02*
X020114Y017723D01*
X019847Y017881D02*
X019810Y017881D01*
X019810Y018040D02*
X019847Y018040D01*
X019452Y018040D02*
X013233Y018040D01*
X013274Y017881D02*
X019467Y017881D01*
X019452Y018198D02*
X011918Y018198D01*
X011917Y018195D02*
X011974Y018333D01*
X011974Y018483D01*
X011917Y018622D01*
X011811Y018728D01*
X011672Y018786D01*
X011522Y018786D01*
X011384Y018728D01*
X011278Y018622D01*
X011220Y018483D01*
X011220Y018333D01*
X011278Y018195D01*
X011384Y018089D01*
X011522Y018031D01*
X011672Y018031D01*
X011811Y018089D01*
X011917Y018195D01*
X011930Y018040D02*
X011693Y018040D01*
X011502Y018040D02*
X011068Y018040D01*
X011108Y017999D02*
X010991Y018116D01*
X009841Y018116D01*
X009724Y017999D01*
X009724Y017046D01*
X009841Y016929D01*
X010991Y016929D01*
X011108Y017046D01*
X011108Y017999D01*
X011108Y017881D02*
X011889Y017881D01*
X011889Y017723D02*
X011108Y017723D01*
X011108Y017564D02*
X011889Y017564D01*
X011889Y017406D02*
X011108Y017406D01*
X011108Y017247D02*
X011889Y017247D01*
X011889Y017089D02*
X011108Y017089D01*
X010992Y016930D02*
X012005Y016930D01*
X011974Y018357D02*
X019452Y018357D01*
X019459Y018515D02*
X013645Y018515D01*
X013647Y018674D02*
X019432Y018674D01*
X019432Y018832D02*
X013667Y018832D01*
X013667Y018991D02*
X019432Y018991D01*
X020219Y017262D02*
X020219Y017262D01*
X020589Y017249D02*
X020589Y017019D01*
X020589Y017019D01*
X020589Y017249D01*
X020589Y017249D01*
X020589Y017247D02*
X020589Y017247D01*
X020589Y017089D02*
X020589Y017089D01*
X020959Y017006D02*
X021044Y017006D01*
X021044Y017098D01*
X021034Y017134D01*
X021044Y017170D01*
X021044Y017262D01*
X021044Y017346D01*
X021064Y017366D01*
X021064Y017606D01*
X021102Y017568D01*
X021249Y017508D01*
X021408Y017508D01*
X021498Y017545D01*
X021498Y016824D01*
X021064Y016389D01*
X021064Y016901D01*
X021044Y016921D01*
X021044Y017006D01*
X020960Y017006D01*
X020959Y017006D01*
X021044Y016930D02*
X021498Y016930D01*
X021498Y017089D02*
X021044Y017089D01*
X021044Y017247D02*
X021498Y017247D01*
X021498Y017406D02*
X021064Y017406D01*
X021044Y017262D02*
X020960Y017262D01*
X020959Y017262D01*
X021044Y017262D01*
X021064Y017564D02*
X021113Y017564D01*
X021064Y016772D02*
X021446Y016772D01*
X021288Y016613D02*
X021064Y016613D01*
X021064Y016455D02*
X021129Y016455D01*
X021604Y016138D02*
X022318Y016138D01*
X022318Y016296D02*
X021763Y016296D01*
X021921Y016455D02*
X022318Y016455D01*
X022318Y016613D02*
X022042Y016613D01*
X022058Y016772D02*
X022318Y016772D01*
X022318Y016930D02*
X022058Y016930D01*
X022058Y017089D02*
X022351Y017089D01*
X022500Y017247D02*
X022058Y017247D01*
X022058Y017406D02*
X022659Y017406D01*
X022993Y017564D02*
X022058Y017564D01*
X022058Y017723D02*
X022993Y017723D01*
X022993Y017881D02*
X022058Y017881D01*
X022058Y018040D02*
X023013Y018040D01*
X023097Y018030D02*
X023097Y018030D01*
X022993Y018198D02*
X022058Y018198D01*
X022058Y018357D02*
X022993Y018357D01*
X022993Y018515D02*
X022058Y018515D01*
X021958Y018674D02*
X022993Y018674D01*
X022993Y018832D02*
X021747Y018832D01*
X019520Y021051D02*
X013274Y021051D01*
X013274Y020893D02*
X019362Y020893D01*
X019203Y020734D02*
X013274Y020734D01*
X013274Y020576D02*
X019045Y020576D01*
X019568Y021210D02*
X013274Y021210D01*
X013274Y021368D02*
X019568Y021368D01*
X019568Y021527D02*
X013250Y021527D01*
X011913Y021527D02*
X011085Y021527D01*
X011108Y021503D02*
X010991Y021620D01*
X009841Y021620D01*
X009724Y021503D01*
X009724Y020550D01*
X009841Y020433D01*
X010991Y020433D01*
X011108Y020550D01*
X011108Y021503D01*
X011108Y021368D02*
X011889Y021368D01*
X011889Y021210D02*
X011108Y021210D01*
X011108Y021051D02*
X011889Y021051D01*
X011889Y020893D02*
X011108Y020893D01*
X011108Y020734D02*
X011889Y020734D01*
X011889Y020576D02*
X011108Y020576D01*
X011340Y020417D02*
X009652Y020417D01*
X009652Y020259D02*
X011238Y020259D01*
X011220Y020100D02*
X009652Y020100D01*
X009652Y019942D02*
X011272Y019942D01*
X011475Y019783D02*
X009652Y019783D01*
X009652Y019625D02*
X011968Y019625D01*
X011968Y019783D02*
X011720Y019783D01*
X011923Y019942D02*
X011968Y019942D01*
X011974Y020100D02*
X011983Y020100D01*
X011957Y020259D02*
X012912Y020259D01*
X012980Y020417D02*
X011854Y020417D01*
X011968Y019466D02*
X009652Y019466D01*
X009652Y019308D02*
X011968Y019308D01*
X011968Y019149D02*
X009652Y019149D01*
X009652Y018991D02*
X011968Y018991D01*
X011968Y018832D02*
X009652Y018832D01*
X009652Y018674D02*
X011329Y018674D01*
X011233Y018515D02*
X009652Y018515D01*
X009652Y018357D02*
X011220Y018357D01*
X011276Y018198D02*
X009652Y018198D01*
X009652Y018040D02*
X009765Y018040D01*
X009724Y017881D02*
X009652Y017881D01*
X009652Y017723D02*
X009724Y017723D01*
X009724Y017564D02*
X009652Y017564D01*
X009652Y017406D02*
X009724Y017406D01*
X009724Y017247D02*
X009652Y017247D01*
X009652Y017089D02*
X009724Y017089D01*
X009652Y016930D02*
X009840Y016930D01*
X011961Y018515D02*
X011990Y018515D01*
X011988Y018522D02*
X012000Y018477D01*
X012024Y018436D01*
X012058Y018402D01*
X012099Y018378D01*
X012144Y018366D01*
X012818Y018366D01*
X012818Y018645D01*
X012818Y018645D01*
X011988Y018645D01*
X011988Y018522D01*
X011988Y018674D02*
X011866Y018674D01*
X012818Y018515D02*
X012818Y018515D01*
X009724Y020576D02*
X009652Y020576D01*
X009652Y020734D02*
X009724Y020734D01*
X009724Y020893D02*
X009652Y020893D01*
X009652Y021051D02*
X009724Y021051D01*
X009724Y021210D02*
X009652Y021210D01*
X009652Y021368D02*
X009724Y021368D01*
X009748Y021527D02*
X009652Y021527D01*
X009652Y021685D02*
X019568Y021685D01*
X019568Y021844D02*
X009652Y021844D01*
X010474Y022002D02*
X016274Y022002D01*
X016264Y022161D02*
X010537Y022161D01*
X010537Y022319D02*
X016264Y022319D01*
X016264Y022478D02*
X010537Y022478D01*
X010537Y022636D02*
X016259Y022636D01*
X016244Y022795D02*
X010537Y022795D01*
X010537Y022953D02*
X016244Y022953D01*
X016244Y023112D02*
X010537Y023112D01*
X010537Y023270D02*
X016264Y023270D01*
X017017Y022478D02*
X017153Y022478D01*
X017174Y022319D02*
X017017Y022319D01*
X017017Y022161D02*
X017297Y022161D01*
X017455Y022002D02*
X017007Y022002D01*
X016659Y022002D02*
X016622Y022002D01*
X016622Y022161D02*
X016659Y022161D01*
X017884Y022636D02*
X018736Y022636D01*
X018738Y022478D02*
X018521Y022478D01*
X018565Y022319D02*
X018716Y022319D01*
X018716Y022161D02*
X018565Y022161D01*
X018516Y022002D02*
X018765Y022002D01*
X018721Y022795D02*
X018561Y022795D01*
X018565Y022953D02*
X018716Y022953D01*
X018716Y023112D02*
X018565Y023112D01*
X018476Y023270D02*
X018805Y023270D01*
X018881Y023429D02*
X017946Y023429D01*
X018104Y023587D02*
X018881Y023587D01*
X018881Y023746D02*
X018263Y023746D01*
X018421Y023904D02*
X018881Y023904D01*
X018889Y024063D02*
X018580Y024063D01*
X018738Y024221D02*
X019003Y024221D01*
X018897Y024380D02*
X019161Y024380D01*
X019001Y024538D02*
X019320Y024538D01*
X019478Y024697D02*
X019003Y024697D01*
X019038Y025172D02*
X019118Y025172D01*
X019707Y025172D02*
X020279Y025172D01*
X020986Y025172D02*
X021150Y025172D01*
X021421Y025172D02*
X021498Y025172D01*
X021498Y025331D02*
X021421Y025331D01*
X021421Y025489D02*
X021498Y025489D01*
X018655Y026123D02*
X018097Y026123D01*
X018097Y025965D02*
X018438Y025965D01*
X018346Y025806D02*
X018097Y025806D01*
X018097Y025648D02*
X018346Y025648D01*
X018346Y025489D02*
X018097Y025489D01*
X018097Y025331D02*
X018346Y025331D01*
X018448Y025172D02*
X018097Y025172D01*
X018097Y025014D02*
X018483Y025014D01*
X018483Y024855D02*
X018097Y024855D01*
X018099Y024697D02*
X018478Y024697D01*
X018320Y024538D02*
X018097Y024538D01*
X018063Y024380D02*
X018161Y024380D01*
X018097Y026282D02*
X035807Y026282D01*
X035921Y026440D02*
X017982Y026440D01*
X015256Y026440D02*
X010537Y026440D01*
X010537Y026282D02*
X015256Y026282D01*
X015256Y026123D02*
X010537Y026123D01*
X010537Y025965D02*
X015256Y025965D01*
X015256Y025806D02*
X010537Y025806D01*
X010537Y025648D02*
X015239Y025648D01*
X015141Y025489D02*
X010537Y025489D01*
X010537Y025331D02*
X015067Y025331D01*
X015010Y025172D02*
X010537Y025172D01*
X010537Y025014D02*
X014978Y025014D01*
X014946Y024855D02*
X010537Y024855D01*
X010537Y024697D02*
X014941Y024697D01*
X014941Y024538D02*
X010537Y024538D01*
X010537Y024380D02*
X014941Y024380D01*
X014941Y024221D02*
X010537Y024221D01*
X010537Y024063D02*
X014941Y024063D01*
X014941Y023904D02*
X010537Y023904D01*
X010537Y023746D02*
X014941Y023746D01*
X014941Y023587D02*
X010537Y023587D01*
X010537Y023429D02*
X014941Y023429D01*
X014074Y026599D02*
X011719Y026599D01*
X011719Y026757D02*
X014074Y026757D01*
X014074Y026916D02*
X011719Y026916D01*
X011719Y027074D02*
X014074Y027074D01*
X014074Y027233D02*
X011719Y027233D01*
X011719Y027391D02*
X014074Y027391D01*
X014074Y027550D02*
X011719Y027550D01*
X021446Y015979D02*
X022318Y015979D01*
X022318Y015821D02*
X021478Y015821D01*
X021472Y015662D02*
X022318Y015662D01*
X022318Y015504D02*
X021390Y015504D01*
X021422Y015345D02*
X021513Y015345D01*
X021825Y015345D02*
X021862Y015345D01*
X021862Y015187D02*
X021825Y015187D01*
X021825Y015028D02*
X021862Y015028D01*
X021862Y014870D02*
X021825Y014870D01*
X021825Y014711D02*
X021862Y014711D01*
X021477Y014711D02*
X021463Y014711D01*
X022913Y014711D02*
X022997Y014711D01*
X023803Y014553D02*
X017178Y014553D01*
X017497Y014394D02*
X023803Y014394D01*
X023803Y014236D02*
X017680Y014236D01*
X017818Y014077D02*
X023803Y014077D01*
X023803Y013919D02*
X017921Y013919D01*
X018004Y013760D02*
X023803Y013760D01*
X023860Y013602D02*
X018055Y013602D01*
X018084Y013443D02*
X024019Y013443D01*
X024177Y013285D02*
X018097Y013285D01*
X018097Y013126D02*
X024368Y013126D01*
X024432Y012968D02*
X018097Y012968D01*
X020774Y011383D02*
X025295Y011383D01*
X025295Y011224D02*
X020774Y011224D01*
X020774Y011066D02*
X025295Y011066D01*
X025295Y010907D02*
X020774Y010907D01*
X020774Y010749D02*
X025295Y010749D01*
X025295Y010590D02*
X020774Y010590D01*
X021747Y010432D02*
X025295Y010432D01*
X025295Y010273D02*
X021758Y010273D01*
X021758Y010115D02*
X025295Y010115D01*
X025295Y009956D02*
X021758Y009956D01*
X021758Y009798D02*
X025295Y009798D01*
X025295Y009639D02*
X021758Y009639D01*
X021758Y009481D02*
X025295Y009481D01*
X028405Y012492D02*
X035807Y012492D01*
X035807Y012651D02*
X028601Y012651D01*
X028759Y012809D02*
X035807Y012809D01*
X035807Y012968D02*
X029286Y012968D01*
X029444Y013126D02*
X035807Y013126D01*
X035807Y013285D02*
X034723Y013285D01*
X034923Y013443D02*
X035819Y013443D01*
X035848Y013602D02*
X034978Y013602D01*
X034969Y013760D02*
X035900Y013760D01*
X035982Y013919D02*
X034883Y013919D01*
X034578Y014077D02*
X036085Y014077D01*
X036224Y014236D02*
X034578Y014236D01*
X034508Y014394D02*
X036406Y014394D01*
X036726Y014553D02*
X034270Y014553D01*
X034087Y014553D02*
X033857Y014553D01*
X033857Y014711D02*
X033994Y014711D01*
X034191Y015504D02*
X038878Y015504D01*
X038878Y015662D02*
X034181Y015662D01*
X034094Y015821D02*
X038878Y015821D01*
X038878Y015979D02*
X033791Y015979D01*
X033791Y016138D02*
X038878Y016138D01*
X038878Y016296D02*
X035299Y016296D01*
X035459Y016455D02*
X038878Y016455D01*
X038878Y016613D02*
X035619Y016613D01*
X036336Y016772D02*
X038878Y016772D01*
X038878Y016930D02*
X036436Y016930D01*
X036436Y017089D02*
X038878Y017089D01*
X038878Y015345D02*
X035394Y015345D01*
X035460Y015187D02*
X038965Y015187D01*
X038925Y014553D02*
X040059Y014553D01*
X040059Y014711D02*
X035430Y014711D01*
X035460Y014870D02*
X040059Y014870D01*
X040059Y015028D02*
X035460Y015028D01*
X035081Y015028D02*
X035045Y015028D01*
X035045Y014870D02*
X035081Y014870D01*
X035081Y014711D02*
X035045Y014711D01*
X035045Y015187D02*
X035081Y015187D01*
X035081Y015345D02*
X035045Y015345D01*
X034204Y016296D02*
X033718Y016296D01*
X033478Y016455D02*
X034045Y016455D01*
X033887Y016613D02*
X033291Y016613D01*
X033281Y016455D02*
X033304Y016455D01*
X033235Y016772D02*
X033728Y016772D01*
X033372Y016930D02*
X033037Y016930D01*
X033276Y017089D02*
X032024Y017089D01*
X032007Y017406D02*
X033309Y017406D01*
X033260Y017247D02*
X031520Y017247D01*
X031400Y017089D02*
X031362Y017089D01*
X031712Y015748D02*
X031726Y015744D01*
X032673Y014913D02*
X032678Y014908D01*
X032110Y013760D02*
X031849Y013760D01*
X031554Y013602D02*
X032620Y013602D01*
X032725Y013443D02*
X031534Y013443D01*
X031512Y013285D02*
X032884Y013285D01*
X033854Y013285D02*
X034434Y013285D01*
X036712Y011383D02*
X031994Y011383D01*
X031994Y011224D02*
X036712Y011224D01*
X036712Y011066D02*
X031994Y011066D01*
X031994Y010907D02*
X036712Y010907D01*
X036712Y010749D02*
X031994Y010749D01*
X031994Y010590D02*
X036712Y010590D01*
X036712Y010432D02*
X032967Y010432D01*
X032978Y010273D02*
X036712Y010273D01*
X036712Y010115D02*
X032978Y010115D01*
X032978Y009956D02*
X036712Y009956D01*
X036712Y009798D02*
X032978Y009798D01*
X032978Y009639D02*
X036712Y009639D01*
X036712Y009481D02*
X032978Y009481D01*
X031177Y013285D02*
X031177Y013285D01*
X030842Y013285D02*
X029472Y013285D01*
X029472Y013443D02*
X029587Y013443D01*
X029764Y013956D02*
X029022Y014698D01*
X030103Y014698D01*
X030078Y014637D01*
X030078Y014478D01*
X030139Y014331D01*
X030224Y014247D01*
X030178Y014137D01*
X030178Y013978D01*
X030188Y013956D01*
X029764Y013956D01*
X029643Y014077D02*
X030178Y014077D01*
X030219Y014236D02*
X029484Y014236D01*
X029326Y014394D02*
X030113Y014394D01*
X030078Y014553D02*
X029167Y014553D01*
X031152Y018198D02*
X034396Y018198D01*
X034396Y018357D02*
X032413Y018357D01*
X032414Y018358D02*
X032414Y018600D01*
X031977Y018600D01*
X031977Y018202D01*
X032258Y018202D01*
X032303Y018214D01*
X032344Y018238D01*
X032378Y018271D01*
X032402Y018312D01*
X032414Y018358D01*
X032414Y018515D02*
X034421Y018515D01*
X033764Y018674D02*
X031977Y018674D01*
X031861Y018674D02*
X031253Y018674D01*
X031253Y018832D02*
X031424Y018832D01*
X031424Y018515D02*
X031253Y018515D01*
X031253Y018357D02*
X031424Y018357D01*
X031861Y018357D02*
X031977Y018357D01*
X031977Y018515D02*
X031861Y018515D01*
X032414Y018832D02*
X033605Y018832D01*
X036209Y018832D02*
X043405Y018832D01*
X043405Y018674D02*
X036253Y018674D01*
X036411Y018515D02*
X043405Y018515D01*
X043405Y018357D02*
X036436Y018357D01*
X036436Y018198D02*
X041144Y018198D01*
X041043Y018040D02*
X036417Y018040D01*
X036258Y017881D02*
X041043Y017881D01*
X041043Y017723D02*
X036391Y017723D01*
X036436Y017564D02*
X041043Y017564D01*
X041043Y017406D02*
X036436Y017406D01*
X036436Y017247D02*
X041043Y017247D01*
X043405Y018991D02*
X036368Y018991D01*
X036436Y019149D02*
X043405Y019149D01*
X043434Y019308D02*
X036436Y019308D01*
X036436Y019466D02*
X044389Y019466D01*
X044389Y019625D02*
X036302Y019625D01*
X036160Y019783D02*
X044389Y019783D01*
X044389Y019942D02*
X036319Y019942D01*
X036436Y020100D02*
X044389Y020100D01*
X044389Y020259D02*
X036436Y020259D01*
X036436Y020417D02*
X044389Y020417D01*
X044505Y020576D02*
X036351Y020576D01*
X036192Y020734D02*
X045571Y020734D01*
X045571Y020893D02*
X036270Y020893D01*
X036428Y021051D02*
X045571Y021051D01*
X045571Y021210D02*
X036436Y021210D01*
X036436Y021368D02*
X045571Y021368D01*
X045571Y021527D02*
X036400Y021527D01*
X036241Y021685D02*
X045571Y021685D01*
X045571Y021844D02*
X036170Y021844D01*
X036170Y022002D02*
X038941Y022002D01*
X038878Y022161D02*
X036170Y022161D01*
X036170Y022319D02*
X038878Y022319D01*
X038878Y022478D02*
X036170Y022478D01*
X036170Y022636D02*
X038878Y022636D01*
X038878Y022795D02*
X036170Y022795D01*
X036170Y022953D02*
X038878Y022953D01*
X038878Y023112D02*
X036170Y023112D01*
X036170Y023270D02*
X038878Y023270D01*
X040852Y022795D02*
X045571Y022795D01*
X045571Y022636D02*
X040852Y022636D01*
X040852Y022478D02*
X045571Y022478D01*
X045571Y022319D02*
X040852Y022319D01*
X040852Y022161D02*
X045571Y022161D01*
X045571Y022002D02*
X040789Y022002D01*
X042034Y022953D02*
X044486Y022953D01*
X044389Y023112D02*
X042034Y023112D01*
X042034Y023270D02*
X044389Y023270D01*
X044389Y023429D02*
X042034Y023429D01*
X042034Y023587D02*
X044389Y023587D01*
X044389Y023746D02*
X042034Y023746D01*
X042034Y023904D02*
X044389Y023904D01*
X044389Y024063D02*
X042034Y024063D01*
X036568Y023429D02*
X036170Y023429D01*
X036170Y023587D02*
X036320Y023587D01*
X035875Y024221D02*
X035819Y024221D01*
X035840Y024380D02*
X035660Y024380D01*
X035806Y024538D02*
X035502Y024538D01*
X031363Y021051D02*
X031294Y021051D01*
X030595Y021051D02*
X030303Y021051D01*
X030303Y020893D02*
X030518Y020893D01*
X030518Y020734D02*
X030303Y020734D01*
X029012Y020259D02*
X027736Y020259D01*
X027915Y020100D02*
X028853Y020100D01*
X027948Y019466D02*
X027759Y019466D01*
X037506Y011383D02*
X042224Y011383D01*
X042224Y011541D02*
X037672Y011541D01*
X037506Y011224D02*
X042224Y011224D01*
X042224Y011066D02*
X037506Y011066D01*
X037506Y010907D02*
X042224Y010907D01*
X042224Y010749D02*
X037506Y010749D01*
X037506Y010590D02*
X042224Y010590D01*
X042224Y010432D02*
X038676Y010432D01*
X038687Y010273D02*
X042224Y010273D01*
X042224Y010115D02*
X038687Y010115D01*
X038687Y009956D02*
X042224Y009956D01*
X042224Y009798D02*
X038687Y009798D01*
X038687Y009639D02*
X042224Y009639D01*
X042224Y009481D02*
X038687Y009481D01*
X038055Y011700D02*
X042224Y011700D01*
X042224Y011858D02*
X038292Y011858D01*
X038467Y012017D02*
X042224Y012017D01*
X042224Y012175D02*
X038601Y012175D01*
X038711Y012334D02*
X042224Y012334D01*
X042224Y012492D02*
X038789Y012492D01*
X038855Y012651D02*
X042224Y012651D01*
X041146Y012809D02*
X038909Y012809D01*
X038945Y012968D02*
X041043Y012968D01*
X041043Y013126D02*
X038955Y013126D01*
X038965Y013285D02*
X041043Y013285D01*
X041043Y013443D02*
X038963Y013443D01*
X038963Y013602D02*
X041043Y013602D01*
X041043Y013760D02*
X038963Y013760D01*
X038963Y013919D02*
X041043Y013919D01*
X040075Y014077D02*
X038963Y014077D01*
X038963Y014236D02*
X040059Y014236D01*
X040059Y014394D02*
X038963Y014394D01*
D30*
X035916Y021274D02*
X035810Y021374D01*
X035810Y022158D01*
X035810Y023721D01*
X035273Y024258D01*
X032678Y024258D01*
X030456Y024258D01*
X028878Y024258D01*
X028328Y023708D01*
X028328Y022951D01*
X028289Y022990D02*
X027463Y022990D01*
X025141Y022991D02*
X024453Y022991D01*
X024106Y022990D01*
X023740Y022990D01*
X017478Y022833D02*
X017452Y022859D01*
X026254Y016582D02*
X026254Y016154D01*
X026254Y015666D01*
X026254Y014247D01*
X025952Y013944D01*
X025952Y013369D01*
D31*
X019517Y022242D02*
X019152Y022242D01*
X019517Y022242D02*
X019578Y022304D01*
X019578Y022991D01*
X019577Y022990D01*
X018129Y022242D02*
X017640Y022242D01*
X017453Y022429D01*
X017453Y022807D01*
X017478Y022833D01*
X017504Y022859D01*
X025113Y023008D02*
X025124Y023008D01*
X025141Y022991D01*
X028289Y022990D02*
X028328Y022951D01*
X031712Y022767D02*
X032417Y022767D01*
X032641Y022991D01*
D32*
X026254Y016582D02*
X026228Y016608D01*
X025141Y022951D02*
X025113Y023008D01*
X017478Y022859D02*
X017478Y022833D01*
X017452Y022859D02*
X016628Y022859D01*
X016641Y022951D01*
D33*
X017478Y022833D03*
X024453Y022991D03*
X027528Y019858D03*
X026228Y016608D03*
M02*
