G75*
%MOIN*%
%OFA0B0*%
%FSLAX24Y24*%
%IPPOS*%
%LPD*%
%AMOC8*
5,1,8,0,0,1.08239X$1,22.5*
%
%ADD10R,0.0474X0.0513*%
%ADD11R,0.0552X0.0552*%
%ADD12R,0.0513X0.0474*%
%ADD13R,0.0710X0.0631*%
%ADD14R,0.0781X0.0482*%
%ADD15R,0.0631X0.0710*%
%ADD16R,0.0394X0.0177*%
%ADD17R,0.1064X0.0867*%
%ADD18R,0.1379X0.0277*%
%ADD19C,0.0434*%
%ADD20R,0.0533X0.0253*%
%ADD21R,0.0533X0.0328*%
%ADD22R,0.0720X0.0720*%
%ADD23OC8,0.0720*%
%ADD24R,0.0630X0.0217*%
%ADD25R,0.0552X0.0297*%
%ADD26C,0.1340*%
%ADD27R,0.0820X0.0820*%
%ADD28OC8,0.0820*%
%ADD29C,0.0400*%
%ADD30C,0.1740*%
%ADD31C,0.0580*%
D10*
X014860Y007337D03*
X015529Y007337D03*
X011294Y010503D03*
X011294Y011172D03*
X008107Y014611D03*
X008107Y015281D03*
X010209Y017904D03*
X010878Y017904D03*
X014146Y017904D03*
X014815Y017904D03*
X018083Y017904D03*
X018752Y017904D03*
X022020Y017904D03*
X022689Y017904D03*
X020994Y015281D03*
X020994Y014611D03*
X019794Y014611D03*
X019794Y015281D03*
X016607Y015281D03*
X016607Y014611D03*
X022460Y010087D03*
X023129Y010087D03*
D11*
X023910Y017904D03*
X024737Y017904D03*
X020800Y017904D03*
X019973Y017904D03*
X016863Y017904D03*
X016036Y017904D03*
X012926Y017904D03*
X012099Y017904D03*
D12*
X016360Y008046D03*
X017029Y008046D03*
X013979Y007337D03*
X013310Y007337D03*
X012529Y007337D03*
X011860Y007337D03*
X025860Y007337D03*
X026529Y007337D03*
D13*
X023385Y010987D03*
X022204Y010987D03*
D14*
X011607Y014595D03*
X011607Y015296D03*
D15*
X013107Y015536D03*
X013107Y014355D03*
D16*
X022643Y007305D03*
X022643Y007049D03*
X022643Y006793D03*
X022643Y006537D03*
X022643Y006281D03*
X022643Y006026D03*
X022643Y005770D03*
X024946Y005770D03*
X024946Y006026D03*
X024946Y006281D03*
X024946Y006537D03*
X024946Y006793D03*
X024946Y007049D03*
X024946Y007305D03*
D17*
X003890Y008691D03*
X001725Y008691D03*
X001725Y012195D03*
X003890Y012195D03*
D18*
X004126Y011073D03*
X004126Y010758D03*
X004126Y010443D03*
X004126Y010128D03*
X004126Y009813D03*
D19*
X002906Y009577D03*
X002906Y011309D03*
D20*
X022411Y012430D03*
X022411Y012745D03*
X023178Y012745D03*
X023178Y012430D03*
X023178Y014430D03*
X023178Y014745D03*
X022411Y014745D03*
X022411Y014430D03*
X022411Y008745D03*
X022411Y008430D03*
X023178Y008430D03*
X023178Y008745D03*
D21*
X023178Y009097D03*
X022411Y009097D03*
X022411Y008078D03*
X023178Y008078D03*
X023178Y012078D03*
X022411Y012078D03*
X022411Y013097D03*
X023178Y013097D03*
X023178Y014078D03*
X022411Y014078D03*
X022411Y015097D03*
X023178Y015097D03*
D22*
X027382Y009604D03*
X016418Y005699D03*
D23*
X017418Y005699D03*
X018418Y005699D03*
X019418Y005699D03*
X020418Y005699D03*
X026382Y009604D03*
X026382Y010604D03*
X027382Y010604D03*
X027382Y011604D03*
X026382Y011604D03*
X026382Y012604D03*
X027382Y012604D03*
X027382Y013604D03*
X026382Y013604D03*
D24*
X019884Y012151D03*
X019884Y011895D03*
X019884Y011639D03*
X019884Y011383D03*
X019884Y011127D03*
X019884Y010871D03*
X019884Y010615D03*
X019884Y010359D03*
X019884Y010104D03*
X019884Y009848D03*
X019884Y009592D03*
X019884Y009336D03*
X019884Y009080D03*
X019884Y008824D03*
X017005Y008824D03*
X017005Y009080D03*
X017005Y009336D03*
X017005Y009592D03*
X017005Y009848D03*
X017005Y010104D03*
X017005Y010359D03*
X017005Y010615D03*
X017005Y010871D03*
X017005Y011127D03*
X017005Y011383D03*
X017005Y011639D03*
X017005Y011895D03*
X017005Y012151D03*
X014934Y012151D03*
X014934Y011895D03*
X014934Y011639D03*
X014934Y011383D03*
X014934Y011127D03*
X014934Y010871D03*
X014934Y010615D03*
X014934Y010359D03*
X014934Y010104D03*
X014934Y009848D03*
X014934Y009592D03*
X014934Y009336D03*
X014934Y009080D03*
X014934Y008824D03*
X012055Y008824D03*
X012055Y009080D03*
X012055Y009336D03*
X012055Y009592D03*
X012055Y009848D03*
X012055Y010104D03*
X012055Y010359D03*
X012055Y010615D03*
X012055Y010871D03*
X012055Y011127D03*
X012055Y011383D03*
X012055Y011639D03*
X012055Y011895D03*
X012055Y012151D03*
D25*
X010619Y014572D03*
X010619Y014946D03*
X010619Y015320D03*
X009595Y015320D03*
X009595Y014572D03*
X014183Y014572D03*
X014183Y014946D03*
X014183Y015320D03*
X015206Y015320D03*
X015206Y014572D03*
X017906Y014572D03*
X017906Y014946D03*
X017906Y015320D03*
X018930Y015320D03*
X018930Y014572D03*
D26*
X008217Y005856D03*
X008217Y017274D03*
X028689Y017274D03*
X028689Y005856D03*
D27*
X029229Y003230D03*
X014103Y003837D03*
X005335Y013951D03*
X009469Y020841D03*
X027367Y022644D03*
X033075Y014770D03*
D28*
X034075Y014770D03*
X034075Y013770D03*
X033075Y013770D03*
X033075Y012770D03*
X034075Y012770D03*
X028367Y020644D03*
X027367Y020644D03*
X027367Y021644D03*
X028367Y021644D03*
X028367Y022644D03*
X009469Y022841D03*
X008469Y022841D03*
X008469Y021841D03*
X009469Y021841D03*
X008469Y020841D03*
X005335Y015951D03*
X004335Y015951D03*
X004335Y014951D03*
X005335Y014951D03*
X004335Y013951D03*
X012103Y003837D03*
X013103Y003837D03*
X013103Y002837D03*
X014103Y002837D03*
X012103Y002837D03*
X029229Y004230D03*
X030229Y004230D03*
X030229Y003230D03*
X031229Y003230D03*
X031229Y004230D03*
D29*
X025307Y018691D03*
X017433Y018691D03*
D30*
X018418Y024006D03*
D31*
X015919Y015321D03*
X018994Y012187D03*
X017694Y008937D03*
X008944Y014572D03*
M02*
