G75*
%MOIN*%
%OFA0B0*%
%FSLAX24Y24*%
%IPPOS*%
%LPD*%
%AMOC8*
5,1,8,0,0,1.08239X$1,22.5*
%
%ADD10C,0.0000*%
D10*
X005327Y002943D02*
X006508Y002943D01*
X006508Y001959D01*
X008969Y001959D01*
X008969Y002943D01*
X010150Y002943D01*
X010150Y004124D01*
X011036Y004124D01*
X011036Y001959D01*
X014678Y001959D01*
X014678Y002943D01*
X015859Y002943D01*
X015859Y004124D01*
X021075Y004124D01*
X021075Y002943D01*
X022256Y002943D01*
X022256Y001959D01*
X025898Y001959D01*
X025898Y004124D01*
X026784Y004124D01*
X026784Y002943D01*
X027965Y002943D01*
X027965Y001959D01*
X032591Y001959D01*
X032591Y005600D01*
X031607Y005600D01*
X031607Y006781D01*
X030426Y006781D01*
X030426Y008652D01*
X031607Y008652D01*
X031607Y009833D01*
X033772Y009833D01*
X033772Y010817D01*
X034953Y010817D01*
X034953Y011998D01*
X036134Y011998D01*
X036134Y013179D01*
X037119Y013179D01*
X037119Y016821D01*
X032296Y016821D01*
X032296Y015640D01*
X031311Y015640D01*
X031311Y014656D01*
X030426Y014656D01*
X030426Y023530D01*
X029244Y023530D01*
X029244Y024514D01*
X028260Y024514D01*
X028260Y025695D01*
X008674Y025695D01*
X008674Y024514D01*
X007689Y024514D01*
X007689Y023530D01*
X006508Y023530D01*
X006508Y018002D01*
X005622Y018002D01*
X005622Y018986D01*
X003162Y018986D01*
X003162Y018002D01*
X001981Y018002D01*
X001981Y013474D01*
X000800Y013474D01*
X000800Y007470D01*
X001981Y007470D01*
X001981Y006486D01*
X003162Y006486D01*
X003162Y005305D01*
X004343Y005305D01*
X004343Y004124D01*
X005327Y004124D01*
X005327Y002943D01*
X007587Y005856D02*
X007589Y005906D01*
X007595Y005956D01*
X007605Y006005D01*
X007619Y006053D01*
X007636Y006100D01*
X007657Y006145D01*
X007682Y006189D01*
X007710Y006230D01*
X007742Y006269D01*
X007776Y006306D01*
X007813Y006340D01*
X007853Y006370D01*
X007895Y006397D01*
X007939Y006421D01*
X007985Y006442D01*
X008032Y006458D01*
X008080Y006471D01*
X008130Y006480D01*
X008179Y006485D01*
X008230Y006486D01*
X008280Y006483D01*
X008329Y006476D01*
X008378Y006465D01*
X008426Y006450D01*
X008472Y006432D01*
X008517Y006410D01*
X008560Y006384D01*
X008601Y006355D01*
X008640Y006323D01*
X008676Y006288D01*
X008708Y006250D01*
X008738Y006210D01*
X008765Y006167D01*
X008788Y006123D01*
X008807Y006077D01*
X008823Y006029D01*
X008835Y005980D01*
X008843Y005931D01*
X008847Y005881D01*
X008847Y005831D01*
X008843Y005781D01*
X008835Y005732D01*
X008823Y005683D01*
X008807Y005635D01*
X008788Y005589D01*
X008765Y005545D01*
X008738Y005502D01*
X008708Y005462D01*
X008676Y005424D01*
X008640Y005389D01*
X008601Y005357D01*
X008560Y005328D01*
X008517Y005302D01*
X008472Y005280D01*
X008426Y005262D01*
X008378Y005247D01*
X008329Y005236D01*
X008280Y005229D01*
X008230Y005226D01*
X008179Y005227D01*
X008130Y005232D01*
X008080Y005241D01*
X008032Y005254D01*
X007985Y005270D01*
X007939Y005291D01*
X007895Y005315D01*
X007853Y005342D01*
X007813Y005372D01*
X007776Y005406D01*
X007742Y005443D01*
X007710Y005482D01*
X007682Y005523D01*
X007657Y005567D01*
X007636Y005612D01*
X007619Y005659D01*
X007605Y005707D01*
X007595Y005756D01*
X007589Y005806D01*
X007587Y005856D01*
X002729Y009577D02*
X002731Y009603D01*
X002737Y009629D01*
X002747Y009654D01*
X002760Y009677D01*
X002776Y009697D01*
X002796Y009715D01*
X002818Y009730D01*
X002841Y009742D01*
X002867Y009750D01*
X002893Y009754D01*
X002919Y009754D01*
X002945Y009750D01*
X002971Y009742D01*
X002995Y009730D01*
X003016Y009715D01*
X003036Y009697D01*
X003052Y009677D01*
X003065Y009654D01*
X003075Y009629D01*
X003081Y009603D01*
X003083Y009577D01*
X003081Y009551D01*
X003075Y009525D01*
X003065Y009500D01*
X003052Y009477D01*
X003036Y009457D01*
X003016Y009439D01*
X002994Y009424D01*
X002971Y009412D01*
X002945Y009404D01*
X002919Y009400D01*
X002893Y009400D01*
X002867Y009404D01*
X002841Y009412D01*
X002817Y009424D01*
X002796Y009439D01*
X002776Y009457D01*
X002760Y009477D01*
X002747Y009500D01*
X002737Y009525D01*
X002731Y009551D01*
X002729Y009577D01*
X002729Y011309D02*
X002731Y011335D01*
X002737Y011361D01*
X002747Y011386D01*
X002760Y011409D01*
X002776Y011429D01*
X002796Y011447D01*
X002818Y011462D01*
X002841Y011474D01*
X002867Y011482D01*
X002893Y011486D01*
X002919Y011486D01*
X002945Y011482D01*
X002971Y011474D01*
X002995Y011462D01*
X003016Y011447D01*
X003036Y011429D01*
X003052Y011409D01*
X003065Y011386D01*
X003075Y011361D01*
X003081Y011335D01*
X003083Y011309D01*
X003081Y011283D01*
X003075Y011257D01*
X003065Y011232D01*
X003052Y011209D01*
X003036Y011189D01*
X003016Y011171D01*
X002994Y011156D01*
X002971Y011144D01*
X002945Y011136D01*
X002919Y011132D01*
X002893Y011132D01*
X002867Y011136D01*
X002841Y011144D01*
X002817Y011156D01*
X002796Y011171D01*
X002776Y011189D01*
X002760Y011209D01*
X002747Y011232D01*
X002737Y011257D01*
X002731Y011283D01*
X002729Y011309D01*
X007587Y017274D02*
X007589Y017324D01*
X007595Y017374D01*
X007605Y017423D01*
X007619Y017471D01*
X007636Y017518D01*
X007657Y017563D01*
X007682Y017607D01*
X007710Y017648D01*
X007742Y017687D01*
X007776Y017724D01*
X007813Y017758D01*
X007853Y017788D01*
X007895Y017815D01*
X007939Y017839D01*
X007985Y017860D01*
X008032Y017876D01*
X008080Y017889D01*
X008130Y017898D01*
X008179Y017903D01*
X008230Y017904D01*
X008280Y017901D01*
X008329Y017894D01*
X008378Y017883D01*
X008426Y017868D01*
X008472Y017850D01*
X008517Y017828D01*
X008560Y017802D01*
X008601Y017773D01*
X008640Y017741D01*
X008676Y017706D01*
X008708Y017668D01*
X008738Y017628D01*
X008765Y017585D01*
X008788Y017541D01*
X008807Y017495D01*
X008823Y017447D01*
X008835Y017398D01*
X008843Y017349D01*
X008847Y017299D01*
X008847Y017249D01*
X008843Y017199D01*
X008835Y017150D01*
X008823Y017101D01*
X008807Y017053D01*
X008788Y017007D01*
X008765Y016963D01*
X008738Y016920D01*
X008708Y016880D01*
X008676Y016842D01*
X008640Y016807D01*
X008601Y016775D01*
X008560Y016746D01*
X008517Y016720D01*
X008472Y016698D01*
X008426Y016680D01*
X008378Y016665D01*
X008329Y016654D01*
X008280Y016647D01*
X008230Y016644D01*
X008179Y016645D01*
X008130Y016650D01*
X008080Y016659D01*
X008032Y016672D01*
X007985Y016688D01*
X007939Y016709D01*
X007895Y016733D01*
X007853Y016760D01*
X007813Y016790D01*
X007776Y016824D01*
X007742Y016861D01*
X007710Y016900D01*
X007682Y016941D01*
X007657Y016985D01*
X007636Y017030D01*
X007619Y017077D01*
X007605Y017125D01*
X007595Y017174D01*
X007589Y017224D01*
X007587Y017274D01*
X028059Y017274D02*
X028061Y017324D01*
X028067Y017374D01*
X028077Y017423D01*
X028091Y017471D01*
X028108Y017518D01*
X028129Y017563D01*
X028154Y017607D01*
X028182Y017648D01*
X028214Y017687D01*
X028248Y017724D01*
X028285Y017758D01*
X028325Y017788D01*
X028367Y017815D01*
X028411Y017839D01*
X028457Y017860D01*
X028504Y017876D01*
X028552Y017889D01*
X028602Y017898D01*
X028651Y017903D01*
X028702Y017904D01*
X028752Y017901D01*
X028801Y017894D01*
X028850Y017883D01*
X028898Y017868D01*
X028944Y017850D01*
X028989Y017828D01*
X029032Y017802D01*
X029073Y017773D01*
X029112Y017741D01*
X029148Y017706D01*
X029180Y017668D01*
X029210Y017628D01*
X029237Y017585D01*
X029260Y017541D01*
X029279Y017495D01*
X029295Y017447D01*
X029307Y017398D01*
X029315Y017349D01*
X029319Y017299D01*
X029319Y017249D01*
X029315Y017199D01*
X029307Y017150D01*
X029295Y017101D01*
X029279Y017053D01*
X029260Y017007D01*
X029237Y016963D01*
X029210Y016920D01*
X029180Y016880D01*
X029148Y016842D01*
X029112Y016807D01*
X029073Y016775D01*
X029032Y016746D01*
X028989Y016720D01*
X028944Y016698D01*
X028898Y016680D01*
X028850Y016665D01*
X028801Y016654D01*
X028752Y016647D01*
X028702Y016644D01*
X028651Y016645D01*
X028602Y016650D01*
X028552Y016659D01*
X028504Y016672D01*
X028457Y016688D01*
X028411Y016709D01*
X028367Y016733D01*
X028325Y016760D01*
X028285Y016790D01*
X028248Y016824D01*
X028214Y016861D01*
X028182Y016900D01*
X028154Y016941D01*
X028129Y016985D01*
X028108Y017030D01*
X028091Y017077D01*
X028077Y017125D01*
X028067Y017174D01*
X028061Y017224D01*
X028059Y017274D01*
X028059Y005856D02*
X028061Y005906D01*
X028067Y005956D01*
X028077Y006005D01*
X028091Y006053D01*
X028108Y006100D01*
X028129Y006145D01*
X028154Y006189D01*
X028182Y006230D01*
X028214Y006269D01*
X028248Y006306D01*
X028285Y006340D01*
X028325Y006370D01*
X028367Y006397D01*
X028411Y006421D01*
X028457Y006442D01*
X028504Y006458D01*
X028552Y006471D01*
X028602Y006480D01*
X028651Y006485D01*
X028702Y006486D01*
X028752Y006483D01*
X028801Y006476D01*
X028850Y006465D01*
X028898Y006450D01*
X028944Y006432D01*
X028989Y006410D01*
X029032Y006384D01*
X029073Y006355D01*
X029112Y006323D01*
X029148Y006288D01*
X029180Y006250D01*
X029210Y006210D01*
X029237Y006167D01*
X029260Y006123D01*
X029279Y006077D01*
X029295Y006029D01*
X029307Y005980D01*
X029315Y005931D01*
X029319Y005881D01*
X029319Y005831D01*
X029315Y005781D01*
X029307Y005732D01*
X029295Y005683D01*
X029279Y005635D01*
X029260Y005589D01*
X029237Y005545D01*
X029210Y005502D01*
X029180Y005462D01*
X029148Y005424D01*
X029112Y005389D01*
X029073Y005357D01*
X029032Y005328D01*
X028989Y005302D01*
X028944Y005280D01*
X028898Y005262D01*
X028850Y005247D01*
X028801Y005236D01*
X028752Y005229D01*
X028702Y005226D01*
X028651Y005227D01*
X028602Y005232D01*
X028552Y005241D01*
X028504Y005254D01*
X028457Y005270D01*
X028411Y005291D01*
X028367Y005315D01*
X028325Y005342D01*
X028285Y005372D01*
X028248Y005406D01*
X028214Y005443D01*
X028182Y005482D01*
X028154Y005523D01*
X028129Y005567D01*
X028108Y005612D01*
X028091Y005659D01*
X028077Y005707D01*
X028067Y005756D01*
X028061Y005806D01*
X028059Y005856D01*
M02*
