G75*
%MOIN*%
%OFA0B0*%
%FSLAX24Y24*%
%IPPOS*%
%LPD*%
%AMOC8*
5,1,8,0,0,1.08239X$1,22.5*
%
%ADD10R,0.0474X0.0513*%
%ADD11R,0.0552X0.0552*%
%ADD12R,0.0513X0.0474*%
%ADD13R,0.0710X0.0631*%
%ADD14R,0.0781X0.0482*%
%ADD15R,0.0631X0.0710*%
%ADD16R,0.0394X0.0177*%
%ADD17R,0.1064X0.0867*%
%ADD18R,0.1379X0.0277*%
%ADD19C,0.0434*%
%ADD20R,0.0533X0.0253*%
%ADD21R,0.0533X0.0328*%
%ADD22R,0.0720X0.0720*%
%ADD23OC8,0.0720*%
%ADD24R,0.0630X0.0217*%
%ADD25R,0.0552X0.0297*%
%ADD26C,0.1340*%
%ADD27C,0.0580*%
D10*
X019828Y018173D03*
X019828Y018842D03*
X016641Y022281D03*
X016641Y022951D03*
X018743Y025574D03*
X019412Y025574D03*
X022680Y025574D03*
X023349Y025574D03*
X025141Y022951D03*
X025141Y022281D03*
X028328Y022281D03*
X028328Y022951D03*
X029528Y022951D03*
X029528Y022281D03*
X030554Y025574D03*
X031223Y025574D03*
X027286Y025574D03*
X026617Y025574D03*
X030994Y017758D03*
X031663Y017758D03*
X024063Y015008D03*
X023394Y015008D03*
D11*
X024570Y025574D03*
X025397Y025574D03*
X028507Y025574D03*
X029334Y025574D03*
X032444Y025574D03*
X033271Y025574D03*
X021460Y025574D03*
X020633Y025574D03*
D12*
X024894Y015716D03*
X025563Y015716D03*
X022513Y015008D03*
X021844Y015008D03*
X021063Y015008D03*
X020394Y015008D03*
X034394Y015008D03*
X035063Y015008D03*
D13*
X031919Y018658D03*
X030738Y018658D03*
D14*
X020141Y022266D03*
X020141Y022966D03*
D15*
X021641Y023207D03*
X021641Y022025D03*
D16*
X031177Y014975D03*
X031177Y014719D03*
X031177Y014463D03*
X031177Y014208D03*
X031177Y013952D03*
X031177Y013696D03*
X031177Y013440D03*
X033480Y013440D03*
X033480Y013696D03*
X033480Y013952D03*
X033480Y014208D03*
X033480Y014463D03*
X033480Y014719D03*
X033480Y014975D03*
D17*
X012582Y017523D03*
X010416Y017523D03*
X010416Y021026D03*
X012582Y021026D03*
D18*
X012818Y019904D03*
X012818Y019589D03*
X012818Y019274D03*
X012818Y018960D03*
X012818Y018645D03*
D19*
X011597Y018408D03*
X011597Y020141D03*
D20*
X030945Y020100D03*
X030945Y020415D03*
X031712Y020415D03*
X031712Y020100D03*
X031712Y022100D03*
X031712Y022415D03*
X030945Y022415D03*
X030945Y022100D03*
X030945Y016415D03*
X030945Y016100D03*
X031712Y016100D03*
X031712Y016415D03*
D21*
X031712Y016767D03*
X030945Y016767D03*
X030945Y015748D03*
X031712Y015748D03*
X031712Y019748D03*
X030945Y019748D03*
X030945Y020767D03*
X031712Y020767D03*
X031712Y021748D03*
X030945Y021748D03*
X030945Y022767D03*
X031712Y022767D03*
D22*
X035916Y017274D03*
X024952Y013369D03*
D23*
X025952Y013369D03*
X026952Y013369D03*
X027952Y013369D03*
X028952Y013369D03*
X034916Y017274D03*
X034916Y018274D03*
X035916Y018274D03*
X035916Y019274D03*
X034916Y019274D03*
X034916Y020274D03*
X035916Y020274D03*
X035916Y021274D03*
X034916Y021274D03*
D24*
X028418Y019821D03*
X028418Y019565D03*
X028418Y019309D03*
X028418Y019053D03*
X028418Y018797D03*
X028418Y018541D03*
X028418Y018286D03*
X028418Y018030D03*
X028418Y017774D03*
X028418Y017518D03*
X028418Y017262D03*
X028418Y017006D03*
X028418Y016750D03*
X028418Y016494D03*
X025539Y016494D03*
X025539Y016750D03*
X025539Y017006D03*
X025539Y017262D03*
X025539Y017518D03*
X025539Y017774D03*
X025539Y018030D03*
X025539Y018286D03*
X025539Y018541D03*
X025539Y018797D03*
X025539Y019053D03*
X025539Y019309D03*
X025539Y019565D03*
X025539Y019821D03*
X023468Y019821D03*
X023468Y019565D03*
X023468Y019309D03*
X023468Y019053D03*
X023468Y018797D03*
X023468Y018541D03*
X023468Y018286D03*
X023468Y018030D03*
X023468Y017774D03*
X023468Y017518D03*
X023468Y017262D03*
X023468Y017006D03*
X023468Y016750D03*
X023468Y016494D03*
X020589Y016494D03*
X020589Y016750D03*
X020589Y017006D03*
X020589Y017262D03*
X020589Y017518D03*
X020589Y017774D03*
X020589Y018030D03*
X020589Y018286D03*
X020589Y018541D03*
X020589Y018797D03*
X020589Y019053D03*
X020589Y019309D03*
X020589Y019565D03*
X020589Y019821D03*
D25*
X019152Y022242D03*
X019152Y022616D03*
X019152Y022990D03*
X018129Y022990D03*
X018129Y022242D03*
X022717Y022242D03*
X022717Y022616D03*
X022717Y022990D03*
X023740Y022990D03*
X023740Y022242D03*
X026440Y022242D03*
X026440Y022616D03*
X026440Y022990D03*
X027463Y022990D03*
X027463Y022242D03*
D26*
X016715Y013251D03*
X016715Y024668D03*
X037188Y024668D03*
X037188Y013251D03*
D27*
X027528Y019858D03*
X026228Y016608D03*
X024453Y022991D03*
X017478Y022833D03*
M02*
