%
M48
M72
T01C0.0200
T02C0.0250
T03C0.0300
T04C0.0354
T05C0.0400
T06C0.1260
%
T01
X15534Y15141
X17109Y17700
X17109Y19078
X19268Y18168
X21228Y18558
X21328Y17908
X21328Y17058
X22128Y16008
X21078Y15758
X20478Y15958
X20456Y13960
X21834Y13960
X23641Y15679
X24266Y15741
X22528Y17958
X22428Y19458
X20758Y20658
X19391Y21241
X18578Y22616
X20978Y23583
X22141Y24991
X23999Y24904
X23999Y25574
X24466Y23595
X23278Y22658
X24466Y22283
X25478Y21158
X25778Y22283
X24678Y19908
X24228Y18458
X26228Y18058
X27728Y17758
X27678Y18958
X27878Y16258
X28028Y15708
X29178Y16100
X29721Y16515
X30278Y16867
X30468Y17758
X32347Y19658
X33119Y19786
X34170Y19274
X33466Y18658
X33660Y17208
X32891Y16558
X33391Y16058
X33791Y15558
X32678Y14908
X32378Y14058
X31141Y12991
X30578Y14058
X30478Y14558
X29733Y14497
X34178Y14158
X34578Y13658
X35613Y12385
X38369Y15141
X36798Y16538
X36008Y15548
X37398Y18805
X37418Y20795
X37438Y22148
X38369Y23408
X35613Y26164
X34241Y25574
X31873Y25574
X31873Y24768
X32641Y22991
X34630Y23068
X30489Y21223
X28328Y21616
X29516Y23679
X27391Y24741
X27936Y25574
X22291Y21658
X20062Y25574
X18290Y26164
X15534Y23408
X18468Y16528
X18290Y12385
T02
X25766Y14679
X33160Y21658
T03
X27528Y19858
X26228Y16608
X24453Y22991
X17478Y22833
T04
X11597Y20141
X11597Y18408
T05
X24952Y13369
X25952Y13369
X26952Y13369
X27952Y13369
X28952Y13369
X34916Y17274
X35916Y17274
X35916Y18274
X34916Y18274
X34916Y19274
X35916Y19274
X35916Y20274
X34916Y20274
X34916Y21274
X35916Y21274
T06
X37188Y24668
X37188Y13251
X16715Y13251
X16715Y24668
M30
